<svg width="181" height="70" viewBox="0 0 181 70" fill="none" xmlns="http://www.w3.org/2000/svg">
<path d="M0 52.4763V42.4357L25.7034 1.13667H45.6329V38.7415H53.5488V52.4763H45.6329V68.8633H29.5217V52.4763H0ZM16.5768 38.7415H29.5217V23.5859L30.0805 16.0081H29.8942C28.9629 18.7866 27.8764 21.1231 26.6347 23.0176L16.5768 38.5521V38.7415Z" fill="#A5BB70"/>
<path d="M102.796 67.3478C99.5057 69.1159 95.5632 70 90.9689 70C86.3746 70 82.4011 69.1159 79.0485 67.3478C75.758 65.5165 73.1814 62.959 71.3188 59.6752C69.4563 56.3915 68.0904 52.6973 67.2212 48.5927C66.352 44.488 65.9174 39.9098 65.9174 34.8579C65.9174 29.806 66.352 25.2594 67.2212 21.2179C68.0904 17.1132 69.4563 13.4506 71.3188 10.23C73.1814 6.94633 75.758 4.42039 79.0485 2.65223C82.4011 0.884075 86.3746 0 90.9689 0C95.5632 0 99.5057 0.884075 102.796 2.65223C106.149 4.42039 108.756 6.94633 110.619 10.23C112.482 13.4506 113.847 17.1132 114.717 21.2179C115.586 25.2594 116.02 29.806 116.02 34.8579C116.02 39.9098 115.586 44.488 114.717 48.5927C113.847 52.6973 112.482 56.3915 110.619 59.6752C108.756 62.959 106.149 65.5165 102.796 67.3478ZM82.6805 34.8579C82.6805 48.1822 85.4433 54.8444 90.9689 54.8444C96.4945 54.8444 99.2573 48.1822 99.2573 34.8579C99.2573 21.7231 96.4945 15.1556 90.9689 15.1556C85.4433 15.1556 82.6805 21.7231 82.6805 34.8579Z" fill="#A5BB70"/>
<path d="M127.451 52.4763V42.4357L153.155 1.13667H173.084V38.7415H181V52.4763H173.084V68.8633H156.973V52.4763H127.451ZM144.028 38.7415H156.973V23.5859L157.532 16.0081H157.345C156.414 18.7866 155.328 21.1231 154.086 23.0176L144.028 38.5521V38.7415Z" fill="#A5BB70"/>
</svg>
