<svg width="28" height="32" viewBox="0 0 28 32" fill="none" xmlns="http://www.w3.org/2000/svg">
<path d="M18.5639 3.95418C18.2423 1.70005 16.2802 0 14.0002 0C12.5338 0 11.1413 0.707573 10.2754 1.89343C10.0986 2.13527 10.1515 2.47452 10.3933 2.65137C10.6344 2.82759 10.9744 2.77531 11.151 2.53315C11.8137 1.62632 12.8787 1.0848 14 1.0848C15.7437 1.0848 17.2439 2.38426 17.4899 4.1072C17.5286 4.3778 17.7608 4.57309 18.0263 4.57309C18.0516 4.57309 18.0776 4.57118 18.1035 4.56768C18.4 4.52526 18.6061 4.25052 18.5639 3.95418Z" fill="white"/>
<path d="M26.3973 10.0258L24.7702 7.31392C24.6723 7.15041 24.4958 7.05063 24.3051 7.05063H22.7458C22.4465 7.05063 22.2035 7.29358 22.2035 7.59295C22.2035 7.89231 22.4465 8.13526 22.7458 8.13526H23.9981L24.9744 9.76238H3.02563L4.0019 8.13526H4.57632C4.87568 8.13526 5.11864 7.89231 5.11864 7.59295C5.11864 7.29358 4.87568 7.05063 4.57632 7.05063H3.69491C3.50423 7.05063 3.3277 7.15041 3.22981 7.31392L1.6027 10.0258C1.50212 10.1936 1.49973 10.4023 1.59587 10.5723C1.692 10.7423 1.87219 10.8475 2.06779 10.8475H25.9322C26.1278 10.8475 26.3078 10.7423 26.4041 10.5723C26.5004 10.4023 26.4979 10.1933 26.3973 10.0258Z" fill="white"/>
<path d="M23.6937 5.02483C23.6177 4.90232 23.4965 4.81541 23.3563 4.78267L15.9627 3.05339C15.8227 3.02049 15.6752 3.04496 15.5529 3.1206C15.4308 3.19655 15.3438 3.31779 15.311 3.45794L14.7534 5.84141C14.6851 6.13299 14.8663 6.42473 15.158 6.49273C15.4496 6.56106 15.7416 6.37992 15.8096 6.08818L16.2438 4.23304L22.5811 5.7154L21.5853 9.97308C21.5169 10.2647 21.6981 10.5564 21.9898 10.6244C22.0316 10.6341 22.0731 10.6387 22.1141 10.6387C22.3604 10.6387 22.5833 10.47 22.6413 10.22L23.7607 5.43431C23.7938 5.29432 23.7696 5.14687 23.6937 5.02483Z" fill="white"/>
<path d="M14.2863 6.30699L13.7921 2.12718C13.7753 1.98433 13.7023 1.85387 13.5892 1.76489C13.4761 1.67591 13.3332 1.63523 13.1897 1.65207L4.11826 2.72432C3.82096 2.75959 3.60835 3.02908 3.64347 3.3267L4.46736 10.298C4.50009 10.574 4.73415 10.777 5.00538 10.777C5.02652 10.777 5.04829 10.7755 5.0699 10.7731C5.36704 10.7379 5.57964 10.4684 5.54468 10.1708L4.78436 3.73761L12.7787 2.7928L13.209 6.43395C13.2442 6.73141 13.5125 6.94274 13.8114 6.90905C14.1087 6.8741 14.3213 6.60445 14.2863 6.30699Z" fill="white"/>
<path d="M18.576 10.0989L17.4995 5.62213C17.4658 5.48246 17.378 5.36154 17.2554 5.28638C17.1329 5.21185 16.986 5.1885 16.8453 5.22186L8.10801 7.32313C7.81675 7.39305 7.63751 7.68606 7.70743 7.97732L8.24545 10.2149C8.31537 10.5065 8.60838 10.6859 8.89948 10.6155C9.19074 10.5456 9.36998 10.2526 9.30006 9.96132L8.88867 8.25094L16.5714 6.40359L17.5211 10.3528C17.5807 10.6015 17.8032 10.7684 18.048 10.7684C18.0901 10.7684 18.1327 10.7634 18.1755 10.7531C18.4667 10.683 18.646 10.3902 18.576 10.0989Z" fill="white"/>
<path d="M26.474 10.2774C26.4591 9.98913 26.2211 9.76286 25.9322 9.76286H2.06778C1.77891 9.76286 1.54088 9.98897 1.52594 10.2774L0.441144 31.4299C0.433517 31.5783 0.487225 31.7235 0.589555 31.8313C0.692044 31.9388 0.834099 32 0.982827 32H27.0167C27.1653 32 27.3075 31.939 27.4104 31.8313C27.5126 31.7235 27.5663 31.5784 27.5588 31.4299L26.474 10.2774ZM1.55359 30.9152L2.58277 10.8475H25.4166L26.4458 30.9152H1.55359Z" fill="white"/>
<path d="M18.0675 13.5592H18.0257C17.7263 13.5592 17.4834 13.8022 17.4834 14.1016C17.4834 14.1756 17.498 14.2463 17.5251 14.3107V17.0845C17.5251 19.0283 15.9436 20.61 13.9997 20.61C12.0557 20.61 10.4742 19.0285 10.4742 17.0845V14.1017C10.4742 13.8023 10.2312 13.5594 9.93188 13.5594C9.63252 13.5594 9.38956 13.8023 9.38956 14.1017V17.0847C9.38956 19.6268 11.4576 21.6948 13.9997 21.6948C16.5417 21.6948 18.6098 19.6268 18.6098 17.0847V14.1017C18.6098 13.8023 18.3668 13.5592 18.0675 13.5592Z" fill="white"/>
</svg>
