<svg width="53" height="60" viewBox="0 0 53 60" fill="none" xmlns="http://www.w3.org/2000/svg">
<path d="M22.068 9.91214L21.6308 7.9165C12.5102 9.96928 5.30997 17.2761 3.28687 26.5315L5.25452 26.9743C7.10826 18.4916 13.708 11.7941 22.068 9.91214Z" fill="#441A00"/>
<path d="M31.7056 53.8168L32.1427 55.8135C41.2634 53.7597 48.4627 46.4539 50.4867 37.1985L48.5191 36.7549C46.6653 45.2384 40.0656 51.9357 31.7056 53.8168Z" fill="#441A00"/>
<path d="M24.6449 55.763L22.8814 35.6135C22.8436 35.1662 22.472 34.8275 22.0374 34.8275H18.4097C18.3593 31.466 15.6511 28.75 12.3256 28.75C9.00015 28.75 6.29191 31.466 6.24153 34.8275H2.61376C2.17288 34.8275 1.80759 35.1662 1.7698 35.6135L0.00629836 55.763C0.00629836 55.7886 0 55.8142 0 55.8397C0 58.134 2.07211 60 4.62289 60H20.0283C22.5791 60 24.6512 58.134 24.6512 55.8397C24.6512 55.8142 24.6512 55.7886 24.6449 55.763ZM12.3256 30.4755C14.7126 30.4755 16.6588 32.4182 16.7092 34.8275H7.94205C7.99243 32.4182 9.93858 30.4755 12.3256 30.4755ZM20.0283 58.2745H4.62289C3.02314 58.2745 1.72571 57.2009 1.70052 55.8781L3.38844 36.5593H6.23523V39.1794C6.23523 39.6587 6.61312 40.0422 7.08549 40.0422C7.55786 40.0422 7.93575 39.6587 7.93575 39.1794V36.5593H16.7092V39.1794C16.7092 39.6587 17.0871 40.0422 17.5594 40.0422C18.0318 40.0422 18.4097 39.6587 18.4097 39.1794V36.5593H21.2565L22.9507 55.8781C22.9255 57.2009 21.6218 58.2745 20.0283 58.2745Z" fill="#6F7A27"/>
<path d="M52.9935 27.013L51.23 6.8635C51.1923 6.41616 50.8207 6.07745 50.3861 6.07745H46.7583C46.7079 2.716 43.9997 0 40.6742 0C37.3488 0 34.6405 2.716 34.5902 6.07745H30.9624C30.5215 6.07745 30.1562 6.41616 30.1184 6.8635L28.3549 27.013C28.3549 27.0386 28.3486 27.0642 28.3486 27.0897C28.3486 29.384 30.4207 31.25 32.9715 31.25H48.3769C50.9277 31.25 52.9998 29.384 52.9998 27.0897C52.9998 27.0642 52.9998 27.0386 52.9935 27.013ZM40.6742 1.72546C43.0613 1.72546 45.0074 3.6682 45.0578 6.07745H36.2907C36.3411 3.6682 38.2872 1.72546 40.6742 1.72546ZM48.3769 29.5245H32.9715C31.3718 29.5245 30.0743 28.4509 30.0492 27.1281L31.7371 7.80931H34.5839V10.4294C34.5839 10.9087 34.9618 11.2922 35.4341 11.2922C35.9065 11.2922 36.2844 10.9087 36.2844 10.4294V7.80931H45.0578V10.4294C45.0578 10.9087 45.4357 11.2922 45.9081 11.2922C46.3804 11.2922 46.7583 10.9087 46.7583 10.4294V7.80931H49.6051L51.2993 27.1281C51.2741 28.4509 49.9704 29.5245 48.3769 29.5245Z" fill="#6F7A27"/>
<path d="M47.0697 12.2917C47.0697 13.0183 46.4925 13.5833 45.81 13.5833C45.1275 13.5833 44.5503 13.0183 44.5503 12.2917C44.5503 11.565 45.1275 11 45.81 11C46.4925 11 47.0697 11.565 47.0697 12.2917Z" stroke="#6F7A27" stroke-width="2"/>
<path d="M36.7984 12.2917C36.7984 13.0183 36.2213 13.5833 35.5387 13.5833C34.8562 13.5833 34.2791 13.0183 34.2791 12.2917C34.2791 11.565 34.8562 11 35.5387 11C36.2213 11 36.7984 11.565 36.7984 12.2917Z" stroke="#6F7A27" stroke-width="2"/>
<path d="M18.721 41.4582C18.721 42.1848 18.1439 42.7498 17.4614 42.7498C16.7788 42.7498 16.2017 42.1848 16.2017 41.4582C16.2017 40.7315 16.7788 40.1665 17.4614 40.1665C18.1439 40.1665 18.721 40.7315 18.721 41.4582Z" stroke="#6F7A27" stroke-width="2"/>
<path d="M8.44981 41.4582C8.44981 42.1848 7.87262 42.7498 7.19011 42.7498C6.5076 42.7498 5.93042 42.1848 5.93042 41.4582C5.93042 40.7315 6.5076 40.1665 7.19011 40.1665C7.87262 40.1665 8.44981 40.7315 8.44981 41.4582Z" stroke="#6F7A27" stroke-width="2"/>
</svg>
