<svg width="42" height="52" viewBox="0 0 42 52" fill="none" xmlns="http://www.w3.org/2000/svg">
<path d="M35.8413 6.09009C31.8758 2.16287 26.605 0 21 0C15.3949 0 10.1242 2.16287 6.15872 6.0902C2.19366 10.0172 0.00645375 15.2398 0 20.8003C0.00399518 24.8481 1.13801 28.6457 3.46669 32.4104C5.48323 35.6703 8.10294 38.5146 10.8764 41.526C13.5959 44.4785 16.4078 47.5317 18.6535 51.054C19.0289 51.6429 19.6827 52 20.3854 52H21.6146C22.3173 52 22.9711 51.6429 23.3465 51.0539C25.5922 47.5316 28.4041 44.4784 31.1236 41.5259C33.8971 38.5146 36.5168 35.6703 38.5333 32.4103C40.8621 28.6456 41.996 24.8479 42 20.7958C41.9936 15.2397 39.8063 10.0171 35.8413 6.09009Z" fill="#697F34"/>
</svg>
