<svg width="300" height="50" viewBox="0 0 300 50" fill="none" xmlns="http://www.w3.org/2000/svg">
<path fill-rule="evenodd" clip-rule="evenodd" d="M38.8183 79.353C41.6617 78.6828 44.589 78.0622 47.8273 77.1981C37.8085 75.4471 28.2389 73.7478 18.8939 72.0744C17.107 74.2224 15.177 76.713 12.936 79.447C18.2971 80.2632 19.5902 76.5425 22.1645 74.3255C21.7647 75.1571 21.3081 76.062 20.9083 76.8936C20.9923 76.9432 21.0762 76.9927 21.1601 77.0423C22.0955 75.993 23.0877 74.8705 24.0231 73.8213C24.1909 73.9204 24.302 74.0927 24.5538 74.2414C22.9619 76.6113 21.1454 78.9554 18.0182 79.9918C15.5673 80.7869 13.2619 80.9206 11.1415 78.9214C8.76938 76.7737 5.85917 75.1623 3.68446 72.9176C1.4826 70.55 1.33675 67.5813 2.37075 64.6685C2.71623 63.5913 3.37025 62.5895 3.77249 61.439C5.66285 56.7897 5.64031 52.3991 2.33005 47.9893C0.994586 46.24 0.451388 43.784 0.187125 41.5994C-0.185778 38.9237 0.115164 36.3255 0.107565 33.6519C0.104593 26.7105 3.40674 21.1865 9.45368 16.8558C10.3299 16.1987 11.3171 15.7139 12.4155 15.4014C16.725 14.1021 17.737 14.059 20.2153 17.0168C21.3286 18.4214 22.4987 19.7527 23.839 20.8643C24.8165 21.6549 26.6333 22.941 27.1689 22.7234C28.6078 21.9714 29.9381 20.7283 30.5107 19.358C31.3399 17.4988 31.7494 15.3917 32.1023 13.358C32.64 9.19137 34.1849 5.61931 37.86 2.77101C38.9064 1.89411 39.5357 0.45064 39.8269 -0.872171C40.7324 -5.3555 43.7361 -8.60017 47.6629 -11.2998C48.623 -11.9074 49.472 -12.6874 50.6024 -13.5147C51.0715 -12.3837 51.3999 -11.2289 52.1231 -10.2681C53.0118 -8.88937 54.0683 -7.41152 55.268 -6.27623C56.6083 -5.16463 56.2381 -4.52907 55.0238 -3.75127C53.3578 -2.7063 51.6646 -1.78412 50.2504 -0.590515C44.7638 3.96416 42.6958 9.78973 42.4494 16.2637C42.3435 19.0838 40.6973 21.2081 38.4637 22.9856C36.2868 24.6898 35.0355 26.6202 35.0431 29.2938C35.1075 31.8942 33.1009 33.3786 30.4797 34.3935C28.1398 35.361 26.3502 34.1977 24.8988 32.9138C22.4995 30.6432 20.2137 28.2261 18.1501 26.1537C16.1386 28.2758 13.8753 30.2494 12.4241 32.5956C11.2864 34.3795 10.6226 36.6567 10.8325 38.5956C11.3168 45.0739 13.0673 51.3387 16.3381 57.22C18.1674 60.542 17.2741 63.4311 15.1713 66.4603C13.693 68.6837 12.6614 71.2776 11.7434 73.725C11.4275 74.6062 11.672 75.7114 11.6918 76.7907C16.2778 76.0817 18.0992 73.0999 16.2132 69.8512C15.9638 69.3837 15.944 68.3044 16.1415 68.2074C18.1407 67.6795 17.5902 66.18 17.7678 65.0037C18.1255 62.3323 18.7475 61.8454 21.8378 61.9615C22.3438 61.9399 23.0201 61.6986 23.4446 61.3087C24.3208 60.6515 25.197 59.9944 25.8214 59.1886C29.8221 54.1837 35.6447 53.4574 41.8228 54.0086C47.6924 54.4844 51.6566 57.8924 52.7134 63.0004C53.148 64.9652 53.4419 66.9536 55.9102 67.5567C56.2752 63.9287 56.4428 60.3977 56.9757 56.8688C57.3309 54.5162 56.6718 52.5255 55.0278 50.7009C53.7466 49.1972 52.2064 48.5014 49.8986 48.9539C42.3853 50.2836 37.5299 45.8157 39.2942 39.277C39.9876 36.8037 41.4659 34.5803 42.5518 32.232C43.265 30.8381 44.1461 29.5432 44.4669 28.0244C44.9283 26.4818 44.3482 25.1784 42.102 24.92C41.1197 24.7671 40.2261 24.0261 38.5748 23.1579C43.3112 21.1498 47.2579 19.5295 51.2045 17.9091C51.5994 17.7152 52.5546 17.7453 52.8336 18.0168C54.1986 19.57 55.6772 20.9767 56.6474 22.7239C58.3112 25.6279 57.4771 28.1249 54.819 30.2924C52.8963 31.8264 50.9168 33.4337 49.4138 35.2154C46.889 38.3157 48.3602 40.679 52.6871 40.7779C53.4177 40.7821 54.289 40.7627 54.9925 40.6442C60.5041 40.1613 64.4708 43.2505 64.3774 48.1065C64.3701 49.063 64.0813 50.067 63.9333 51.0472C63.5979 54.4792 61.4359 57.9005 63.3195 61.468C63.596 62.0583 63.4208 62.9158 63.1073 63.4781C61.6833 65.9471 63.2953 68.2867 63.4732 70.7405C63.4707 71.0594 64.9271 71.7056 65.322 71.5117C69.2414 69.7686 73.1338 67.9026 76.9422 65.9872C77.5913 65.6231 78.075 64.841 78.3613 64.1559C79.5903 61.465 78.2548 59.7157 75.1029 60.3105C71.2475 61.0238 68.5101 58.8739 65.2568 58.0209C63.2377 57.4695 63.5338 55.509 64.3038 54.0418C68.5462 46.8308 73.5983 40.3114 82.6689 37.4455C82.6442 37.0039 82.7306 36.7346 82.6467 36.685C78.3097 34.2314 77.1321 30.2265 75.757 26.3185C74.9324 23.91 73.5451 21.5962 72.101 19.3557C70.4619 16.8934 70.916 16.3073 73.4582 14.6052C76.3113 12.6597 79.13 11.5479 82.9262 11.2266C86.3842 11.0261 89.4498 10.7006 92.244 12.7773C92.4415 12.6803 92.6118 12.4606 92.8092 12.3636C92.2834 11.3058 91.8711 10.1016 91.2046 9.06749C89.9012 6.8033 88.3436 4.70932 87.2648 2.47097C85.6059 -1.07075 87.094 -4.56955 87.9354 -8.02308C88.2241 -9.02704 88.5696 -10.1043 88.493 -11.1103C88.4186 -16.0654 91.7283 -18.9159 96.2969 -21.0231C98.5529 -22.0401 100.389 -23.3048 100.1 -25.931C100.382 -25.9784 100.606 -25.9526 100.888 -26C101.162 -25.0909 101.633 -24.2787 101.626 -23.3221C101.653 -19.5692 99.4961 -16.7856 96.332 -14.5966C94.4957 -13.3319 94.4316 -12.3021 95.7695 -10.8716C97.1913 -9.39163 98.4428 -7.69189 100.062 -6.30886C103.913 -2.75434 107.509 0.97041 108.512 5.83281C112.821 4.53347 116.879 3.08549 121.075 1.93266C123.272 1.30777 124.017 3.02909 124.427 4.55222C125.546 8.94926 126.523 13.37 127.667 18.2087C129.7 16.847 131.677 15.5586 133.459 14.0483C134.081 13.5613 134.034 12.3592 134.209 11.5017C134.619 9.39471 134.663 7.28556 135.465 5.30349C136.64 2.36699 138.516 -0.36918 137.642 -3.66103C137.587 -3.90663 137.814 -4.19965 138.634 -4.78353C140.907 -0.772189 143.097 3.18961 145.566 7.42285C146.104 6.88637 146.528 6.49641 146.812 6.13014C148.52 3.29487 150.837 1.56693 154.69 1.17246C156.265 1.03449 157.958 0.112324 159.37 -0.762436C163.578 -3.50951 168.28 -4.68391 174.29 -4.23182C173.439 -3.13304 173.037 -1.98257 172.02 -1.30173C168.572 1.25356 166.607 4.57789 165.482 8.39768C163.982 13.4907 162.425 18.657 160.781 24.0927C161.798 23.4118 162.588 23.024 163.24 22.341C166.833 19.1243 168.043 18.9842 169.892 23.3855C170.222 24.2214 170.58 25.1801 171.249 25.8953C174.927 29.9884 175.369 34.6268 174.489 39.5518C174.402 39.8211 174.457 40.0667 174.452 40.7044C175.839 39.388 176.861 38.0694 178.216 37.2679C179.768 36.3694 181.711 35.9148 183.431 35.1154C184.361 34.7039 185.517 34.3182 186.252 33.6847C188.629 31.5647 190.699 29.0504 194.849 30.3256C195.073 30.3514 196.149 29.2785 196.011 28.9833C194.935 26.4261 193.718 23.8926 192.303 21.4561C191.832 20.6439 190.825 20.0494 189.82 19.136C195.608 19.2434 201.029 19.6675 206.298 21.3907C207.476 21.7655 208.737 22.1898 210.001 22.2953C215.194 23.0124 219.437 26.6919 219.544 31.1321C219.559 32.8491 218.618 34.5361 218.1 36.1519C219.986 35.7705 221.941 33.7215 221.76 31.5865C221.632 30.016 221.533 28.2494 220.672 26.9934C218.867 24.1131 218.58 21.1681 219.306 18.1799C220.293 14.065 219.197 10.4285 217.286 6.7381C216.373 4.91769 216.108 2.73315 215.452 0.423684C223.2 5.10474 229.484 10.0961 231.025 18.0522C231.561 17.8346 231.758 17.7376 231.815 17.6643C230.425 12.0393 233.722 7.15299 234.83 1.935C235.585 -1.24922 234.371 -4.10157 232.396 -6.76213C230.838 -8.8561 229.337 -11.0233 228.231 -13.3845C230.586 -12.6349 232.998 -11.9585 235.38 -11.0861C236.108 -10.763 236.89 -10.1943 237.11 -9.53078C238.539 -5.3772 239.771 -1.12667 241.144 3.10017C241.445 4.1321 241.944 5.06708 242.386 6.07531C246.513 2.95984 250.385 0.0145714 254.314 -3.00394C253.873 3.24811 254.105 9.57769 258.055 14.8988C261.069 14.0089 264.223 13.0953 267.434 12.1084C260.022 14.8858 258.497 15.907 258.48 18.139C260.565 17.3417 262.51 16.5682 264.737 15.7473C262.698 17.7467 259.186 17.7016 258.095 20.6876C259.418 20.401 260.46 20.1618 261.36 19.9464C261.444 19.9959 261.471 20.1187 261.471 20.1187C260.173 20.847 258.791 21.5257 256.9 22.5448C258.416 22.7989 258.949 22.9002 259.791 23.0768C258.465 23.6822 257.394 24.1175 256.407 24.6023C256.461 24.8479 256.516 25.0935 256.654 25.3886C257.273 25.2205 257.836 25.1257 258.851 24.7637C258.085 25.5932 257.774 25.8366 257.18 26.4464C260.021 26.095 262.523 25.8644 264.858 25.5347C268.205 25.1618 271.609 24.7156 273.598 21.8329C273.882 21.4667 274.39 21.1262 274.896 21.1047C278.833 20.7597 282.77 20.4148 286.707 20.0699C288.141 19.9556 289.575 19.8414 290.898 19.5548C292.221 19.2682 293.379 18.5636 294.786 18.3266C296.896 17.971 297.972 16.898 298.49 15.2822C295.18 14.5025 292.122 13.8714 288.98 13.1908C286.371 12.6114 283.846 12.0816 281.321 11.5518C281.294 11.429 281.35 11.3557 281.323 11.2329C283.485 11.4418 285.677 11.4546 287.81 11.8595C291.009 12.4668 294.178 13.2702 297.347 14.0737C298.273 14.2998 299.112 14.7953 300.065 15.1442C299.638 15.8531 299.406 16.7838 298.841 17.1974C297.456 18.195 295.877 18.9707 293.816 20.2096C292.624 25.378 286.858 29.6612 279.772 30.2821C274.823 30.6702 269.956 31.4266 264.133 32.153C266.508 33.9819 268.352 35.3908 270.447 36.9483C267.853 38.0859 265.385 37.4828 262.806 36.7074C261.404 36.3068 260.145 35.5636 258.743 35.1629C256.64 34.562 254.591 34.2066 252.251 35.1741C248.783 36.65 245.708 34.6208 242.852 33.255C241.956 32.8328 241.117 32.3374 240.137 31.8656C242.225 30.7495 241.2 28.7568 242.054 27.3391C241.886 27.24 241.718 27.1409 241.467 26.9923C238.527 29.2072 235.531 31.4953 232.789 33.6132C235.153 33.0874 237.715 32.4647 240.221 31.9151C237.261 33.0507 234.218 34.1366 231.202 35.3454C231.229 35.4682 231.199 35.6643 231.226 35.7871C233.475 35.7266 235.697 35.5434 237.972 35.6057C239.209 35.5884 240.386 35.9632 241.677 36.1915C239.147 36.2994 236.701 36.4568 233.468 36.6832C234.164 37.5212 234.524 38.161 235.028 38.4583C240.767 41.3125 246.562 44.0935 252.301 46.9478C254.345 47.9408 256.473 48.9835 258.517 49.9765C254.399 48.1864 257.768 44.9439 256.803 42.5591C257.61 43.5694 258.474 44.5065 259.365 45.5664C259.62 45.3962 259.847 45.1032 260.101 44.933C258.035 43.1795 256.026 41.3526 253.762 39.696C250.269 37.1002 245.718 36.9755 241.536 36.2152C246.041 35.1378 250.106 36.3634 253.631 38.4444C256.233 39.9803 258.324 42.1755 260.471 44.2975C264.07 47.7033 267.499 51.329 271.152 54.9805C270.73 55.0516 270.111 55.2197 269.605 55.2412C266.146 55.4418 262.745 55.5691 259.287 55.7696C255.605 55.9443 252.179 55.63 249.273 53.381C248.491 52.8122 247.624 52.194 246.558 51.9915C242.098 50.9598 238.914 48.4394 235.843 45.7724C231.879 42.3644 227.149 39.7859 221.447 39.4091C219.228 39.2735 216.948 39.8489 214.527 40.4479C221.704 42.5502 224.726 47.964 227.609 53.0827C230.132 57.5615 231.162 62.5467 228.511 67.3878C227.684 68.9282 225.989 70.1692 224.686 71.5352C224.034 72.2182 223.383 72.9011 222.647 73.5346C221.006 75.0212 219.503 76.803 217.471 77.8458C214.453 79.3734 211.101 80.384 207.211 81.9311C209.891 76.894 210.997 71.9948 215.491 68.5626C216.113 68.0757 216.572 66.852 216.466 66.042C216.009 63.3167 214.849 60.7099 214.757 57.9868C214.557 54.7725 215.144 51.4891 215.45 48.2532C215.936 43.5222 213.673 41.8656 208.41 42.8159C203.007 43.79 199.643 46.3949 197.95 50.9472C196.174 55.4499 192.829 59.1341 188.424 61.9782C187.972 62.2453 187.547 62.6353 186.671 63.2925C189.848 63.1393 190.682 64.2725 190.357 66.429C190.238 67.2132 190.821 68.1978 191.406 68.8634C193.326 71.2784 195.501 73.5231 197.478 75.8648C198.954 77.5904 200.685 79.1458 201.766 81.0653C203.124 83.5751 201.594 85.2341 198.36 85.4604C197.938 85.5316 197.321 85.3808 197.067 85.551C194.547 88.0136 190.78 88.1388 187.401 89.0266C184.36 89.7937 181.073 89.7745 177.726 90.1474C178.41 92.5796 179.432 94.8912 179.666 97.2718C179.847 99.4068 179.689 101.662 178.887 103.645C178.082 105.945 177.391 108.1 177.71 110.53C178.7 116.987 175.26 122.216 171.484 127.246C168.81 124.067 166.078 121.279 163.994 118.127C163.106 116.748 162.982 114.54 163.416 112.875C163.996 110.548 163.137 108.973 161.802 107.224C160.271 105.253 159.109 102.965 157.776 100.897C156.986 101.285 155.66 101.89 154.024 102.739C153.879 107.03 150.458 109.709 145.581 111.74C146.615 112.458 147.37 112.904 148.012 113.496C148.765 114.261 149.602 115.075 149.96 116.034C150.843 118.05 151.332 120.261 152.216 122.277C153.596 125.547 151.039 129.163 147.13 129.63C145.217 129.889 143.328 130.589 141.413 131.167C139.076 131.815 136.825 132.195 134.786 130.564C134.423 130.243 133.947 130.068 133.413 129.967C130.049 128.942 127.052 127.6 125.672 124.33C125.334 124.45 125.08 124.62 124.685 124.814C124.5 126.947 124.231 129.031 124.271 131.189C124.338 137.101 124.292 143.159 122.085 148.689C119.766 154.366 115.207 158.828 109.866 162.722C107.465 164.4 105.201 166.374 102.884 168.102C102.516 168.418 102.037 168.563 101.331 169C101.309 168.24 100.976 167.722 101.176 167.307C102.632 164.323 102.992 161.332 101.723 158.235C100.563 155.628 101.424 153.254 102.539 150.709C103.282 149.119 103.408 147.378 103.758 145.664C104.289 142.453 100.219 141.866 99.115 139.186C91.2119 143.702 82.7385 145.639 73.6404 144.752C73.5022 144.457 73.3911 144.284 73.2528 143.989C74.2969 143.431 75.2298 142.701 76.3578 142.192C78.8679 141.005 80.5956 139.249 81.2322 136.849C81.9552 134.18 82.9868 131.586 85.5586 129.688C86.2373 129.127 86.4693 128.197 86.4494 127.117C84.2182 128.576 82.0709 130.084 80.3482 131.202C79.6075 128.843 79.0076 126.461 78.1262 124.125C77.0819 121.053 77.7506 118.138 79.1499 115.228C80.4061 112.66 81.0451 109.941 82.2174 107.323C82.9331 105.61 83.8166 103.997 84.9247 102.409C87.6247 98.451 87.6247 98.4511 83.5149 95.7044C81.2785 94.1706 79.7752 92.3223 80.6389 89.6292C81.7375 92.9469 83.2039 95.9479 87.6369 96.8568C87.9455 96.9322 88.2516 97.3264 88.5305 97.5979C90.2313 99.3493 91.9888 101.027 94.1635 103.272C93.7216 102.264 93.6401 101.896 93.3365 101.182C94.4522 102.268 95.2619 102.96 96.0715 103.651C95.6321 102.324 95.0223 101.217 94.8075 99.9156C93.8914 94.7839 93.0592 89.7018 92.2838 84.5464C92.7257 85.5546 93.365 86.4659 93.5256 87.5215C93.9577 89.8051 94.0516 92.2094 94.6244 94.4694C95.1701 96.6065 96.1378 98.6725 96.8809 100.713C97.0783 100.616 97.3597 100.568 97.5572 100.471C98.3467 96.4533 99.5855 92.4871 97.0306 88.5231C96.5862 87.8337 96.8182 86.903 96.712 86.093C96.5612 83.7619 97.2275 81.1659 96.203 79.1731C94.433 75.459 91.7325 72.1565 89.4269 68.6601C89.2294 68.757 89.0319 68.854 88.6938 68.9747C89.2196 70.0324 89.6887 71.1635 90.2145 72.2212C90.0738 72.245 90.017 72.3182 89.9331 72.2687C89.432 71.6525 88.847 70.9869 88.3187 70.2479C88.0621 70.737 87.7782 71.1033 87.5216 71.5923C86.7959 70.9504 86.238 70.4075 85.7073 69.9874C85.5098 70.0844 85.3124 70.1813 85.1149 70.2783C86.722 73.2555 88.4426 76.0863 89.825 79.0377C90.6545 80.8086 91.2865 82.6764 92.0592 84.5205C91.3582 84.3202 90.7139 84.0466 89.6205 83.7214C90.7506 79.2639 85.9694 76.1209 84.5967 71.8941C84.5918 72.5318 84.5869 73.1695 84.6339 74.3716C83.1453 70.6102 81.7924 67.4627 80.5778 64.6103C79.9412 67.0104 79.2157 69.9985 78.4631 72.8639C78.0139 72.8122 77.424 72.7842 76.9747 72.7326C77.493 71.1167 77.9273 69.4514 78.4455 67.8356C78.2209 67.8097 77.9962 67.7839 77.7149 67.8313C77.5125 68.566 77.2263 69.2511 77.0239 69.9857C76.2344 74.0037 76.5703 77.832 78.9031 81.4513C80.4311 83.7413 81.8456 86.1778 80.1945 88.9398C80.7274 85.4109 78.3034 82.6987 76.7803 79.771C76.5309 79.3035 75.5782 78.9545 74.9882 78.9265C72.9643 79.0128 70.9946 79.3447 68.9139 79.5043C68.8522 80.2152 68.7634 80.8034 68.6746 81.3915C68.1564 83.0073 67.1099 83.8842 64.9477 83.6754C63.6839 83.5699 62.2474 84.003 61.1466 84.6343C59.5374 85.606 58.128 86.1619 55.993 86.0758C53.7172 86.0135 51.291 87.2503 49.0647 88.0712C46.246 89.183 43.7062 90.5663 41.0554 91.7772C35.3292 94.589 29.2106 97.2758 23.008 99.9131C19.8784 101.268 19.7944 101.219 17.4494 99.1939C16.746 99.3124 15.8155 99.724 15.2552 99.4999C13.9099 99.026 12.6511 98.2828 11.4193 97.6624C12.1844 96.833 12.7274 95.6588 13.7147 95.174C16.9875 93.4762 20.5392 92.0498 24.2612 90.4036C20.8279 91.0458 17.7599 91.6901 14.5808 92.1621C13.1739 92.3992 11.572 92.4144 10.2268 91.9405C9.3579 91.6411 8.80493 90.4605 8.19274 89.672C8.98256 89.2842 9.69089 88.5279 10.535 88.3857C14.304 87.9417 18.1002 87.6205 21.8964 87.2993C17.7596 88.06 13.6229 88.8207 9.4861 89.5815C9.39973 89.8508 9.39729 90.1696 9.31092 90.4389C10.5451 90.7405 11.8607 91.4104 13.1541 91.3198C16.2196 90.9943 19.3148 90.4728 22.3261 89.9017C26.4357 89.0182 30.4342 87.9623 34.5166 86.956C30.1751 88.7703 25.9742 90.5608 21.6327 92.375C18.4191 93.6808 14.8155 94.5427 12.4066 97.1777C13.6285 99.0734 15.0922 98.7631 16.6718 97.9875C21.5243 95.514 26.3496 92.9177 31.3131 90.6165C34.8944 88.9941 38.7251 87.8391 42.4447 86.5118C38.3277 88.3519 34.1836 90.0691 30.0667 91.9092C30.1778 92.0815 30.316 92.3767 30.4271 92.549C39.2387 90.4911 47.8848 88.0152 56.0348 84.2855C55.9237 84.1132 55.8694 83.8676 55.7583 83.6953C54.4082 83.8591 53.058 84.0229 51.7079 84.1867C53.5689 83.3636 55.3732 82.6138 57.1503 81.7412C57.096 81.4956 56.9009 81.2737 56.8466 81.0281C55.299 81.2888 53.7514 81.5496 52.3446 81.7867C52.3174 81.6639 52.2902 81.5411 52.2631 81.4183C54.0106 80.7417 55.758 80.0651 57.5895 79.4381C57.4512 79.143 57.2562 78.9211 57.2019 78.6755C54.4696 79.518 51.6805 80.4337 48.9753 81.3991C48.6372 81.5197 48.4941 81.8623 48.267 82.1553C47.9264 82.5948 47.613 83.1571 47.2181 83.351C43.7255 84.3853 40.3465 85.2731 36.9108 86.2342C37.7574 85.7731 38.6607 85.2387 39.7615 84.6075C38.9198 84.4308 38.3867 84.3296 37.9375 84.2779C37.9671 84.0819 38.0534 83.8126 38.083 83.6165C39.2381 83.2308 40.3093 82.7956 41.4645 82.4099C46.196 81.0394 50.9276 79.669 55.7159 78.2253C56.3355 78.0572 56.6217 77.3721 57.103 76.9089C56.3453 76.7818 55.5899 76.3359 54.9704 76.504C53.2821 76.7884 51.6753 77.4413 49.9871 77.7258C46.0206 78.2667 42.3355 78.7603 38.8183 79.353ZM120.44 66.3639C119.791 66.7281 119.142 67.0922 118.041 67.7235C119.614 67.9044 120.428 67.9582 121.327 68.0616C117.834 69.0959 115.793 71.4141 113.441 73.9758C117.95 72.2606 121.981 70.6899 126.095 69.1687C126.068 69.0458 126.098 68.8498 126.071 68.727C124.498 68.5461 122.842 68.3157 121.27 68.1348C122.255 67.9689 123.267 67.9257 124.252 67.7598C124.814 67.665 125.239 67.275 125.831 66.9841C125.271 66.7601 124.824 66.3896 124.291 66.2883C123.252 66.2087 122.099 66.2755 120.946 66.3424C122.102 65.9567 123.313 65.4977 124.525 65.0388C123.886 64.1275 123.415 63.3153 122.832 62.3308C121.788 62.8889 121.025 63.3995 120.179 63.8606C120.29 64.0329 120.374 64.0825 120.485 64.2548C121.272 64.1858 121.976 64.0673 122.763 63.9983C122.79 64.1211 122.874 64.1707 122.817 64.2439C121.689 64.7524 120.505 65.3341 119.32 65.9159C119.796 66.0904 120.048 66.239 120.44 66.3639ZM142.791 32.1554C141.917 32.4937 140.313 32.8277 140.31 33.1465C140.325 34.8636 140.846 36.559 141.142 38.2287C142.199 36.0764 139.772 33.683 142.791 32.1554C143.168 34.1934 143.63 36.281 144.035 38.4418C144.176 38.4181 144.316 38.3944 144.457 38.3707C144.247 36.4317 144.037 34.4928 143.773 32.3083C144.921 32.8791 145.676 33.325 146.74 33.8463C146.639 32.3986 146.621 31.0004 146.52 29.5527C146.295 29.5268 146.044 29.3782 145.819 29.3523C144.856 30.2788 143.81 31.1557 142.791 32.1554ZM76.3476 70.227C76.6635 69.3459 76.9794 68.4647 77.3816 67.3143C73.8842 68.9863 70.8656 70.5139 67.9038 71.9683C67.9877 72.0178 68.0149 72.1406 68.0988 72.1901C70.8854 71.5932 73.6449 70.8735 76.3476 70.227C73.1069 71.41 69.8661 72.5929 66.5686 73.8491C66.6229 74.0947 66.7612 74.3899 66.8155 74.6355C68.9258 74.2799 71.0362 73.9243 73.2304 73.6182C75.4247 73.3122 76.5847 72.2888 76.3476 70.227ZM200.995 27.7615C201.362 27.4448 201.814 27.1776 202.493 26.6174C200.052 26.1372 197.919 25.7322 195.786 25.3273C195.757 25.5234 195.67 25.7927 195.557 25.9392C196.482 26.1654 197.408 26.3915 198.277 26.6909C199.314 27.0894 200.126 27.4621 200.995 27.7615C199.674 27.7293 198.354 27.697 196.5 27.5636C201.77 32.9169 209.325 33.4271 215.745 35.4023C214.645 36.0336 213.996 36.3977 213.43 36.8114C212.611 37.3953 212.043 38.1278 211.197 38.5889C208.714 39.8989 206.147 41.1593 203.58 42.4198C206.28 42.0922 208.813 41.6655 211.318 41.116C211.656 40.9953 211.883 40.7023 212.194 40.4588C213.354 39.4354 214.571 38.3388 215.647 37.2659C216.185 36.7294 216.95 35.8999 216.785 35.482C216.454 34.6461 215.674 33.7585 214.805 33.4591C211.665 32.4596 208.355 31.6799 205.159 30.7537C206.03 30.7343 206.817 30.6653 207.689 30.6459C207.662 30.5231 207.691 30.327 207.664 30.2042C205.726 30.0212 203.789 29.8382 202.244 29.7801C201.688 28.9184 201.355 28.4013 200.995 27.7615ZM63.7504 82.2212C63.4419 82.1458 63.1901 81.9972 62.7137 81.8227C64.2119 80.6786 66.6924 79.6875 66.9268 78.4379C67.2476 76.9191 65.8011 74.9974 64.8013 73.4463C63.6065 71.6733 61.8392 71.2706 59.8598 72.8779C60.3584 73.8128 60.941 74.7974 61.7458 76.1266C59.618 75.084 59.919 72.4858 56.9941 72.7875C57.9643 74.5347 58.9369 75.963 59.5146 77.5852C60.1219 79.0114 60.2503 80.5819 60.5195 82.1288C60.3788 82.1525 60.0974 82.1999 59.9567 82.2236C59.4926 80.4549 59.0284 78.6861 58.6185 77.163C58.2608 79.8345 57.9303 82.6287 57.5109 86.0111C59.8828 84.5288 61.8031 83.3136 63.7504 82.2212C64.6809 81.8097 65.6386 81.5209 66.8777 81.1848C66.3668 81.8441 66.083 82.2103 65.6856 82.7231C68.0749 82.6389 68.3044 82.0271 67.312 79.5194C66.068 80.4933 64.9376 81.3206 63.7504 82.2212ZM105.122 88.8157C104.761 91.806 108.192 91.4826 109.666 93.5271C110.241 91.838 110.614 90.8836 110.986 89.9292C108.854 89.5243 106.946 89.1452 105.122 88.8157C107.765 88.5613 110.379 88.503 113.052 88.0526C116.851 87.4125 120.676 86.8952 123.369 83.894C124.305 82.8448 125.938 82.3147 127.293 81.5132C128.338 80.9552 129.354 80.2743 130.398 79.7163C130.287 79.5439 130.12 79.4449 130.008 79.2725C129.557 79.5397 129.021 79.7573 128.288 80.0719C129.053 79.2424 129.648 78.6327 130.159 77.9734C129.991 77.8743 129.907 77.8248 129.796 77.6524C128.949 78.1135 128.103 78.5746 127.256 79.0357C127.172 78.9861 127.088 78.9366 127.145 78.8633C127.881 78.2299 128.616 77.5965 129.636 76.5968C128.056 77.3724 126.928 77.8809 125.8 78.3894C125.773 78.2666 125.689 78.2171 125.662 78.0943C126.086 77.7043 126.427 77.2648 127.049 76.7779C125.867 77.0408 125.106 77.2326 124.205 77.4481C124.178 77.3253 124.067 77.1529 124.04 77.0301C124.689 76.666 125.281 76.3751 126.382 75.7438C125.37 75.787 124.724 75.8322 124.077 75.8775C124.418 75.438 124.785 75.1213 125.126 74.6818C124.452 74.6043 124.003 74.5526 123.188 74.4988C123.894 74.0614 124.346 73.7942 124.741 73.6003C124.714 73.4775 124.63 73.428 124.602 73.3052C123.082 73.6887 121.421 74.096 119.901 74.4796C119.733 74.3805 119.622 74.2081 119.454 74.109C119.965 73.4498 120.335 72.8142 120.846 72.1549C118.649 72.7798 116.758 73.7989 114.895 74.9409C113.088 76.0096 111.615 77.5952 109.699 78.1727C106.77 79.1122 104.679 80.5472 102.947 82.9408C104.018 82.5055 104.892 82.1672 106.103 81.7083C105.733 82.3439 105.647 82.6132 105.42 82.9062C106.35 82.4946 107.308 82.2059 108.238 81.7943C108.266 81.9171 108.35 81.9667 108.377 82.0895C107.417 82.6971 106.597 83.281 105.637 83.8886C105.748 84.0609 105.832 84.1104 105.943 84.2828C109.33 82.4385 112.716 80.5941 116.159 78.6765C116.243 78.7261 116.27 78.8489 116.354 78.8984C115.505 79.6783 114.515 80.482 113.666 81.2619C113.834 81.361 113.945 81.5334 114.113 81.6324C116.12 80.148 117.985 78.6872 119.992 77.2027C117.946 80.1586 115.399 82.4984 111.484 83.6038C108.668 84.3968 105.988 85.8038 103.31 86.8919C104.006 87.7299 104.564 88.2728 105.122 88.8157ZM99.1807 24.346C98.961 23.6824 98.6006 23.0426 98.3808 22.3791C97.0378 17.9562 93.8584 14.798 89.6622 12.3207C88.9908 11.9243 87.9812 11.6486 87.1371 11.7909C82.635 12.5495 77.5824 11.8086 73.9568 15.5402C72.7672 16.7597 72.5081 17.5676 73.1722 18.9205C75.1644 22.9792 77.2405 27.0876 79.092 31.17C80.6941 34.785 85.4211 37.6824 90.5649 37.5162C89.7873 36.3098 88.7827 35.3964 88.4815 34.3645C88.0964 33.283 88.3308 32.0334 88.4516 30.9304C88.4245 30.8076 89.9721 30.5468 90.5324 30.7708C91.9887 31.4171 92.0653 32.4231 91.6334 33.7697C91.3447 34.7736 92.0655 36.0533 92.3939 37.208C92.7024 37.2834 93.0678 37.2855 93.2924 37.3114C93.9735 36.4324 95.2742 35.3853 95.1113 34.6485C94.5681 32.1925 94.2519 29.4435 90.3792 28.7586C89.4536 28.5325 88.7624 27.0568 88.2365 25.999C88.0983 25.7038 88.9473 24.9239 89.3447 24.4111C90.1839 24.9066 91.0231 25.4021 91.8624 25.8975C92.0302 25.9966 92.1709 25.9729 92.3388 26.072C95.1425 23.2431 95.3672 23.269 98.5514 25.7894C99.5289 26.58 100.62 27.2242 101.738 27.9911C102.728 23.5573 99.1506 17.2817 94.0534 15.0199C97.5413 18.2534 99.5952 21.6013 100.126 25.6515C99.7633 25.3305 99.43 24.8135 99.1807 24.346ZM158.872 78.8034C158.764 78.3122 158.514 77.8447 158.487 77.7219C157.169 77.3708 155.708 77.3623 155.291 76.7957C154.957 76.2787 155.725 75.1304 156.041 74.2492C156.529 72.8294 156.991 71.2869 157.396 69.8175C157.312 69.768 157.087 69.7422 157.003 69.6926C155.066 73.1397 153.128 76.5869 151.05 80.0577C150.883 79.9586 150.658 79.9328 150.406 79.7841C151.677 75.3029 155.977 71.6489 155.594 66.6184C154.298 70.6579 151.549 73.7324 148.071 76.4837C147.081 77.2874 146.371 78.3625 145.576 79.388C143.332 82.4409 143.488 87.7644 145.631 90.524C146.327 91.362 146.401 92.687 146.927 93.7447C147.203 94.335 147.505 95.367 148.038 95.4682C149.862 95.7977 150.472 96.905 151.192 98.1847C152.854 101.408 155.522 101.595 158.156 98.9858C159.061 98.1326 159.942 96.8377 161.181 96.5016C163.914 95.6591 164.743 93.7998 165.686 91.794C166.855 89.4952 167.885 87.2201 169.138 84.9709C170.079 83.2839 170.737 81.6444 169.289 80.0416C168.047 80.6966 167.198 81.4765 166.016 81.7394C165.115 81.9549 164.021 81.6297 162.982 81.55C163.298 80.6689 163.167 79.4172 163.873 78.9798C166.302 77.4242 165.894 75.5822 165.433 73.4946C162.241 75.5609 161.4 75.3843 160.044 72.5556C159.832 74.5657 159.563 76.649 159.294 78.7323L158.872 78.8034ZM4.16879 46.4057C4.11203 46.4789 4.08242 46.675 3.96889 46.8215C3.964 47.4592 3.7345 48.071 3.92706 48.6118C6.2525 53.1876 6.75142 57.7527 4.21438 62.4472C3.33086 64.0609 2.95088 65.9719 2.25993 68.1263C3.49897 67.7902 3.83712 67.6695 4.45664 67.5014C4.16792 68.5054 3.85205 69.3865 3.53618 70.2677C3.70403 70.3668 4.01256 70.4422 4.18041 70.5413C5.43169 68.6109 6.54227 66.7042 7.79354 64.7738C7.96139 64.8729 8.12924 64.972 8.35385 64.9978C7.07298 67.1243 5.87602 69.3002 4.59515 71.4267C4.763 71.5258 4.84692 71.5753 5.07154 71.6012C6.2932 69.8668 7.65556 68.1088 8.87723 66.3744C8.96115 66.424 9.129 66.5231 9.21292 66.5726C8.04558 68.5526 7.01892 70.5088 5.90834 72.4155C6.16011 72.5641 6.46865 72.6395 6.72043 72.7882C7.85817 71.0043 9.07983 69.2699 10.2176 67.486C10.3854 67.5851 10.4694 67.6347 10.6372 67.7337C9.49701 69.8365 8.32966 71.8164 7.18948 73.9192C7.2734 73.9687 7.44125 74.0678 7.52518 74.1174C7.97929 73.5313 8.51734 72.9949 9.39597 72.0189C8.81854 74.0268 7.56972 75.6384 10.0627 76.6831C10.1491 76.4138 10.2626 76.2673 10.2922 76.0712C10.7412 72.4928 11.6098 69.1621 14.2185 66.1113C16.2596 63.7931 17.069 60.8544 15.4052 57.9504C12.1615 52.1919 10.6356 45.9529 9.81322 39.5953C9.36129 36.2324 9.2475 32.7487 11.9673 29.8703C12.0241 29.7971 12.2487 29.8229 12.4462 29.7259C12.3302 30.1913 12.2142 30.6567 12.155 31.0488C12.4068 31.1974 12.6314 31.2232 12.8832 31.3719C13.821 30.0038 15.1513 28.7606 15.6967 27.2676C16.7282 24.6737 18.8459 23.3615 21.8004 22.8637C22.2225 22.7926 22.7013 22.6482 23.1801 22.5039C23.153 22.3811 23.1258 22.2583 23.0986 22.1355C21.3289 22.0515 19.4184 21.9913 17.6487 21.9074C17.6511 21.5885 17.6536 21.2697 17.7128 20.8776C19.0901 20.8366 20.4674 20.7956 21.8447 20.7546C21.1263 19.156 19.8082 18.805 17.8929 19.3824C17.2166 19.6238 16.3206 19.2016 15.506 19.1477C15.5356 18.9517 15.5381 18.6328 15.5677 18.4368C16.8339 18.2234 17.9594 18.0338 19.0849 17.8441C18.221 16.907 18.221 16.907 12.8452 18.0039C14.2569 17.1291 15.301 16.5711 16.4585 15.8666C13.2276 15.7741 9.47839 17.2975 7.15592 19.6631C5.54179 21.2725 4.88044 23.2309 3.91055 25.1139C0.914498 31.0321 -0.0972261 34.7054 1.45822 40.7484C1.80126 39.99 2.06036 39.1821 2.34663 38.497C2.57125 38.5229 2.65518 38.5724 2.87979 38.5982C2.32952 40.729 1.77925 42.8597 1.31291 45.0399C1.62144 45.1153 1.84606 45.1412 2.1546 45.2166C2.75674 43.6503 3.33172 41.9612 3.93387 40.3949C4.24241 40.4703 4.60771 40.4725 4.91625 40.5479C4.6498 42.3123 4.29944 44.0272 4.11692 45.8412C3.97623 45.8649 4.11447 46.1601 4.16879 46.4057ZM154.241 63.4709C153.816 56.6006 149.869 50.9606 145.132 45.7085C142.15 42.4534 140.096 42.7357 137.12 46.1032C136.184 47.1524 134.434 48.1478 133 48.2621C130.638 48.4691 128.693 49.2426 127.612 50.9532C126.418 52.8104 125.811 55.0143 124.7 56.921C123.276 59.39 123.822 61.5272 125.125 63.7913C126.179 65.588 126.416 67.6498 127.47 69.4465C128.497 71.1204 129.635 72.9666 131.257 74.0308C133.913 75.8124 137.08 76.9346 139.933 78.6192C142.199 79.9569 143.863 79.2308 145.447 77.8174C146.891 76.4278 148.392 74.9649 149.752 73.5257C152.388 70.5977 154.94 67.6202 154.241 63.4709ZM181.561 55.3646C182.778 54.2679 183.319 53.4126 182.262 51.9348C181.734 51.1958 182.139 49.7265 182.679 48.8712C182.992 48.3089 184.962 47.977 185.325 48.298C186.135 48.9895 186.744 50.0968 186.737 51.0534C186.757 52.1327 186.522 53.3823 185.841 54.2613C184.449 56.2154 182.638 57.9218 181.078 59.7768C182.342 59.8823 184.129 61.3644 185.047 58.917C185.908 56.5428 186.95 56.3036 189.1 58.1067C189.546 58.4772 190.077 58.8973 190.467 59.3411C190.778 59.0976 191.116 58.977 191.146 58.7809C195.011 53.162 198.876 47.5432 202.684 41.9976C204.787 38.9684 203.009 36.2109 201.568 33.6516C201.012 32.7898 199.329 32.4366 198.181 31.8658C197.67 32.525 197.413 33.0141 197.016 33.5269C196.791 33.501 196.567 33.4752 196.399 33.3761C196.712 32.8138 196.969 32.3247 197.083 32.1782C192.632 29.8711 190.085 32.2109 187.511 34.4279C187.143 34.7446 186.803 35.1841 186.408 35.3781C185.759 35.7422 184.942 36.0072 184.208 36.3218C182.602 36.9747 180.968 37.5047 179.472 38.33C174.674 41.0491 174.242 46.0257 171.431 49.8111C172.305 49.4729 173.068 48.9622 173.741 49.0397C174.583 49.2163 175.788 49.7139 176.148 50.3538C176.481 50.8708 176.22 51.9976 175.682 52.534C174.038 54.3395 172.226 56.0459 170.499 57.8018C170.637 58.0969 170.832 58.3188 170.97 58.614C172.715 58.2563 175.638 58.2733 175.981 57.515C176.82 54.3803 178.76 54.2445 181.561 55.3646ZM170.999 47.5275C171.308 47.6029 171.532 47.6287 171.841 47.7041C173.329 44.2053 174.116 40.5062 174.229 36.7295C174.33 34.5471 174.039 32.2398 173.239 30.2729C172.163 27.7157 170.41 25.3998 168.996 22.9633C167.83 20.9943 167.324 21.0158 165.234 22.4508C163.595 23.6185 161.566 24.3425 159.789 25.2151C158.745 25.7732 157.309 26.2063 156.6 26.9625C154.159 30.1124 151.269 33.2105 151.63 37.4805C151.682 38.045 151.228 38.631 150.914 39.1933C149.912 41.5912 149.866 44.0192 151.507 46.1627C154.316 49.9564 155.943 54.013 155.571 58.5976C155.507 59.6274 155.724 60.6098 155.744 61.6891C158.928 60.5795 159.471 59.4053 159.636 56.1931C159.858 52.9076 158.34 49.3422 161.089 46.2677C161.684 45.658 162.701 44.9772 163.374 45.0547C164.189 45.1085 165.391 45.925 165.611 46.5885C165.831 47.252 165.147 48.4499 164.357 48.8377C162.439 49.7341 162.289 51.0332 162.531 52.4572C164.217 52.4916 165.762 52.5497 167.588 52.5603C167.766 51.384 168.114 49.988 168.237 48.5661C168.299 47.8551 168.417 47.0709 168.027 46.6271C165.909 44.3091 165.801 43.8179 168.511 42.2149C169.217 41.7775 170.313 41.784 171.157 41.6417C171.347 42.5013 171.789 43.5095 171.754 44.3433C171.774 45.4226 171.345 46.4503 170.999 47.5275ZM112.654 44.6848C112.931 48.9052 120.4 53.3148 124.374 51.8173C123.954 51.5696 123.535 51.3218 122.836 50.8027C126.205 51.1903 126.995 50.8025 129.377 48.0447C128.37 47.4502 127.39 46.9784 126.383 46.3838C126.439 46.3106 126.553 46.1641 126.526 46.0413C128.18 46.5906 129.833 47.1398 131.487 47.6891C131.601 47.5426 131.687 47.2733 131.801 47.1268C130.71 46.4827 129.562 45.9119 128.471 45.2678C130.687 45.7222 132.951 47.3788 134.471 46.9952C136.273 46.5643 137.527 44.315 138.943 42.8026C139 42.7293 139.03 42.5333 139.146 42.0679C137.247 40.4134 135.265 38.7094 133.199 36.9559C133.256 36.8826 133.313 36.8094 133.313 36.8094C135.492 38.4164 137.672 40.0235 139.936 41.6801C140.133 41.5831 140.33 41.4861 140.528 41.3892C138.748 38.9505 137.166 36.4149 135.188 34.0732C134.408 33.1856 133.093 32.5157 131.832 32.0913C129.282 31.1198 126.646 30.4177 124.039 29.5194C120.228 28.1236 116.429 28.7637 113.186 30.2654C108.139 32.5171 107.591 37.9591 111.526 41.5631C112.168 42.1556 112.809 42.748 113.982 43.7605C112.442 43.0647 111.63 42.692 110.817 42.3194C110.704 42.4659 110.647 42.5391 110.534 42.6856C111.876 43.4784 113.135 44.2216 114.421 45.0876C114.365 45.1608 114.308 45.2341 114.251 45.3073C113.888 44.9863 113.271 44.8356 112.654 44.6848ZM90.607 39.356C86.9687 37.4216 83.402 37.131 80.2601 40.0805C78.9866 41.2504 77.0984 41.9507 75.5459 42.8491C74.3883 43.5537 72.8383 44.1333 72.1004 45.0856C69.773 48.0889 67.6974 51.2409 65.6218 54.3929C64.9111 55.468 64.8445 56.8166 66.5822 57.4154C69.5812 58.4386 72.3804 59.8776 76.0087 59.4573C78.5683 59.1534 81.2612 59.7823 83.843 60.2389C87.464 60.7751 89.7199 59.7581 91.5685 56.8992C92.336 55.7508 93.2171 54.456 94.5425 53.8506C97.3908 52.5427 98.4199 50.2676 99.1972 47.8439C99.2268 47.6478 99.0318 47.4259 99.0343 47.1071C98.2469 47.1761 97.4867 47.3678 96.9239 47.4627C97.0301 48.2727 97.3313 49.3046 97.0203 49.5481C95.9467 50.3022 94.6509 50.7116 93.4662 51.2933C93.1625 50.5803 92.6071 49.7185 92.7527 49.0571C93.3325 46.7304 94.221 44.479 94.9687 42.2513C93.1916 43.1239 91.8933 43.8522 90.4001 44.3585C90.2594 44.3823 88.9486 43.0746 89.1214 42.536C89.1855 41.5062 89.9802 40.4807 90.607 39.356ZM106.937 42.591C106.629 42.5157 106.18 42.464 105.871 42.3886C105.466 43.8579 105.118 45.254 104.798 46.7728C104.213 49.7373 104.248 52.5337 106.872 54.8301C107.234 55.1511 106.97 56.5967 106.773 56.6937C105.225 56.9544 103.567 57.0428 102.049 57.1076C101.97 56.4203 101.891 55.7331 101.896 55.0954C101.984 54.5072 102.69 54.0698 102.638 53.5054C102.668 49.6792 102.613 45.8035 102.502 42.001C99.2586 43.5028 101.058 47.0208 99.691 49.4165C98.3237 51.8123 97.46 54.5053 96.4853 57.026C96.3742 56.8537 96.152 56.509 95.9595 55.9682C95.4955 57.8296 95.0613 59.495 94.4246 61.895C95.0566 63.7629 96.5575 65.9301 99.9514 66.7593C100.793 66.9359 101.741 67.9226 101.904 68.6594C102.613 71.5333 104.76 73.6553 106.964 75.704C107.969 76.6174 109.003 77.3347 110.358 76.5332C111.657 75.805 111.637 74.7256 111 73.4955C110.39 72.3882 110.119 71.1602 109.706 69.9559C109.847 69.9322 109.988 69.9085 110.128 69.8848C110.765 71.1149 111.402 72.345 112.093 73.8207C113.313 72.4052 114.191 71.4293 114.956 70.5998C113.122 67.9155 111.456 65.3303 109.817 62.868C109.957 62.8443 110.071 62.6978 110.212 62.6741C112.075 65.1623 113.996 67.5772 116.193 70.5825C117.718 65.9311 120.586 62.0724 116.794 58.1258C116.599 57.9039 116.518 57.5355 116.52 57.2166C116.989 54.7175 115.513 52.9919 113.896 51.2901C113.338 50.7472 112.894 50.0578 112.59 49.3447C111.235 46.5161 109.88 43.6875 108.581 40.7856C108.3 40.833 108.018 40.8804 107.68 41.0011C108.06 42.7202 108.243 44.5364 108.905 46.2081C109.428 47.5848 109.7 48.8128 108.315 49.8103C107.636 50.3705 106.819 50.6355 105.973 51.0966C105.699 50.1875 105.059 49.2762 105.235 48.4188C105.812 46.4108 106.417 44.5257 106.937 42.591ZM108.697 33.0599C112.211 29.156 117.034 26.8785 116.848 21.7511C116.824 21.3095 117.475 20.6265 118.068 20.3356C118.998 19.9241 120.04 19.6849 121.898 19.1806C120.704 21.0378 119.793 22.5287 118.715 23.9205C117.495 25.336 115.968 26.6761 114.24 28.432C123.797 28.0954 125.631 27.1495 126.558 19.7965C127.19 14.4041 125.121 9.33923 123.474 4.20326C123.119 2.92573 122.023 2.91932 120.811 3.37828C119.12 3.9816 117.4 4.78097 115.685 4.94264C109.948 5.39969 107.026 9.01276 106.012 13.0049C104.852 17.6584 102.345 22.1569 103.093 27.1895C103.305 28.8096 103.547 30.2337 105.618 31.3495C105.162 28.6243 104.562 26.2415 104.327 23.8609C104.305 23.1004 104.791 21.9995 105.44 21.6354C106.089 21.2713 107.718 21.3789 108.192 21.8722C108.834 22.4646 109.16 23.9382 108.706 24.5243C106.776 27.0148 108.02 29.6711 108.697 33.0599ZM133.754 100.168C134.152 99.6549 134.803 98.972 135.371 98.2394C140.137 92.4051 138.774 86.9029 131.635 83.3291C128.276 81.6661 125.714 82.2889 123.221 84.8743C122.088 86.0205 120.311 86.8931 118.62 87.4964C115.493 88.5329 111.894 88.7571 111.191 92.5058C111.102 93.094 110.564 93.6304 110.056 93.9708C108.39 95.0158 108.521 96.2675 109.185 97.6204C109.987 99.2685 111.071 100.869 112.071 102.42C111.873 102.517 111.733 102.541 111.619 102.687C110.286 100.619 108.896 98.6244 107.479 96.5067C107.198 96.5541 106.917 96.6015 106.692 96.5757C106.82 98.1462 106.527 99.7879 107.077 101.287C107.598 102.983 108.823 104.56 109.709 106.257C111.012 108.522 112.864 108.974 114.678 106.949C116.916 104.533 119.925 104.281 122.963 103.833C125.945 103.458 128.403 101.706 128.731 99.2308C127.865 98.6126 126.325 97.9168 126.411 97.6475C127.011 96.4001 127.919 95.228 128.6 94.349C128.44 93.2934 127.803 92.0632 128.284 91.6C130.379 89.5274 128.479 88.1918 127.422 86.7139C127.116 86.3197 126.669 85.9491 126.279 85.5054C126.701 85.4342 127.01 85.5096 127.178 85.6087C129.133 87.1899 130.323 89.6006 133.267 90.3782C133.576 90.4536 133.68 91.5825 133.618 92.2934C133.643 92.7351 133.134 93.0755 133.075 93.4676C133.226 95.7986 133.49 97.9832 133.754 100.168ZM182.551 83.9209C186.424 84.6058 189.373 88.3758 194.562 86.1005C190.837 84.4354 187.616 83.0675 184.394 81.6996C186.919 82.2295 189.274 82.9791 191.486 84.0712C193.865 85.2625 196.173 84.8099 198.538 84.2841C199.382 84.1419 200.088 83.7045 200.905 83.4395C200.46 82.7501 200.13 81.9142 199.488 81.3218C199.014 80.8285 198.229 80.5786 197.474 80.1327C198.093 79.9646 198.572 79.8203 199.332 79.6285C196.792 77.3816 194.474 75.4794 192.297 73.5535C192.606 73.6289 193.196 73.6568 194.01 73.7106C192.396 71.6899 191.033 69.8178 190.031 68.5856C188.491 67.8898 186.975 67.6357 186.672 66.9226C185.845 64.8329 183.959 65.2143 181.91 64.8589C183.803 67.1511 185.615 69.0749 187.146 71.0461C187.536 71.4898 187.556 72.5692 187.215 73.0087C186.109 74.2777 184.475 74.8078 182.938 73.7931C182.35 73.4463 181.684 72.4122 181.913 71.8004C182.75 68.9846 182.224 67.9268 179.17 66.658C175.224 68.2783 171.126 67.5676 166.6 67.8846C167.918 68.2357 168.562 68.5092 169.32 68.6363C171.566 68.8947 173.785 69.0303 176.001 69.4847C176.843 69.6614 178.102 70.4046 178.154 70.969C178.203 71.8523 177.576 72.9769 176.952 73.7827C176.782 74.0025 175.153 73.8948 174.93 73.5501C173.042 70.6203 169.436 71.8011 166.75 70.2156C167.197 74.2163 170.083 75.3859 173.393 76.1656C174.01 76.3164 174.716 75.879 175.419 75.7605C176.545 75.5709 178.068 74.8684 178.739 75.2648C180.445 76.3785 179.142 77.7445 178.374 78.8928C177.634 80.1639 176.424 80.304 175.052 79.7074C173.371 79.0353 171.69 78.3632 169.281 77.368C171.466 81.9675 171.821 86.8752 177.513 88.5273C180.934 89.4793 184.533 89.2551 188.366 87.7813C186.187 86.1742 184.397 85.0109 182.551 83.9209ZM112.292 117.604C110.63 118.012 109.053 118.468 107.395 118.557C106.972 118.628 106.419 117.447 105.918 116.831C107.019 116.2 108.011 115.077 109.164 115.011C112.257 114.808 118.36 110.404 118.634 107.683C118.666 107.168 118.249 106.602 118.14 106.11C117.521 106.278 116.817 106.397 116.393 106.787C114.754 107.955 113.254 109.418 111.447 110.486C108.596 112.113 105.442 113.027 101.796 112.049C100.31 111.599 98.2294 111.758 96.9879 112.413C95.3515 113.262 94.142 113.402 92.4315 112.926C89.8792 112.273 89.0031 112.931 88.4528 115.061C88.1345 116.261 87.5348 117.509 86.9079 118.633C85.8541 120.467 85.8419 122.061 87.2341 123.737C87.708 124.23 88.0117 124.944 88.0068 125.581C87.9848 128.451 90.9765 130.431 94.1037 129.394C97.7098 128.213 101.345 126.836 104.897 125.41C108.984 123.766 110.947 120.761 112.292 117.604ZM122.315 115.087C121.488 116.628 120.94 118.44 119.778 119.782C119.21 120.515 117.663 120.775 116.453 120.915C115.947 120.937 114.72 119.679 114.834 119.532C115.318 118.75 116.083 117.921 116.929 117.46C119.045 116.466 119.787 114.876 119.079 112.003C117.24 113.586 115.179 114.825 113.874 116.51C112.682 118.048 112.385 120.009 111.529 121.745C109.76 125.291 107.738 128.689 103.619 130.848C102.237 131.527 101.299 132.895 100.391 134.067C98.8013 136.118 99.9665 138.087 101.077 139.81C102.245 141.46 104.012 141.863 106.293 141.288C107.194 141.072 108.455 141.497 109.351 141.919C111.395 142.912 113.108 143.069 115.223 142.076C120.836 139.411 122.136 134.733 122.99 129.686C122.427 129.78 122.146 129.828 121.808 129.948C120.68 130.457 119.211 131.405 118.577 129.856C118.246 129.02 119.351 127.751 119.949 126.823C120.176 126.53 120.795 126.361 121.274 126.217C122.711 125.784 123.024 125.222 121.908 124.136C121.434 123.643 121.079 122.365 121.363 121.999C123.599 119.902 122.69 117.444 122.315 115.087ZM39.6726 15.5852C41.0743 12.3557 42.249 9.4192 43.6755 6.63134C44.8724 4.45535 46.2668 2.18239 48.0513 0.35322C49.8924 -1.54921 52.405 -3.05525 54.5252 -4.68624C53.0811 -6.92672 51.637 -9.16721 50.1385 -11.6533C48.3022 -10.3886 46.4955 -9.31988 44.9678 -7.97977C43.44 -6.63966 41.4063 -5.27797 42.7368 -2.89099C42.959 -2.5463 42.6727 -1.86119 42.3322 -1.42168C40.4318 0.872849 38.5042 3.04458 36.6038 5.33911C35.8658 6.29138 35.1279 7.24366 34.7824 8.32088C33.6596 11.8218 32.6775 15.2991 31.7225 18.8991C31.2019 20.8338 30.4294 22.6198 28.2007 23.7596C27.6083 24.0505 27.5442 25.0803 27.3147 25.6921C27.5393 25.718 27.7911 25.8666 28.0157 25.8924C28.5513 25.6748 29.0597 25.3344 30.1038 24.7763C28.9117 26.3146 28.117 27.3402 27.3223 28.3657C27.4902 28.4648 27.658 28.5639 27.7691 28.7362C28.2479 28.5919 28.7835 28.3742 29.8819 28.0618C29.1168 28.8913 28.9169 29.3071 28.522 29.501C26.7745 30.1776 26.5425 31.1083 27.5991 32.5861C28.7667 34.2363 30.3143 33.9756 31.5582 33.0017C32.6614 32.0516 33.9646 30.6856 34.0583 29.4598C34.2234 26.2476 35.8696 24.1232 38.5549 22.0786C40.8725 20.3506 41.8745 17.9527 41.4176 15.2275C40.7709 15.2728 40.4328 15.3934 39.6726 15.5852ZM58.6539 54.2296C64.5159 52.0318 65.7941 46.594 61.072 43.0589C59.3517 43.8583 57.7153 44.7072 55.9382 45.5798C55.911 45.457 55.8271 45.4075 55.7999 45.2847C57.155 44.4832 58.4261 43.6321 59.7811 42.8306C59.7539 42.7078 59.67 42.6583 59.5589 42.4859C57.4437 43.4792 55.2717 44.5458 53.1564 45.5391C53.1293 45.4163 53.0454 45.3667 52.9343 45.1944C54.741 44.1257 56.5477 43.057 58.4383 42.0379C56.439 42.5658 54.6619 43.4384 52.912 44.4339C51.2756 45.2828 49.6664 46.2545 48.03 47.1034C47.9189 46.9311 47.8917 46.8083 47.7806 46.6359C50.5746 45.0825 53.2846 43.4795 56.0786 41.926C55.9675 41.7536 55.7725 41.5317 55.6614 41.3594C52.4454 42.984 49.3701 44.5849 46.154 46.2095C46.0429 46.0371 45.9318 45.8648 45.8208 45.6924C47.3165 44.8672 48.8961 44.0915 50.3351 43.3396C50.3079 43.2168 50.224 43.1672 50.1968 43.0444C48.59 43.6973 47.0671 44.3997 45.4604 45.0526C45.4332 44.9298 45.3221 44.7574 45.2382 44.7079C46.9313 43.7857 48.7652 42.8398 50.4584 41.9177C50.4312 41.7949 50.2634 41.6958 50.2362 41.573C48.6294 42.2259 46.9955 42.7559 45.3887 43.4088C45.3615 43.286 45.2504 43.1137 45.2232 42.9909C46.408 42.4091 47.5088 41.7778 48.6935 41.1961C48.5824 41.0237 48.5553 40.9009 48.3874 40.8018C47.3162 41.2371 46.245 41.6723 44.6382 42.3252C45.9957 41.2048 46.8447 40.4249 47.637 39.7182C47.5259 39.5459 47.3309 39.324 47.163 39.2249C45.4995 39.951 43.9198 40.7267 42.2563 41.4528C45.1934 39.5568 48.4933 37.9817 48.7177 34.3774C47.1924 35.3987 45.5264 36.4436 43.9443 37.5382C43.7493 37.3163 43.5271 36.9716 43.3321 36.7497C44.8574 35.7284 46.3827 34.7072 47.9352 33.8087C50.1936 32.4729 52.6198 31.2361 54.6832 29.6784C57.255 27.7802 57.5089 23.9799 55.3861 22.2996C54.7714 21.8299 54.1296 21.2375 53.5718 20.6946C51.965 21.3475 50.3014 22.0736 48.159 22.9441C48.5021 22.1858 48.6156 22.0392 48.7859 21.8195C47.1791 22.4724 45.6858 22.9787 44.2765 23.5346C44.2493 23.4118 44.1654 23.3623 44.1382 23.2395C46.9865 21.9316 49.8077 20.501 52.6559 19.1931C52.5177 18.8979 52.3227 18.676 52.1005 18.3314C48.5192 19.9538 44.9378 21.5763 40.7641 23.4896C41.828 24.0109 42.0798 24.1595 42.3883 24.2349C45.4465 24.866 46.4216 25.9754 45.6147 28.5952C45.1236 30.3338 43.9315 31.8721 42.9641 33.4363C40.2345 37.5901 38.5959 42.388 42.1604 46.6276C43.5526 48.3037 45.1768 49.049 47.455 48.7925C48.383 48.6998 49.3679 48.5339 50.2688 48.3184C52.3248 47.7172 53.8947 48.2169 55.0919 49.6711C56.3459 51.0519 57.4295 52.6526 58.6539 54.2296ZM166.823 115.74C167.062 117.483 167.361 118.834 167.519 120.208C167.66 120.184 167.801 120.161 168.025 120.187C168.287 119.06 168.632 117.983 168.894 116.856C169.034 116.832 169.202 116.931 169.343 116.907C169.136 118.28 168.872 119.725 168.635 121.294C172.009 121.044 171.516 123.101 171.977 125.189C174.114 121.326 176.555 118.176 176.725 114.326C176.886 111.752 176.681 109.175 176.757 106.551C176.858 104.369 177.043 102.236 177.171 100.176C177.003 100.077 177.255 100.226 177.815 100.45C177.457 99.491 177.211 98.7046 176.798 97.5003C177.605 98.5107 178.107 99.1268 178.608 99.743C178.664 99.6697 178.805 99.646 178.862 99.5727C178.42 98.5645 178.062 97.6058 177.536 96.5481C178.069 96.6493 178.378 96.7247 179.136 96.8517C178.118 93.9024 178.086 90.7872 174.445 89.1716C174.295 90.4707 174.061 91.7203 173.91 93.0194C173.298 92.2309 172.854 91.5415 172.268 90.8759C172.128 90.8996 172.071 90.9728 171.93 90.9965C172.54 92.1038 173.093 93.2844 173.787 94.4413C172.634 94.5081 171.706 94.6008 170.835 94.6203C171.333 95.5552 171.859 96.613 172.469 97.7203C172.328 97.744 172.271 97.8173 172.131 97.841C171.768 97.52 171.378 97.0762 170.541 96.2619C171.622 98.1814 172.427 99.5106 173.148 100.79C173.007 100.814 172.95 100.887 172.81 100.911C172.309 100.295 171.835 99.8015 171.334 99.1854C171.193 99.2091 171.136 99.2823 170.995 99.306C171.827 100.758 172.575 102.161 173.434 103.735C172.874 103.511 172.398 103.337 172.398 103.337C173.361 106.041 174.323 108.744 175.286 111.448C175.089 111.545 174.807 111.592 174.61 111.689C173.941 110.974 173.299 110.382 172.63 109.666C172.573 109.74 172.517 109.813 172.376 109.837C172.959 110.821 173.568 111.928 174.205 113.159C173.504 112.958 173.139 112.956 172.606 112.855C173.216 113.962 173.687 114.774 174.213 115.832C173.569 115.559 173.26 115.483 172.951 115.408C172.799 117.026 172.562 118.594 172.409 120.212C172.184 120.186 171.96 120.16 171.819 120.184C171.606 111.304 170.944 102.372 168.653 93.332C167.848 95.633 167.103 97.5418 166.412 99.6962C165.691 98.4166 165.081 97.3093 164.195 95.6117C163.897 97.891 163.63 99.6555 163.421 101.347C163.28 101.37 163.055 101.345 162.915 101.368C162.897 99.97 162.88 98.5718 162.778 97.1241C162.554 97.0983 162.329 97.0724 162.105 97.0466C161.813 98.3694 161.438 99.6427 161.147 100.965C161.007 100.989 160.923 100.94 160.782 100.963C160.705 99.9572 160.572 99.0244 160.495 98.0183C159.212 100.464 159.869 102.773 161.399 104.744C162.095 105.582 163.3 106.08 164.502 106.896C164.263 108.784 166.689 111.177 164.619 113.691C164.929 113.448 165.324 113.254 166.341 112.573C165.961 114.484 165.727 115.734 165.436 117.056C165.576 117.033 165.744 117.132 165.885 117.108C166.196 116.865 166.396 116.449 166.823 115.74ZM231.071 30.4636C235.378 29.4831 233.553 25.5235 235.039 22.3435C235.283 23.4487 235.392 23.9399 235.609 24.9223C236.014 23.4529 236.303 22.449 236.535 21.5183C236.619 21.5678 236.843 21.5937 236.984 21.57C236.947 22.7226 236.91 23.8752 236.789 24.9782C237.014 25.0041 237.322 25.0794 237.604 25.032C238.127 22.7785 238.593 20.5982 239.119 18.0259C239.366 18.8122 239.531 19.2302 239.946 20.1156C240.239 18.4739 240.501 17.3472 240.762 16.2204C240.987 16.2462 241.071 16.2958 241.296 16.3216C241.288 17.2782 241.338 18.1615 241.33 19.118C241.639 19.1934 241.947 19.2688 242.313 19.2709C243.147 16.774 244.008 14.3998 244.899 11.8295C245.059 12.8852 245.193 13.818 245.378 15.3153C246.516 13.5314 247.397 12.2366 248.221 11.015C248.473 11.1636 248.725 11.3123 248.92 11.5342C241.854 20.4947 236.269 30.543 224.172 35.893C227.751 34.5894 231.108 32.9411 234.297 31.1938C236.639 29.9075 238.87 28.4488 240.934 26.8911C242.883 25.4798 245.142 24.144 246.477 22.2631C248.834 19.0638 250.379 15.4917 252.568 12.1932C254.473 9.26098 254.747 6.53997 252.042 3.87514C251.701 4.31465 251.304 4.82742 250.622 5.70644C250.884 4.57969 251.03 3.91829 251.175 3.25689C251.091 3.20734 250.867 3.18149 250.783 3.13194C250.013 4.59912 249.186 6.13956 248.529 7.46024C247.745 7.21037 247.044 7.01005 246.175 6.71064C247.535 5.27144 248.865 4.02828 250.111 2.73558C248.023 3.85167 246.103 5.06685 244.351 6.38112C243.842 6.72155 243.415 7.43036 243.383 7.94526C243.912 12.3143 240.688 14.8955 237.744 17.748C235.876 19.5277 234.313 21.7015 233.143 24.0003C232.144 26.0794 231.705 28.3824 231.071 30.4636ZM150.636 16.8222C150.747 16.9945 150.915 17.0936 151.11 17.3155C152.408 16.5872 153.566 15.8827 154.864 15.1544C154.975 15.3268 155.002 15.4496 155.17 15.5487C153.447 16.6669 151.865 17.7614 150.143 18.8796C150.254 19.052 150.365 19.2243 150.533 19.3234C151.774 18.6684 153.1 18.0629 154.341 17.4079C154.425 17.4575 154.536 17.6298 154.62 17.6794C152.924 18.9204 151.256 20.2842 149.56 21.5252C149.728 21.6243 149.839 21.7967 150.007 21.8958C150.683 21.6544 151.36 21.4131 152.515 21.0274C151.947 21.7599 151.663 22.1262 151.323 22.5657C152.083 22.3739 152.843 22.1822 153.603 21.9904C152.772 24.1685 148.677 23.1389 148.823 26.1077C149.637 26.1615 150.395 26.2885 151.126 26.2928C147.162 26.5149 147.48 28.9451 147.547 31.2266C147.589 33.0664 147.745 34.7597 147.927 36.5759C148.152 36.6017 148.517 36.6039 148.742 36.6297C148.986 34.1047 149.09 31.6035 149.334 29.0785C149.334 29.0785 149.418 29.1281 149.474 29.0548C149.521 30.257 149.568 31.4591 149.615 32.6613C150.065 32.7129 150.598 32.8142 150.655 32.7409C151.23 31.0519 151.721 29.3132 152.185 27.4518C152.491 27.846 152.713 28.1907 153.103 28.6345C153.448 27.5573 153.623 26.6999 153.969 25.6226C154.273 26.3357 154.522 26.8032 154.631 27.2944C155.62 26.4908 156.331 25.4157 157.346 25.0537C159.629 24.1595 160.596 22.5954 161.285 20.7598C161.916 18.9975 162.407 17.2589 162.814 15.4707C163.742 11.7479 164.67 8.02502 165.771 3.76358C164.038 6.1572 162.589 8.18455 161.197 10.1387C161.03 10.0396 160.862 9.94048 160.778 9.89093C161.829 8.37634 162.937 6.78849 163.905 5.22435C163.821 5.1748 163.737 5.12526 163.653 5.07571C163.058 5.68544 162.463 6.29517 161.869 6.90489C161.785 6.85535 161.617 6.75625 161.533 6.70671C161.903 6.07114 162.273 5.43558 162.7 4.72676C162.616 4.67722 162.448 4.57813 162.364 4.52858C160.805 6.38359 159.245 8.23859 157.685 10.0936C158.174 8.67384 159.166 7.55136 160.074 6.37932C161.066 5.25683 162.058 4.13434 163.448 2.49908C158.307 5.97655 154.345 9.50996 152.031 14.5492C153.075 13.9912 153.978 13.4568 154.881 12.9225C154.992 13.0948 155.076 13.1444 155.187 13.3167C153.492 14.5577 152.078 15.7513 150.636 16.8222ZM50.4453 65.6116C50.8106 65.6138 51.1191 65.6891 51.4844 65.6913C51.6077 64.2694 51.6471 62.7979 51.8296 60.9839C50.561 61.5161 50.0254 61.7337 50.0822 61.6605C50.0056 60.6544 50.0425 59.5018 49.914 57.9313C48.6158 58.6595 48.0234 58.9504 47.2336 59.3382C47.7173 58.5562 48.0308 57.9938 48.401 57.3583C43.8171 54.1183 38.5894 54.235 33.6628 55.3835C29.0743 56.4114 25.8485 59.3114 25.3626 64.0425C26.2684 63.1893 27.1174 62.4093 27.9097 61.7027C27.9936 61.7522 28.0776 61.8017 28.1615 61.8513C27.3939 62.9996 26.6831 64.0747 25.9995 65.2726C26.1674 65.3717 26.3352 65.4708 26.5031 65.5699C27.5248 64.2513 28.6034 62.8595 29.6251 61.541C27.5892 66.8517 27.5892 66.8517 28.7641 67.5453C30.3783 65.9359 31.9356 64.3997 33.5498 62.7903C33.7176 62.8894 33.8015 62.9389 33.9694 63.038C32.6934 64.5268 31.5581 65.9919 29.828 68.0666C31.1781 67.9028 31.9927 67.9566 32.585 67.6657C34.5892 66.5001 36.5662 65.2117 38.4864 63.9965C44.6691 60.2798 46.7474 60.4392 50.0824 65.2906C50.1663 65.3402 50.3342 65.4393 50.4453 65.6116ZM103.84 14.0714C104.139 11.7921 104.491 9.75831 104.76 7.67501C104.901 7.6513 104.985 7.70085 105.209 7.72669C105.429 8.39023 105.733 9.10331 105.896 9.84011C106.802 8.98692 107.315 8.0088 107.463 7.02855C108.055 3.10753 105.661 0.199232 103.069 -2.6121C100.225 -5.57207 97.3247 -8.45879 94.3403 -11.395C94.17 -11.1753 94.054 -10.7099 93.7159 -10.5893C90.3839 -8.49934 90.0705 -7.93703 91.3665 -4.71629C92.0281 -3.04452 92.944 -1.54297 93.7463 0.105094C96.2396 4.77998 98.7329 9.45486 101.226 14.1297C101.169 14.203 101.113 14.2762 101.056 14.3495C100.787 12.8027 100.518 11.2558 100.224 9.26735C101.502 11.0899 102.616 12.4945 103.84 14.0714ZM293.505 20.453C291.535 20.7849 289.985 21.3645 288.694 21.1362C284.989 20.5504 281.363 20.6519 277.871 21.6862C276.237 22.2163 274.741 23.0415 273.245 23.8667C271.863 24.5454 270.619 25.5193 269.099 25.9028C267.24 26.407 265.132 26.4438 263.219 26.7024C260.462 27.1033 257.705 27.5042 255.032 27.9546C257.525 28.9993 259.937 29.6757 262.265 30.3024C263.583 30.6535 265.012 31.177 266.305 31.0864C270.973 30.7458 275.502 30.11 280.142 29.6465C286.217 29.0688 289.561 25.3846 292.962 21.6272C293.162 21.2114 293.305 20.8688 293.505 20.453ZM134.069 114.126C138.21 112.728 142.044 111.254 146.126 110.247C150.349 109.217 151.191 105.764 153.177 103.2C153.461 102.834 152.992 101.703 152.575 101.136C151.741 100.003 150.766 98.8935 149.734 97.8573C149.176 97.3144 148.591 96.6488 147.749 96.4722C146.039 95.9961 145.483 95.1344 145.579 93.5897C145.641 92.8788 145.145 91.6249 144.779 91.6228C143.881 91.5194 142.531 91.6832 141.993 92.2197C140.917 93.2927 140.428 94.7124 139.436 95.8349C137.538 97.8106 135.388 99.6376 135.675 102.583C135.727 103.147 135.497 103.759 135.408 104.347C136.563 103.961 137.074 103.302 137.723 102.938C138.316 102.647 139.609 102.557 139.831 102.901C141.14 104.528 142.549 103.972 144.072 103.269C144.664 102.979 146.069 103.06 146.348 103.332C146.765 103.898 146.925 104.954 146.528 105.467C146.017 106.126 144.946 106.561 144.099 107.022C143.648 107.29 142.776 107.309 142.69 107.578C141.918 109.364 140.787 110.192 138.519 109.173C138.099 108.925 137.366 109.24 137.141 109.214C136.201 110.901 135.207 112.342 134.069 114.126ZM142.14 120.599C141.943 120.696 141.689 120.867 141.407 120.914C141.432 121.356 141.765 121.873 141.566 122.289C140.995 123.34 140.618 124.932 139.717 125.147C137.999 125.628 137.673 124.154 137.177 122.901C136.873 122.188 136.007 121.569 135.086 120.705C135.049 121.858 135.239 122.718 134.926 123.28C134.556 123.915 133.736 124.499 132.919 124.764C132.581 124.885 131.742 124.39 131.295 124.019C129.313 122.315 127.415 120.661 125.517 119.006C125.346 119.226 125.092 119.396 124.979 119.543C125.425 119.913 126.013 120.26 126.346 120.777C126.874 121.516 127.795 122.38 127.649 123.041C126.926 125.71 128.857 126.85 130.901 127.843C132.609 128.638 134.573 128.944 136.168 129.885C138.854 131.471 140.969 130.477 143.422 129.363C142.361 128.523 141.41 127.855 140.517 127.114C140.574 127.041 140.687 126.895 140.744 126.821C142.284 127.517 143.824 128.213 145.308 128.982C145.421 128.835 145.535 128.689 145.648 128.542C145.091 128 144.533 127.457 143.948 126.791C145.098 127.043 145.908 127.735 146.833 127.961C147.759 128.187 149.445 128.221 149.785 127.782C151.883 125.39 153.253 122.676 149.76 120.08C148.866 119.339 148.086 118.451 147.055 117.415C148.037 117.568 148.654 117.719 149.187 117.82C149.301 117.673 149.274 117.551 149.387 117.404C148.323 116.883 147.259 116.361 146.279 115.89C146.336 115.816 146.393 115.743 146.506 115.597C147.375 115.896 148.217 116.073 149.227 116.348C147.854 112.122 143.251 111.432 137.352 114.783C139.178 114.794 140.923 114.436 142.695 114.201C143.342 114.156 144.213 114.136 144.492 114.408C144.855 114.729 145.045 115.588 144.789 116.077C144.219 117.129 143.313 117.982 142.15 119.324C143.918 119.727 145.574 119.957 147.087 120.53C147.647 120.754 148.482 121.887 148.255 122.18C147.544 123.256 146.497 124.132 145.619 125.108C145.004 124.639 144.276 124.316 143.859 123.749C143.024 122.616 142.639 121.534 142.14 120.599ZM139.962 30.9124C140.073 31.0848 140.184 31.2571 140.295 31.4295C141.366 30.9942 142.465 30.6818 143.368 30.1474C148.139 27.3055 151.103 18.272 148.582 13.4744C146.561 9.61165 144.003 5.96656 141.643 2.22452C141.394 1.75703 140.75 1.48347 140.219 1.06339C139.938 1.1108 139.713 1.08496 139.515 1.18192C143.07 10.3271 143.846 19.1126 136.141 27.1619C136.365 27.1877 136.617 27.3363 136.842 27.3622C138.54 25.8023 140.238 24.2424 142.02 22.7321C142.215 22.954 142.383 23.0531 142.578 23.275C139.863 25.5157 137.232 27.806 134.517 30.0467C134.628 30.219 134.796 30.3181 134.907 30.4905C137.563 28.6419 140.218 26.7932 142.817 25.0179C142.302 26.3149 141.561 27.586 140.542 28.5857C139.522 29.5854 138.084 30.3373 136.869 31.1151C136.98 31.2875 137.064 31.337 137.175 31.5094C138.841 30.4644 140.591 29.469 142.257 28.424C142.341 28.4735 142.452 28.6459 142.536 28.6954C141.576 29.303 140.727 30.0829 139.962 30.9124ZM55.6959 73.5158C54.8887 72.5054 54.585 71.7923 53.9432 71.1999C52.7164 69.9418 51.3489 68.7074 50.1788 67.3761C49.2038 66.2666 48.5965 64.8405 47.6782 63.6578C46.3971 62.1541 44.6865 61.678 42.8527 62.6239C40.7646 63.74 38.6765 64.8561 36.8674 66.2436C34.493 68.0448 31.9014 68.8636 28.7544 68.8207C27.9398 68.7669 27.0933 69.228 25.7135 69.5878C29.9418 71.5502 47.5728 73.7381 55.6959 73.5158ZM98.8693 86.9395C98.6151 87.1098 98.277 87.2304 98.0795 87.3274C98.2721 87.8681 98.1832 88.4563 98.5165 88.9733C100.435 91.7071 100.413 94.5768 99.6871 97.5649C99.428 98.3728 99.3367 99.2798 99.4429 100.09C99.8726 102.692 100.527 105.321 101.124 108.022C99.4706 107.473 97.5083 106.848 95.4892 106.297C95.672 108.113 95.7437 109.757 95.7931 110.64C98.4613 110.827 100.794 110.817 103.01 111.271C106.153 111.952 108.465 110.861 110.667 109.599C108.225 105.488 104.007 102.25 105.789 97.11C105.875 96.8407 105.934 96.4486 105.739 96.2267C103.431 93.0491 101.15 89.9943 98.8693 86.9395ZM127.413 22.009C128.402 21.2054 128.94 20.6689 129.562 20.182C129.646 20.2315 129.814 20.3306 129.841 20.4534C129.217 21.2592 128.62 22.1878 127.852 23.3361C129.491 22.1684 130.819 21.2441 132.09 20.393C132.285 20.6149 132.453 20.714 132.648 20.9359C131.12 22.276 129.619 23.7389 128.092 25.079C128.176 25.1286 128.259 25.1781 128.287 25.3009C129.671 24.3033 131.029 23.183 132.413 22.1854C132.581 22.2845 132.608 22.4073 132.776 22.5064C130.91 23.9672 128.904 25.4517 127.038 26.9125C127.149 27.0848 127.317 27.1839 127.428 27.3562C129.318 26.3371 131.266 25.2447 133.156 24.2256C133.351 24.4475 133.519 24.5466 133.714 24.7685C132.638 25.8414 131.478 26.8648 130.459 27.8645C130.543 27.9141 130.543 27.9141 130.57 28.0368C131.982 27.1621 133.534 26.2636 135.003 25.3156C134.265 26.2679 133.611 27.2697 132.873 28.222C138.12 25.5546 139.001 20.6296 140.973 16.3487C143.058 11.9213 139.494 7.68171 138.94 2.87099C136.393 5.2108 135.221 7.82844 135.594 10.5042C136.073 13.9899 134.819 16.2392 131.184 17.6161C129.128 18.2172 127.909 19.6327 127.413 22.009ZM218.301 42.9964C217.871 44.024 217.077 45.0496 217.04 46.2022C216.874 49.4144 216.063 52.6719 217.724 55.8947C217.889 56.3127 217.857 56.8276 218.018 57.8832C217.181 57.0689 216.791 56.6251 216.428 56.3041C216.231 56.4011 216.09 56.4248 215.893 56.5217C216.52 59.0273 217.063 61.4832 217.69 63.9887C217.915 64.0146 218.196 63.9672 218.421 63.993C219.275 62.5754 220.129 61.1578 221.126 59.3976C221.232 60.2076 221.313 60.576 221.422 61.0672C221.93 60.7268 222.325 60.5329 222.636 60.2894C222.72 60.339 222.888 60.438 222.915 60.5608C221.777 62.3447 220.64 64.1286 219.445 65.9858C221.516 63.4715 225.184 61.5797 224.788 58.1435C224.391 55.0261 222.868 52.0984 221.932 49.5175C225.171 52.2836 225.729 56.4566 226.344 60.5563C226.768 60.1664 226.995 59.8734 227.082 59.604C229.061 54.3666 224.153 45.7041 218.301 42.9964ZM224.751 19.0457C224.976 19.0715 225.173 18.9746 225.398 19.0004C225.857 21.4068 226.176 23.837 226.635 26.2434C227.681 21.7364 225.773 17.7271 224.287 13.6468C224.568 13.5994 224.765 13.5024 224.99 13.5283C225.953 16.232 226.916 18.9357 227.935 21.5662C228.189 21.3959 228.444 21.2257 228.952 20.8853C228.708 23.4103 228.409 25.6896 228.165 28.2146C230.456 26.3638 231.569 24.1383 231.559 21.7835C231.452 17.3434 228.924 13.5022 226.762 9.66323C225.819 8.03887 223.775 7.04581 222.24 5.71233C222.126 5.85884 222.07 5.93209 221.872 6.02905C222.092 6.69259 222.368 7.28288 222.753 8.36436C221.638 7.27861 220.969 6.56339 220.216 5.79862C220.917 9.62909 221.929 13.2161 221.113 17.1112C220.298 20.6876 220.158 24.3414 223.503 27.9175C223.095 26.0756 222.797 24.7248 222.582 23.4235C222.722 23.3998 222.722 23.3998 222.863 23.3761C223.307 24.0655 223.611 24.7786 224.055 25.468C224.196 25.4443 224.337 25.4205 224.477 25.3968C224.374 24.268 224.354 23.1886 224.25 22.0597C224.615 22.0618 225.008 22.1868 225.457 22.2385C224.988 21.1074 224.912 20.1013 224.751 19.0457ZM231.195 39.9321C231.024 40.1519 230.938 40.4212 230.768 40.6409C236.638 44.7469 241.826 49.7318 249.285 51.7867C249.903 51.9375 250.349 52.308 250.853 52.6053C253.926 54.9534 257.606 55.0975 261.77 54.4596C261.183 54.1128 260.931 53.9642 260.4 53.5441C261.861 53.5526 263.155 53.4621 264.981 53.4727C259.998 51.0644 255.491 48.8306 250.507 46.4222C251.62 47.8268 252.484 48.7639 253.264 49.6515C253.067 49.7485 252.953 49.895 252.699 50.0652C250.468 47.8937 248.377 45.6985 246.145 43.527C245.891 43.6972 245.777 43.8437 245.523 44.0139C246.387 44.951 247.392 45.8644 248.256 46.8015C248.199 46.8748 248.058 46.8985 248.002 46.9717C247.192 46.2802 246.382 45.5887 245.546 44.7744C245.489 44.8476 245.291 44.9446 245.235 45.0178C246.182 46.0045 247.103 46.8684 248.051 47.855C247.994 47.9283 247.91 47.8787 247.854 47.952C245.731 46.2717 243.551 44.6646 241.344 42.9348C241.231 43.0813 241.033 43.1782 240.92 43.3247C241.813 44.0658 242.707 44.8069 243.685 45.5975C243.628 45.6707 243.487 45.6944 243.43 45.7677C239.454 43.9539 235.366 41.9678 231.195 39.9321ZM115.67 146.077C115.386 146.443 115.075 146.686 114.678 147.199C114.545 146.266 114.325 145.603 114.246 144.915C114.105 144.939 113.881 144.913 113.74 144.937C113.812 146.581 113.827 148.298 113.982 149.991C113.841 150.015 113.758 149.965 113.617 149.989C113.345 148.761 113.13 147.46 112.859 146.232C112.634 146.206 112.437 146.303 112.212 146.277C112.257 147.798 112.244 149.392 112.232 150.987C111.953 150.715 111.702 150.566 111.618 150.517C111.013 152.402 110.549 154.264 109.693 156C108.75 158.006 107.274 159.91 106.107 161.89C105.68 162.599 105.253 163.308 104.569 164.506C114.168 158.749 121.412 152.242 122.781 142.267C122.613 142.168 122.361 142.019 122.194 141.92C120.777 143.433 119.417 144.872 117.803 146.481C117.361 145.473 117 144.833 116.724 144.243C116.583 144.267 116.443 144.291 116.386 144.364C116.544 145.738 116.561 147.136 116.719 148.511C116.579 148.535 116.438 148.558 116.354 148.509C116.218 147.895 115.971 147.108 115.67 146.077ZM143.187 90.3626C143.214 86.8552 143.155 83.6172 143.12 80.8208C139.869 79.649 136.478 78.5009 132.694 77.2278C132.01 78.4257 131.043 79.9899 130.046 81.75C135.619 84.1864 139.754 87.3746 139.061 93.478C140.813 92.1638 142.254 91.0929 143.187 90.3626ZM238.976 -3.73128C238.836 -3.70757 238.668 -3.80666 238.527 -3.78295C238.414 -3.63645 238.159 -3.46624 238.13 -3.27019C236.605 1.38122 234.939 6.05634 233.414 10.7077C233.069 11.785 232.948 12.888 232.995 14.0902C232.948 16.5181 233.126 18.972 233.165 21.1307C235.515 18.8878 238.26 16.4511 240.725 13.7429C242.907 11.4009 242.983 8.77688 241.712 5.99779C239.972 9.34796 238.346 12.5516 236.719 15.7553C236.411 15.6799 236.102 15.6045 235.934 15.5054C238.353 11.5951 240.239 7.5835 239.206 2.91716C238.698 3.25758 238.33 3.57429 237.906 3.96426C238.18 1.24325 238.508 -1.23216 238.976 -3.73128ZM84.5309 117.123C84.363 117.024 84.2791 116.975 84.168 116.802C85.4144 115.51 86.6608 114.217 87.9071 112.924C87.6554 112.776 87.4875 112.676 87.2357 112.528C86.557 113.088 85.8511 113.525 85.1724 114.086C88.3415 111.259 88.3683 107.752 88.7358 103.805C88.1682 104.537 87.9411 104.83 87.6573 105.196C87.4919 104.779 87.1858 104.384 87.0204 103.966C85.6876 105.528 84.076 106.819 83.1924 108.433C81.9387 110.682 81.2725 113.278 80.1027 115.577C79.0168 117.925 78.7922 117.899 79.9525 120.506C80.6141 122.178 81.3892 123.703 82.3841 125.892C84.0993 122.1 85.6417 118.847 87.2409 115.52C87.0731 115.421 86.9891 115.372 86.8213 115.273C86.029 115.979 85.3503 116.539 84.5309 117.123ZM229.135 62.9519C228.968 62.8528 228.856 62.6804 228.689 62.5813C226.991 64.1412 225.292 65.7011 223.538 67.3342C223.37 67.2351 223.175 67.0132 223.007 66.9141C225.47 64.5248 228.605 62.5318 228.829 58.9275C228.042 62.6266 224.379 63.8807 221.496 66.0223C218.727 68.0174 216.348 70.4563 214.025 72.8219C213.374 73.5049 213.448 74.8299 213.216 75.7606C213.216 75.7606 213.413 75.6636 213.638 75.6895C213.638 75.6895 213.722 75.739 214.058 75.9372C212.982 77.0101 211.905 78.0831 210.886 79.0828C214.495 77.5831 219.271 77.7337 221.018 73.4269C219.1 74.3233 217.21 75.3424 215.292 76.2387C215.097 76.0168 215.042 75.7712 214.847 75.5494C216.936 74.4333 219.051 73.44 221.112 72.2011C223.116 71.0355 225.816 70.7078 226.593 68.2841C225.774 68.868 224.871 69.4023 224.051 69.9862C223.967 69.9367 223.94 69.8139 223.772 69.7148C224.197 69.3248 224.678 68.8616 225.216 68.3251C224.513 68.4437 224.034 68.588 222.908 68.7777C225.117 66.5585 227.126 64.7552 229.135 62.9519ZM105.464 154.038C105.548 154.087 105.773 154.113 105.857 154.163C105.112 156.071 104.394 158.103 103.648 160.012C103.816 160.111 104.041 160.137 104.292 160.285C105.06 159.137 105.744 157.939 106.454 156.864C106.622 156.963 106.706 157.013 106.874 157.112C106.699 157.969 106.497 158.704 106.321 159.561C110.621 155.907 109.115 150.748 110.835 146.318C110.494 146.758 110.097 147.27 109.756 147.71C109.672 147.66 109.505 147.561 109.421 147.512C109.85 146.484 110.336 145.383 110.682 144.306C110.598 144.256 110.43 144.157 110.289 144.181C109.694 144.791 109.072 145.278 108.053 146.277C108.626 144.907 109.025 144.075 109.368 143.317C109.201 143.218 109.033 143.119 108.865 143.02C108.07 144.045 107.219 145.144 106.34 146.12C106.256 146.071 106.172 146.021 106.004 145.922C106.604 144.675 107.147 143.5 107.947 141.837C105.861 142.634 105.207 143.636 104.943 145.082C104.563 146.993 104.042 148.927 103.578 150.789C103.29 151.793 103.001 152.797 102.572 153.824C102.712 153.801 102.88 153.9 103.021 153.876C103.675 152.874 104.329 151.872 105.067 150.92C105.151 150.97 105.235 151.019 105.403 151.118C104.63 152.904 103.998 154.667 103.226 156.453C103.451 156.479 103.618 156.578 103.843 156.604C104.411 155.871 104.867 154.966 105.464 154.038ZM96.6057 15.6725C97.5805 13.1519 93.7718 11.4372 95.9585 8.45754C97.0373 10.6959 97.9778 12.6391 98.9184 14.5823C99.3945 11.1266 94.9978 1.80484 89.3178 -5.07165C88.849 -2.57253 87.6225 -0.200482 88.3409 1.39803C90.7478 6.34222 93.8878 10.9718 96.6057 15.6725ZM216.777 32.8084C216.177 26.7955 202.1 19.2322 193.631 20.5318C197.045 22.4404 200.291 24.2499 203.48 26.1327C204.067 26.4795 204.201 27.4123 204.588 28.1749C210.085 25.975 212.66 31.0183 216.777 32.8084ZM98.7959 129.495C96.8781 130.391 94.9603 131.288 93.0425 132.184C92.9586 132.135 92.9315 132.012 92.8475 131.962C93.4127 131.549 94.0347 131.062 94.5431 130.721C92.5512 130.293 90.7 129.84 88.792 129.461C88.2588 129.36 87.4419 129.625 87.0741 129.942C83.8532 132.204 82.6489 135.337 82.0296 139.135C83.2736 138.161 84.1498 137.504 85.026 136.847C85.1099 136.896 85.137 137.019 85.221 137.069C84.6829 137.605 84.0881 138.215 83.861 138.508C90.1353 137.514 93.9929 132.852 98.7959 129.495ZM98.7604 82.8182C101.752 81.1678 104.8 79.4441 107.848 77.7204C104.34 73.4075 101.087 72.5546 95.4548 74.1405C96.5015 76.8938 97.5483 79.647 98.7604 82.8182ZM98.7073 133.713C97.5547 133.78 95.9824 133.599 94.9383 134.157C90.7622 136.39 86.7243 138.917 82.6592 141.321C82.7431 141.371 82.6864 141.444 82.7703 141.494C84.4882 141.013 86.3467 140.509 88.0646 140.029C88.0918 140.151 88.2029 140.324 88.2868 140.373C86.9318 141.175 85.7174 141.953 84.1082 142.924C87.8995 143.241 90.9181 141.713 93.9614 140.627C97.2021 139.444 99.8282 137.792 98.7073 133.713ZM150.774 13.4872C153.936 7.98683 158.381 3.67135 164.001 0.0495131C163.89 -0.122833 163.722 -0.221922 163.611 -0.394266C161.466 0.795075 159.405 2.03396 157.26 3.2233C157.176 3.17375 157.065 3.00141 156.981 2.95186C157.717 2.31843 158.452 1.68499 159.131 1.12482C154.007 2.37034 148.295 3.26904 147.212 8.92868C147.464 9.07732 147.575 9.24965 147.827 9.39829C148.14 8.83597 148.313 8.29737 148.626 7.73506C148.71 7.78461 148.851 7.76091 148.935 7.81045C148.957 8.57095 148.923 9.40469 148.886 10.5573C149.426 9.70197 149.683 9.2129 149.94 8.72385C150.023 8.77339 150.164 8.74969 150.248 8.79924C149.957 10.1221 149.666 11.4449 149.291 12.7181C149.515 12.744 149.599 12.7935 149.767 12.8926C150.108 12.4531 150.421 11.8908 150.762 11.4513C150.846 11.5008 150.929 11.5503 151.013 11.5999C151.065 12.1643 150.92 12.8257 150.774 13.4872ZM16.9511 68.8989C16.8647 69.1682 16.7784 69.4375 16.6081 69.6573C17.5041 70.0795 18.484 70.5513 19.4368 70.9002C29.1349 74.17 39.356 75.1863 49.5772 76.2026C51.3741 76.4094 53.403 75.6854 55.3159 75.4267C55.2616 75.1812 55.2344 75.0583 55.1801 74.8127C48.7502 74.1129 42.1772 73.7557 35.8336 72.7865C29.463 71.6946 23.2083 70.1373 16.9511 68.8989ZM45.2316 89.545C39.6287 90.9349 34.1961 92.105 28.845 93.6436C25.8881 94.4602 23.1805 95.7444 20.389 96.979C19.6559 97.2936 19.3672 98.2976 18.8563 98.9568C19.7819 99.183 20.9026 99.631 21.8306 99.5383C22.8994 99.4219 23.8595 98.8144 24.9307 98.3791C31.0493 95.6923 37.1951 93.1282 43.3138 90.4413C43.9061 90.1505 44.4985 89.8596 45.2316 89.545ZM246.593 25.4279C247.094 26.0441 247.484 26.4878 247.958 26.9812C247.647 27.2246 246.969 27.7848 245.922 28.6617C247.415 28.1553 248.346 27.7438 249.22 27.4055C249.247 27.5283 249.331 27.5779 249.442 27.7502C248.679 28.2608 247.916 28.7715 246.843 29.5256C253.566 28.5837 254.534 27.0196 251.907 21.4119C247.681 22.7607 242.733 26.7789 243.36 29.2845C244.466 28.0155 245.544 26.6237 246.593 25.4279ZM25.6343 32.2803C26.0661 30.9338 26.6362 29.8824 26.5596 28.8763C26.4312 27.3058 26.2756 25.6125 25.5276 24.21C24.8067 22.9303 21.9115 23.0361 20.4133 24.1801C18.8584 25.3974 19.4114 26.578 20.611 27.7133C22.1736 29.1696 23.9039 30.7249 25.6343 32.2803ZM212.934 35.5576C209.316 34.7025 206.062 33.8495 202.668 33.0203C203.463 35.6249 204.345 37.9602 205.056 40.5152C207.317 38.8606 211.278 38.9573 212.934 35.5576ZM253.199 32.5306C257.854 33.7842 262.369 35.0615 266.856 36.216C266.942 35.9467 267.113 35.7269 267.199 35.4576C265.35 34.6865 263.361 33.939 261.512 33.1678C261.625 33.0213 261.598 32.8985 261.712 32.752C262.721 33.0277 263.704 33.1806 265.33 33.6071C261.647 30.1517 257.636 29.1717 252.939 29.7084C253.949 29.9841 254.875 30.2102 255.884 30.4859C255.008 31.1431 254.443 31.5567 253.199 32.5306ZM57.586 65.2364C62.8827 63.4522 63.754 63.4328 62.2013 60.7011C61.0733 61.2096 59.8886 61.7914 58.7606 62.2999C61.7618 59.3741 62.4455 58.1762 62.0478 55.0588C60.6657 55.7375 58.4985 56.1663 58.2098 57.1703C57.319 59.7405 56.4553 62.4336 57.586 65.2364ZM154.709 57.3416C154.428 53.7589 153.526 50.3443 151.189 47.3627C150.076 45.9581 148.511 44.8207 146.946 43.6833C146.667 43.4118 145.906 43.6036 145.4 43.6252C145.425 44.0668 145.309 44.5322 145.531 44.8769C148.619 48.942 151.651 53.0804 154.709 57.3416ZM254.995 25.477C258.362 22.5533 258.783 15.2219 255.599 12.7015C255.429 16.5514 251.692 20.1106 254.131 24.5399C254.417 23.8548 254.617 23.439 254.901 23.0727C254.985 23.1223 255.126 23.0986 255.21 23.1481C255.205 23.7858 255.17 24.6196 254.995 25.477ZM25.094 69.7559C25.5777 68.9738 26.0047 68.265 26.4884 67.483C24.2816 65.7531 22.3834 64.0986 20.1767 62.3688C17.3039 66.8652 17.7458 67.8734 22.4011 69.127C23.3267 69.3531 24.1684 69.5298 25.094 69.7559ZM254.372 11.4434C252.153 14.9379 249.209 17.7905 248.138 21.8559C252.507 20.1644 255.098 15.7155 254.372 11.4434ZM121.866 56.3158C121.894 56.4386 121.977 56.4882 122.005 56.611C121.412 56.9018 120.793 57.0699 120.284 57.4103C119.833 57.6775 119.324 58.0179 118.873 58.2851C123.77 57.3326 124.251 56.8694 124.394 52.8967C122.508 53.2781 120.568 53.4139 119.018 53.9935C118.398 54.1616 118.248 55.4607 117.905 56.2191C118.606 56.4194 119.391 56.6693 120.065 56.7468C120.571 56.7252 121.304 56.4106 121.866 56.3158ZM94.4846 72.3934C94.455 72.5894 94.5093 72.835 94.4797 73.0311C97.1775 73.0223 99.8754 73.0135 102.714 72.9811C102.218 71.7272 101.86 70.7685 101.388 69.9564C101.082 69.5621 100.327 69.1162 99.9047 69.1873C97.513 69.5903 95.2052 70.0429 92.2779 70.6635C95.2399 72.8393 98.2658 70.3551 101.406 71.3546C98.6485 71.7554 96.595 72.0378 94.4846 72.3934ZM161.252 50.6347C159.621 54.476 162.926 59.5236 157.395 62.5573C160.705 63.337 163.803 62.4966 165.222 60.6653C166.357 59.2002 166.229 57.6297 165.091 55.7834C164.264 60.954 163.526 61.9063 159.96 61.6157C163.217 58.2008 161.504 54.4135 161.252 50.6347ZM99.5575 -21.1267C94.4878 -19.6356 93.0119 -17.731 94.5894 -14.5577C97.6302 -15.3248 97.6302 -15.3248 99.5575 -21.1267ZM236.012 -1.95804C238.463 -6.38329 237.423 -10.0931 233.408 -10.4354C234.425 -7.48611 235.247 -4.7587 236.012 -1.95804ZM94.211 111.735C96.1731 108.729 92.3793 108.732 91.5203 107.157C89.9357 108.57 87.9612 109.54 89.0968 111.705C90.7826 111.739 92.3845 111.724 94.211 111.735ZM108.091 93.665C104.909 90.8257 101.812 88.036 98.6569 85.3194C100.602 88.1761 102.885 90.912 105.085 93.5984C105.892 94.6088 106.729 95.4231 108.091 93.665ZM218.46 29.5314C217.28 25.8454 213.674 23.396 209.875 24.0361C212.783 25.9662 215.412 27.625 218.46 29.5314ZM124.02 108.941C127.542 111.341 131.869 111.44 133.069 108.945C130.006 108.951 127.167 108.984 124.02 108.941ZM133.743 119.913C130.749 118.252 128.259 116.888 125.825 115.451C128.293 119.685 130.532 120.9 133.743 119.913ZM58.5167 68.455C59.1857 69.1702 59.5733 69.9328 60.3286 70.3787C60.8321 70.676 61.7873 70.7061 62.3229 70.4885C62.6611 70.3678 62.8116 69.0687 62.6437 68.9696C61.4688 68.276 60.1827 67.41 58.919 67.3045C58.0477 67.3239 57.0827 68.5692 56.1497 69.2996C56.3176 69.3987 56.5126 69.6206 56.6804 69.7197C57.1889 69.3793 57.7541 68.9656 58.5167 68.455ZM68.1979 77.5869C68.2523 77.8325 68.2227 78.0285 68.277 78.2741C71.0044 78.0693 73.675 77.9377 76.4592 77.6597C75.6569 76.0116 71.1598 76.1325 68.1979 77.5869ZM67.9337 75.4023C67.9312 75.7212 68.0127 76.0896 68.0103 76.4084C70.5427 75.9817 73.1023 75.6778 75.6914 75.1779C75.8321 75.1542 75.8394 74.1976 75.9283 73.6095C73.0849 74.2796 70.4957 74.7796 67.9337 75.4023ZM82.71 127.365C83.0457 127.564 83.2975 127.712 83.5764 127.984C84.6229 127.107 85.9212 126.378 86.4913 125.327C86.7775 124.642 85.9999 123.436 85.4766 122.059C84.3364 124.162 83.5935 125.752 82.71 127.365ZM231.665 26.2237C229.088 28.7596 226.936 30.9055 224.784 33.0514C225.036 33.2 225.288 33.3486 225.483 33.5705C228.615 31.8964 230.431 29.5523 231.665 26.2237ZM140.125 38.9095C140.266 38.8858 140.323 38.8126 140.464 38.7889C139.888 36.8478 139.454 34.883 138.824 32.6963C137.866 32.9851 137.133 33.2996 136.316 33.5647C137.847 35.5359 138.958 37.2593 140.125 38.9095ZM243.062 31.5638C243.032 31.7599 243.002 31.9559 242.973 32.152C244.937 32.4578 246.986 32.8131 249.176 33.1448C247.815 30.9539 247.815 30.9539 243.062 31.5638ZM118.804 59.9526C119.949 60.8423 120.951 62.0745 121.43 61.9302C123.851 61.3311 122.094 59.6529 122.385 58.3301C121.341 58.8882 120.467 59.2265 118.804 59.9526ZM94.2785 55.2962C92.3238 57.3451 90.3691 59.394 88.6686 61.2727C92.8548 61.3953 92.6866 57.6661 94.2785 55.2962ZM160.455 48.3489C160.677 48.6936 160.956 48.965 161.178 49.3097C162.306 48.8012 163.434 48.2927 164.451 47.6119C164.508 47.5386 163.925 46.5541 163.592 46.0371C162.575 46.7179 161.585 47.5216 160.455 48.3489ZM100.191 68.5022C100.109 68.1338 100.028 67.7654 99.9465 67.397C97.1599 67.994 94.4004 68.7137 91.6138 69.3106C91.6681 69.5562 91.6953 69.679 91.7496 69.9246C94.6201 69.3772 97.4339 68.9031 100.191 68.5022ZM167.943 42.9475C167.852 43.8545 167.79 44.5654 167.785 45.2031C168.489 45.0846 169.471 45.2375 169.839 44.9208C170.377 44.3843 170.552 43.5268 170.838 42.8417C169.967 42.8612 169.096 42.8806 167.943 42.9475ZM97.4462 67.3088C97.4486 66.99 97.3104 66.6949 97.3128 66.376C94.8741 65.5769 92.9761 67.5525 90.7276 67.613C90.7819 67.8586 90.8362 68.1042 90.8905 68.3498C93.0848 68.0437 95.3358 67.6644 97.4462 67.3088ZM194.103 21.344C194.587 24.192 196.07 24.9611 198.8 24.4374C197.289 23.5456 195.919 22.63 194.103 21.344ZM88.7799 65.0752C88.8342 65.3208 88.8886 65.5664 89.0268 65.8616C90.8286 65.4306 92.6872 64.9264 94.489 64.4954C94.4346 64.2498 94.2964 63.9546 94.2421 63.709C92.1391 63.1081 90.6113 64.4482 88.7799 65.0752ZM91.16 40.5366C90.7651 40.7305 90.2863 40.8749 89.9481 40.9956C90.1382 41.8552 90.3851 42.6415 90.5752 43.5011C91.2244 43.137 92.4363 42.678 92.4387 42.3592C92.3029 41.7452 91.5772 41.1032 91.16 40.5366ZM106.672 25.8859C106.307 25.8838 106.025 25.9312 105.66 25.9291C106.038 27.9671 106.359 30.0784 106.737 32.1164C107.018 32.069 107.159 32.0453 107.44 31.9979C107.146 30.0094 106.909 27.9477 106.672 25.8859ZM129.761 107.846C129.707 107.601 129.653 107.355 129.598 107.109C127.266 107.12 124.933 107.131 122.685 107.192C122.682 107.51 122.737 107.756 122.734 108.075C125.039 107.941 127.372 107.93 129.761 107.846ZM221.129 36.979C223.271 36.1085 224.984 32.6356 224.211 30.7914C223.185 32.7477 222.128 34.9 221.129 36.979ZM184.962 51.6071C185.194 50.6764 185.34 50.015 185.486 49.3536C184.839 49.3989 183.773 49.1965 183.545 49.4895C183.064 49.9527 183.17 50.7627 183.025 51.4241C183.474 51.4758 184.064 51.5038 184.962 51.6071ZM115.115 49.8746C114.945 50.0943 114.831 50.2408 114.661 50.4606C116.031 51.3761 116.406 53.733 119.701 52.7957C117.912 51.6324 116.485 50.7901 115.115 49.8746ZM186.994 57.8246C186.599 58.0185 186.345 58.1887 185.95 58.3826C186.365 59.2681 186.92 60.1298 187.335 61.0152C187.703 60.6985 188.549 60.2374 188.522 60.1146C188.191 59.2787 187.522 58.5635 186.994 57.8246ZM99.0799 30.1585C98.9713 29.6673 99.0354 28.6375 98.6997 28.4393C97.5791 27.9913 96.2314 27.8362 94.9972 27.5347C94.9676 27.7307 94.9948 27.8535 94.9652 28.0496C96.2808 28.7195 97.5125 29.3399 99.0799 30.1585ZM127.29 96.6715C127.512 97.0162 127.677 97.4341 127.899 97.7788C128.887 97.294 129.958 96.8588 130.945 96.374C130.807 96.0788 130.39 95.5123 130.39 95.5123C129.235 95.898 128.304 96.3095 127.29 96.6715ZM163.498 80.2531C163.72 80.5977 163.858 80.8929 164.081 81.2376C165.152 80.8023 166.223 80.3671 167.153 79.9555C166.931 79.6109 166.571 78.971 166.43 78.9947C165.5 79.4063 164.512 79.8911 163.498 80.2531ZM175.684 52.2152C175.353 51.3793 175.331 50.6188 174.939 50.4939C174.238 50.2936 173.423 50.2397 172.663 50.4315C172.382 50.4789 172.431 51.3622 172.258 51.9009C172.989 51.9051 173.803 51.9589 175.684 52.2152ZM106.579 38.0022C106.582 37.6834 106.584 37.3645 106.586 37.0457C104.844 37.0845 103.158 37.0502 101.331 37.0395C101.329 37.3583 101.354 37.8 101.351 38.1188C103.094 38.08 104.836 38.0411 106.579 38.0022Z" fill="#C8C2B2"/>
<path fill-rule="evenodd" clip-rule="evenodd" d="M32.4308 93.4679C30.2317 94.4117 29.5133 92.8131 29.0442 91.6821C28.9356 91.1909 30.3794 89.8013 31.2803 89.5858C33.9534 89.1354 36.6216 89.3226 39.3219 88.995C45.2852 88.245 51.1645 87.4454 57.1278 86.6953C57.6906 86.6005 58.3077 86.7513 58.9543 86.706C58.5594 86.8999 58.2485 87.1434 57.8264 87.2145C49.7256 88.1973 41.7655 89.1565 33.7215 90.0661C32.3713 90.2299 31.1323 90.566 29.8093 90.8526C29.8637 91.0982 29.7773 91.3675 29.8316 91.6131C30.6141 92.1819 31.5644 92.8497 32.4308 93.4679Z" fill="#C8C2B2"/>
<path fill-rule="evenodd" clip-rule="evenodd" d="M57.8489 91.6051C57.0887 91.7969 56.2717 92.0619 55.5115 92.2537C54.3317 92.1978 53.0679 92.0923 51.9152 92.1591C45.8137 92.614 39.7393 93.1918 33.6378 93.6467C33.2725 93.6445 32.7961 93.4701 32.4037 93.3451C32.8825 93.2008 33.3613 93.0564 33.9241 92.9616C41.4893 92.1963 49.1112 91.3579 56.6764 90.5926C57.0985 90.5215 57.6588 90.7455 58.108 90.7972C57.9081 91.213 57.8785 91.4091 57.8489 91.6051Z" fill="#C8C2B2"/>
<path fill-rule="evenodd" clip-rule="evenodd" d="M288.187 19.6121C292.613 17.8474 297.387 18.3168 301.992 18.6871C302.02 18.8099 301.963 18.8832 301.99 19.006C297.352 19.1506 292.798 19.3447 288.187 19.6121Z" fill="#C8C2B2"/>
<path fill-rule="evenodd" clip-rule="evenodd" d="M40.363 81.4956C38.6921 83.1782 38.1098 85.8238 35.0985 86.3949C34.8467 86.2463 34.7356 86.0739 34.4839 85.9253C36.1548 84.2426 37.9664 82.5362 39.6373 80.8536C39.9729 81.0518 40.168 81.2737 40.363 81.4956Z" fill="#C8C2B2"/>
<path fill-rule="evenodd" clip-rule="evenodd" d="M53.2309 92.8291C49.4323 93.4691 45.6336 94.1092 41.9757 94.7256C45.6904 94.0359 49.489 93.3959 53.2309 92.8291Z" fill="#C8C2B2"/>
<path fill-rule="evenodd" clip-rule="evenodd" d="M119.317 31.699C118.897 31.4513 118.139 31.3242 117.917 30.9795C116.009 26.9703 113.168 23.6915 109.593 20.7272C113.341 23.1529 116.155 26.3089 118.517 29.7321C118.737 30.3956 118.956 31.0592 119.317 31.699Z" fill="#C8C2B2"/>
<path fill-rule="evenodd" clip-rule="evenodd" d="M24.3049 53.7587C25.0453 52.4876 25.7289 51.2897 26.5532 50.0681C26.6371 50.1177 26.7778 50.094 26.8617 50.1435C26.3139 51.9554 25.8229 53.694 25.275 55.5059C25.0504 55.48 24.9097 55.5037 24.6851 55.4779C24.5197 55.0599 24.4111 54.5687 24.2457 54.1508C24.2185 54.028 24.2753 53.9547 24.3049 53.7587Z" fill="#C8C2B2"/>
<path fill-rule="evenodd" clip-rule="evenodd" d="M273.298 48.2965C270.776 47.4478 268.253 46.5991 265.647 45.7009C265.817 45.4811 265.847 45.2851 265.876 45.089C268.342 46.011 270.949 46.9092 273.414 47.8311C273.526 48.0035 273.412 48.15 273.298 48.2965Z" fill="#C8C2B2"/>
<path fill-rule="evenodd" clip-rule="evenodd" d="M148.529 62.824C151.357 64.0669 154.045 65.3335 156.874 66.5764C156.761 66.7229 156.731 66.919 156.617 67.0655C153.873 65.8721 150.987 64.7024 148.242 63.5091C148.329 63.2398 148.415 62.9705 148.529 62.824Z" fill="#C8C2B2"/>
<path fill-rule="evenodd" clip-rule="evenodd" d="M174.377 70.8239C172.856 71.2075 171.39 71.8367 169.872 71.9014C167.905 71.9144 165.97 71.4125 164.119 70.9602C167.547 70.9557 170.976 70.9512 174.377 70.8239Z" fill="#C8C2B2"/>
<path fill-rule="evenodd" clip-rule="evenodd" d="M158.331 74.483C160.972 74.5474 163.697 74.6615 166.338 74.726C166.365 74.8488 166.336 75.0448 166.363 75.1676C163.665 75.1764 161.051 75.2347 158.353 75.2435C158.299 74.9979 158.245 74.7523 158.331 74.483Z" fill="#C8C2B2"/>
<path fill-rule="evenodd" clip-rule="evenodd" d="M201.24 52.732C203.597 49.5326 205.927 46.2105 208.284 43.0111C208.452 43.1102 208.704 43.2588 208.871 43.3579C206.598 46.6068 204.185 49.8795 201.912 53.1284C201.8 52.9561 201.549 52.8074 201.24 52.732Z" fill="#C8C2B2"/>
<path fill-rule="evenodd" clip-rule="evenodd" d="M27.5831 58.6834C24.0113 55.4004 28.3257 53.4633 28.2613 50.863C28.4859 50.8888 28.7945 50.9642 29.0191 50.9901C28.3873 52.7524 27.6149 54.5384 26.9831 56.3007C27.0671 56.3503 27.2917 56.3761 27.3756 56.4257C27.9161 55.5703 28.3998 54.7883 28.9403 53.933C29.1082 54.032 29.2488 54.0083 29.4167 54.1074C28.7874 55.5509 28.242 57.0439 27.5831 58.6834Z" fill="#C8C2B2"/>
<path fill-rule="evenodd" clip-rule="evenodd" d="M186.487 49.0402C186.64 47.4223 187.158 45.8065 187.086 44.1627C187.099 42.5684 186.662 40.9225 186.59 39.2787C188.111 42.5253 188.17 45.7633 187.161 49.1178C186.993 49.0187 186.768 48.9928 186.487 49.0402Z" fill="#C8C2B2"/>
<path fill-rule="evenodd" clip-rule="evenodd" d="M131.224 40.0099C133.14 39.4325 135.196 38.8313 137.111 38.2538C137.165 38.4994 137.36 38.7213 137.415 38.9669C135.443 39.6176 133.611 40.2446 131.639 40.8954C131.501 40.6002 131.363 40.3051 131.224 40.0099Z" fill="#C8C2B2"/>
<path fill-rule="evenodd" clip-rule="evenodd" d="M179.149 86.1327C179.418 87.6796 179.633 88.9808 178.441 90.5191C177.419 91.8377 177.797 93.8757 177.587 95.5669C177.526 96.2778 177.548 97.0383 177.121 97.7471C177.432 93.8735 176.311 89.7954 178.925 86.1069C179.008 86.1564 179.149 86.1327 179.149 86.1327Z" fill="#C8C2B2"/>
<path fill-rule="evenodd" clip-rule="evenodd" d="M103.909 58.369C100.217 59.8191 96.5812 61.1959 92.8888 62.6461C92.7777 62.4737 92.6667 62.3014 92.5556 62.129C96.1912 60.7522 99.9676 59.3516 103.603 57.9748C103.714 58.1471 103.882 58.2462 103.909 58.369Z" fill="#C8C2B2"/>
<path fill-rule="evenodd" clip-rule="evenodd" d="M99.5088 64.2055C102.498 62.8739 105.544 61.4691 108.533 60.1375C108.56 60.2603 108.728 60.3594 108.755 60.4822C105.793 61.9366 102.831 63.3909 99.8692 64.8453C99.7582 64.673 99.5631 64.4511 99.5088 64.2055Z" fill="#C8C2B2"/>
<path fill-rule="evenodd" clip-rule="evenodd" d="M93.4312 54.2116C95.465 52.8499 97.4987 51.4882 99.5325 50.1265C99.6164 50.1761 99.6436 50.2989 99.7275 50.3484C97.8616 51.8092 95.855 53.2937 93.9891 54.7545C93.7941 54.5326 93.6262 54.4335 93.4312 54.2116Z" fill="#C8C2B2"/>
<path fill-rule="evenodd" clip-rule="evenodd" d="M134.716 64.7055C133.326 62.7106 132.216 60.9872 131.048 59.337C131.105 59.2637 131.162 59.1905 131.302 59.1667C131.581 59.4382 131.803 59.7829 132.169 59.785C134.444 59.8474 134.462 61.2456 134.62 62.62C134.588 63.1349 134.64 63.6994 134.716 64.7055Z" fill="#C8C2B2"/>
<path fill-rule="evenodd" clip-rule="evenodd" d="M135.815 75.2835C134.317 72.7974 132.902 70.3609 131.461 67.8015C131.658 67.7046 131.799 67.6809 131.996 67.5839C133.495 70.07 134.993 72.5561 136.492 75.0421C136.21 75.0896 136.013 75.1865 135.815 75.2835Z" fill="#C8C2B2"/>
<path fill-rule="evenodd" clip-rule="evenodd" d="M134.121 21.4346C133.672 25.0131 133.307 28.6411 132.915 32.1463C132.69 32.1205 132.465 32.0946 132.325 32.1184C132.633 28.5636 132.998 24.9356 133.306 21.3808C133.531 21.4067 133.839 21.4821 134.121 21.4346Z" fill="#C8C2B2"/>
<path fill-rule="evenodd" clip-rule="evenodd" d="M135.18 99.4644C136.481 102.047 137.782 104.63 139.083 107.213C138.802 107.261 138.548 107.431 138.266 107.479C137.022 104.822 135.721 102.239 134.477 99.5829C134.674 99.4859 134.899 99.5118 135.18 99.4644Z" fill="#C8C2B2"/>
<path fill-rule="evenodd" clip-rule="evenodd" d="M108.816 129.382C111.682 129.472 113.874 129.485 116.066 129.498C114.674 131.452 113.072 131.467 108.816 129.382Z" fill="#C8C2B2"/>
<path fill-rule="evenodd" clip-rule="evenodd" d="M132.895 133.668C130.338 137.283 127.808 141.021 125.251 144.636C125 144.487 124.748 144.339 124.496 144.19C127.137 140.624 129.75 136.936 132.391 133.37C132.502 133.543 132.727 133.568 132.895 133.668Z" fill="#C8C2B2"/>
<path fill-rule="evenodd" clip-rule="evenodd" d="M130.977 134.564C128.316 137.05 125.515 139.56 122.854 142.047C122.687 141.947 122.492 141.726 122.324 141.626C124.984 139.14 127.645 136.654 130.362 134.094C130.53 134.193 130.782 134.342 130.977 134.564Z" fill="#C8C2B2"/>
<path fill-rule="evenodd" clip-rule="evenodd" d="M135.065 147.44C136.092 145.484 136.978 143.552 138.005 141.595C138.172 141.694 138.397 141.72 138.649 141.869C137.706 143.875 136.82 145.807 135.877 147.813C135.542 147.615 135.233 147.54 135.065 147.44Z" fill="#C8C2B2"/>
<path fill-rule="evenodd" clip-rule="evenodd" d="M132.77 142.669C131.661 144.256 130.637 145.894 129.529 147.482C129.277 147.333 128.942 147.135 128.69 146.986C129.882 145.448 131.074 143.91 132.323 142.298C132.434 142.47 132.602 142.569 132.77 142.669Z" fill="#C8C2B2"/>
<path fill-rule="evenodd" clip-rule="evenodd" d="M55.2102 21.6114C56.0394 19.7521 56.7847 17.8433 57.6139 15.984C57.8385 16.0098 58.0063 16.1089 58.231 16.1348C57.5424 17.9703 56.8811 19.9287 56.1926 21.7643C55.8273 21.7622 55.5187 21.6868 55.2102 21.6114Z" fill="#C8C2B2"/>
</svg>
