<svg width="191" height="327" viewBox="0 0 191 327" fill="none" xmlns="http://www.w3.org/2000/svg">
<path fill-rule="evenodd" clip-rule="evenodd" d="M120.968 193.568C122.875 192.026 125.1 191.035 127.644 190.596C128.096 190.998 128.683 191.248 129.135 191.649C129.241 195.784 125.559 196.291 123.385 198.135C119.726 203.782 119.726 203.782 110.689 205.468C109.903 206.658 108.834 207.865 107.915 209.205C102.929 211.79 97.6186 208.968 92.6985 210.264C91.495 211.621 90.1578 213.13 88.6868 214.789C84.8227 217.021 80.3176 215.721 76.049 215.978C75.2467 216.883 74.4443 217.788 73.7757 218.542C71.5505 219.533 69.6751 219.218 67.7997 218.902C65.9243 218.586 64.0318 217.986 62.1564 217.671C61.0866 218.878 60.0168 220.084 59.2144 220.989C56.7389 222.566 54.596 222.553 52.3023 222.405C50.2932 222.24 48.6029 222.628 46.628 223.032C44.3686 223.454 42.2257 223.44 40.0657 223.141C36.1673 224.804 32.3342 225.177 28.4121 221.701C27.6065 220.178 26.4992 218.388 25.6936 216.866C24.1851 215.529 22.7623 215.614 21.2057 215.851C14.9965 217.081 9.10607 218.864 3.43502 221.918C2.0464 222.573 1.14458 224.198 0.208519 225.254C-1.26246 226.913 -2.58257 228.706 -3.90269 230.499C-4.70504 231.405 -5.37365 232.159 -6.02515 233.198C-9.04945 237.521 -11.9229 241.978 -14.9472 246.301C-17.32 249.585 -19.6928 252.87 -22.0827 255.87C-23.4199 257.378 -25.0417 258.904 -26.6807 260.145C-33.1027 264.958 -40.3132 268.534 -48.5144 269.884C-49.7864 270.103 -51.0413 270.607 -52.3133 270.826C-52.615 270.559 -52.7659 270.425 -53.0676 270.158C-52.032 268.382 -50.2251 267.559 -48.4011 267.021C-46.1588 266.315 -43.7827 265.458 -41.3895 264.885C-34.7791 263.203 -29.5949 259.178 -24.4106 255.153C-22.5042 253.61 -20.7829 251.365 -19.4799 249.287C-12.3958 238.865 -5.59627 228.459 1.33701 217.903C1.58406 214.89 2.55111 211.975 2.79818 208.962C2.91151 206.099 4.02941 203.318 5.01359 200.689C6.34756 196.753 5.67241 192.652 5.58353 188.802C5.49791 187.379 4.70942 186.141 3.92094 184.903C2.62854 182.411 1.06868 180.22 -0.357446 177.878C-1.14594 176.64 -1.8007 175.252 -2.30461 173.997C-3.51466 170.5 -3.29858 169.344 -0.792064 165.909C-1.60094 161.959 -3.81556 158.38 -3.93869 153.96C-2.98549 153.189 -2.03231 152.417 -1.07911 151.646C-1.09624 151.361 -0.979631 150.926 -1.13048 150.792C-2.18642 149.856 -3.37607 149.071 -4.43201 148.135C-5.94049 146.798 -7.73355 145.478 -9.10829 143.99C-10.6339 142.368 -10.6029 140.509 -9.14907 138.566C-7.87706 138.346 -6.47133 137.976 -4.78102 137.589C-6.07342 135.096 -8.26765 134.228 -10.1773 133.344C-11.0653 132.826 -12.2207 132.61 -13.3932 132.109C-15.4537 131.091 -17.2468 129.771 -18.6558 127.713C-18.5905 126.424 -18.5253 125.135 -18.3435 123.411C-20.6747 120.266 -25.1969 118.682 -26.3417 113.896C-25.9405 113.443 -25.5393 112.991 -25.1382 112.538C-24.737 112.086 -24.185 111.767 -23.7838 111.314C-24.2054 109.055 -25.563 107.851 -26.804 106.212C-27.8942 104.707 -29.269 103.219 -29.4231 100.658C-29.0562 99.6362 -28.7064 98.33 -28.2228 96.8729C-28.5278 94.178 -31.5447 91.5035 -29.3057 88.3699C-27.9342 87.4306 -26.7788 87.6467 -25.8566 88.7336C-24.7835 89.9542 -23.6933 91.4595 -22.6031 92.9647C-21.2145 92.3099 -19.9596 91.806 -18.8556 91.1684C-15.8419 91.4154 -15.0192 93.2223 -14.5976 95.4818C-14.1932 97.4567 -13.9225 99.5824 -13.7855 101.859C-12.5958 102.644 -11.4233 103.145 -10.2336 103.93C-7.13103 108.027 -7.81024 113.352 -5.67798 117.936C-5.24256 118.053 -4.6563 118.303 -4.08715 118.269C-3.36716 118.368 -2.93174 118.485 -2.49632 118.601C-0.250719 120.323 -0.398302 122.616 0.0232583 124.876C0.29397 127.002 0.413841 128.994 0.701684 131.404C2.40912 131.301 3.68113 131.082 5.10398 130.996C6.99651 131.596 8.35414 132.8 8.32316 134.658C8.46015 136.935 8.4463 139.078 8.01414 141.388C7.44826 143.85 6.31324 146.346 5.31194 148.691C4.67756 150.014 4.04319 151.338 5.13338 152.843C7.31048 153.426 9.11412 150.176 11.6785 152.449C13.0704 154.222 13.0737 156.649 12.357 158.977C11.774 161.154 10.7555 163.215 10.0217 165.258C9.27071 167.017 8.06719 168.375 7.50131 170.836C8.88991 170.182 9.86024 169.695 10.9814 169.342C11.266 169.325 11.5505 169.307 11.8351 169.29C14.2968 169.856 14.9687 171.529 14.9548 173.672C15.0437 177.523 13.9772 181.157 11.4364 184.023C7.80874 187.811 7.21187 192.131 7.2184 196.986C7.20454 199.129 7.05696 201.423 7.06023 203.85C8.75054 203.463 9.25119 202.29 9.75184 201.118C14.6417 189.828 19.3808 178.404 24.1198 166.98C24.9874 164.786 25.8721 162.876 26.8905 160.816C30.2785 153.044 34.1018 145.388 37.3389 137.482C40.3086 129.877 41.1183 121.975 39.4834 113.791C39.1132 112.385 38.6093 111.13 38.0882 109.59C33.1135 107.605 28.7903 104.581 24.9849 100.668C24.3815 100.134 23.9118 99.4478 23.5758 98.6112C23.257 98.0592 23.3565 97.3392 23.3394 97.0546C24.3064 94.1404 26.7681 94.7063 28.4584 94.319C29.5282 93.1122 28.6231 92.3098 28.1535 91.6241C26.2234 88.0274 26.2234 88.0274 26.4191 84.16C27.2386 83.5395 28.3426 82.9018 29.5804 82.1133C29.3953 81.4105 29.361 80.8413 29.0422 80.2893C27.9178 78.215 26.5088 76.1577 25.5181 73.9325C24.6782 71.841 25.1275 69.8148 27.1847 68.4058C29.2933 67.8505 30.6338 68.7694 31.5903 70.4255C32.5639 72.3661 33.4037 74.4576 34.5453 76.8165C35.5499 76.8989 36.839 76.9641 38.1281 77.0294C40.3224 77.8969 40.7268 79.8718 40.6958 81.7301C40.682 83.8729 40.5344 86.1666 40.5205 88.3095C41.7102 89.0947 42.749 89.7462 43.6541 90.5486C46.4411 96.5213 43.1322 100.862 40.2417 105.034C40.1112 107.612 41.7322 117.939 42.8599 122.441C44.5331 121.769 45.3183 120.58 46.0864 119.105C48.6753 114.665 51.1133 110.092 53.7022 105.652C54.4703 104.178 55.5401 102.971 56.459 101.631C57.2443 100.441 58.0295 99.2512 58.9484 97.9107C55.4585 92.1231 54.8315 86.4488 59.4947 80.8845C61.2021 80.7818 62.4742 80.5624 64.1816 80.4597C64.449 80.158 64.7165 79.8563 64.8331 79.4209C65.3166 77.9638 65.6493 76.3729 65.982 74.7821C66.3318 73.4758 66.6644 71.885 68.3205 70.9285C69.3251 71.0109 70.4805 71.227 71.9205 71.4259C72.7709 68.9471 73.6385 66.7529 74.6398 64.4078C76.3301 64.0205 77.585 63.5166 78.857 63.2973C80.9966 60.8837 80.4894 57.2014 83.0644 54.9044C83.901 54.5685 85.3068 54.1983 86.1433 53.8623C87.9299 50.3276 87.505 45.6407 92.0892 43.5085C92.8948 45.0308 93.5495 46.4194 94.3723 48.2263C96.5975 47.2356 98.4044 46.4129 99.9267 45.6073C101.668 46.0737 102.021 47.1948 101.521 48.3674C101.037 49.8245 100.269 51.2987 99.5011 52.7729C98.9833 53.6609 97.8964 54.5831 97.5124 55.3202C96.6962 58.3682 96.5828 61.231 95.5815 63.5761C94.4465 66.072 92.4235 68.0502 90.5856 70.7312C88.9361 76.5425 88.9361 76.5425 82.682 81.7741C82.466 82.9295 82.267 84.3695 81.9343 85.9603C80.5971 87.4688 79.2599 88.9772 78.0563 90.3349C77.4733 92.512 76.7395 94.5554 76.4239 96.4308C72.9952 98.7791 69.5322 100.558 65.346 99.8106C63.906 99.6116 62.2328 100.284 60.9608 100.503C53.5546 107.946 37.5069 137.9 36.464 146.674C36.7486 146.657 37.2011 147.058 37.3349 146.907C43.4894 142.395 49.6269 137.599 56.0489 132.786C59.6905 126.855 64.388 121.86 70.2751 117.65C71.6466 116.71 72.8672 115.637 74.8111 117.091C75.1642 118.212 75.5344 119.618 76.0554 121.158C77.78 121.339 79.0006 120.266 80.3721 119.327C82.1619 118.22 84.2362 117.095 86.026 115.988C87.634 116.605 88.9574 117.24 90.5653 117.857C94.498 116.763 97.4057 112.876 102.36 112.149C103.365 112.231 104.671 112.581 106.111 112.78C108.789 112.191 111.096 110.195 114.278 110.861C115.032 111.529 116.071 112.181 117.127 113.117C117.696 113.083 118.131 113.199 118.55 113.031C120.658 112.476 122.901 111.77 125.026 111.499C126.583 111.263 128.174 111.595 128.88 113.838C128.314 116.299 126.541 117.691 124.165 118.548C122.626 119.069 120.767 119.038 118.926 119.292C117.654 119.511 116.516 119.58 114.826 119.967C115.631 121.489 116.118 122.46 116.773 123.848C116.656 124.284 116.406 124.87 116.306 125.59C115.754 125.909 115.487 126.21 114.918 126.245C113.495 126.33 112.055 126.131 110.615 125.932C109.041 125.884 107.451 125.552 105.726 125.37C101.464 130.482 96.1223 129.518 90.6298 128.42C89.1245 129.51 88.0376 130.433 86.9507 131.355C84.4409 132.363 82.113 131.646 79.6513 131.08C77.3405 130.648 75.0297 130.216 72.0673 130.822C73.0067 132.194 73.4935 133.164 74.1311 134.268C74.2338 135.976 73.7503 137.433 72.5468 138.79C67.1261 141.259 63.3377 137.631 59.4671 135.008C57.1734 134.86 55.819 136.084 54.4475 137.024C51.42 138.919 48.3924 140.815 45.6665 142.978C43.0744 144.991 40.3486 147.154 38.0753 149.718C32.308 155.92 27.8812 163.041 25.2133 170.913C25.0967 171.348 25.1309 171.918 25.0314 172.637C25.7514 172.737 26.3377 172.987 26.8897 172.668C28.6966 171.846 30.3527 170.889 31.875 170.084C32.5094 168.76 33.1609 167.721 33.7953 166.398C35.815 161.993 39.1924 158.79 43.0223 155.99C44.26 155.201 45.4978 154.413 47.2566 155.164C49.269 157.756 46.4094 160.07 46.5806 162.916C47.0161 163.032 47.6023 163.282 48.3223 163.382C50.3111 160.835 52.1661 158.438 54.3228 156.309C55.5263 154.952 56.8978 154.012 58.403 152.922C59.2225 152.302 60.5116 152.367 61.6328 152.014C62.7058 153.234 63.6281 154.321 64.5503 155.408C67.948 154.918 70.3208 151.634 74.3562 152.248C74.843 153.218 75.4806 154.322 76.1182 155.426C76.5537 155.543 76.9891 155.659 77.4074 155.491C78.964 155.255 80.5034 154.734 82.1937 154.347C84.1686 153.942 86.0098 153.688 88.0703 154.707C88.5399 155.393 89.1605 156.212 89.949 157.45C92.2255 157.313 94.6529 157.31 96.7958 157.323C98.0026 158.393 98.9077 159.196 99.8128 159.998C101.537 160.18 103.262 160.362 105.271 160.526C106.193 161.613 106.982 162.851 108.055 164.072C109.762 163.969 111.754 163.849 113.612 163.88C115.906 164.028 118.066 164.326 118.94 166.987C118.508 169.297 116.852 170.254 114.726 170.525C113.303 170.61 111.73 170.562 110.441 170.497C109.018 170.583 107.578 170.384 106.439 170.452C104.684 172.129 104.855 174.974 103.165 175.362C99.9522 176.555 98.142 174.95 95.6804 174.384C90.7945 176.249 87.1261 174.613 84.9596 169.46C83.571 170.115 82.3161 170.618 80.6429 171.29C79.0349 170.673 77.1424 170.073 75.099 169.339C72.1538 170.23 68.8384 169.716 65.5059 168.917C64.1173 169.572 62.8624 170.075 61.4738 170.73C57.9252 171.087 54.7264 170.137 51.7608 168.316C50.5712 167.531 49.2478 166.896 47.7907 166.413C47.2044 166.162 46.217 166.365 46.018 167.805C48.0957 169.108 50.3241 170.544 52.4017 171.847C53.2758 174.508 51.9215 175.732 50.2483 176.404C46.9019 177.748 43.5694 176.948 40.5867 174.843C39.0953 173.79 37.7206 172.302 36.5138 171.233C30.4212 172.028 24.2324 175.97 21.6606 180.694C15.749 191.617 11.1608 203.175 6.12011 214.331C5.73605 215.068 5.78742 215.922 5.68795 216.642C6.27421 216.892 6.5759 217.16 6.84336 216.858C12.1817 215.394 17.2355 213.948 22.7076 212.333C24.3433 208.665 26.4144 205.113 29.5414 202.497C31.1632 200.972 33.0868 199.713 34.8765 198.606C35.9806 197.968 36.1314 198.102 38.4594 198.819C39.8684 200.876 38.514 202.1 37.4613 203.591C37.5437 202.587 38.0444 201.414 36.553 200.362C32.2502 200.049 30.0111 203.183 27.4703 206.049C26.2668 207.407 25.2313 209.183 26.2049 211.123C28.2311 211.573 29.6026 210.633 30.6895 209.711C32.9971 207.716 35.1538 205.587 37.4613 203.591C37.763 203.859 38.2156 204.26 38.5344 204.812C39.2373 204.627 40.3756 204.558 41.2122 204.223C43.739 203.499 45.6316 204.099 46.7731 206.458C46.7903 206.743 47.2257 206.86 47.5445 207.412C50.7914 206.788 52.7116 203.102 56.7299 203.432C57.9024 203.932 59.3767 204.7 60.4155 205.352C63.5629 205.448 66.0694 202.013 69.0521 204.118C71.0988 207.279 67.3341 208.791 66.9019 211.102C67.4882 211.352 67.9236 211.469 68.2253 211.736C68.6436 211.568 69.1956 211.25 69.3122 210.814C71.7674 206.525 75.9332 204.561 80.2328 202.446C81.7551 201.64 83.3117 201.404 84.9882 203.159C85.0567 204.297 85.1423 205.72 85.3616 206.992C85.797 207.109 86.0987 207.376 86.2325 207.226C86.9182 206.756 87.8885 206.269 88.5571 205.515C92.1677 201.442 96.601 199.176 102.059 199.704C107.545 195.947 114.509 195.385 120.968 193.568C119.898 194.775 117.924 195.18 117.759 197.189C122.045 197.217 124.822 195.907 126.927 192.924C126.056 192.691 125.319 192.307 124.616 192.492C123.344 192.711 122.223 193.065 120.968 193.568ZM4.52099 133.173C2.08297 137.747 1.73643 141.481 3.567 145.797C3.73496 146.216 4.30411 146.181 4.60581 146.449C6.56029 143.332 7.56159 140.987 7.80865 137.974C7.85676 136.4 7.90486 134.826 6.53011 133.338C6.09468 133.221 5.3747 133.122 4.52099 133.173ZM-11.9378 106.46C-13.5082 108.84 -12.9358 111.233 -12.0788 113.609C-10.903 116.537 -10.413 119.935 -6.84399 122.29C-6.79588 120.717 -6.57981 119.561 -6.78203 118.574C-7.57378 114.909 -7.79639 111.209 -9.55846 108.031C-9.87728 107.479 -10.3298 107.077 -10.7824 106.676C-11.0841 106.409 -11.5024 106.577 -11.9378 106.46ZM45.4016 157.56C44.5307 157.327 44.229 157.059 44.0953 157.21C40.2964 158.153 37.8894 160.868 36.2366 164.252C35.9862 164.838 36.4559 165.524 36.5073 166.378C39.2364 166.642 41.177 165.668 42.648 164.009C44.5373 162.182 45.8574 160.389 45.4016 157.56ZM94.9235 59.7601C91.0732 59.8489 89.5028 62.2283 87.7644 64.1893C86.4271 65.6978 84.6716 67.3742 85.2611 70.052C87.4211 70.3504 88.6246 68.9928 90.1298 67.9026C91.9025 66.5107 93.6752 65.1188 94.5427 62.9246C94.6422 62.2046 94.7246 61.2 94.9235 59.7601ZM60.6705 83.8126C58.0613 85.5404 57.9308 88.1187 58.3695 90.6627C58.6231 92.5039 59.0275 94.4787 61.6229 94.8938C64.215 92.8814 63.6255 90.2036 63.6051 87.4916C63.5024 85.7842 62.9813 84.2447 60.6705 83.8126ZM103.299 125.373C101.17 123.216 98.9924 122.633 96.4313 122.788C93.0164 122.993 91.8952 123.346 90.2905 125.156C93.8938 128.081 98.3303 128.242 103.299 125.373ZM-16.155 107.571C-14.7044 103.199 -14.3407 99.7504 -15.4 96.3869C-15.7701 94.9811 -16.4078 93.8771 -18.1152 93.9798C-19.6376 94.7854 -19.8365 96.2254 -19.7509 97.6483C-19.4117 100.912 -18.6542 104.008 -16.155 107.571ZM71.7568 211.095C76.0939 211.977 78.8368 210.098 81.5798 208.22C82.6839 207.582 83.4691 206.392 82.8143 205.004C80.2189 204.589 80.0681 204.455 78.412 205.411C75.9194 206.704 73.5604 207.845 71.7568 211.095ZM38.6395 170.962C38.6567 171.246 38.5229 171.397 38.6738 171.531C39.3628 173.489 41.1216 174.24 43.0141 174.84C44.9067 175.44 46.95 176.174 49.0415 175.334C49.8781 174.998 50.413 174.395 50.0599 173.273C48.0818 171.25 45.4693 170.551 42.5893 170.153C41.0156 170.105 39.5585 169.621 38.6395 170.962ZM73.0727 119.052C70.3436 118.788 68.1184 119.779 65.1422 122.528C64.0553 123.45 62.9684 124.373 63.3728 126.348C67.4392 125.103 71.0872 124.027 73.4429 120.458C73.2749 120.04 73.2407 119.471 73.0727 119.052ZM10.3584 154.242C8.08184 154.379 7.5983 155.836 7.13191 157.578C6.41517 159.906 6.2676 162.2 7.69373 164.541C10.2687 162.245 11.4209 160.033 11.7022 157.589C11.9011 156.149 11.6989 155.161 10.3584 154.242ZM45.5313 216.672C48.0444 218.092 49.8203 219.127 51.7299 220.012C54.075 221.013 55.7653 220.626 57.6375 218.514C56.513 216.44 54.4868 215.99 52.4776 215.826C50.3177 215.527 48.1577 215.229 45.5313 216.672ZM61.5243 133.599C62.683 136.242 64.7264 136.976 66.7526 137.425C68.628 137.741 70.6372 137.906 72.1081 136.246C72.0739 135.677 72.0396 135.108 71.9711 133.97C68.5391 133.891 65.4056 131.652 61.5243 133.599ZM13.2784 171.917C10.4326 172.088 9.96624 173.83 9.63357 175.42C9.20141 177.731 8.21723 180.361 10.3634 182.802C13.0207 179.501 14.2552 176.285 13.2784 171.917ZM104.444 168.145C108.85 170.164 112.583 170.511 116.465 168.564C116.345 166.572 115.172 166.071 113.883 166.006C110.719 165.625 107.705 165.378 104.444 168.145ZM74.1245 79.5758C76.4011 79.4388 76.7509 78.1325 76.9669 76.9771C77.4986 73.9463 78.4485 70.7475 76.6693 67.2845C76.0007 68.0388 75.2978 68.2239 75.0475 68.8101C74.1147 72.2935 73.8848 75.5918 74.1245 79.5758ZM92.6324 173.568C92.78 171.274 91.8236 169.618 90.0305 168.298C89.1254 167.496 87.802 166.861 86.4305 167.8C85.563 169.995 87.0886 171.617 88.045 173.273C89.6701 174.174 91.0106 175.093 92.6324 173.568ZM52.1865 161.15C56.2047 161.48 58.1454 160.506 60.9193 156.769C60.7514 156.351 60.5663 155.648 60.2474 155.096C56.1126 155.202 53.973 157.615 52.1865 161.15ZM44.1125 207.332C43.0737 206.681 42.4874 206.431 42.1857 206.163C37.7011 207.575 36.7308 208.062 34.574 210.191C34.1729 210.644 34.2071 211.213 33.8402 212.235C38.1088 211.978 41.1706 210.651 44.1125 207.332ZM52.025 165.587C51.9256 166.307 51.9598 166.876 51.994 167.445C54.0888 169.033 56.4167 169.749 58.9779 169.595C59.547 169.561 60.2328 169.091 60.9185 168.622C60.0615 166.246 58.169 165.645 56.1085 164.627C55.6902 164.795 54.8365 164.846 54.1336 165.031C53.7153 165.199 53.0125 165.385 52.025 165.587ZM67.2703 86.6999C69.1424 84.588 69.7768 83.2646 70.4593 80.3675C70.6411 78.643 70.823 76.9184 69.7328 75.4132C69.5819 75.2795 69.1465 75.1629 68.7111 75.0463C67.055 76.0027 67.4423 77.693 67.1097 79.2839C66.6775 81.5947 66.1116 84.0564 67.2703 86.6999ZM36.4315 222.075C36.7471 220.199 35.6911 219.263 34.5015 218.478C32.7256 217.443 31.2171 216.105 28.841 216.962C28.5426 219.122 29.7665 220.477 31.2407 221.245C32.7492 222.582 34.508 223.333 36.4315 222.075ZM95.7081 170.098C94.8234 172.008 95.7456 173.095 96.9353 173.88C98.4437 175.217 100.203 175.968 102.126 174.71C102.911 173.52 102.558 172.399 101.653 171.597C99.9938 170.126 97.9504 169.392 95.7081 170.098ZM4.60015 179.579C5.88602 177.217 5.36498 175.677 4.71022 174.289C4.03832 172.616 3.23272 171.093 1.47392 170.342C0.736792 169.958 0.0339278 170.143 -0.466719 171.316C0.290783 174.412 2.15233 176.87 4.60015 179.579ZM87.3078 73.2132C83.6597 74.2896 81.167 75.582 79.8298 77.0904C79.1612 77.8447 78.3588 78.7498 79.5827 80.1041C82.4113 79.6483 84.7531 78.2222 86.6082 75.8258C87.0093 75.3732 86.958 74.5195 87.3078 73.2132ZM47.6163 210.977C47.7842 211.396 47.9522 211.814 48.1373 212.517C51.9705 212.143 54.4289 210.282 56.0817 206.898C55.6291 206.497 55.3274 206.229 54.7412 205.979C51.628 206.452 49.4542 208.296 47.6163 210.977ZM81.123 67.7305C81.2738 67.8643 81.4247 67.998 81.5584 67.8471C81.843 67.83 82.1276 67.8129 82.4121 67.7958C85.2375 64.9125 85.9199 62.0154 85.4984 59.756C85.3133 59.0531 84.9773 58.2165 84.1236 58.2679C81.3325 61.7203 80.849 63.1774 81.123 67.7305ZM91.9743 119.914C93.1297 120.13 93.716 120.38 94.0006 120.363C96.9629 119.757 99.4556 118.464 101.479 116.486C101.746 116.184 101.845 115.464 101.928 114.46C97.793 114.566 95.0671 116.729 91.9743 119.914ZM-25.8231 101.155C-26.5741 102.914 -25.501 104.135 -24.7297 105.088C-23.4886 106.727 -22.2305 108.65 -19.7688 109.216C-19.1687 107.324 -19.5389 105.918 -20.6119 104.697C-22.1375 103.076 -23.3957 101.152 -25.8231 101.155ZM75.7236 160.733C79.0047 160.679 81.6996 160.374 84.158 158.512C84.71 158.194 84.8095 157.474 85.3444 156.87C81.2577 155.402 78.213 157.014 75.3192 158.759C75.5043 159.461 75.5214 159.746 75.7236 160.733ZM87.4652 128.039C85.5042 126.301 85.0688 126.184 83.6459 126.27C81.6539 126.39 79.679 126.794 77.9235 128.471C80.4537 130.175 83.0491 130.59 85.7268 130C86.2788 129.682 86.9303 128.643 87.4652 128.039ZM26.2194 97.4525C27.4294 100.95 29.9596 102.654 33.4429 103.587C33.8408 100.707 31.7632 99.4038 30.1039 97.9328C29.1988 97.1304 27.8583 96.2115 26.2194 97.4525ZM86.7086 162.929C88.2171 164.266 90.1919 163.861 92.016 163.323C93.4217 162.953 95.112 162.566 95.4276 160.69C92.7808 159.421 91.9271 159.473 89.1156 160.213C87.7099 160.583 86.5887 160.937 86.7086 162.929ZM115.323 116.367C116.077 117.036 116.379 117.303 116.664 117.286C119.544 117.684 122.355 116.944 124.865 115.936C125.283 115.768 125.667 115.031 126.185 114.143C121.982 113.11 118.903 114.152 115.323 116.367ZM72.652 154.778C68.5172 154.884 66.0587 156.745 63.9192 159.159C64.591 160.832 65.8631 160.613 66.9842 160.26C69.3603 159.403 71.7192 158.261 72.652 154.778ZM38.7519 80.2763C36.7599 80.3961 36.561 81.8361 36.3449 82.9915C35.7138 86.7423 35.9845 88.8681 37.3935 90.9253C39.516 88.2271 39.6978 86.5026 38.7519 80.2763ZM88.1144 212.396C85.9854 210.239 83.8939 211.079 81.7682 211.35C80.4962 211.569 79.207 211.504 79.0252 213.228C80.0983 214.449 81.672 214.497 83.0948 214.412C84.8023 214.309 86.6605 214.34 88.1144 212.396ZM58.3305 211.047C58.9168 211.297 59.2185 211.564 59.3694 211.698C62.5168 211.794 64.7077 210.234 66.5627 207.838C66.6965 207.687 66.3776 207.135 66.1925 206.432C64.0326 206.134 62.5273 207.224 60.7204 208.047C59.7501 208.533 58.6632 209.456 58.3305 211.047ZM95.8353 165.093C97.378 166.999 98.9175 166.478 100.457 165.957C101.996 165.436 103.553 165.199 103.869 163.324C103.063 161.802 101.774 161.736 100.502 161.956C98.6777 162.494 96.8366 162.747 95.8353 165.093ZM42.2516 93.3462C38.7063 96.1299 38.3736 97.7208 40.002 101.05C41.9597 100.361 42.8615 98.7359 43.4617 96.8434C43.8286 95.8217 43.8938 94.5326 42.2516 93.3462ZM33.831 93.4245C34.5991 91.9502 33.8107 90.7125 33.4405 89.3067C33.0703 87.901 32.2818 86.6632 30.6738 86.046C30.3893 86.0631 30.1047 86.0802 29.8201 86.0974C29.5527 86.3991 29.2852 86.7007 29.1515 86.8516C29.6929 91.1031 30.1797 92.0734 33.831 93.4245ZM105.113 117.553C107.441 118.269 108.963 117.464 110.335 116.524C111.439 115.887 112.827 115.232 113.009 113.507C109.961 112.691 107.602 113.833 105.113 117.553ZM64.7142 165.252C67.7996 169.064 68.8213 169.431 71.9997 167.669C71.53 166.983 71.0433 166.013 70.4399 165.478C68.8148 164.576 66.9394 164.261 64.7142 165.252ZM103.83 122.342C107.197 123.711 109.809 124.41 112.772 123.803C111.346 121.462 111.195 121.328 109.604 120.995C107.862 120.529 106.004 120.498 103.83 122.342ZM86.1801 118.549C82.9332 119.173 81.0269 120.716 79.1205 122.258C78.5685 122.577 78.469 123.297 79.0724 123.832C83.6084 123.273 85.2473 122.032 86.1801 118.549ZM3.55887 164.647C3.52136 161.651 2.94895 159.258 1.10453 157.084C0.802831 156.816 0.099957 157.002 -0.62003 156.902C-0.027235 162.007 0.627529 163.396 3.55887 164.647ZM44.4648 220.306C42.7541 217.981 41.8661 217.464 38.6673 216.514C38.081 216.263 37.3611 216.164 37.2958 217.453C38.5026 218.523 39.7094 219.593 41.2179 220.93C42.2396 221.297 43.5458 221.647 44.4648 220.306ZM-1.15661 131.373C-0.457007 128.76 -0.611118 126.199 -1.0498 123.655C-1.2349 122.952 -1.68744 122.551 -2.67488 122.753C-4.19395 125.986 -3.16901 128.781 -1.15661 131.373ZM93.6621 55.4091C96.4564 54.3842 98.212 52.7077 98.459 49.694C94.9618 50.9041 94.2932 51.6583 93.6621 55.4091ZM70.8564 89.3401C74.6072 89.9712 75.9958 89.3165 78.3857 86.3166C76.459 85.1473 74.6692 86.2547 72.9789 86.642C71.9914 86.8442 70.9045 87.7664 70.8564 89.3401ZM74.4629 94.6923C71.0961 93.3241 68.8367 93.7457 66.9645 95.8576C66.8308 96.0084 66.9988 96.4267 67.033 96.9958C69.8135 98.1137 71.8879 96.9893 74.4629 94.6923ZM104.02 201.443C108.039 201.772 109.828 200.665 110.946 197.884C108.903 197.151 107.247 198.107 105.742 199.197C105.056 199.667 104.538 200.555 104.02 201.443ZM-7.72295 140.907C-4.62037 145.005 -4.31868 145.272 -1.47295 145.101C-1.60995 142.824 -3.1013 141.772 -4.8601 141.021C-5.31264 140.619 -6.30009 140.822 -7.72295 140.907ZM106.656 207.282C103.307 206.198 102.453 206.25 99.6416 206.99C98.9387 207.175 98.3867 207.494 98.7398 208.615C101.033 208.763 103.646 209.462 106.656 207.282ZM91.2863 205.779C91.7388 206.18 91.9068 206.599 92.1914 206.581C94.2005 206.746 96.0074 205.923 97.3618 204.699C97.6292 204.398 97.7287 203.678 97.8282 202.958C94.6807 202.862 92.891 203.969 91.2863 205.779ZM29.1971 70.9979C27.6952 74.5155 28.3499 75.9041 31.415 77.0049C32.1317 74.677 31.309 72.87 29.1971 70.9979ZM-13.6599 120.558C-15.3877 117.949 -17.1807 116.629 -19.3578 116.046C-19.6424 116.063 -20.1944 116.382 -21.031 116.718C-18.9192 118.59 -17.3764 120.496 -13.6599 120.558ZM75.881 165.722C75.9185 168.719 76.3539 168.835 80.0876 169.182C80.0534 168.613 80.0191 168.043 80.1357 167.608C78.761 166.12 77.5713 165.335 75.881 165.722ZM119.421 201.087C115.955 200.439 115.671 200.456 112.945 202.619C115.29 203.621 115.29 203.621 119.421 201.087ZM-26.875 90.7941C-27.1905 92.6695 -26.5529 93.7736 -25.7815 94.7268C-25.4627 95.2788 -25.0102 95.6799 -24.3416 94.9257C-24.9311 92.248 -24.9311 92.248 -26.875 90.7941ZM91.242 48.4147C89.0682 50.2591 88.7355 51.8499 89.4416 54.0923C91.4988 52.6833 91.547 51.1096 91.242 48.4147ZM-13.9689 127.289C-13.2799 129.246 -12.1073 129.747 -10.1325 129.343C-10.8215 127.385 -11.994 126.884 -13.9689 127.289ZM65.7017 214.887C65.5851 215.322 65.6022 215.607 65.4856 216.042C66.5073 216.409 67.5119 216.492 68.5336 216.859C68.8181 216.842 69.0856 216.54 69.6205 215.936C68.4651 215.72 67.728 215.336 67.008 215.237C66.7063 214.969 66.2708 214.853 65.7017 214.887Z" fill="#828282"/>
</svg>
