<svg width="381" height="297" viewBox="0 0 381 297" fill="none" xmlns="http://www.w3.org/2000/svg">
<path fill-rule="evenodd" clip-rule="evenodd" d="M156.668 232.351C162.988 229.659 169.186 227.224 175.505 224.532C179.297 228.523 184.516 233.501 189.476 238.358C184.321 230.575 182.857 222.325 184.051 213.123C185.715 218.947 187.379 224.771 189.044 230.595C189.803 230.323 190.441 230.308 190.943 229.914C190.218 226.108 189.235 222.18 187.935 215.583C193.879 224.368 198.489 230.634 202.977 237.159C203.478 236.765 203.98 236.371 204.36 236.235C201.692 231.199 199.025 226.162 196.357 221.126C196.737 220.99 197.117 220.854 197.618 220.46C205.188 227.806 213.138 235.016 220.707 242.362C221.331 241.71 221.954 241.059 222.577 240.408C219.043 236.538 215.645 233.047 212.111 229.178C212.856 228.269 213.343 227.238 214.088 226.329C218.352 228.653 222.739 230.72 227.261 233.165C231.784 235.611 236.443 238.436 240.844 241.139C241.087 240.623 241.209 240.366 241.194 239.729C233.016 233.671 224.974 227.993 214.853 220.705C231.479 222.238 244.521 223.343 252.631 237.557C258.224 247.752 261.196 266.161 255.962 277.239C253.932 272.188 251.917 267.774 250.023 263.102C249.644 263.238 249.264 263.374 248.762 263.768C250.047 269.728 251.196 275.308 252.48 281.268C243.748 267.705 230.832 260.99 217.035 254.806C208.657 251.174 200.751 245.874 192.86 241.212C196.774 244.945 200.322 249.452 205.103 252.019C214.026 257.168 224.44 260.499 232.862 266.041C237.657 269.245 240.733 275.419 244.418 280.305C248.361 285.312 251.924 290.456 256.276 296.601C266.965 267.304 263.676 246.226 245.797 223.314C246.814 223.163 247.574 222.891 248.09 223.134C263.191 230.563 263.985 226.213 266.718 211.751C267.634 207.143 268.033 202.291 268.949 197.683C269.865 193.075 270.78 188.467 272.061 183.086C279.422 186.868 287.163 190.515 294.782 194.419C288.682 189.971 282.339 186.037 276.619 181.453C273.888 179.221 272.023 175.823 269.915 172.94C270.539 172.289 271.42 171.759 271.921 171.365C274.91 173.719 277.763 175.692 280.752 178.046C281.132 177.909 281.375 177.394 281.755 177.258C277.963 173.267 274.551 169.139 270.758 165.148C271.26 164.754 271.503 164.239 272.005 163.845C279.151 169.417 286.419 174.731 293.824 180.424C294.067 179.909 294.569 179.515 295.07 179.121C289.73 174.401 284.648 169.801 279.308 165.081C279.429 164.823 279.673 164.308 279.795 164.05C283.801 166.253 287.808 168.455 292.725 171.402C282.4 155.198 266.568 149.315 251.345 142.143C263.886 143.642 276.306 145.398 289.105 147.018C290.591 133.859 276.934 139.394 273.814 131.31C285.138 135.385 296.462 139.46 307.907 143.277C308.151 142.761 308.273 142.504 308.516 141.989C299.364 137.992 289.953 133.874 280.801 129.877C280.923 129.619 281.166 129.104 281.288 128.846C289.652 131.842 297.894 135.094 306.773 138.333C304.311 125.519 291.327 126.961 285.276 119.071C292.364 122.095 299.195 124.998 307.315 128.509C306.117 126.37 305.587 125.49 304.798 124.488C320.465 128.719 361.361 170.349 363.487 185.209C359.982 182.613 357.129 180.639 354.14 178.286C353.638 178.68 353.273 179.453 352.772 179.846C357.64 186.234 362.629 192.365 367.497 198.753C366.996 199.146 366.616 199.283 366.114 199.676C359.985 193.954 353.978 187.974 347.849 182.252C347.348 182.646 346.725 183.297 346.481 183.812C349.621 187.182 352.761 190.551 356.159 194.041C354.26 194.722 353.608 194.099 352.712 193.992C351.938 193.628 351.3 193.642 349.251 193.306C352.254 196.296 353.953 198.042 355.91 199.909C355.545 200.681 355.18 201.454 355.072 202.349C345.311 199.64 335.17 197.068 325.667 194.481C326.714 195.604 328.277 196.97 329.323 198.093C323.067 197.98 317.191 197.732 310.297 197.634C311.86 199 312.906 200.123 314.075 200.988C313.831 201.504 313.588 202.019 313.344 202.534C307.166 200.254 300.731 197.852 294.553 195.571C300.603 203.461 309.576 205.169 318.641 205.344C337.789 205.546 356.342 207.672 373.644 216.453C374.934 217.06 376.468 217.153 380.187 217.96C368.213 196.57 368.678 172.221 347.633 156.007C329.577 142.146 318.333 119.21 291.23 117.151C297.897 101.708 303.711 88.0686 309.01 74.1858C309.604 72.2609 306.936 67.2245 305.009 66.6313C300.637 65.2017 295.671 65.697 290.69 65.5555C284.814 65.307 277.57 66.6188 273.169 63.9156C256.081 53.3458 242.225 61.3069 227.867 69.6618C225.345 70.9935 223.095 73.0835 220.33 74.9305C223.05 43.1391 221.721 35.2688 195.525 22.6127C205.553 31.4318 217.529 36.1288 217.835 49.5017C218.218 60.7066 219.634 72.3977 212.199 82.1241C200.651 73.8493 200.393 73.7278 184.885 93.195C181.473 89.0675 178.547 83.9096 174.268 80.9488C172.584 79.8403 167.433 83.3981 161.615 85.6968C176.852 93.5053 175.853 105.634 177.21 114.778C172.114 109.542 165.848 103.44 159.705 97.0814C144.536 81.1159 141.923 67.2858 150.976 50.1319C151.828 48.3285 153.561 45.9953 153.138 44.221C149.264 31.0567 158.218 20.7861 161.145 9.25095C162.212 5.65869 167.256 2.99529 169.749 0.389977C165.255 -0.781997 161.988 1.45866 159.203 8.02089C154.864 19.2059 147.307 29.1898 149.784 42.6408C150.509 46.4471 146.268 50.7487 145.474 55.0994C144.129 63.2854 143.559 71.836 142.365 81.038C133.178 81.1197 122.147 73.088 111.616 81.3557C113.271 81.1906 114.546 81.1616 116.202 80.9964C133.865 77.6635 153.611 87.2807 161.506 103.284C161.778 104.043 162.445 105.302 162.202 105.817C156.32 110.921 161.967 112.321 164.835 114.932C166.655 116.42 166.972 119.088 168.169 121.227C157.225 117.017 150.186 110.551 148.269 99.2531C147.845 97.4788 144.204 94.5034 143.065 94.9116C139.647 96.1363 136.896 98.62 134.009 100.725C135.586 102.728 136.92 105.246 138.998 106.855C144.31 110.302 149.986 112.976 156.573 116.394C148.189 118.114 141.84 119.533 135.234 120.83C135.399 122.483 135.428 123.757 135.593 125.409C139.04 125.458 142.502 126.144 145.812 125.814C154.469 124.852 155.106 124.838 159.366 132.514C157.452 132.557 155.145 132.1 153.762 133.024C151.118 134.613 149.141 137.462 146.892 139.552C149.594 140.509 152.31 142.104 155.256 142.547C157.563 143.004 160.1 142.309 162.529 142.509C159.413 145.765 156.253 147.112 152.699 147.957C143.95 150.45 134.792 151.805 126.574 155.178C107.615 163.255 80.4942 149.219 76.9617 128.656C79.1331 128.734 81.3044 128.812 83.2178 128.768C83.4612 128.253 83.4467 127.616 83.6902 127.101C79.0604 125.55 74.8103 123.862 70.1806 122.311C71.2563 124.708 71.9522 127.241 72.0885 127.62C61.4989 133.34 51.4109 138.667 41.3228 143.994C47.0046 141.316 52.5501 138.259 58.3827 136.597C63.1978 135.086 68.5581 135.091 73.9037 134.46C74.0546 135.476 74.2054 136.492 74.4779 137.25C72.472 138.825 70.4805 141.036 68.202 141.853C56.4441 146.708 50.1482 156.026 45.0352 166.846C42.1134 173.029 39.07 179.47 34.4639 184.545C29.8578 189.619 23.2947 192.827 17.642 196.778C16.8534 195.777 16.0648 194.775 15.3979 193.516C19.3027 191.261 23.2075 189.006 27.1122 186.751C27.234 186.493 26.7179 186.25 26.5816 185.871C23.4073 186.58 19.975 187.168 16.4209 188.014C15.921 171.714 22.7966 159.834 34.0966 157.283C34.1402 159.194 34.3056 160.847 34.3928 164.667C37.1347 156.195 39.2969 150.284 41.3228 143.994C36.4441 148.31 31.8235 152.748 26.8085 156.685C18.9063 162.726 13.9786 170.484 13.817 180.172C13.5627 191.392 10.9717 200.88 1.6868 207.845C0.805548 208.375 0.834631 209.649 0.347678 210.679C1.37975 211.166 1.91033 212.045 2.56265 212.668C10.3576 207.521 18.2889 202.753 25.5678 197.362C30.0813 193.819 33.5481 189.153 38.0616 185.609C49.9757 176.418 62.6585 172.944 77.8089 176.931C87.312 179.519 97.2729 179.801 108.022 181.086C106.289 183.419 104.692 186.131 102.958 188.465C95.0508 199.858 94.8111 211.714 100.706 223.941C102.857 228.734 104.249 233.799 105.899 238.986C107.85 246.205 112.904 249.531 119.101 247.096C131.497 242.226 143.756 236.978 156.152 232.108C143.698 234.43 130.685 234.599 119.91 243.382C115.275 247.183 111.146 245.238 109.346 239.035C108.09 234.349 106.834 229.663 104.698 225.506C96.9388 209.882 99.17 195.814 111.377 182.666C116.606 176.94 121.168 169.955 124.971 163.242C130.128 154.333 139.973 149.521 148.473 152.895C147.879 154.82 146.647 156.76 146.432 158.549C146.232 160.974 146.67 163.386 146.85 165.675C149.523 165.359 152.985 166.045 154.99 164.47C156.875 163.153 158.594 160.183 158.535 157.636C158.526 151.647 162.446 150.029 167.017 149.033C171.209 148.173 175.537 147.692 182.538 146.895C170.375 161.954 172.959 174.51 181.419 187.315C182.48 189.075 182.037 192.016 181.959 194.184C180.575 211.801 172.574 224.726 156.668 232.351ZM82.2841 166.126C92.2305 165.772 102.055 165.676 113.915 165.278C102.171 170.77 92.196 169.85 82.2841 166.126C72.7956 164.175 63.1708 161.846 53.4243 159.774C55.4012 156.926 57.4217 155.988 59.5785 155.429C66.6722 153.101 73.7658 150.773 80.8594 148.446C82.2567 148.159 83.7903 148.252 85.3239 148.344C85.2167 149.238 85.4892 149.997 85.382 150.891C78.7899 152.825 72.5775 154.623 65.9853 156.557C66.2579 157.316 66.2725 157.953 66.6668 158.453C74.033 156.884 81.3992 155.314 88.7654 153.745C89.0379 154.503 89.0525 155.14 89.325 155.899C84.2519 157.288 79.5585 158.542 74.4854 159.932C74.5 160.569 74.8943 161.069 74.9088 161.706C83.4288 160.365 92.0706 158.767 100.333 157.305C100.347 157.941 100.225 158.199 100.24 158.836C94.1638 161.013 88.224 163.569 82.2841 166.126ZM182.825 148.291C190.211 142.006 196.351 137.024 205.64 141.4C208.478 142.737 212.884 140.088 216.575 139.622C219.247 139.306 222.3 138.854 225.124 139.555C232.699 141.548 240.274 143.542 247.241 146.824C257.561 151.686 265.905 159.397 266.303 171.239C266.788 186.901 264.723 202.622 263.295 218.328C262.788 224.074 259.613 224.783 254.604 223.368C249.852 222.074 244.706 220.28 239.999 220.897C228.927 222.296 219.653 218.557 209.849 213.938C192.819 205.915 186.078 190.14 177.832 175.546C173.301 167.112 178.657 155.776 188.302 153.39C186.33 150.887 184.51 149.399 182.825 148.291ZM305.69 68.5272C301.624 80.4705 298.653 90.0952 295.302 99.856C292.424 107.949 287.983 114.677 279.643 118.307C276.484 119.653 273.475 122.016 270.982 124.621C258.76 137.132 243.196 137.359 227.466 135.933C221.711 135.427 216.551 132.996 211.541 131.581C211.649 130.687 211.878 129.534 212.243 128.762C214.536 128.582 217.618 129.404 218.864 128.101C221.493 125.875 222.818 122.404 224.795 119.556C221.956 118.219 218.573 115.365 216.037 116.06C207.925 118.538 200.101 122.412 192.005 125.527C191.474 124.647 190.944 123.767 190.277 122.508C195.063 119.723 199.849 116.938 204.771 114.532C207.171 113.458 210.102 113.264 212.639 112.569C211.549 109.536 210.458 106.502 208.988 103.605C208.321 102.346 206.637 101.237 204.422 99.249C213.493 94.0728 215.811 83.8258 222.058 77.9494C230.311 70.4981 241.567 66.0367 252.05 61.2107C254.572 59.879 259.323 61.1726 262.298 62.8888C271.737 68.2807 281.454 69.0789 291.766 67.9522C296.216 67.2137 300.831 68.1281 305.69 68.5272ZM52.2069 162.35C69.1343 165.915 86.0617 169.48 105.175 173.76C84.3811 179.713 68.1259 172.055 52.2069 162.35ZM193.92 108.79C191.292 94.3234 195.261 89.2634 208.031 89.6098C202.83 96.6093 198.375 102.7 193.92 108.79ZM198.291 110.22C192.862 118.371 188.422 125.099 183.616 132.599C183.218 120.757 186.913 114.939 198.291 110.22ZM184.907 116.514C184.028 100.35 186.19 94.4395 193.362 89.9437C190.498 98.674 187.513 107.662 184.907 116.514ZM212.17 125.578C204.575 128.299 196.98 131.02 187.486 134.422C195.208 126.091 202.136 122.111 212.17 125.578Z" fill="#F0EDE6"/>
<path fill-rule="evenodd" clip-rule="evenodd" d="M70.4383 122.433C69.3681 114.684 67.402 106.828 67.6072 99.0503C67.8071 96.6247 73.3526 93.5676 77.0284 92.4645C86.5369 89.6995 96.0744 88.2081 105.719 85.8222C107.496 85.3995 108.986 83.5816 110.612 82.1428C97.2773 84.995 83.9276 87.2103 70.8651 90.8208C67.9488 91.6518 64.2384 96.8333 63.9314 100.153C63.4245 105.899 64.8309 111.601 66.2373 117.304C66.6607 119.078 68.7394 120.687 70.4383 122.433Z" fill="#F0EDE6"/>
<path fill-rule="evenodd" clip-rule="evenodd" d="M179.152 26.5531C182.17 30.1798 185.446 33.9281 190.163 39.3C190.276 33.0535 190.568 29.0966 190.603 25.0181C186.951 32.747 184.011 26.9522 181.022 24.5991C180.399 25.2505 179.775 25.9018 179.152 26.5531Z" fill="#F0EDE6"/>
<path fill-rule="evenodd" clip-rule="evenodd" d="M76.8909 108.779C85.7998 113.291 94.845 118.182 103.754 122.694C103.997 122.179 104.241 121.664 104.484 121.148C95.6971 116.379 86.7737 111.23 77.9865 106.46C77.6213 107.233 77.2561 108.006 76.8909 108.779Z" fill="#F0EDE6"/>
<path fill-rule="evenodd" clip-rule="evenodd" d="M240.725 163.283C247.112 169.127 253.62 174.713 260.129 180.299C260.32 171.884 252.599 163.522 240.725 163.283Z" fill="#F0EDE6"/>
<path fill-rule="evenodd" clip-rule="evenodd" d="M269.502 115.735C259.521 120.167 249.541 124.6 239.56 129.032C239.832 129.79 240.363 130.67 240.635 131.429C250.616 126.996 260.597 122.564 270.7 117.874C270.305 117.373 269.775 116.493 269.502 115.735Z" fill="#F0EDE6"/>
</svg>
