<svg width="26" height="26" viewBox="0 0 26 26" fill="none" xmlns="http://www.w3.org/2000/svg">
<path d="M26 7V15.25C26 15.8023 25.5523 16.25 25 16.25C24.4477 16.25 24 15.8023 24 15.25V8.125H19V6H25C25.5523 6 26 6.44772 26 7Z" fill="#A5BB70"/>
<path d="M1 6H8V8.125H2V24H24V20.5C24 19.9477 24.4477 19.5 25 19.5C25.5523 19.5 26 19.9477 26 20.5V22.75V25C26 25.5523 25.5523 26 25 26H1C0.447715 26 0 25.5523 0 25V7C0 6.44772 0.447715 6 1 6Z" fill="#A5BB70"/>
<path fill-rule="evenodd" clip-rule="evenodd" d="M13 1.85714C10.7059 1.85714 9 3.69224 9 6V12.0357C9 12.5486 8.43288 13 7.92308 13C7.41328 13 7 12.5843 7 12.0714V6.03571C7 2.70228 9.68629 0 13 0C16.3137 0 19 2.70228 19 6.03571V12.0714C19 12.5843 18.5867 13 18.0769 13C17.5671 13 17 12.5486 17 12.0357V6C17 3.69224 15.2941 1.85714 13 1.85714Z" fill="#631C00"/>
</svg>
