<svg width="17" height="20" viewBox="0 0 17 20" fill="none" xmlns="http://www.w3.org/2000/svg">
<path d="M8.25053 3.04688C5.47668 3.04688 3.21997 5.18254 3.21997 7.80762C3.21997 10.4327 5.47668 12.5684 8.25053 12.5684C8.71902 12.5684 9.1832 12.5073 9.63019 12.3869C10.0578 12.2717 10.3057 11.8504 10.184 11.4457C10.0623 11.0412 9.61707 10.8065 9.18948 10.9217C8.88587 11.0034 8.56995 11.0449 8.25053 11.0449C6.36431 11.0449 4.82975 9.59267 4.82975 7.80762C4.82975 6.02257 6.36431 4.57031 8.25053 4.57031C10.1368 4.57031 11.6713 6.02257 11.6713 7.80762C11.6713 8.12522 11.623 8.4387 11.5278 8.73931C11.4001 9.14226 11.6417 9.56688 12.0675 9.68773C12.4933 9.8085 12.942 9.57991 13.0697 9.17692C13.2099 8.73425 13.2811 8.27356 13.2811 7.80762C13.2811 5.18254 11.0244 3.04688 8.25053 3.04688Z" fill="#631C00"/>
<path d="M14.0805 2.28379C12.5226 0.811078 10.452 0 8.25 0C6.04798 0 3.97736 0.811078 2.4195 2.28382C0.861796 3.75645 0.0025354 5.71491 0 7.80011C0.00156954 9.31803 0.447076 10.7421 1.36191 12.1539C2.15413 13.3764 3.1833 14.443 4.27288 15.5722C5.34125 16.6794 6.44592 17.8244 7.32816 19.1453C7.47566 19.3661 7.7325 19.5 8.00853 19.5H8.49147C8.7675 19.5 9.02434 19.3661 9.17184 19.1452C10.0541 17.8243 11.1588 16.6794 12.2271 15.5722C13.3167 14.443 14.3459 13.3764 15.1381 12.1539C16.053 10.7421 16.4984 9.31795 16.5 7.79844C16.4975 5.71487 15.6382 3.75642 14.0805 2.28379ZM11.0384 14.545C10.0884 15.5295 9.11103 16.5425 8.25 17.7075C7.38901 16.5425 6.41155 15.5295 5.46162 14.545C3.39631 12.4045 1.6126 10.5559 1.60978 7.80023C1.61397 4.33921 4.59278 1.52344 8.25 1.52344C11.9072 1.52344 14.886 4.33921 14.8902 7.79859C14.8874 10.5559 13.1037 12.4045 11.0384 14.545Z" fill="#A5BB70"/>
</svg>