<svg width="20" height="18" viewBox="0 0 20 18" fill="none" xmlns="http://www.w3.org/2000/svg">
<path d="M14.6094 0C16.1662 0 17.484 0.487645 18.4203 1.41028C19.4685 2.44335 20 3.95291 20 5.89685C20 7.73291 18.9574 9.86937 16.8124 12.4281L14.1045 15.3078C12.9732 16.3676 12.0451 17.1101 11.5927 17.4585C11.124 17.8195 10.5618 18 10 18C9.43802 18 8.87619 17.8195 8.40729 17.4585C7.04758 16.4117 4.99649 14.5925 3.31772 12.6263C1.11618 10.048 0 7.78391 0 5.89685C0 3.95291 0.531464 2.44335 1.57974 1.41028C2.51602 0.487645 3.83377 0 5.39062 0C7.1431 0 8.63007 0.71834 9.69086 2.07732C9.81186 2.23242 9.92065 2.38768 10.0182 2.53946C10.1198 2.38572 10.2328 2.22835 10.3581 2.07113C11.438 0.716228 12.908 0 14.6094 0Z" fill="#697F34"/>
</svg>
