<svg width="22" height="18" viewBox="0 0 22 18" fill="none" xmlns="http://www.w3.org/2000/svg">
<path d="M20.8352 5.12591C21.0795 4.93435 21.4317 4.97805 21.6221 5.22383C22.126 5.87405 22.126 6.78225 21.6221 7.43262C19.0496 10.7525 15.178 12.6565 11 12.6565C6.82191 12.6565 2.95031 10.7525 0.377879 7.43262C-0.12596 6.78235 -0.12596 5.8741 0.377879 5.22388C2.95031 1.90402 6.82191 0 11 0C14.1045 0 17.1341 1.08913 19.5305 3.06678C19.6619 3.17519 19.7931 3.28766 19.9204 3.40115C20.1522 3.60771 20.1737 3.9644 19.9685 4.19771C19.7632 4.43101 19.4089 4.45272 19.1771 4.24611C19.0603 4.14209 18.9402 4.03895 18.8196 3.9395C17.8482 3.13782 16.7631 2.49577 15.6088 2.0286C15.6088 2.0286 13.6486 1.04336 11 1.04336C8.35139 1.04336 7.93647 1.39115 6.40449 2.01465C4.8725 2.63814 2.63315 4.14847 1.26206 5.91793C1.07492 6.15951 1.07492 6.49684 1.26206 6.73842C2.63311 8.50789 4.40721 9.83757 6.40444 10.6417C6.40444 10.6417 8.2928 11.5277 10.9932 11.5277C13.8213 11.5277 15.5945 10.6421 15.5945 10.6421C17.5921 9.83808 19.3665 8.50821 20.7379 6.73842C20.9251 6.49684 20.9251 6.15951 20.7379 5.91793C20.5475 5.67215 20.5911 5.3176 20.8352 5.12591Z" fill="#C8C2B2"/>
<path d="M11.0571 18C10.7474 18 10.4964 17.7474 10.4964 17.4357V15.3196C10.4964 15.0079 10.7474 14.7553 11.0571 14.7553C11.3667 14.7553 11.6177 15.0079 11.6177 15.3196V17.4357C11.6177 17.7474 11.3667 18 11.0571 18Z" fill="#C8C2B2"/>
<path d="M19.3641 14.5367C19.1451 14.757 18.7902 14.757 18.5711 14.5367L17.525 13.4837C17.3061 13.2634 17.3061 12.9061 17.525 12.6856C17.6345 12.5754 17.7779 12.5203 17.9215 12.5203C18.0649 12.5203 18.2084 12.5754 18.3179 12.6856L19.3641 13.7385C19.583 13.9589 19.583 14.3162 19.3641 14.5367Z" fill="#C8C2B2"/>
<path d="M4.58874 13.4837L3.54256 14.5367C3.32361 14.757 2.96864 14.757 2.7497 14.5367C2.53075 14.3162 2.5308 13.9589 2.7497 13.7385L3.79588 12.6856C3.90533 12.5754 4.04888 12.5203 4.19233 12.5203C4.33579 12.5203 4.47933 12.5754 4.58879 12.6856C4.80769 12.9061 4.80764 13.2633 4.58874 13.4837Z" fill="#C8C2B2"/>
</svg>
