<svg width="589" height="563" viewBox="0 0 589 563" fill="none" xmlns="http://www.w3.org/2000/svg">
<path fill-rule="evenodd" clip-rule="evenodd" d="M242.351 281.205C242.098 284.443 241.773 287.803 241.503 290.586L241.501 290.602L241.485 290.772L241.479 290.833C241.299 292.694 241.146 294.28 241.06 295.376C243.77 292.851 246.66 290.252 249.635 287.578C256.324 281.564 263.44 275.166 269.877 268.36C274.313 263.798 278.484 259.075 282.655 254.353C286.825 249.631 290.996 244.908 295.432 240.346C297.94 237.711 300.642 235.303 303.376 232.867L303.378 232.865L303.381 232.863C306.371 230.198 309.399 227.5 312.254 224.433C315.005 221.691 317.348 218.702 320.028 215.282L320.031 215.279L320.033 215.276C320.417 214.786 320.809 214.286 321.209 213.778L321.66 213.206L322.104 212.645L322.363 212.319L322.69 211.91C325.73 220.491 327.921 228.078 322.239 236.713C315.777 245.842 310.165 255.966 306.892 267.015L306.966 266.9C313.688 256.534 320.412 246.165 327.559 235.093L327.77 235.377C333.552 243.123 338.233 249.397 330.939 258.344C325.827 264.429 322.628 272.148 320.351 279.939C323.261 275.907 326.028 271.911 328.796 267.915L328.827 267.87C331.588 263.884 334.349 259.898 337.252 255.876C338.315 256.516 339.023 256.943 339.873 257.936C338.617 272.554 328.915 281.146 319.371 289.597C313.648 294.664 307.982 299.681 304.228 305.916C302.445 304.703 300.507 303.276 298.624 301.889L298.621 301.887L298.613 301.882L298.611 301.88C293.991 298.478 289.708 295.324 288.851 296.177C285.224 299.395 282.499 303.866 279.753 308.37C278.577 310.3 277.397 312.236 276.14 314.083L279.329 316.002C282.739 310.339 285.935 305.03 289.912 299.227C301.473 306.643 297.339 314.157 293.003 322.04C292.768 322.468 292.532 322.897 292.298 323.327C288.177 330.973 285.12 339.258 283.549 349.885C285.603 348.474 287.711 346.975 289.818 345.476L289.828 345.469C291.939 343.967 294.05 342.465 296.109 341.051C296.038 340.768 295.879 340.431 295.72 340.094L295.717 340.089C295.559 339.753 295.401 339.418 295.331 339.136C294.373 339.524 293.38 339.77 292.387 340.016C291.896 340.138 291.404 340.26 290.917 340.399C290.42 340.541 289.927 340.701 289.443 340.897C289.41 340.844 289.379 340.793 289.348 340.743C289.295 340.654 289.246 340.568 289.199 340.485L289.104 340.314C288.832 339.822 288.617 339.435 288.098 339.122C290.628 336.962 293.221 334.84 295.84 332.697L295.844 332.694C299.397 329.788 302.997 326.842 306.55 323.709C310.956 319.709 315.126 315.338 319.339 310.921C321.234 308.935 323.138 306.939 325.076 304.964C332.103 298.104 339.13 291.243 346.016 283.815C351.908 277.236 357.8 270.657 362.77 264.005C364.152 262.247 365.399 260.354 366.662 258.435C369.163 254.636 371.731 250.735 375.55 247.588C374.945 250.599 374.25 253.556 373.556 256.513C372.861 259.471 372.167 262.428 371.561 265.439C371.634 265.483 371.73 265.521 371.841 265.555C371.95 265.589 372.074 265.619 372.201 265.649L372.376 265.689C372.55 265.727 372.723 265.766 372.873 265.811C373 265.848 373.111 265.89 373.192 265.938C374.72 261.795 376.196 257.741 377.671 253.687C379.147 249.632 380.623 245.578 382.151 241.435L385.979 242.293C385.059 247.008 384.086 251.81 383.113 256.613L383.093 256.711C382.113 261.545 381.133 266.379 380.206 271.125C380.561 271.338 380.915 271.552 381.837 271.624C383.101 268.428 384.291 265.187 385.495 261.909L385.498 261.903C386.934 257.993 388.389 254.03 390.013 250.025C390.651 250.168 391.236 250.4 391.821 250.631C392.406 250.863 392.99 251.094 393.628 251.237C391.385 257.371 389.089 263.594 386.793 269.817L386.775 269.864C384.491 276.054 382.207 282.244 379.976 288.346C380.507 288.666 381.092 288.897 381.677 289.128C382.262 289.36 382.846 289.591 383.378 289.911C385.83 284.637 388.193 279.309 390.556 273.981L390.568 273.956C392.927 268.636 395.286 263.315 397.734 258.048C398.052 258.24 398.414 258.36 398.812 258.493C399.3 258.655 399.842 258.835 400.427 259.188L400.42 259.207L400.417 259.213C395.515 272.164 390.612 285.115 386.064 298.279C386.596 298.599 387.18 298.83 387.765 299.062C388.35 299.293 388.934 299.525 389.466 299.845C394.441 288.374 399.416 276.903 404.179 265.786C404.297 265.857 404.422 265.919 404.551 265.974C404.633 266.009 404.717 266.041 404.803 266.072C404.975 266.134 405.153 266.188 405.33 266.243L405.337 266.245L405.348 266.248C405.756 266.373 406.163 266.498 406.518 266.711C403.958 273.368 401.487 280.078 399.016 286.788C396.545 293.498 394.074 300.208 391.515 306.865C392.046 307.184 392.543 307.363 393.039 307.541C393.535 307.719 394.031 307.897 394.562 308.217C396.481 303.827 398.454 299.348 400.426 294.87C402.398 290.391 404.371 285.912 406.29 281.522C406.644 281.736 407.052 281.86 407.459 281.985C407.867 282.11 408.274 282.235 408.629 282.448C406.425 288.114 404.309 293.833 402.194 299.551C400.078 305.27 397.963 310.988 395.759 316.653C395.856 316.711 395.963 316.766 396.078 316.82C396.384 316.963 396.745 317.093 397.106 317.222C397.602 317.4 398.098 317.578 398.453 317.792C400.868 312.977 403.497 307.809 406.267 303.208C414.689 318.886 412.556 324.835 396.314 328.559C393.069 329.364 390.104 332.914 387.463 336.076L387.435 336.111C387.179 336.416 386.928 336.718 386.679 337.013C386.36 337.39 386.047 337.756 385.739 338.106C382.902 341.217 380.379 344.517 377.856 347.817L377.854 347.819L377.851 347.823C376.589 349.474 375.326 351.126 374.024 352.753L371.544 351.26C371.755 350.569 371.903 349.84 372.057 349.077C372.266 348.043 372.488 346.948 372.897 345.806C369.023 348.85 365.18 351.842 361.389 354.793L361.376 354.804C355.443 359.422 349.638 363.942 344.036 368.411C357.243 365.076 369.687 359.266 381.614 350.571C381.257 352.766 380.954 354.872 380.651 356.978C380.347 359.087 380.043 361.197 379.686 363.395C372.994 389.745 363.68 414.034 335.163 425.318C321.189 430.89 308.352 433.77 293.822 427.435C289.144 425.583 284.04 424.44 279.005 424.784C262.198 426.24 249.656 418.208 236.69 408.474C237.964 409.964 239.292 411.366 240.62 412.767C241.948 414.17 243.277 415.573 244.552 417.064C246.251 419.051 248.588 422.387 248.09 424.016C247.471 425.58 245.741 426.475 243.494 427.638C242.385 428.212 241.149 428.852 239.859 429.669C259.284 432.683 278.638 436.618 295.002 452.737C284.646 451.48 274.997 448.292 265.47 445.145C250.994 440.363 236.801 435.675 220.847 437.995C231.208 440.365 241.38 442.623 251.429 444.852L251.475 444.862L251.49 444.866C268.993 448.749 286.122 452.55 303.223 456.722C308.056 457.987 312.493 459.911 317.052 461.887C319.179 462.81 321.332 463.744 323.565 464.627C323.636 464.911 323.76 465.106 323.884 465.301C323.933 465.38 323.983 465.458 324.029 465.542C324.063 465.602 324.094 465.665 324.122 465.733C324.153 465.807 324.18 465.887 324.202 465.975C329.53 465.4 334.882 464.922 340.213 464.446C347.796 463.768 355.338 463.095 362.709 462.152C365.787 461.785 368.683 460.682 371.657 459.549C373.204 458.959 374.772 458.361 376.399 457.855C374.855 457.676 373.203 457.291 371.537 456.903C367.844 456.043 364.083 455.167 361.297 456.48C351.52 461.312 342.929 458.473 334.019 455.529C333.418 455.33 332.815 455.131 332.21 454.933L331.655 454.753C331.326 454.646 330.996 454.541 330.666 454.436C330.119 454.262 329.608 454.103 329.124 453.953L329.087 453.941C322.096 451.769 321.247 451.505 309.343 435.331C310.487 435.279 311.683 435.258 312.923 435.237L312.933 435.237C314.92 435.202 317.019 435.166 319.199 434.996C322 434.754 324.712 434.458 327.424 434.162L327.444 434.159C330.15 433.864 332.857 433.569 335.652 433.327C337.821 433.158 340.043 433.201 342.335 433.245L342.343 433.245C343.794 433.274 345.273 433.302 346.784 433.278C352.736 433.006 358.724 432.876 364.711 432.746L364.738 432.745C370.725 432.615 376.712 432.485 382.665 432.213C386.21 431.937 390.323 431.519 393.587 430.108C405.078 425.453 416.429 420.231 427.78 415.009C428.275 415.789 428.771 416.57 429.621 417.564C415.785 426.112 401.949 434.66 389.248 442.927C390.019 443.1 391.203 443.17 393.035 443.278C394.237 443.349 395.718 443.437 397.544 443.581C388.958 449.021 382.714 452.978 376.257 457.288C396.156 453.482 409.677 439.932 423.19 426.389L424.444 425.133C424.918 424.658 425.393 424.184 425.868 423.71L425.998 423.58C429.054 420.37 431.942 416.896 435.026 413.186L435.033 413.178L435.043 413.166C437.254 410.505 439.567 407.724 442.113 404.831C443.463 405.316 444.805 405.907 446.161 406.505L446.163 406.505C448.793 407.664 451.476 408.847 454.376 409.32C456.276 409.521 458.297 410.397 460.361 411.291C465.69 413.6 471.305 416.033 475.863 407.306C476.424 406.374 478.559 406.389 480.93 406.405C483.061 406.42 485.382 406.436 486.926 405.768C495.641 402.088 504.157 397.604 512.513 393.204C514.087 392.375 515.656 391.549 517.219 390.732C520.107 389.167 523.007 387.452 525.932 385.722C530.265 383.159 534.653 380.564 539.142 378.373C551.7 371.948 564.391 373.319 576.936 378.942C578.831 379.783 580.808 380.487 583.072 381.293C584.449 381.783 585.933 382.311 587.568 382.931C587.321 381.336 587.269 380.219 587.235 379.475C587.2 378.731 587.183 378.359 587.005 378.253C581.997 375.881 577.494 372.58 572.99 369.28C563.984 362.68 554.978 356.08 541.93 356.905C532.634 357.174 523.308 355.664 513.928 354.145C509.426 353.416 504.912 352.685 500.383 352.147C490.102 350.781 481.874 354.025 473.925 360.813C470.486 363.891 466.234 366.155 462.033 368.392L462.027 368.396C461.115 368.881 460.206 369.365 459.309 369.856C458.936 369.42 458.591 369.093 458.278 368.798C457.879 368.42 457.533 368.093 457.255 367.655C458.81 363.319 460.471 359.046 462.157 354.71L462.161 354.698C463.558 351.107 464.971 347.471 466.356 343.719C466.799 342.442 467.299 341.185 467.796 339.936C470.247 333.772 472.625 327.793 467.798 320.477C467.102 319.169 467.665 316.981 468.27 314.633C468.649 313.16 469.045 311.624 469.156 310.204C469.371 307.44 469.517 303.189 468.809 302.762C458.813 300.12 463.855 292.547 466.341 289.221C475.138 277.899 472.716 266.316 470.318 254.847L470.316 254.842L470.313 254.825C469.79 252.324 469.268 249.829 468.865 247.343C467.386 237.773 465.34 228.344 462.512 219.409C447.433 196.347 438.027 171.88 455.996 143.638C454.72 143.352 453.444 143.066 451.813 142.567C451.127 143.44 450.299 144.281 449.471 145.122C447.814 146.804 446.158 148.485 445.636 150.422C443.878 155.509 440.513 159.917 437.346 164.066C433.972 168.485 430.824 172.609 430.083 176.946C431.091 179.002 431.444 181.206 430.995 183.559C429.936 181.263 429.718 179.079 430.083 176.946C427.571 171.824 420.995 167.622 412.65 164.319C410.794 163.465 409.319 161.979 407.844 160.493C406.614 159.255 405.385 158.017 403.935 157.144C403.434 156.842 402.931 156.536 402.427 156.228C395.172 151.803 387.643 147.211 379.377 154.046L379.56 154.09L379.688 154.121L379.592 154.398C382.028 155.102 384.503 155.74 386.978 156.378L387.013 156.387C392.306 157.752 397.599 159.116 402.513 161.11C404.88 162.007 407.075 163.667 409.252 165.314L409.255 165.316C411.055 166.677 412.842 168.028 414.701 168.929C426.466 175.046 428.867 184.689 420.063 195.302C419.306 196.293 418.407 197.252 417.507 198.211C415.709 200.129 413.911 202.047 413.247 204.219C412.179 208.398 411.961 213.571 414.085 217.26C415.076 218.821 421.386 218.762 425.145 218.132C438.196 214.897 466.177 241.385 463.256 255.057C462.915 256.584 462.116 258.008 461.332 259.407C460.806 260.344 460.287 261.271 459.916 262.208C459.191 264.092 458.393 265.971 457.596 267.845C455.579 272.592 453.572 277.314 452.805 282.037C450.81 290.963 447.401 296.626 438.322 298.876C433.167 299.967 428.176 301.714 422.719 303.624C419.392 304.789 415.893 306.014 412.078 307.188C414.179 303.308 416.098 299.545 418.035 295.744C420.092 291.709 422.17 287.631 424.511 283.329C420.751 286.369 418.197 288.206 415.643 290.043L415.641 290.045C415.464 289.938 415.251 289.689 415.039 289.441C414.826 289.193 414.614 288.944 414.436 288.838L426.796 268.31L425.378 267.457L413.664 282.103L411.892 281.037C412.564 279.233 413.253 277.399 413.961 275.515L414 275.412C415.755 270.745 417.627 265.765 419.642 260.146C416.094 262.832 414.32 264.175 409.991 267.356C413.547 257.441 416.106 250.785 418.666 244.128C418.312 243.915 417.603 243.488 417.036 243.629C414.407 248.797 411.778 253.965 407.657 261.611C405.227 257.177 402.847 252.939 400.534 248.823L400.528 248.813L400.523 248.804C394.958 238.898 389.79 229.698 385.293 220.181C383.879 216.919 383.28 213.305 382.681 209.69L382.68 209.687C382.081 206.072 381.482 202.456 380.067 199.194C373.881 183.968 374.419 169.455 379.592 154.398L379.121 154.261C379.206 154.188 379.291 154.117 379.377 154.046C377.58 153.623 375.69 153.303 373.803 152.984C368.681 152.118 363.587 151.256 360.478 148.343C353.181 142.022 347.943 133.082 343.414 124.569C341.51 120.753 341.206 115.787 340.918 111.107C340.843 109.871 340.768 108.655 340.666 107.485C339.615 94.7975 330.331 90.1731 320.757 91.6428C305.581 93.5978 294.81 86.6318 283.543 78.8855C272.631 71.3523 260.649 70.4079 248.376 75.5576C240.134 79.1606 231.94 82.7927 223.769 86.4144L223.742 86.4264C209.841 92.5882 196.008 98.72 182.119 104.627C177.898 106.426 173.589 108.172 169.279 109.917C164.97 111.663 160.66 113.409 156.439 115.208C144.38 120.003 140.329 129.137 139.041 140.899C138.25 151.032 136.325 161.446 133.337 171.22C130.775 180.286 125.591 187.292 115.661 190.958C103.175 196.461 99.191 209.493 103.004 224.808C104.91 232.462 106.728 240.062 108.545 247.663L108.552 247.7C110.368 255.295 112.185 262.891 114.09 270.54C103.982 273.192 98.8246 274.546 96.0734 277.883C93.2066 281.361 92.9527 286.992 92.4342 298.491C92.3368 300.806 91.7986 303.05 91.2654 305.274C90.6075 308.018 89.9568 310.731 90.15 313.51C90.2664 316.007 90.2931 318.561 90.3198 321.133C90.4052 329.292 90.4925 337.631 93.4504 344.911C98.8965 358.316 100.232 369.728 94.0499 382.402C92.448 385.646 92.3453 389.792 92.2426 393.939L92.222 394.755L92.2042 395.398C92.1874 395.958 92.1675 396.515 92.1405 397.069C92.1162 397.568 92.0863 398.065 92.0481 398.556C97.2241 398.778 102.754 399.214 107.859 400.358C112.963 401.502 117.641 403.353 122.319 405.205C128.414 407.91 134.155 410.401 141.175 410.769C138.836 409.542 136.587 408.166 134.339 406.79C130.591 404.496 126.842 402.202 122.678 400.599C117.291 398.321 111.266 397.105 105.663 397.59C95.3807 398.633 91.8374 396.5 96.0297 387.933C104.982 370.659 103.438 354.781 94.7337 337.969C92.3278 333.145 92.4765 326.484 92.9075 320.957C93.049 314.623 93.703 308.404 94.3641 302.118L94.365 302.112L94.3669 302.094L94.3682 302.084C94.7487 298.465 95.1314 294.824 95.4199 291.126C95.8536 283.19 98.3412 277.454 106.994 275.912C115.079 274.51 118.478 278.485 121.449 285.578C125.411 294.231 131.501 301.755 138.726 308.998C138.604 308.506 138.518 307.991 138.446 307.473C138.427 307.333 138.409 307.192 138.391 307.052C138.37 306.891 138.351 306.73 138.331 306.57C138.142 305.016 137.964 303.551 137.173 302.758C126.45 292.828 122.619 279.781 118.774 266.683L118.771 266.674C117.282 261.604 115.791 256.525 113.897 251.617C111.169 244.12 109.889 236.264 108.609 228.408C108.098 225.266 107.586 222.124 106.981 219.005C104.865 208.087 108.136 199.447 118.919 194.366C145.857 182.046 172.45 169.519 199.039 156.989C199.029 156.907 199.02 156.826 199.012 156.748C199.145 156.664 199.278 156.58 199.411 156.497L199.641 156.353C187.764 153.793 178.289 159.23 168.871 164.633C167.076 165.663 165.283 166.692 163.476 167.664C160.075 169.563 156.706 171.409 153.251 173.301L153.248 173.303L153.245 173.304C147.839 176.266 142.224 179.342 135.948 182.918C136.88 178.336 138.055 174.016 139.175 169.894C141.312 162.034 143.252 154.899 142.933 148.064C142.527 129.496 150.974 121.079 166.863 114.732C189.555 105.614 212.053 95.7167 234.396 85.8876C239.014 83.8561 243.625 81.8275 248.23 79.8092C259.935 74.8003 270.002 76.5206 281.2 82.7786C291.829 89.1773 303.806 94.9408 315.717 96.8065C329.258 99.1714 335.423 103.364 334.345 117.182C333.661 127.137 333.066 137.145 332.471 147.154C331.876 157.163 331.28 167.173 330.596 177.129C330.416 181.394 329.369 185.465 328.249 189.82C328.01 190.746 327.769 191.686 327.531 192.643C326.693 191.519 325.864 190.41 325.045 189.316L322.167 185.475L322.109 185.399L322.103 185.391C318.288 180.302 314.684 175.493 311.245 170.784C310.781 168.501 310.359 166.243 309.941 164.008C309.153 159.789 308.38 155.65 307.365 151.571C303.764 135.903 290.513 127.443 274.911 130.106C273.639 130.351 272.371 130.547 271.108 130.741C266.948 131.381 262.838 132.014 258.81 134.398C260.739 134.266 262.688 134.217 264.655 134.168C267.821 134.089 271.031 134.009 274.269 133.578C291.076 132.122 298.658 137.168 303.675 153.69C305.037 158.226 306.946 162.805 308.818 167.297C309.375 168.633 309.929 169.961 310.465 171.279C310.228 171.94 309.864 172.632 309.501 173.324C308.775 174.709 308.049 176.093 308.331 177.228C309.577 182.23 311.084 187.168 312.564 192.019C313.265 194.318 313.961 196.597 314.62 198.855L312.278 200.338C309.043 196.622 305.722 192.962 302.4 189.301C295.758 181.981 289.117 174.662 283.169 166.903L283.095 166.811C277.036 159.326 271.795 152.85 261.06 153.112C257.792 153.036 253.913 149.346 251.159 146.725L250.998 146.572C241.437 135.995 227.539 135.826 217.177 145.019C213.627 148.168 209.345 150.651 204.993 153.174L204.985 153.179L204.965 153.19C203.187 154.222 201.397 155.259 199.641 156.353L199.803 156.388C199.918 156.414 200.032 156.44 200.147 156.466L199.039 156.989C199.112 157.598 199.229 158.301 199.344 158.993L199.345 158.996C199.621 160.655 199.888 162.252 199.503 162.347C180.159 170.328 175.981 187.12 171.873 203.634C170.935 207.407 169.999 211.166 168.888 214.801C166.896 221.317 165.047 225.991 158.945 230.515C145.604 239.844 138.357 254.287 139.333 270.305C139.523 274.384 144.341 278.306 149.178 282.244C151.401 284.053 153.627 285.866 155.411 287.699C155.607 287.503 155.809 287.299 156.016 287.089C157.084 286.005 158.292 284.779 159.599 283.951C158.972 283.16 158.379 282.311 157.787 281.463C156.306 279.341 154.825 277.219 152.8 276.001C142.666 270.382 141.325 263.789 147.079 254.233C148.462 252.164 149.788 250.061 151.119 247.949C154.432 242.691 157.778 237.381 162.133 232.435C164.786 239.261 165.035 246.314 165.281 253.305C165.58 261.784 165.876 270.17 170.454 277.948C170.6 269.182 170.547 260.747 170.495 252.491C170.44 243.66 170.386 235.034 170.578 226.427C171.38 204.247 185.008 191.233 206.074 185.109C220.685 180.885 230.752 182.605 239.318 196.441C236.237 197.483 233.353 198.54 230.428 199.613C227.023 200.861 223.562 202.13 219.669 203.419C219.701 203.544 219.731 203.673 219.762 203.808C219.805 203.999 219.848 204.201 219.892 204.415C219.948 204.686 220.006 204.975 220.066 205.287L220.168 205.81C220.473 207.389 220.874 209.467 221.575 212.281C218.164 209.086 215.37 206.863 213.229 205.16C212.658 204.706 212.134 204.288 211.656 203.9C212.969 205.721 214.245 208.011 215.639 210.512C216.2 211.519 216.781 212.561 217.39 213.62C216.52 214.03 215.797 214.529 214.974 215.097C214.522 215.409 214.04 215.742 213.488 216.092C212.481 215.487 211.498 214.974 210.33 214.365L210.327 214.364C208.617 213.473 206.51 212.374 203.354 210.474C206.825 215.052 209.442 218.715 211.718 221.9L211.736 221.926L211.847 222.081L212.064 222.385C212.787 223.395 213.476 224.359 214.15 225.289C214.332 225.542 214.513 225.791 214.694 226.039L214.912 226.337L215.249 226.797C214.823 227.505 214.184 228.567 213.403 229.061L195.972 217.122C195.759 217.475 195.333 218.183 194.766 218.324C197.173 220.737 199.545 223.009 201.918 225.281L201.921 225.283C204.293 227.556 206.666 229.828 209.075 232.242C208.862 232.596 208.613 232.808 208.365 233.02L208.3 233.075L208.205 233.158C208.134 233.221 208.063 233.287 207.993 233.359C207.875 233.482 207.761 233.623 207.655 233.798C205.636 232.341 203.528 230.831 201.42 229.322C199.312 227.811 197.204 226.301 195.184 224.845C195.078 225.022 194.883 225.145 194.688 225.269C194.493 225.393 194.297 225.516 194.191 225.693C196.386 228.461 198.723 231.797 200.705 234.919L199.426 237.042C198.563 236.603 197.71 236.17 196.857 235.737L196.847 235.732C192.589 233.57 188.33 231.408 182.843 228.506C183.56 229.345 184.223 230.129 184.85 230.87C187.193 233.643 189.02 235.803 191.2 237.877C180.757 257.629 180.826 259.117 193.014 266.936C192.766 265.231 192.384 263.403 191.986 261.499L191.985 261.493L191.984 261.488C191.026 256.908 189.976 251.89 190.482 247.088C190.908 244.782 193.993 243.013 197.743 240.863C199.638 239.776 201.703 238.592 203.681 237.192C203.458 247.184 203.309 253.846 203.089 261.428C202.226 260.725 201.435 260.136 200.576 259.495C199.176 258.451 197.595 257.272 195.224 255.247C199.325 266.878 205.561 270.15 214.075 265.63C217.358 264.016 220.181 261.577 222.98 259.16C225.443 257.033 227.886 254.923 230.609 253.402C234.866 251.143 240.822 250.871 245.785 251.447C246.636 251.638 247.295 254.285 248.122 257.605L248.125 257.619L248.127 257.629L248.129 257.635C248.54 259.286 248.993 261.102 249.532 262.864C247.484 262.311 245.727 261.873 244.08 261.462L244.059 261.457L244.053 261.456L244.051 261.455C241.035 260.704 238.387 260.043 235 258.938C236.175 260.232 237.235 261.456 238.352 262.746L238.359 262.753C240 264.648 241.766 266.687 244.207 269.303C241.606 268.467 239.391 267.794 237.408 267.192L237.402 267.19L237.383 267.184C234.134 266.198 231.506 265.4 228.825 264.383C228.399 265.091 228.186 265.445 227.405 265.94C229.438 267.429 231.642 268.876 234.127 270.506C236.147 271.831 238.351 273.277 240.798 274.966C240.151 275.074 239.566 275.176 239.026 275.273C238.541 275.36 238.093 275.443 237.671 275.521L236.976 275.651L236.97 275.652L236.944 275.657L236.942 275.658L236.938 275.658L236.931 275.66C235.447 275.938 234.235 276.165 232.713 276.368L232.715 276.369C237.32 279.141 239.799 280.634 242.351 281.205ZM242.351 281.205C250.942 270.946 255.704 259.829 254.016 245.794C253.595 241.683 256.437 236.16 259.348 232.127C263.155 226.853 267.325 222.003 271.759 216.846C274.108 214.114 276.531 211.296 279.014 208.282C285.67 218.075 290.764 228.856 290.538 241.258C290.537 243.05 288.888 244.916 287.197 246.832L287.183 246.847L287.179 246.852C286.893 247.176 286.605 247.503 286.324 247.83C286.038 248.162 285.76 248.496 285.496 248.831C283.735 247.156 282.262 245.655 280.49 243.848C279.482 242.821 278.377 241.694 277.067 240.381C277.96 243.966 278.736 246.685 279.396 248.995L279.399 249.007C279.886 250.713 280.31 252.196 280.67 253.641C280.102 253.781 279.535 253.922 279.109 254.63C278.353 253.747 277.486 252.891 276.426 251.846C275.1 250.538 273.474 248.934 271.388 246.607C272.183 249.8 272.849 252.158 273.499 254.46L273.5 254.462C274.12 256.657 274.725 258.8 275.414 261.568C270.736 259.716 267.689 258.364 266.271 257.511C265.905 258.708 265.702 260.068 265.5 261.423C265.151 263.753 264.805 266.066 263.638 267.498C259.251 272.719 253.821 277.312 248.602 281.727L248.554 281.768C247.707 282.485 246.865 283.197 246.036 283.905C246.106 284.189 245.628 283.78 244.91 283.168C244.193 282.555 243.237 281.738 242.351 281.205ZM224.251 230.287C224.603 229.236 225.051 228.16 225.503 227.077C226.602 224.438 227.723 221.75 227.524 219.238C226.897 208.252 233 203.728 242.577 199.849C251.586 196.11 256.759 198.743 260.439 206.262C261.483 208.472 262.294 210.829 263.196 213.451L263.199 213.46C263.946 215.632 264.756 217.986 265.813 220.587C264.09 219.772 262.711 219.061 261.428 218.4L261.423 218.397L261.412 218.392C259.903 217.615 258.528 216.906 256.883 216.176C258.085 219.793 258.791 222.629 259.78 226.6C243.06 212.677 241.925 212.958 227.94 228.168C227.502 228.542 226.968 228.764 226.404 228.999C225.689 229.297 224.926 229.614 224.251 230.287ZM224.251 230.287L224.212 230.793C224.193 231.05 224.174 231.309 224.155 231.569C224.119 232.063 224.084 232.563 224.049 233.067C223.778 236.914 223.491 241 222.747 244.812C222.177 247.362 219.833 251.255 217.99 251.11C215.579 251.105 212.036 248.972 210.549 246.631C209.912 245.283 211.335 241.317 212.754 239.761C215.306 237.218 218.105 235.062 220.853 232.947C222.002 232.062 223.142 231.183 224.251 230.287ZM430.446 373.698L430.306 374.043C422.535 393.327 414.918 412.226 398.059 425.085L395.579 423.592C397.923 419.699 400.302 415.947 402.681 412.196C405.061 408.444 407.44 404.693 409.783 400.8C406.517 403.749 403.717 407.07 400.945 410.359C394.743 417.717 388.681 424.908 377.848 427.385C379.74 424.978 381.753 422.542 383.796 420.069C386.198 417.161 388.642 414.202 390.982 411.181C390.628 410.968 389.919 410.542 389.778 409.974C383.036 415.56 376.294 421.145 369.339 427.085C368.985 426.872 368.844 426.304 368.844 426.304C372.607 420.855 376.513 415.37 380.418 409.885C384.324 404.401 388.23 398.916 391.993 393.466L391.285 393.04C385.995 399.019 380.617 404.944 375.239 410.87C369.862 416.794 364.486 422.718 359.198 428.695C358.666 428.375 358.099 427.914 357.533 427.452C356.966 426.99 356.399 426.528 355.868 426.208C356.029 425.68 356.228 425.174 356.447 424.664C356.584 424.345 356.729 424.024 356.878 423.696L356.88 423.691L356.887 423.677C357.092 423.223 357.304 422.754 357.513 422.252C357.655 421.912 357.794 421.556 357.929 421.181C356.335 421.426 354.687 421.759 353.04 422.092L353.031 422.093C351.384 422.427 349.736 422.76 348.142 423.004C370.94 410.036 376.33 388.347 381.885 365.994C384.56 355.234 387.272 344.319 391.983 334.15C392.713 337.08 393.298 339.595 393.821 341.841C394.714 345.682 395.425 348.736 396.362 351.733L398.064 351.312C397.464 346.091 397.078 340.998 396.673 335.67C396.606 334.786 396.539 333.895 396.47 332.997C396.418 332.326 396.366 331.65 396.312 330.969C404.233 329.384 405.476 333.839 406.738 338.362C407.487 341.048 408.243 343.758 410.408 345.241C404.919 334.235 409.761 326.938 414.989 319.061C416.635 316.58 418.32 314.042 419.732 311.313L419.887 311.604L419.992 311.801C420.137 312.071 420.279 312.334 420.418 312.59C420.552 312.836 420.683 313.076 420.813 313.312L421.102 313.838C421.512 314.579 421.91 315.288 422.313 316.006L422.317 316.012C423.481 318.088 424.692 320.247 426.384 323.515C425.877 319.46 425.587 316.279 425.297 313.099C425.065 310.554 424.833 308.008 424.489 305.015C428.314 308.282 430.227 309.916 431.786 311.336C432.355 309.991 432.905 308.876 433.456 307.761C434.007 306.646 434.557 305.53 435.126 304.185C465.798 334.222 453.261 390.325 426.865 407.708C428.217 405.2 429.598 402.814 430.943 400.493L430.951 400.479L430.952 400.477C433.704 395.726 436.3 391.246 438.161 386.54C440.299 381.814 441.673 376.628 443.266 370.622L443.266 370.619L443.267 370.616C443.845 368.436 444.451 366.148 445.134 363.734C435.329 382.424 426.803 398.991 418.632 415.771L415.797 414.064C420.208 400.324 425.327 387.011 430.446 373.698ZM337.165 133.345C339.512 134.758 341.114 135.534 342.194 136.058C343.56 136.719 344.093 136.978 344.251 137.611C348.709 147.045 353.949 153.575 366.004 153.598C368.414 153.603 373.157 161.762 372.374 164.666C369.452 175.328 371.907 184.853 374.485 194.856C375.11 197.279 375.742 199.731 376.306 202.234C378.424 210.742 380.328 222.014 376.633 228.952C374.68 232.646 372.83 236.42 370.979 240.198C362.935 256.615 354.86 273.095 338.074 283.375C332.14 286.92 327.781 293.282 323.854 299.014L323.664 299.292C323.259 299.867 322.858 300.445 322.457 301.026C322.21 301.383 321.964 301.742 321.717 302.1C315.758 310.761 309.684 319.59 296.057 322.696C297.698 320.523 299.129 318.509 300.456 316.641C302.974 313.096 305.12 310.076 307.63 307.482C311.084 303.83 314.654 300.316 318.23 296.797L318.233 296.793C324.284 290.837 330.348 284.868 335.882 278.197C348.164 263.409 361.299 247.206 357.064 227.78C354.17 214.947 354.465 204.034 356.888 191.991C357.815 187.245 357.819 182.426 357.824 177.607C357.541 177.677 357.221 177.606 356.903 177.534C356.584 177.463 356.265 177.391 355.981 177.461C355.06 182.178 354.104 186.754 353.148 191.329L353.132 191.412L353.13 191.421C352.168 196.024 351.206 200.627 350.28 205.372C350.133 205.284 349.95 205.257 349.735 205.224C349.431 205.178 349.065 205.123 348.649 204.873L348.652 204.848C349.295 198.975 349.939 193.103 350.795 186.877C350.603 186.925 350.394 186.907 350.18 186.868C350.079 186.85 349.976 186.827 349.874 186.804L349.767 186.78L349.698 186.766L349.627 186.751L349.581 186.742L349.52 186.732L349.479 186.725L349.405 186.715C349.247 186.697 349.095 186.696 348.951 186.732C348.069 189.787 347.135 192.929 346.2 196.071L346.176 196.152L346.152 196.232C345.218 199.375 344.283 202.517 343.401 205.572L339.573 204.714L345.557 177.937C345.38 177.831 345.149 177.813 344.919 177.794C344.688 177.776 344.458 177.758 344.281 177.651C344.036 178.249 343.794 178.841 343.554 179.429C341.772 183.792 340.084 187.925 337.955 192.167C337.601 191.954 337.282 191.882 336.963 191.811C336.644 191.739 336.325 191.668 335.971 191.455C335.919 173.1 336.434 154.604 337.165 133.345ZM506.159 389.86C505.95 389.992 505.626 390.26 505.215 390.599C504.086 391.532 502.303 393.004 500.482 393.676C499.222 394.113 497.454 394.162 495.762 394.208C493.36 394.274 491.112 394.336 490.695 395.5C485.126 406.116 477.202 403.764 469.016 401.333L469.013 401.332C467.592 400.91 466.163 400.486 464.738 400.127C464.524 401.685 464.416 403.067 464.29 404.679C464.164 406.291 464.021 408.133 463.734 410.614C460.584 409.087 457.694 407.717 455.016 406.447L455.007 406.443C450.7 404.401 446.943 402.619 443.536 400.866C445.079 389.644 451.722 388.132 458.413 386.609C458.922 386.493 459.43 386.377 459.937 386.257C460.172 386.202 460.406 386.145 460.64 386.087C465.098 384.982 469.374 383.148 473.727 381.28C476.022 380.296 478.339 379.302 480.714 378.401C480.644 378.118 480.485 377.781 480.325 377.444L480.323 377.439C480.165 377.103 480.007 376.769 479.936 376.486C475.397 377.611 470.805 378.825 466.213 380.038C461.62 381.252 457.027 382.466 452.488 383.591C452.169 382.917 451.904 382.154 451.639 381.391C451.374 380.629 451.109 379.868 450.79 379.194C452.529 378.311 454.41 377.393 456.29 376.475C458.17 375.558 460.049 374.64 461.787 373.758C461.975 373.67 462.164 373.582 462.355 373.496C462.514 373.423 462.674 373.351 462.835 373.28C463.173 373.129 463.513 372.981 463.853 372.832C465.941 371.919 468.03 371.007 469.52 369.734C479.527 360.328 491.872 354.257 504.632 357.116C508.741 357.962 512.716 358.268 516.581 358.566C519.585 358.798 522.522 359.025 525.406 359.495C537.508 361.412 549.297 364.734 561.034 368.041C565.111 369.19 569.181 370.337 573.256 371.423C573.22 371.882 573.043 372.377 572.866 372.872L572.865 372.874C572.687 373.37 572.509 373.866 572.473 374.327C571.458 374.016 570.463 373.67 569.48 373.329C567.307 372.575 565.193 371.842 563.045 371.545C561.01 371.384 558.978 371.09 556.953 370.796C548.891 369.627 540.947 368.476 533.401 375.881C528.976 380.006 523.181 382.441 516.528 385.235C513.259 386.609 509.782 388.069 506.159 389.86ZM246.927 174.983C246.644 175.053 246.448 175.177 246.253 175.3C246.201 175.334 246.149 175.367 246.094 175.399C246.025 175.44 245.953 175.48 245.874 175.515C245.786 175.556 245.689 175.591 245.579 175.618C246.29 176.887 246.933 178.116 247.514 179.228L247.515 179.23L247.523 179.244C248.27 180.673 248.916 181.907 249.472 182.783C224.734 174.16 201.542 179.005 178.767 192.781C184.094 183.932 190.271 176.078 197.298 169.217C200.245 166.402 203.419 163.813 206.61 161.209C210.797 157.793 215.016 154.351 218.802 150.337C227.888 140.858 239.234 140.455 248.726 149.545C252.693 153.379 258.221 156.225 263.112 157.722C273.675 160.223 294.57 182.445 294.983 193.785C295.03 194.79 294.56 195.923 293.745 197.884C293.354 198.827 292.883 199.96 292.352 201.363C278.677 191.202 266.42 181.895 251.895 170.74C256.427 176.844 259.472 180.606 262.517 184.367C261.524 185.216 260.53 186.064 259.891 187.126C257.205 184.348 254.493 181.904 251.894 179.562L251.884 179.553C250.169 178.007 248.503 176.506 246.927 174.983ZM458.623 347.744C456.517 341.755 454.353 335.732 452.159 329.625L452.148 329.595L452.143 329.58L452.138 329.567L452.135 329.557L452.132 329.548L452.13 329.541C448.954 320.703 445.715 311.691 442.502 302.357C455.003 299.032 455.425 290.064 455.846 281.095C455.986 278.106 456.127 275.117 456.715 272.336C461.11 273.053 464.584 273.698 467.49 274.483C466.6 276.389 465.634 278.251 464.683 280.084C462.065 285.127 459.557 289.959 459.031 294.948C458.184 302.5 458.61 309.883 459.038 317.309C459.225 320.543 459.412 323.784 459.495 327.052C459.636 327.619 459.918 328.753 460.273 328.967C467.555 335.333 463.905 340.337 460.601 344.866C459.888 345.844 459.19 346.801 458.623 347.744ZM438.381 172.093C438.628 172.113 438.85 172.117 439.056 172.121C439.617 172.131 440.06 172.139 440.579 172.452C440.648 173.94 440.718 175.428 441 176.563C441.258 179.078 441.243 181.971 441.228 184.88C441.195 191.482 441.161 198.171 444.308 200.735C450.837 206.11 451.196 211.831 451.529 217.135C451.641 218.911 451.75 220.64 452.086 222.294L452.071 222.287L452.059 222.28L452.021 222.259L452.002 222.249C445.084 218.566 438.163 214.88 430.187 210.559C431.071 206.402 432.003 202.166 432.946 197.882C434.814 189.389 436.723 180.71 438.381 172.093ZM272.407 428.527C287.724 427.14 298.639 432.263 308.059 442.274C311.524 446.325 314.846 450.611 317.874 454.518L317.888 454.535C318.569 455.414 319.236 456.275 319.886 457.108C302.04 455.876 289.271 444.089 275.167 431.071L274.984 430.902C274.13 430.114 273.272 429.322 272.407 428.527ZM334.578 235.461C334.224 235.248 333.923 234.946 333.622 234.644C333.321 234.342 333.02 234.041 332.665 233.827C336.642 228.024 340.619 222.22 345.022 215.709C356.563 231.818 355.558 244.714 340.939 256.167C341.943 252.688 343.061 249.276 344.202 245.793L344.205 245.783L344.212 245.76C345.089 243.084 345.979 240.365 346.843 237.54C344.075 239.732 341.308 241.923 338.753 243.761C338.399 243.547 338.098 243.246 337.797 242.944C337.496 242.642 337.195 242.34 336.84 242.127C338.095 240.044 339.232 237.99 340.478 235.741C341.983 233.023 343.646 230.021 345.862 226.341L345.858 226.344C340.325 230.725 337.558 232.916 334.578 235.461ZM298.594 199.816C301.849 205.633 305.742 212.798 310.271 221.311C308.19 222.63 305.571 224.484 302.081 226.956L302.073 226.961C300.33 228.195 298.37 229.583 296.151 231.135C296.755 221.722 297.428 213.765 297.974 207.31L297.977 207.273L297.983 207.2L297.984 207.195L297.991 207.105C298.22 204.409 298.425 201.978 298.594 199.816ZM249.982 238.061C247.753 236.078 245.62 234.248 243.53 232.454L243.527 232.451C240.903 230.198 238.344 228.003 235.743 225.632C235.602 225.065 235.549 224.551 235.496 224.037C235.444 223.523 235.391 223.009 235.25 222.442C236.857 222.445 238.606 222.212 240.356 221.979C243.854 221.513 247.353 221.048 249.715 222.47C255.384 225.882 256.937 232.122 249.982 238.061ZM225.514 249.418L225.514 249.408C225.543 246.428 225.57 243.585 226.367 241.205C226.987 239.175 228.461 237.285 229.948 235.377C230.847 234.223 231.752 233.063 232.475 231.862C232.826 234.485 233.178 237.107 234.311 239.236C234.856 240.577 235.784 241.676 236.754 242.824L236.763 242.835C237.174 243.322 237.593 243.818 237.993 244.345C233.238 248.234 229.477 251.274 225.361 254.101C225.483 252.533 225.499 250.957 225.514 249.418ZM427.722 194.609C428.279 204.106 427.137 211.616 418.197 216.843C413.21 205.79 419.381 201.038 426.134 195.838C426.662 195.432 427.193 195.023 427.722 194.609ZM252.653 191.931C258.748 190.421 262.115 189.586 264.342 190.816C267.089 192.332 268.1 196.989 270.36 207.388L270.362 207.397L270.363 207.402L270.363 207.405L270.364 207.409L270.364 207.412L270.364 207.415C264.626 202.514 259.242 197.826 252.653 191.931ZM273.776 199.342C274.486 198.564 275.054 197.821 275.622 197.078C276.19 196.335 276.758 195.592 277.468 194.814C278.301 195.626 279.125 196.433 279.944 197.234C284.206 201.408 288.323 205.439 292.84 209.372C292.343 209.796 291.882 210.362 291.42 210.928C290.959 211.494 290.497 212.06 290.001 212.484C286.979 210.145 284.019 207.702 281.11 205.301L281.101 205.293C278.625 203.25 276.186 201.236 273.776 199.342Z" fill="#C8C2B2"/>
<path d="M343.514 368.541L343.66 368.711L344.036 368.411L343.729 368.487L343.514 368.541Z" fill="#C8C2B2"/>
<path d="M343.514 368.541L341.11 365.729C342.437 363.953 343.724 362.015 345.111 359.926L345.114 359.923C346.323 358.101 347.609 356.165 349.063 354.122C340.835 359.774 333.386 364.932 325.938 370.089L325.931 370.094C325.329 369.49 324.78 368.798 324.231 368.106C323.683 367.414 323.134 366.722 322.532 366.119C325.301 362.722 328.158 359.379 331.015 356.036C333.873 352.693 336.73 349.35 339.499 345.954C339.084 345.704 338.742 345.333 338.459 345.025C338.259 344.808 338.088 344.622 337.941 344.534C332.475 350.405 327.009 356.277 321.189 361.935C320.64 362.481 320.095 363.054 319.546 363.631C315.265 368.126 310.796 372.819 303.386 366.649C302.914 366.364 301.369 367.149 299.823 367.933L299.407 368.144C298.944 368.378 298.491 368.602 298.075 368.789C297.992 368.827 297.909 368.863 297.829 368.898C297.765 368.925 297.702 368.951 297.64 368.976C296.867 369.361 296.097 369.76 295.326 370.16C291.282 372.258 287.178 374.387 282.176 374.616C283.631 373.804 284.997 372.938 286.363 372.072C287.728 371.207 289.094 370.342 290.549 369.529C286.934 368.318 284.24 367.179 281.193 365.826C283.393 363.775 285.593 361.724 288.148 359.887C288.808 359.397 289.466 358.912 290.121 358.429C295.515 354.449 300.685 350.634 305.18 346.029C301.062 348.215 296.997 350.433 292.956 352.638C286.555 356.13 280.215 359.589 273.821 362.835L273.467 362.622C273.834 363.398 274.276 364.18 274.724 364.971L274.727 364.974C275.835 366.931 276.976 368.944 277.075 371.062C277.31 374.038 276.095 377.161 275.278 379.26L275.092 379.74C275.01 379.955 274.934 380.156 274.867 380.342C279.758 381.84 284.295 383.124 288.832 384.408C290.192 371.726 304.657 371.754 313.733 371.913C324.117 371.962 334.013 370.889 343.514 368.541Z" fill="#C8C2B2"/>
<path d="M183.37 335.873C191.725 347.653 203.135 353.557 217.529 354.506C220.855 354.691 224.18 355.298 227.511 355.906C232.133 356.75 236.765 357.595 241.422 357.316C246.457 356.972 251.424 352.729 255.399 349.335C257.67 347.166 259.501 344.304 261.332 341.441C262.247 340.009 263.163 338.578 264.133 337.233C263.815 336.56 263.443 335.975 263.072 335.39L262.898 335.116L262.824 334.998C262.752 334.883 262.68 334.766 262.609 334.649C262.54 334.534 262.472 334.419 262.405 334.301C262.361 334.224 262.317 334.145 262.274 334.066C262.183 333.897 262.094 333.724 262.009 333.544C258.321 335.502 254.562 337.578 250.664 339.73L250.65 339.738C247.804 341.31 244.882 342.923 241.86 344.561C244.113 346.395 246.015 348.02 247.915 349.643L247.929 349.654L247.953 349.675C247.852 349.842 247.761 350.015 247.675 350.191C247.548 350.451 247.434 350.718 247.325 350.989C247.277 351.107 247.23 351.227 247.183 351.346L247.178 351.36L247.172 351.374C246.941 351.958 246.709 352.543 246.39 353.074L243.292 351.497L243.251 351.476L243.241 351.471L243.172 351.436C228.677 344.06 213.884 336.533 198.906 329.312C198.616 330.61 198.375 331.827 198.144 332.996L198.132 333.054L198.129 333.07C197.686 335.315 197.277 337.384 196.626 339.512C194.986 339.048 193.365 338.658 191.759 338.271L191.747 338.269C188.914 337.587 186.127 336.917 183.37 335.873Z" fill="#C8C2B2"/>
<path d="M313.291 464.489C316.421 464.502 319.54 464.515 322.643 464.555C322.764 465.037 322.884 465.52 323.266 465.567L323.493 465.548C323.409 465.569 323.333 465.575 323.266 465.567C319.191 465.893 315.053 466.455 310.9 467.018C300.666 468.407 290.343 469.808 280.663 467.733C270.223 465.796 260.297 461.556 250.345 457.304C243.74 454.482 237.124 451.656 230.337 449.494C222.185 446.998 213.535 446.13 205.168 446.398C196.5 446.716 188.026 447.81 179.462 448.916L179.454 448.917C175.339 449.448 171.203 449.982 167.015 450.434L166.309 447.598L199.083 434.055L200.569 436.396C197.588 438.942 194.821 441.133 192.053 443.325C195.038 443.443 198.031 443.468 201.005 443.494L201.011 443.494C207.432 443.549 213.77 443.603 219.777 444.583C229.49 446.09 238.704 449.227 247.919 452.363C250.366 453.161 252.719 454.637 255.088 456.123C257.798 457.823 260.528 459.535 263.44 460.259C279.675 464.348 296.618 464.419 313.291 464.489Z" fill="#C8C2B2"/>
<path d="M166.817 298.422C180.558 312.48 196.225 316.125 214.387 306.805C214.385 309.215 214.241 311.057 214.241 311.057C218.498 308.798 223.889 306.257 229.281 303.716C229.6 304.39 229.971 304.975 230.343 305.56C230.715 306.146 231.086 306.731 231.404 307.405L231.402 307.408C229.131 310.379 226.86 313.351 224.729 316.889C225.083 317.101 225.471 317.455 225.86 317.808L225.863 317.812C226.253 318.167 226.642 318.522 226.997 318.736L227.011 318.719C231.266 314.056 235.522 309.389 241.62 302.464C228.719 299.037 219.291 296.255 209.863 293.473C209.777 293.616 209.706 293.767 209.643 293.923L209.604 294.024C209.589 294.062 209.576 294.1 209.562 294.138L209.548 294.178C209.496 294.331 209.448 294.486 209.401 294.642C209.276 295.049 209.152 295.456 208.939 295.81C210.176 296.555 211.467 297.212 212.757 297.869L212.765 297.873C214.059 298.531 215.352 299.189 216.593 299.935C216.557 300.396 216.432 300.803 216.308 301.21C216.183 301.618 216.058 302.025 216.023 302.485C214.767 302.164 213.491 301.874 212.205 301.582L212.2 301.581C209.204 300.9 206.145 300.205 203.121 299.059C200.733 298.202 198.449 296.883 196.112 295.535C194.565 294.642 192.994 293.735 191.357 292.941L189.439 296.127C193.07 298.313 196.625 300.194 201.133 302.58L201.136 302.582C202.785 303.455 204.563 304.396 206.518 305.444C204.564 305.83 202.766 306.21 200.992 306.585C197.293 307.366 193.697 308.125 189 308.882C190.2 307.567 191.045 306.554 191.664 305.813C192.509 304.801 192.932 304.294 193.259 304.213C188.053 302.88 182.543 301.738 176.971 300.583C173.592 299.883 170.189 299.177 166.817 298.422Z" fill="#C8C2B2"/>
<path d="M236.236 375.248C246.718 367.619 257.285 359.929 272.333 362.903C263.75 365.934 254.954 369.319 245.732 373.411C247.459 375.054 248.799 376.087 249.301 376.473L249.308 376.478C249.446 376.585 249.518 376.641 249.515 376.646C249.512 376.651 249.412 376.591 249.203 376.465C244.331 378.676 238.956 381.012 233.58 383.349L233.578 383.35C230.891 384.517 228.204 385.685 225.58 386.837C225.72 387.402 225.949 388.02 226.177 388.638L226.181 388.646C226.411 389.267 226.64 389.887 226.782 390.454L237.842 391.325C237.822 391.58 237.819 391.807 237.822 392.022C237.826 392.197 237.833 392.364 237.841 392.531C237.858 392.903 237.876 393.275 237.84 393.735C230.999 393.465 224.231 393.493 217.35 393.522L217.338 393.522L217.133 393.523C214.601 393.533 212.051 393.543 209.477 393.538C209.521 393.715 209.51 393.905 209.478 394.1C209.459 394.218 209.432 394.339 209.405 394.459C209.334 394.778 209.262 395.097 209.333 395.381C212.381 396.733 215.216 398.439 218.05 400.146L217.411 401.207C207.772 396.37 197.779 391.319 189.771 386.98C192.706 385.537 195.866 383.902 199.41 382.067L199.414 382.065C203.322 380.043 207.699 377.778 212.758 375.261C210.431 377.873 208.642 380.027 207.062 381.93L207.054 381.94C205.599 383.691 204.32 385.231 202.96 386.722C203.597 388.07 204.093 388.851 204.73 390.198C207.177 389.27 209.705 388.513 212.218 387.76C216.77 386.396 221.273 385.047 225.159 382.726C228.964 380.541 232.595 377.898 236.236 375.248Z" fill="#C8C2B2"/>
<path d="M147.391 295.408C147.619 294.868 147.839 294.343 148.058 293.818L148.063 293.806C148.937 291.715 149.811 289.622 151.229 286.628C134.831 284.553 132.425 273.505 129.983 262.294C128.951 257.558 127.914 252.793 125.812 248.664C125.881 249.487 125.949 250.309 126.016 251.13C127.447 268.573 128.846 285.626 147.391 295.408Z" fill="#C8C2B2"/>
<path d="M177.526 332.158L177.544 332.17C179.445 333.514 181.334 334.85 183.158 336.226C181.793 335.524 180.441 334.799 179.094 334.078C174.988 331.879 170.932 329.706 166.715 328.257C153.036 322.916 151.195 320.361 155.605 306.621C156.874 302.726 158.847 298.989 160.769 295.351C161.433 294.093 162.091 292.847 162.711 291.611C163.172 291.647 163.545 291.63 163.917 291.613C164.289 291.596 164.661 291.579 165.122 291.615C165.404 292.744 165.632 293.96 165.86 295.177L165.86 295.181L165.863 295.196C166.085 296.38 166.307 297.564 166.577 298.667C166.659 298.586 166.739 298.503 166.817 298.422L166.604 298.776L166.577 298.667C165.708 299.535 164.621 300.402 163.55 301.256C161.319 303.036 159.152 304.764 159.151 306.344C159.287 311.731 160.841 317.97 164.099 321.378C168.122 325.511 172.86 328.86 177.526 332.158Z" fill="#C8C2B2"/>
<path d="M118.748 291.667C111.642 306.678 115.393 313.276 138.28 328.982C136.299 324.105 132.261 320.416 128.258 316.758C121.257 310.36 114.359 304.058 118.748 291.667Z" fill="#C8C2B2"/>
</svg>
