<svg width="80" height="45" viewBox="0 0 80 45" fill="none" xmlns="http://www.w3.org/2000/svg">
<path d="M51.443 0H26.0563C22.0276 0 18.75 3.27759 18.75 7.30627V30C18.75 30.6899 19.3099 31.2499 19.9999 31.2499H57.4467C58.1648 31.2499 58.7496 30.665 58.7493 29.9469V7.30627C58.7493 3.27722 55.4717 0 51.443 0ZM56.2499 28.7498H21.2501V7.30627C21.2501 4.65637 23.4056 2.50012 26.0563 2.50012H51.4437C54.0936 2.50012 56.2499 4.65637 56.2499 7.30627V28.7498Z" fill="#6F7A27"/>
<path d="M15 1.25H4.99987C4.30993 1.25 3.75 1.80994 3.75 2.49988C3.75 3.18982 4.30993 3.74976 4.99987 3.74976H15C15.6899 3.74976 16.2498 3.18982 16.2498 2.49988C16.2498 1.80994 15.6899 1.25 15 1.25Z" fill="#441A00"/>
<path d="M14.9999 7.5H11.2499C10.5599 7.5 10 8.05994 10 8.74988C10 9.43982 10.5599 9.99976 11.2499 9.99976H14.9999C15.6898 9.99976 16.2497 9.43982 16.2497 8.74988C16.2497 8.05994 15.6898 7.5 14.9999 7.5Z" fill="#441A00"/>
<path d="M7.49998 7.5H1.24987C0.559935 7.5 0 8.05994 0 8.74988C0 9.43982 0.559935 9.99976 1.24987 9.99976H7.49998C8.18992 9.99976 8.74985 9.43982 8.74985 8.74988C8.74985 8.05994 8.18992 7.5 7.49998 7.5Z" fill="#441A00"/>
<path d="M15 13.75H10.0001C9.31018 13.75 8.75024 14.3099 8.75024 14.9999C8.75024 15.6898 9.31018 16.2498 10.0001 16.2498H15C15.6899 16.2498 16.2499 15.6898 16.2499 14.9999C16.2499 14.3099 15.6899 13.75 15 13.75Z" fill="#441A00"/>
<path d="M63.3449 37.5H35.2599C34.5699 37.5 34.01 38.0599 34.01 38.7499C34.01 39.4398 34.5699 39.9998 35.2599 39.9998H63.3449C64.0348 39.9998 64.5948 39.4398 64.5948 38.7499C64.5948 38.0599 64.0348 37.5 63.3449 37.5Z" fill="#441A00"/>
<path d="M66.3737 8.75H57.5001C56.8102 8.75 56.2502 9.30994 56.2502 9.99988V29.9998C56.2502 30.6897 56.8102 31.2496 57.5001 31.2496H78.7502C79.4401 31.2496 80 30.6897 80 29.9998V22.376C79.9997 14.8624 73.8873 8.75 66.3737 8.75ZM77.4999 28.7499H58.75V11.2501H66.3737C72.5089 11.2501 77.4999 16.2419 77.4999 22.3763V28.7499Z" fill="#6F7A27"/>
<path d="M78.7498 28.75H19.9999C19.3099 28.75 18.75 29.3099 18.75 29.9999V38.7501C18.75 39.4401 19.3099 40 19.9999 40H24.4028C25.0928 40 25.6527 39.4401 25.6527 38.7501C25.6527 38.0602 25.0928 37.5002 24.4028 37.5002H21.2497V31.2501H77.4996V34.2791C77.4996 36.0552 76.0545 37.5002 74.2784 37.5002H73.702C73.012 37.5002 72.4521 38.0602 72.4521 38.7501C72.4521 39.4401 73.012 40 73.702 40H74.2784C77.4333 40 79.9997 37.4336 79.9997 34.2787V29.9999C79.9997 29.3103 79.4398 28.75 78.7498 28.75Z" fill="#441A00"/>
<path d="M67.4997 13.75H61.2496C60.5597 13.75 59.9998 14.3099 59.9998 14.9999V22.4999C59.9998 23.1898 60.5597 23.7498 61.2496 23.7498H74.9997C75.6897 23.7498 76.2496 23.1898 76.2496 22.4999C76.2496 17.675 72.3246 13.75 67.4997 13.75ZM62.4999 21.25V16.2501H67.4997C70.518 16.2501 73.0427 18.4009 73.6242 21.25H62.4999Z" fill="#6F7A27"/>
<path d="M29.9999 32.5C26.5535 32.5 23.7498 35.3037 23.7498 38.7501C23.7498 42.1965 26.5535 45.0002 29.9999 45.0002C33.4463 45.0002 36.25 42.1965 36.25 38.7501C36.25 35.3037 33.4463 32.5 29.9999 32.5ZM29.9999 42.5001C27.9319 42.5001 26.2499 40.8181 26.2499 38.7501C26.2499 36.6821 27.9319 35.0001 29.9999 35.0001C32.0678 35.0001 33.7499 36.6821 33.7499 38.7501C33.7499 40.8181 32.0678 42.5001 29.9999 42.5001Z" fill="#441A00"/>
<path d="M68.7497 32.5C65.3033 32.5 62.4996 35.3037 62.4996 38.7501C62.4996 42.1965 65.3033 45.0002 68.7497 45.0002C72.1961 45.0002 74.9998 42.1965 74.9998 38.7501C74.9998 35.3037 72.1961 32.5 68.7497 32.5ZM68.7497 42.5001C66.6818 42.5001 64.9997 40.8181 64.9997 38.7501C64.9997 36.6821 66.6818 35.0001 68.7497 35.0001C70.8177 35.0001 72.4997 36.6821 72.4997 38.7501C72.4997 40.8181 70.8181 42.5001 68.7497 42.5001Z" fill="#441A00"/>
</svg>
