<svg width="12" height="12" viewBox="0 0 12 12" fill="none" xmlns="http://www.w3.org/2000/svg">
<path d="M11.5004 7.55736C11.2237 7.55736 11.0008 7.77949 11.0008 8.05533V11.0016H0.999184V8.05533C0.999184 7.77949 0.776326 7.55736 0.499592 7.55736C0.222857 7.55736 0 7.77949 0 8.05533V11.502C0 11.7779 0.222857 12 0.499592 12H11.5004C11.7771 12 12 11.7779 12 11.502V8.05533C12 7.77949 11.7771 7.55736 11.5004 7.55736Z" fill="currentColor"/>
<path d="M5.64724 8.37999C5.91908 8.64118 6.24479 8.50692 6.355 8.37999L9.39663 5.3507C9.59255 5.15541 9.59255 4.84052 9.39663 4.64524C9.20071 4.44996 8.88479 4.44996 8.68887 4.64524L6.49949 6.82507V0.497966C6.49949 0.222132 6.27663 0 5.99989 0C5.72316 0 5.5003 0.222132 5.5003 0.497966V6.82262L3.31091 4.6428C3.115 4.44752 2.79908 4.44752 2.60316 4.6428C2.40724 4.83808 2.40724 5.15297 2.60316 5.34825L5.64724 8.37999Z" fill="currentColor"/>
</svg>
