<svg width="25" height="26" viewBox="0 0 25 26" fill="none" xmlns="http://www.w3.org/2000/svg">
<path d="M12.5231 14.0258C12.6125 14.0293 12.9338 14.0258 13.024 14.0258C13.1144 14.0258 13.4354 14.0293 13.5249 14.0258C16.1405 14.0886 18.4208 14.8433 20.3924 16.5637C20.8156 16.9329 21.4583 16.8898 21.8281 16.4675C22.198 16.0452 22.1549 15.4036 21.7318 15.0344C20.3886 13.8623 18.8335 12.9837 17.1652 12.4354C18.8505 11.1746 19.9428 9.16534 19.9428 6.9062C19.9429 3.09812 16.8391 0 13.0239 0C9.2087 0 6.10492 3.09812 6.10492 6.90625C6.10492 9.16626 7.19809 11.1762 8.88444 12.4369C7.33943 12.9446 5.88973 13.7346 4.62092 14.7763C2.29431 16.6865 0.676666 19.3509 0.066012 22.2788C-0.125375 23.1962 0.103933 24.1385 0.694964 24.864C1.28314 25.586 2.15526 26 3.08778 26H23.0777C23.6397 26 24.0952 25.5453 24.0952 24.9844C24.0952 24.4235 23.6043 24.0443 23.0424 24.0443H3.0525C2.61814 24.0443 2.3913 23.7268 2.27376 23.5825C2.07081 23.3334 1.99227 23.0092 2.05827 22.6929C3.11424 17.6302 7.35659 14.1505 12.5231 14.0258ZM8.13999 6.9063C8.13999 4.21818 10.3309 2.03128 13.024 2.03128C15.7171 2.03128 17.908 4.21818 17.908 6.9063C17.908 9.51185 15.6028 11.8934 13.024 12.0221C13.1063 12.0221 12.9418 12.0206 13.024 12.0221C13.1058 12.0206 12.942 12.0221 13.024 12.0221C10.4446 11.8938 8.13999 9.5121 8.13999 6.9063Z" fill="#A5BB70"/>
</svg>
