<svg width="25" height="18" viewBox="0 0 25 18" fill="none" xmlns="http://www.w3.org/2000/svg">
<path d="M23.8165 10.63C23.6127 10.3863 23.2358 10.343 22.9745 10.5329C22.7132 10.723 22.6666 11.0746 22.8704 11.3183C23.0706 11.5578 23.0706 11.8923 22.8704 12.1318C21.4029 13.8867 19.5042 15.2054 17.3666 16.0026C18.4901 14.8806 19.178 13.3761 19.178 11.725C19.178 10.0805 18.4958 8.58135 17.3819 7.46174C18.6171 7.92497 19.7782 8.56161 20.8176 9.35653C20.9466 9.45514 21.0753 9.55741 21.2002 9.66055C21.4483 9.86542 21.8274 9.8439 22.047 9.61256C22.2667 9.38122 22.2436 9.02754 21.9955 8.82272C21.8594 8.71019 21.719 8.59866 21.5783 8.49117C19.014 6.5302 15.7722 5.45025 12.4502 5.45025C7.97949 5.45025 3.83667 7.33822 1.08404 10.6301C0.544904 11.2748 0.544904 12.1754 1.08404 12.8202C3.83667 16.112 7.97949 18 12.4502 18C16.9209 18 21.0638 16.112 23.8165 12.8202C24.3556 12.1753 24.3556 11.2748 23.8165 10.63ZM2.03016 12.1318C1.82991 11.8923 1.82991 11.5578 2.03016 11.3183C3.4973 9.56373 5.39564 8.24526 7.53282 7.44791C6.41051 8.56935 5.72249 10.0733 5.72249 11.725C5.72249 13.3762 6.41046 14.8807 7.53277 16.0022C5.39564 15.2049 3.49725 13.8864 2.03016 12.1318ZM12.4576 16.8807C12.4552 16.8807 12.4527 16.8808 12.4503 16.8808C12.4478 16.8808 12.4455 16.8807 12.443 16.8807C9.39811 16.8771 6.92234 14.5658 6.92234 11.725C6.92234 8.88423 9.39806 6.57302 12.443 6.56936C12.4454 6.56936 12.4478 6.56931 12.4503 6.56931L12.4559 6.56936C15.5015 6.57215 17.9782 8.88368 17.9782 11.725C17.9782 14.5658 15.5025 16.8771 12.4576 16.8807Z" fill="#C8C2B2"/>
<path d="M12.4501 9.35068C11.0463 9.35068 9.90448 10.4157 9.90448 11.725C9.90448 13.0343 11.0463 14.0993 12.4501 14.0993C13.8539 14.0993 14.9958 13.0343 14.9958 11.725C14.9958 10.4157 13.8539 9.35068 12.4501 9.35068ZM12.4501 12.9802C11.7082 12.9802 11.1043 12.417 11.1043 11.725C11.1043 11.033 11.7082 10.4698 12.4501 10.4698C13.192 10.4698 13.7959 11.033 13.7959 11.725C13.7959 12.417 13.192 12.9802 12.4501 12.9802Z" fill="#C8C2B2"/>
<path d="M12.4498 0C12.1184 0 11.8499 0.250486 11.8499 0.559551V2.65783C11.8499 2.9669 12.1184 3.21738 12.4498 3.21738C12.7812 3.21738 13.0497 2.9669 13.0497 2.65783V0.559551C13.0497 0.250486 12.7811 0 12.4498 0Z" fill="#C8C2B2"/>
<path d="M21.3393 3.43408C21.105 3.21561 20.7252 3.21561 20.4908 3.43408L19.3714 4.47811C19.1371 4.69663 19.1371 5.0509 19.3714 5.26951C19.4885 5.37875 19.642 5.43339 19.7956 5.43339C19.9491 5.43339 20.1026 5.37875 20.2198 5.26951L21.3393 4.22548C21.5735 4.00696 21.5735 3.65269 21.3393 3.43408Z" fill="#C8C2B2"/>
<path d="M5.52936 4.47816L4.40989 3.43408C4.17561 3.21561 3.79577 3.21561 3.56149 3.43408C3.3272 3.65269 3.32725 4.00691 3.56149 4.22548L4.68096 5.26951C4.79807 5.37875 4.95168 5.43339 5.10518 5.43339C5.25869 5.43339 5.41229 5.37875 5.52941 5.26951C5.76364 5.0509 5.76359 4.69668 5.52936 4.47816Z" fill="#C8C2B2"/>
</svg>
