<svg width="21" height="20" viewBox="0 0 21 20" fill="none" xmlns="http://www.w3.org/2000/svg">
<path d="M2 1C2 1.55228 1.55228 2 1 2C0.447715 2 0 1.55228 0 1C0 0.447715 0.447715 0 1 0C1.55228 0 2 0.447715 2 1Z" fill="black"/>
<path d="M2 19C2 19.5523 1.55228 20 1 20C0.447715 20 0 19.5523 0 19C0 18.4477 0.447715 18 1 18C1.55228 18 2 18.4477 2 19Z" fill="black"/>
<path d="M2 10C2 10.5523 1.55228 11 1 11C0.447715 11 0 10.5523 0 10C0 9.44771 0.447715 9 1 9C1.55228 9 2 9.44771 2 10Z" fill="black"/>
<path d="M4 1C4 0.447715 4.44772 0 5 0H20C20.5523 0 21 0.447715 21 1C21 1.55228 20.5523 2 20 2H5C4.44772 2 4 1.55228 4 1Z" fill="black"/>
<path d="M4 10C4 9.44772 4.44772 9 5 9H20C20.5523 9 21 9.44772 21 10C21 10.5523 20.5523 11 20 11H5C4.44772 11 4 10.5523 4 10Z" fill="black"/>
<path d="M4 19C4 18.4477 4.44772 18 5 18H20C20.5523 18 21 18.4477 21 19C21 19.5523 20.5523 20 20 20H5C4.44772 20 4 19.5523 4 19Z" fill="black"/>
</svg>
