<svg width="110" height="110" viewBox="0 0 110 110" fill="none" xmlns="http://www.w3.org/2000/svg">
<path fill-rule="evenodd" clip-rule="evenodd" d="M52.967 63.605C49.8166 65.7019 46.7646 67.7115 43.6141 69.8085C40.759 71.7307 38.0024 73.7402 35.3442 75.9246C37.1163 74.9635 38.79 73.915 40.5621 73.0413C46.863 69.9832 55.2314 69.5463 60.154 74.2645C61.5323 75.5751 62.7137 77.0604 61.6308 79.2447C59.1695 72.517 49.5212 69.9832 42.5311 73.7402C39.676 75.313 36.5256 77.4973 33.4736 77.5846C26.4835 77.7594 23.4315 82.3902 19.5919 86.0598C17.1306 88.4189 15.0631 91.1274 12.7003 93.6613C10.4359 96.1951 8.07304 98.6415 5.41484 101.437C5.5133 100.564 5.61175 100.039 5.61175 99.5153C4.43033 99.9521 3.24891 100.389 2.06749 100.913C2.46129 102.661 2.6582 104.146 2.95355 105.631C2.55974 105.631 2.16594 105.631 1.87058 105.631C1.96903 104.146 2.16594 102.661 2.26439 101.088C4.43033 98.7289 6.39936 96.2825 8.66375 93.9234C14.4724 87.8073 20.3795 81.8659 26.0897 75.7498C26.3851 75.4003 26.4835 74.7887 26.3851 74.3519C25.4005 70.2453 26.6804 66.663 29.5355 63.4302C30.9138 61.8575 31.7999 60.1101 30.9138 57.9257C31.0123 61.1585 28.4525 63.3429 26.8773 65.8767C25.499 68.061 24.9083 70.5074 25.5974 72.9539C25.9912 74.5266 25.499 75.6624 24.416 76.7109C18.2136 83.0018 12.1096 89.2926 5.9071 95.4961C4.52878 96.8941 2.8551 98.1173 1.57523 99.6026C0.787614 100.651 0.295355 101.962 0.196903 103.272C0 105.457 0.0984517 107.641 0 109.825C0.295355 109.913 0.492259 109.913 0.787614 110C1.27987 109.388 1.87058 108.777 2.26439 108.078C5.21794 102.661 9.64827 98.1173 13.9801 93.5739C17.7213 89.6421 21.4625 85.7103 25.1052 81.7785C26.9758 79.769 29.2402 79.07 32.1937 78.5457C35.3442 78.0215 38.2977 76.4488 41.3497 75.313C41.842 75.1382 42.3342 74.7887 42.8265 74.5266C49.6197 70.8569 51.3918 71.7307 58.2834 75.6624C60.8432 77.1478 60.9416 78.2836 59.5633 81.0796C62.123 80.7301 63.1075 79.2447 62.8122 75.8372C64.6828 76.7983 66.5534 77.4099 68.0301 78.4584C72.6574 81.6912 77.5799 82.4775 83.3886 80.9048C86.1452 80.2058 89.2957 80.3806 92.1508 80.6427C95.892 81.0796 98.1563 79.5069 99.2393 76.5362C100.618 72.7791 102.488 69.6337 106.426 67.6241C107.805 66.9252 108.297 65.7893 108.002 64.2166C107.805 63.3429 108.395 62.2944 108.888 61.4207C110.463 59.0616 110.364 57.4889 108.592 55.2172C108.1 54.6056 107.706 53.7318 107.608 53.0329C107.214 48.5768 107.017 48.4021 102.193 47.3536C102.193 47.0915 102.094 46.8294 102.193 46.4799C102.98 42.7229 101.602 40.0143 98.0579 38.0047C97.1718 37.4805 96.0889 37.0436 95.4982 36.3446C94.809 35.4709 94.3167 34.4224 94.2183 33.374C94.1198 31.4518 93.3322 30.4033 91.0678 29.9664C86.6375 29.1801 86.6375 29.1801 87.5236 25.1609C88.1143 22.7145 85.4561 20.5301 82.0103 20.6175C81.4196 20.6175 80.7304 20.7049 79.9428 20.7923C79.3521 15.8994 76.1032 13.4529 70.6883 13.0161C70.9837 11.2686 70.2945 10.1328 68.227 9.60852C67.8332 9.52114 67.4394 8.90954 67.1441 8.56004H66.9472C67.1441 9.08428 67.341 10.0454 67.6363 10.1328C70.0976 10.4822 70.0976 12.055 69.8023 13.1034C72.2635 14.0645 74.6264 14.8509 76.6939 15.9867C78.9583 17.2973 78.8598 19.6564 79.1552 21.7534C79.3521 22.8018 79.9428 23.8503 80.1397 24.8988C80.2381 25.6851 80.3366 26.7336 79.8443 27.3452C78.0722 29.7043 77.4815 32.1507 77.6784 35.034C78.0722 40.3638 75.3156 44.9072 71.9682 49.1011C70.1961 51.198 68.227 53.2076 66.258 55.1298C63.1075 58.1005 58.9726 58.9742 54.6407 59.0616C46.5677 59.3237 40.6606 62.9934 35.8364 68.2357C35.6395 68.4105 35.4426 68.5852 35.2457 68.76C35.2457 68.76 35.1473 68.76 34.5565 68.6726C35.738 66.7504 36.9194 64.9156 38.2977 62.7313C36.9194 63.4302 35.8364 63.9545 34.7535 64.4787C36.624 60.9838 39.676 58.0131 40.1683 53.994C38.79 56.353 37.5101 58.7121 36.1318 61.0712C35.9349 60.9838 35.738 60.8964 35.5411 60.809C36.1318 59.4985 36.624 58.1879 37.2147 56.8773C37.0178 56.7899 36.8209 56.7025 36.624 56.7025C35.1473 60.1974 33.6705 63.605 32.0953 67.5368C33.3751 66.5757 34.3596 65.7893 35.738 64.6535C35.0488 66.4883 34.4581 67.7989 33.9658 69.1968C33.7689 69.8085 33.7689 70.7696 34.1627 71.0317C34.655 71.3812 35.738 71.2938 36.2302 71.0317C39.5776 69.459 42.9249 67.7115 46.2723 66.2262C48.4382 65.2651 50.7026 64.5661 52.967 63.605C57.6927 61.5954 60.7447 61.508 63.7967 64.7408C60.3509 63.1681 56.7082 62.9934 52.967 63.605ZM50.0135 66.7504C55.133 61.7701 60.5478 64.5661 66.0611 65.5272C64.5843 64.1292 62.9106 62.9934 61.1385 62.0323C60.4493 61.6828 59.5633 61.2459 58.8741 61.3333C54.2469 62.0323 49.915 63.4302 45.78 65.6146C42.2358 67.4494 38.4946 69.1095 34.7535 70.8569C34.7535 70.4201 34.7535 70.3327 34.7535 70.2453C39.8729 64.6535 45.4847 59.7606 54.4438 59.5858C61.6308 59.4985 66.9472 56.4404 70.8852 51.2854C74.1341 47.0041 77.2846 42.7229 81.4196 39.1406C84.2747 36.6941 87.0313 34.1603 86.6375 30.1412C88.1143 30.3159 89.2957 30.3159 90.3787 30.578C91.3632 30.8401 92.7415 31.4518 92.9384 32.1507C93.2338 32.8497 92.6431 34.0729 92.0523 34.8593C91.5601 35.6456 90.4771 35.9951 89.6895 36.6941C86.4406 39.4901 83.1917 42.286 79.9428 45.0819C80.0412 45.2567 80.2381 45.344 80.3366 45.5188C84.6685 42.286 87.8189 37.7426 92.9384 35.5583C94.6121 36.6941 95.9904 37.83 97.5656 38.7037C100.224 40.189 101.405 42.286 101.208 44.9945C101.11 46.1304 100.815 47.3536 100.421 48.4895C99.1409 52.5086 97.7625 56.353 94.1198 59.3237C91.8554 61.1585 90.5756 63.6924 90.2802 66.4883C89.7879 70.6822 87.3267 73.5655 83.3886 75.8372C80.9273 77.2352 78.7614 77.0604 76.3001 75.9246C73.9372 74.7887 71.4759 73.915 68.9162 73.1286C66.4549 72.4296 64.7812 70.6822 62.3199 69.8958C58.5788 68.6726 54.9361 65.9641 50.0135 66.7504ZM57.2004 70.0706C57.102 70.2453 56.9051 70.4201 56.8066 70.5948C58.185 71.2938 59.4648 71.9054 60.8432 72.6044C65.5688 74.9635 70.0976 77.7594 75.9063 78.0215C79.7459 78.1963 82.9948 77.4973 85.8499 75.313C87.4251 74.0897 89.1973 73.0413 90.8709 71.9054C91.6585 71.3812 92.5446 70.8569 93.0369 70.0706C96.4827 64.304 101.307 59.0616 100.519 51.897C100.421 50.7612 101.307 49.1884 102.291 48.5768C102.98 48.14 104.851 48.9263 105.836 49.5379C106.525 50.0622 106.525 51.2854 106.82 52.2465C107.115 53.3824 107.214 54.6929 107.903 55.5667C109.478 57.5763 109.577 59.149 108.297 61.2459C107.608 62.2944 107.608 63.6924 107.214 64.9156C106.919 65.7019 106.722 66.8378 106.032 67.1873C101.898 69.2842 99.7316 72.517 98.3533 76.5362C97.4672 79.3321 95.4981 80.2932 92.2492 80.0311C88.3112 79.6816 84.3731 79.6816 80.5335 80.7301C76.3985 81.8659 72.6574 80.6427 69.2115 78.4584C67.2425 77.2352 65.0766 76.3614 63.0091 75.313C62.3199 74.9635 61.5323 74.614 60.9416 74.0897C58.5788 71.818 55.7237 70.3327 52.1794 70.3327C49.3243 70.2453 46.4692 70.6822 43.811 70.8569C47.7491 67.1873 51.6871 66.4009 57.0035 68.4979C62.6153 70.7696 68.227 73.1286 73.8388 75.4877C74.9217 75.9246 76.0047 76.5362 77.0877 77.0604C72.9527 77.4973 69.31 76.4488 65.9626 74.7013C63.0091 73.1286 60.154 71.5559 57.2004 70.0706ZM77.1861 42.1986C77.5799 40.8007 77.9737 39.3153 78.466 37.9173C78.5645 37.4805 79.1552 37.0436 79.0567 36.6941C77.8753 33.6361 78.3676 30.7528 80.3366 28.0442C81.3211 26.6462 81.9118 25.3356 80.3366 23.7629C79.6474 23.0639 79.3521 21.5786 80.7304 21.5786C82.4041 21.4912 84.2747 21.9281 85.8499 22.6271C87.3267 23.2387 87.0313 24.724 86.539 26.0346C86.3421 26.6462 86.2437 27.2579 86.2437 27.8695C87.2282 34.5972 81.8134 38.1795 77.1861 42.1986ZM90.2802 71.5559C91.6585 63.5176 94.0214 59.4985 99.83 54.8677C98.8455 61.5954 94.6121 66.5757 90.2802 71.5559Z" fill="#C8C2B2"/>
<path fill-rule="evenodd" clip-rule="evenodd" d="M67.144 8.64779C67.2425 7.24982 67.4394 5.85186 67.2425 4.54127C67.0456 2.96856 65.7657 2.44431 64.4858 3.58016C62.7137 5.15287 61.3354 5.32762 59.6617 3.40542C59.1694 2.88118 57.4958 2.7938 56.7082 3.1433C54.1484 4.01702 51.7856 5.24025 48.832 6.46347C49.1274 4.89076 49.4227 3.66754 49.5212 2.44432C49.5212 1.74533 49.2258 0.696857 48.7336 0.434738C47.8475 -0.0021286 46.5676 -0.0895004 45.6816 0.0852432C45.2878 0.172615 44.8939 1.39584 44.9924 2.09482C45.0909 3.05593 44.9924 3.58016 43.9094 3.92965C42.1373 4.54126 40.5621 5.415 41.3497 7.59932C41.4481 7.86144 41.0543 8.2983 40.8574 8.56042C38.4946 11.1816 36.1318 13.8902 33.6705 16.5114C33.4736 16.6861 33.2767 16.8608 33.3751 16.7735C31.603 15.3755 30.1262 13.8902 28.2556 12.7543C26.4835 11.5311 24.3175 10.9195 22.1516 12.0553C19.9857 13.1912 19.5919 15.1134 19.8872 16.9482C20.281 19.482 21.0686 21.9285 21.5609 24.4623C21.8563 26.1224 21.8563 27.7825 22.0532 29.4425C22.1516 30.4037 22.2501 31.3647 22.3485 32.3259C22.6439 32.3259 22.9392 32.3259 23.2346 32.3259C23.1361 31.5395 22.9392 30.7531 22.9392 29.8794C22.9392 29.2678 22.8408 28.5688 23.0377 28.0446C24.2191 23.8507 24.1206 19.9189 21.6593 15.8997C20.281 13.5407 22.3485 11.6185 25.3021 12.1427C28.6494 12.8417 31.0123 14.7639 32.489 17.5598C32.5875 17.8219 32.6859 18.0841 32.6859 18.2588C32.6859 18.5209 32.489 18.6957 32.3906 19.2199C32.2921 18.783 32.1937 18.6083 32.1937 18.4336C31.9968 18.4336 31.7999 18.3462 31.603 18.3462C30.9138 22.6275 30.3231 26.9087 29.6339 31.1026C29.9293 31.19 30.1262 31.2774 30.4215 31.2774C30.9138 22.278 34.2612 14.5892 42.2358 8.64779C42.3342 8.90991 42.5311 9.08466 42.4327 9.08466C40.3652 11.269 40.9559 13.3659 42.728 15.3755C43.0234 15.725 43.4172 16.2492 43.3187 16.5114C42.5311 18.5209 43.3187 20.0936 44.697 21.6664C44.894 21.9285 44.8939 22.4527 44.7955 22.8022C44.0079 24.637 43.6141 26.3845 44.5001 28.2193C44.5986 28.4814 44.5001 28.9183 44.3032 29.0931C42.8265 30.491 43.3187 32.0637 44.2048 33.4617C45.5831 35.3839 45.4847 37.2187 44.5001 39.1409C43.9094 40.3642 43.6141 41.6748 43.5156 42.9854C43.811 42.3737 44.4017 41.6748 44.5001 40.9758C45.5831 35.7334 49.8165 32.5006 53.6562 28.9183C54.936 27.7825 56.019 26.3845 56.9051 24.9865C59.4648 21.0547 62.9106 17.9967 67.3409 15.8997C67.7347 15.725 68.0301 15.5503 68.4239 15.2881C68.6208 15.2008 68.7193 15.026 68.7193 14.5892C67.5378 15.1134 66.1595 15.4629 65.2735 16.2492C62.7137 18.2588 59.8586 20.181 57.988 22.7148C55.0345 26.734 51.2933 30.0542 47.8475 33.6364C47.6506 33.5491 47.5521 33.4617 47.3552 33.287C47.749 32.6753 48.1429 32.0637 48.6351 31.2774C48.7336 30.0542 48.9305 28.4814 49.0289 26.9961C49.1274 26.1224 49.4227 25.2486 49.2258 24.3749C48.4382 18.6957 51.884 14.7639 56.1174 11.0942C56.6097 10.7447 57.102 10.3079 57.4958 9.95839C57.4958 9.95839 57.4958 9.87101 57.2989 9.52152C56.4128 10.3079 55.5267 11.0069 54.6407 11.7932C53.7546 12.6669 52.7701 13.5407 51.9825 14.4144C51.1949 15.2881 50.5057 16.3366 49.8165 17.2977C49.6196 17.2977 49.4227 17.2977 49.1274 17.2103C49.0289 14.327 48.9305 11.3564 49.0289 8.47305C49.0289 7.86144 49.5212 6.90033 50.1119 6.63821C52.4747 5.41499 54.8376 4.36652 57.2989 3.49279C58.0865 3.23067 59.4648 3.49279 60.0555 4.01702C62.4184 5.85186 62.4184 5.93924 64.9781 4.1044C65.3719 3.84229 65.8642 3.58017 66.7502 3.23067C67.0456 5.15288 67.2425 6.72559 67.4394 8.38567L67.144 8.64779ZM47.8475 2.00745C48.0444 3.05593 48.2413 4.01703 48.2413 4.97813C48.2413 6.63822 47.946 8.21093 47.946 9.87101C47.946 14.8513 48.2413 19.9189 48.1429 24.8992C48.0444 28.3941 47.1583 31.8016 45.4847 35.2092C44.4017 33.3743 43.4172 32.0637 44.1063 29.8794C44.8939 27.3456 44.8939 24.5497 44.9924 21.8411C44.9924 21.3169 44.2048 20.7926 43.9094 20.2684C43.6141 19.7442 43.2203 18.9578 43.4172 18.5209C44.2048 16.8608 43.3187 15.6376 42.2358 14.4144C41.1528 13.1038 40.8574 11.7932 42.2358 10.3079C42.6296 9.87101 42.728 8.73516 42.3342 8.21093C41.2512 6.20135 41.3497 5.58974 43.7125 4.89075C45.1893 4.45389 45.78 3.84229 45.4847 2.35695C45.3862 1.83271 45.9769 0.696861 46.5676 0.609486C47.749 0.347366 48.7336 0.871605 48.832 2.35695C48.2413 2.1822 47.8475 2.00745 47.8475 2.00745ZM22.0532 24.3749C21.4624 22.0158 20.8717 19.5694 20.281 17.2103C20.4779 17.2103 20.6748 17.123 20.8717 17.123C22.1516 19.3073 23.8253 21.4916 22.0532 24.3749Z" fill="#C8C2B2"/>
<path fill-rule="evenodd" clip-rule="evenodd" d="M32.7843 50.8486C30.2246 47.0042 27.6649 43.1598 25.1051 39.3154C24.9082 39.4028 24.7113 39.4902 24.5144 39.5775C26.4834 42.7229 28.6494 45.781 28.4525 49.6254C28.7478 49.538 29.0432 49.4507 29.2401 49.3633C29.0432 48.3148 28.8463 47.2663 28.6494 46.2179C28.7478 46.2179 28.8463 46.1305 28.9447 46.1305C30.2246 47.6158 31.5045 49.1885 32.7843 50.8486Z" fill="#C8C2B2"/>
<path fill-rule="evenodd" clip-rule="evenodd" d="M32.7843 50.8486C32.7843 51.1981 32.489 51.6349 32.6859 51.897C33.9657 54.5182 33.375 57.052 32.489 59.5859C32.3905 59.9354 32.2921 60.1975 32.1936 60.8091C34.7533 58.45 34.9502 53.6445 32.7843 50.8486Z" fill="#C8C2B2"/>
<path fill-rule="evenodd" clip-rule="evenodd" d="M29.8308 64.6537C29.0432 66.139 28.0587 67.537 27.4679 69.1097C27.1726 69.8087 27.7633 70.6824 28.0587 71.5562C28.9447 69.1971 29.7323 67.0128 30.4215 64.8284C30.2246 64.7411 30.0277 64.7411 29.8308 64.6537Z" fill="#C8C2B2"/>
<path fill-rule="evenodd" clip-rule="evenodd" d="M33.2766 46.1304C33.0797 45.2566 32.8828 44.5577 32.7843 43.8587C32.8828 43.8587 33.0797 43.8587 33.1781 43.8587C32.5874 42.7228 31.8983 41.587 31.2091 40.2764C30.9137 42.4607 31.3076 44.3829 33.2766 46.1304Z" fill="#C8C2B2"/>
<path fill-rule="evenodd" clip-rule="evenodd" d="M35.1472 53.2075C36.427 51.2853 36.427 50.0621 35.0487 48.2273C35.1472 49.8874 35.1472 51.4601 35.1472 53.2075Z" fill="#C8C2B2"/>
<path fill-rule="evenodd" clip-rule="evenodd" d="M30.4215 35.9078C30.0277 35.2089 29.6339 34.5099 29.3386 33.7235C29.2401 33.7235 29.1417 33.7235 29.0432 33.7235C29.2401 35.0341 29.5355 36.4321 29.7324 37.7427C29.9293 37.7427 30.2246 37.7427 30.4215 37.7427C30.6184 37.0437 30.8153 36.3447 31.0122 35.6457C30.8153 35.7331 30.6184 35.8205 30.4215 35.9078Z" fill="#C8C2B2"/>
<path fill-rule="evenodd" clip-rule="evenodd" d="M38.8883 50.499C38.6914 47.9652 36.8208 47.0041 35.1471 45.6935C36.427 47.1789 37.5099 48.6642 38.8883 50.499Z" fill="#C8C2B2"/>
<path fill-rule="evenodd" clip-rule="evenodd" d="M95.1042 53.2075C98.3532 53.1201 98.0578 50.5863 99.5346 49.1884C96.4826 49.1884 96.7779 51.7222 95.1042 53.2075Z" fill="#C8C2B2"/>
<path fill-rule="evenodd" clip-rule="evenodd" d="M88.3112 48.8389C91.4616 47.3535 94.7105 45.7808 97.861 44.2955C97.7625 44.1207 97.6641 43.946 97.5656 43.7712C94.4152 45.3439 91.2647 46.9167 88.1143 48.402C88.2127 48.5767 88.2127 48.6641 88.3112 48.8389Z" fill="#C8C2B2"/>
<path fill-rule="evenodd" clip-rule="evenodd" d="M107.805 58.5374C106.525 58.5374 105.343 58.5374 103.571 58.5374C105.442 60.8091 106.525 58.8869 107.805 58.9743C107.805 58.7995 107.805 58.6248 107.805 58.5374Z" fill="#C8C2B2"/>
</svg>
