<svg width="70" height="70" viewBox="0 0 70 70" fill="none" xmlns="http://www.w3.org/2000/svg">
<path fill-rule="evenodd" clip-rule="evenodd" d="M33.7064 40.4759C31.7016 41.8103 29.7594 43.0891 27.7546 44.4235C25.9377 45.6468 24.1834 46.9256 22.4918 48.3156C23.6196 47.704 24.6846 47.0368 25.8124 46.4808C29.8221 44.5347 35.1474 44.2567 38.28 47.2592C39.1571 48.0932 39.9089 49.0384 39.2198 50.4284C37.6535 46.1472 31.5136 44.5347 27.0654 46.9256C25.2485 47.9264 23.2437 49.3164 21.3015 49.372C16.8532 49.4832 14.911 52.4301 12.4676 54.7653C10.9013 56.2666 9.58566 57.9902 8.08203 59.6026C6.64104 61.215 5.13741 62.7719 3.44583 64.5511C3.50848 63.9951 3.57113 63.6615 3.57113 63.3279C2.81931 63.6059 2.06749 63.8839 1.31568 64.2175C1.56628 65.3295 1.69159 66.2747 1.87954 67.2199C1.62894 67.2199 1.37833 67.2199 1.19038 67.2199C1.25303 66.2747 1.37833 65.3295 1.44098 64.3287C2.81931 62.8275 4.07234 61.2706 5.51332 59.7694C9.20975 55.8773 12.9688 52.0965 16.6026 48.2044C16.7906 47.982 16.8532 47.5928 16.7906 47.3148C16.1641 44.7015 16.9785 42.4219 18.7954 40.3647C19.6725 39.3638 20.2364 38.2518 19.6725 36.8618C19.7352 38.919 18.1062 40.3091 17.1038 41.9215C16.2267 43.3115 15.8508 44.8683 16.2894 46.4252C16.54 47.426 16.2267 48.1488 15.5375 48.816C11.5905 52.8193 7.70612 56.8226 3.75908 60.7702C2.88196 61.6599 1.81689 62.4383 1.00242 63.3835C0.501211 64.0507 0.187954 64.8847 0.125303 65.7187C0 67.1087 0.0626514 68.4988 0 69.8888C0.187954 69.9444 0.313257 69.9444 0.501211 70C0.814468 69.6108 1.19038 69.2216 1.44098 68.7768C3.32052 65.3295 6.13983 62.4383 8.89649 59.547C11.2772 57.045 13.658 54.5429 15.9761 52.0409C17.1665 50.7621 18.6075 50.3172 20.487 49.9836C22.4918 49.65 24.3714 48.6492 26.3136 47.9264C26.6268 47.8152 26.9401 47.5928 27.2533 47.426C31.5763 45.0908 32.704 45.6468 37.0896 48.1488C38.7185 49.094 38.7812 49.8168 37.9041 51.5961C39.533 51.3737 40.1595 50.4284 39.9716 48.26C41.1619 48.8716 42.3523 49.2608 43.2921 49.928C46.2367 51.9853 49.3693 52.4857 53.0657 51.4849C54.8199 51.0401 56.8248 51.1513 58.6417 51.3181C61.0224 51.5961 62.4634 50.5952 63.1526 48.7048C64.0297 46.314 65.2201 44.3123 67.7261 43.0335C68.6032 42.5887 68.9165 41.8659 68.7285 40.8651C68.6032 40.3091 68.9791 39.6419 69.2924 39.0858C70.2948 37.5846 70.2322 36.5838 69.1045 35.1382C68.7912 34.749 68.5406 34.193 68.4779 33.7481C68.2273 30.9125 68.102 30.8013 65.0321 30.1341C65.0321 29.9673 64.9695 29.8005 65.0321 29.5781C65.5333 27.1872 64.6562 25.4636 62.4008 24.1848C61.8369 23.8512 61.1477 23.5732 60.7718 23.1283C60.3333 22.5723 60.02 21.9051 59.9574 21.2379C59.8947 20.0147 59.3935 19.3475 57.9525 19.0695C55.1332 18.5691 55.1332 18.5691 55.6971 16.0114C56.073 14.4546 54.3814 13.0646 52.1886 13.1202C51.8127 13.1202 51.3741 13.1758 50.8729 13.2314C50.497 10.1177 48.4295 8.56089 44.9837 8.28288C45.1716 7.17086 44.7331 6.44805 43.4174 6.11444C43.1668 6.05884 42.9162 5.66964 42.7282 5.44723H42.6029C42.7282 5.78084 42.8535 6.39245 43.0415 6.44805C44.6078 6.67045 44.6078 7.67127 44.4198 8.33848C45.9861 8.95009 47.4897 9.4505 48.8054 10.1733C50.2464 11.0073 50.1837 12.5086 50.3717 13.843C50.497 14.5102 50.8729 15.1774 50.9982 15.8446C51.0609 16.345 51.1235 17.0122 50.8103 17.4014C49.6825 18.9027 49.3066 20.4595 49.4319 22.2943C49.6825 25.686 47.9283 28.5773 45.7981 31.2461C44.6704 32.5805 43.4174 33.8593 42.1644 35.0826C40.1595 36.973 37.5282 37.529 34.7715 37.5846C29.6341 37.7514 25.875 40.0867 22.8051 43.4227C22.6798 43.5339 22.5545 43.6451 22.4292 43.7563C22.4292 43.7563 22.3665 43.7563 21.9906 43.7007C22.7424 42.4775 23.4943 41.3099 24.3714 39.9199C23.4943 40.3647 22.8051 40.6983 22.1159 41.0319C23.3063 38.8078 25.2485 36.9174 25.5618 34.3598C24.6846 35.861 23.8702 37.3622 22.993 38.8634C22.8677 38.8078 22.7424 38.7522 22.6171 38.6966C22.993 37.8626 23.3063 37.0286 23.6822 36.1946C23.5569 36.139 23.4316 36.0834 23.3063 36.0834C22.3665 38.3074 21.4268 40.4759 20.4243 42.9779C21.2388 42.3663 21.8653 41.8659 22.7424 41.1431C22.3039 42.3107 21.928 43.1447 21.6147 44.0343C21.4894 44.4235 21.4894 45.0351 21.74 45.202C22.0533 45.4244 22.7424 45.3688 23.0557 45.202C25.1858 44.2011 27.316 43.0891 29.4461 42.1439C30.8245 41.5323 32.2655 41.0875 33.7064 40.4759C36.7137 39.197 38.6559 39.1414 40.5981 41.1987C38.4053 40.1979 36.0872 40.0867 33.7064 40.4759ZM31.8269 42.4775C35.0848 39.3082 38.5306 41.0875 42.0391 41.6991C41.0993 40.8095 40.0342 40.0867 38.9065 39.475C38.4679 39.2526 37.9041 38.9746 37.4655 39.0302C34.5209 39.475 31.7642 40.3647 29.1329 41.7547C26.8774 42.9223 24.4967 43.9787 22.1159 45.0908C22.1159 44.8127 22.1159 44.7571 22.1159 44.7015C25.3738 41.1431 28.9449 38.0294 34.6462 37.9182C39.2198 37.8626 42.6029 35.9166 45.109 32.6361C47.1765 29.9117 49.1813 27.1872 51.8127 24.9076C53.6296 23.3508 55.3838 21.7383 55.1332 19.1807C56.073 19.2919 56.8248 19.2919 57.514 19.4587C58.1405 19.6255 59.0176 20.0147 59.1429 20.4595C59.3308 20.9043 58.9549 21.6827 58.579 22.1831C58.2658 22.6835 57.5766 22.9059 57.0754 23.3508C55.0079 25.13 52.9404 26.9092 50.8729 28.6884C50.9356 28.7997 51.0609 28.8553 51.1235 28.9665C53.8802 26.9092 55.885 24.018 59.1429 22.6279C60.208 23.3508 61.0851 24.0736 62.0875 24.6296C63.7791 25.5748 64.5309 26.9092 64.4056 28.6329C64.343 29.3557 64.155 30.1341 63.9044 30.8569C63.0899 33.4145 62.2128 35.861 59.8947 37.7514C58.4537 38.919 57.6393 40.5315 57.4513 42.3107C57.138 44.9795 55.5718 46.8144 53.0657 48.26C51.4994 49.1496 50.1211 49.0384 48.5548 48.3156C47.0512 47.5928 45.4849 47.0368 43.856 46.5364C42.2897 46.0916 41.2246 44.9795 39.6583 44.4791C37.2776 43.7007 34.9595 41.9771 31.8269 42.4775ZM36.4004 44.5903C36.3378 44.7015 36.2125 44.8127 36.1498 44.924C37.027 45.3688 37.8414 45.758 38.7185 46.2028C41.7258 47.704 44.6078 49.4832 48.3042 49.65C50.7476 49.7612 52.8151 49.3164 54.632 47.9264C55.6344 47.148 56.7621 46.4808 57.8272 45.758C58.3284 45.4244 58.8923 45.0907 59.2055 44.5903C61.3983 40.9207 64.4683 37.5846 63.967 33.0253C63.9044 32.3025 64.4683 31.3017 65.0948 30.9125C65.5333 30.6345 66.7237 31.1349 67.3502 31.5241C67.7888 31.8577 67.7888 32.6361 67.9767 33.2477C68.1647 33.9705 68.2273 34.8046 68.6659 35.3606C69.6683 36.6394 69.731 37.6402 68.9165 38.9746C68.4779 39.6418 68.4779 40.5315 68.2273 41.3099C68.0394 41.8103 67.9141 42.5331 67.4755 42.7555C64.8442 44.0899 63.4658 46.1472 62.5887 48.7048C62.0249 50.484 60.7718 51.0957 58.7043 50.9289C56.1983 50.7065 53.6922 50.7065 51.2488 51.3737C48.6175 52.0965 46.2367 51.3181 44.0439 49.928C42.7909 49.1496 41.4126 48.5936 40.0969 47.9264C39.6583 47.704 39.1571 47.4816 38.7812 47.148C37.2776 45.7024 35.4607 44.7571 33.2052 44.7571C31.3883 44.7015 29.5714 44.9795 27.8799 45.0908C30.3859 42.7555 32.892 42.2551 36.2751 43.5895C39.8463 45.0352 43.4174 46.5364 46.9885 48.0376C47.6777 48.3156 48.3669 48.7048 49.056 49.0384C46.4247 49.3164 44.1066 48.6492 41.9764 47.5372C40.0969 46.5364 38.28 45.5356 36.4004 44.5903ZM49.1187 26.8536C49.3693 25.964 49.6199 25.0188 49.9331 24.1292C49.9958 23.8512 50.3717 23.5732 50.309 23.3508C49.5572 21.4047 49.8705 19.5699 51.1235 17.8463C51.75 16.9566 52.1259 16.1226 51.1235 15.1218C50.685 14.677 50.497 13.7318 51.3741 13.7318C52.4392 13.6762 53.6296 13.9542 54.632 14.399C55.5718 14.7882 55.3838 15.7334 55.0705 16.5674C54.9452 16.9566 54.8826 17.3458 54.8826 17.7351C55.5091 22.0163 52.0633 24.296 49.1187 26.8536ZM57.4513 45.5356C58.3284 40.4203 59.8321 37.8626 63.5285 34.9158C62.902 39.197 60.208 42.3663 57.4513 45.5356Z" fill="#C8C2B2"/>
<path fill-rule="evenodd" clip-rule="evenodd" d="M42.7282 5.5026C42.7908 4.61298 42.9162 3.72337 42.7909 2.88935C42.6656 1.88853 41.8511 1.55492 41.0366 2.27774C39.9089 3.27856 39.0318 3.38976 37.9667 2.16654C37.6534 1.83293 36.5884 1.77733 36.0872 1.99973C34.4582 2.55574 32.9546 3.33416 31.075 4.11257C31.263 3.11175 31.451 2.33334 31.5136 1.55493C31.5136 1.11012 31.3256 0.442906 31.0124 0.276101C30.4485 -0.00190466 29.6341 -0.0575053 29.0702 0.0536959C28.8196 0.109297 28.569 0.887713 28.6316 1.33252C28.6943 1.94413 28.6316 2.27774 27.9425 2.50014C26.8147 2.88935 25.8123 3.44536 26.3135 4.83539C26.3762 5.00219 26.1256 5.28019 26.0003 5.447C24.4966 7.11503 22.993 8.83866 21.4267 10.5067C21.3014 10.6179 21.1761 10.7291 21.2388 10.6735C20.1111 9.78387 19.1713 8.83865 17.9809 8.11584C16.8532 7.33743 15.4749 6.94822 14.0965 7.67104C12.7182 8.39385 12.4676 9.61707 12.6555 10.7847C12.9061 12.3971 13.4074 13.9539 13.7206 15.5664C13.9086 16.6228 13.9086 17.6792 14.0339 18.7356C14.0965 19.3472 14.1592 19.9589 14.2218 20.5705C14.4098 20.5705 14.5977 20.5705 14.7857 20.5705C14.723 20.0701 14.5977 19.5697 14.5977 19.0136C14.5977 18.6244 14.5351 18.1796 14.6604 17.846C15.4122 15.1772 15.3496 12.6751 13.7833 10.1175C12.9061 8.61625 14.2218 7.39303 16.1014 7.72664C18.2315 8.17144 19.7351 9.39467 20.6749 11.1739C20.7376 11.3407 20.8002 11.5075 20.8002 11.6187C20.8002 11.7855 20.6749 11.8967 20.6123 12.2303C20.5496 11.9523 20.487 11.8411 20.487 11.7299C20.3617 11.7299 20.2364 11.6743 20.1111 11.6743C19.6725 14.3988 19.2966 17.1232 18.858 19.7921C19.046 19.8477 19.1713 19.9033 19.3592 19.9033C19.6725 14.1764 21.8026 9.28346 26.8774 5.5026C26.9401 5.6694 27.0654 5.7806 27.0027 5.7806C25.687 7.17063 26.0629 8.50505 27.1907 9.78387C27.3786 10.0063 27.6292 10.3399 27.5666 10.5067C27.0654 11.7855 27.5666 12.7863 28.4437 13.7871C28.569 13.9539 28.569 14.2876 28.5063 14.51C28.0051 15.6776 27.7545 16.7896 28.3184 17.9572C28.381 18.124 28.3184 18.402 28.1931 18.5132C27.2533 19.4028 27.5666 20.4037 28.1304 21.2933C29.0075 22.5165 28.9449 23.6841 28.3184 24.9073C27.9425 25.6858 27.7545 26.5198 27.6919 27.3538C27.8798 26.9646 28.2557 26.5198 28.3184 26.075C29.0075 22.7389 31.7016 20.6817 34.145 18.402C34.9594 17.6792 35.6486 16.7896 36.2125 15.9C37.8414 13.3979 40.0342 11.4519 42.8535 10.1175C43.1041 10.0063 43.2921 9.89507 43.5427 9.72827C43.668 9.67267 43.7306 9.56147 43.7306 9.28347C42.9788 9.61707 42.1017 9.83947 41.5378 10.3399C39.9089 11.6187 38.092 12.8419 36.9016 14.4544C35.0221 17.012 32.6413 19.1248 30.4485 21.4045C30.3232 21.3489 30.2606 21.2933 30.1353 21.1821C30.3859 20.7929 30.6365 20.4037 30.9497 19.9033C31.0124 19.1248 31.1377 18.124 31.2003 17.1788C31.263 16.6228 31.451 16.0668 31.3256 15.5108C30.8244 11.8967 33.0172 9.39467 35.7112 7.05943C36.0245 6.83702 36.3378 6.55902 36.5884 6.33661C36.5884 6.33661 36.5884 6.28101 36.4631 6.05861C35.8992 6.55902 35.3353 7.00382 34.7715 7.50423C34.2076 8.06024 33.5811 8.61625 33.0799 9.17226C32.5787 9.72827 32.1401 10.3955 31.7016 11.0071C31.5763 11.0071 31.451 11.0071 31.263 10.9515C31.2003 9.11666 31.1377 7.22623 31.2003 5.3914C31.2003 5.00219 31.5136 4.39057 31.8895 4.22377C33.3931 3.44536 34.8968 2.77815 36.4631 2.22214C36.9643 2.05533 37.8414 2.22214 38.2173 2.55574C39.7209 3.72336 39.7209 3.77897 41.3499 2.61135C41.6005 2.44454 41.9137 2.27774 42.4776 2.05534C42.6656 3.27856 42.7909 4.27937 42.9162 5.33579L42.7282 5.5026ZM30.4485 1.27692C30.5738 1.94413 30.6991 2.55575 30.6991 3.16736C30.6991 4.22377 30.5112 5.22459 30.5112 6.28101C30.5112 9.45027 30.6991 12.6751 30.6365 15.8444C30.5738 18.0684 30.01 20.2369 28.9449 22.4053C28.2557 21.2377 27.6292 20.4037 28.0678 19.0136C28.569 17.4012 28.569 15.622 28.6316 13.8983C28.6316 13.5647 28.1304 13.2311 27.9425 12.8975C27.7545 12.5639 27.5039 12.0635 27.6292 11.7855C28.1304 10.7291 27.5666 9.95068 26.8774 9.17226C26.1882 8.33825 26.0003 7.50423 26.8774 6.55902C27.128 6.28101 27.1907 5.5582 26.9401 5.22459C26.2509 3.94577 26.3135 3.55656 27.8172 3.11175C28.7569 2.83375 29.1329 2.44454 28.9449 1.49933C28.8822 1.16572 29.2582 0.442906 29.6341 0.387305C30.3859 0.220503 31.0124 0.55411 31.075 1.49933C30.6991 1.38812 30.4485 1.27692 30.4485 1.27692ZM14.0339 15.5108C13.658 14.0096 13.2821 12.4527 12.9061 10.9515C13.0315 10.9515 13.1568 10.8959 13.2821 10.8959C14.0965 12.2859 15.1616 13.6759 14.0339 15.5108Z" fill="#C8C2B2"/>
<path fill-rule="evenodd" clip-rule="evenodd" d="M20.8629 32.3579C19.234 29.9115 17.605 27.4651 15.9761 25.0186C15.8508 25.0742 15.7255 25.1298 15.6002 25.1854C16.8532 27.187 18.2315 29.1331 18.1062 31.5795C18.2942 31.5239 18.4821 31.4683 18.6074 31.4127C18.4821 30.7455 18.3568 30.0783 18.2315 29.4111C18.2942 29.4111 18.3568 29.3555 18.4195 29.3555C19.234 30.3007 20.0484 31.3015 20.8629 32.3579Z" fill="#C8C2B2"/>
<path fill-rule="evenodd" clip-rule="evenodd" d="M20.8629 32.3579C20.8629 32.5803 20.6749 32.8586 20.8002 33.0254C21.6146 34.6934 21.2387 36.3058 20.6749 37.9183C20.6122 38.1407 20.5496 38.3075 20.4869 38.6967C22.1159 37.1954 22.2412 34.1372 20.8629 32.3579Z" fill="#C8C2B2"/>
<path fill-rule="evenodd" clip-rule="evenodd" d="M18.9834 41.143C18.4821 42.0882 17.8556 42.9778 17.4797 43.9787C17.2918 44.4235 17.6677 44.9795 17.8556 45.5355C18.4195 44.0343 18.9207 42.6442 19.3593 41.2542C19.234 41.1986 19.1087 41.1986 18.9834 41.143Z" fill="#C8C2B2"/>
<path fill-rule="evenodd" clip-rule="evenodd" d="M21.1761 29.3557C21.0508 28.7997 20.9255 28.3548 20.8628 27.91C20.9255 27.91 21.0508 27.91 21.1134 27.91C20.7375 27.1872 20.299 26.4644 19.8604 25.6304C19.6725 27.0204 19.9231 28.2436 21.1761 29.3557Z" fill="#C8C2B2"/>
<path fill-rule="evenodd" clip-rule="evenodd" d="M22.3665 33.8592C23.181 32.636 23.181 31.8576 22.3038 30.69C22.3665 31.7464 22.3665 32.7472 22.3665 33.8592Z" fill="#C8C2B2"/>
<path fill-rule="evenodd" clip-rule="evenodd" d="M19.3593 22.8502C19.1087 22.4054 18.8581 21.9606 18.6701 21.4602C18.6075 21.4602 18.5448 21.4602 18.4822 21.4602C18.6075 22.2942 18.7954 23.1839 18.9207 24.0179C19.046 24.0179 19.234 24.0179 19.3593 24.0179C19.4846 23.5731 19.6099 23.1283 19.7352 22.6834C19.6099 22.739 19.4846 22.7946 19.3593 22.8502Z" fill="#C8C2B2"/>
<path fill-rule="evenodd" clip-rule="evenodd" d="M24.7472 32.1358C24.6219 30.5233 23.4315 29.9117 22.3665 29.0777C23.1809 30.0229 23.8701 30.9682 24.7472 32.1358Z" fill="#C8C2B2"/>
<path fill-rule="evenodd" clip-rule="evenodd" d="M60.5212 33.8592C62.5887 33.8036 62.4007 32.1912 63.3405 31.3016C61.3983 31.3016 61.5863 32.914 60.5212 33.8592Z" fill="#C8C2B2"/>
<path fill-rule="evenodd" clip-rule="evenodd" d="M56.1983 31.0794C58.2031 30.1341 60.2706 29.1333 62.2755 28.1881C62.2128 28.0769 62.1501 27.9657 62.0875 27.8545C60.0827 28.8553 58.0778 29.8561 56.073 30.8014C56.1356 30.9126 56.1356 30.9682 56.1983 31.0794Z" fill="#C8C2B2"/>
<path fill-rule="evenodd" clip-rule="evenodd" d="M68.6032 37.2509C67.7888 37.2509 67.037 37.2509 65.9092 37.2509C67.0996 38.6965 67.7888 37.4733 68.6032 37.5289C68.6032 37.4177 68.6032 37.3065 68.6032 37.2509Z" fill="#C8C2B2"/>
</svg>
