<svg width="130" height="130" viewBox="0 0 130 130" fill="none" xmlns="http://www.w3.org/2000/svg">
<path fill-rule="evenodd" clip-rule="evenodd" d="M62.5977 75.1693C58.8744 77.6475 55.2674 80.0225 51.5442 82.5007C48.1699 84.7724 44.9121 87.1474 41.7706 89.7289C43.8649 88.593 45.8429 87.3539 47.9372 86.3213C55.3838 82.7072 65.2738 82.1909 71.0914 87.7669C72.7203 89.3158 74.1166 91.0713 72.8367 93.6527C69.9279 85.7018 58.5253 82.7072 50.2643 87.1474C46.8901 89.0061 43.1668 91.5875 39.5599 91.6908C31.2988 91.8973 27.6919 97.3701 23.1542 101.707C20.2453 104.495 17.8019 107.696 15.0095 110.691C12.3334 113.685 9.54091 116.576 6.39939 119.881C6.51574 118.848 6.63209 118.228 6.63209 117.609C5.23586 118.125 3.83963 118.642 2.4434 119.261C2.90881 121.326 3.14152 123.082 3.49058 124.837C3.02517 124.837 2.55976 124.837 2.2107 124.837C2.32705 123.082 2.55976 121.326 2.67611 119.468C5.23586 116.68 7.56291 113.788 10.239 111C17.1038 103.772 24.085 96.7505 30.8334 89.5224C31.1825 89.1093 31.2988 88.3865 31.1825 87.8702C30.019 83.017 31.5315 78.7834 34.9058 74.9628C36.5347 73.1041 37.5819 71.0389 36.5347 68.4575C36.651 72.278 33.6259 74.8595 31.7642 77.854C30.1353 80.4355 29.4372 83.3268 30.2517 86.2181C30.7171 88.0767 30.1353 89.4191 28.8554 90.6582C21.5252 98.0929 14.3114 105.528 6.98115 112.859C5.35222 114.511 3.37422 115.957 1.86164 117.712C0.93082 118.951 0.349058 120.5 0.232705 122.049C0 124.631 0.116353 127.212 0 129.794C0.349058 129.897 0.581763 129.897 0.93082 130C1.51258 129.277 2.2107 128.554 2.67611 127.728C6.16668 121.326 11.4025 115.957 16.5221 110.587C20.9435 105.941 25.3648 101.294 29.6699 96.6473C31.8806 94.2723 34.5567 93.4462 38.0473 92.8267C41.7706 92.2071 45.2611 90.3484 48.8681 89.0061C49.4498 88.7995 50.0316 88.3865 50.6133 88.0767C58.6417 83.7398 60.736 84.7724 68.8807 89.4191C71.9059 91.1745 72.0222 92.5169 70.3933 95.8212C73.4184 95.4081 74.582 93.6527 74.2329 89.6256C76.4436 90.7615 78.6543 91.4843 80.3996 92.7234C85.8682 96.544 91.6858 97.4733 98.5506 95.6147C101.808 94.7886 105.532 94.9951 108.906 95.3049C113.327 95.8212 116.003 93.9625 117.283 90.4517C118.912 86.0115 121.123 82.2942 125.777 79.9192C127.406 79.0932 127.988 77.7508 127.639 75.8921C127.406 74.8595 128.104 73.6204 128.686 72.5878C130.548 69.7998 130.431 67.9412 128.337 65.2564C127.755 64.5336 127.29 63.501 127.173 62.6749C126.708 57.4087 126.475 57.2022 120.774 55.9631C120.774 55.6533 120.658 55.3435 120.774 54.9305C121.705 50.4903 120.076 47.2893 115.887 44.9143C114.84 44.2948 113.56 43.7785 112.862 42.9524C112.047 41.9198 111.466 40.6807 111.349 39.4416C111.233 37.1699 110.302 35.9307 107.626 35.4145C102.39 34.4851 102.39 34.4851 103.437 29.7352C104.136 26.8439 100.994 24.2624 96.9217 24.3657C96.2235 24.3657 95.4091 24.469 94.4782 24.5722C93.7801 18.7897 89.9405 15.8984 83.5411 15.3821C83.8902 13.3169 83.0757 11.9746 80.6323 11.355C80.1669 11.2518 79.7015 10.5289 79.3524 10.1159H79.1197C79.3524 10.7355 79.5851 11.8713 79.9342 11.9746C82.843 12.3876 82.843 14.2463 82.4939 15.4854C85.4028 16.6212 88.1952 17.5506 90.6386 18.893C93.3147 20.4418 93.1984 23.2298 93.5474 25.7081C93.7801 26.9472 94.4782 28.1863 94.711 29.4254C94.8273 30.3547 94.9437 31.5939 94.3619 32.3167C92.2675 35.1047 91.5694 37.9959 91.8021 41.4035C92.2675 47.7023 89.0097 53.0718 85.0537 58.0283C82.9594 60.5065 80.6323 62.8814 78.3053 65.1531C74.582 68.664 69.6952 69.6966 64.5757 69.7998C55.0347 70.1096 48.0536 74.4465 42.3523 80.6421C42.1196 80.8486 41.8869 81.0551 41.6542 81.2616C41.6542 81.2616 41.5378 81.2616 40.8397 81.1583C42.236 78.8866 43.6322 76.7182 45.2611 74.1367C43.6322 74.9628 42.3523 75.5823 41.0724 76.2019C43.2831 72.0715 46.8901 68.5607 47.4718 63.8108C45.8429 66.5988 44.3303 69.3868 42.7014 72.1748C42.4687 72.0715 42.236 71.9683 42.0033 71.865C42.7014 70.3161 43.2831 68.7672 43.9813 67.2183C43.7485 67.1151 43.5158 67.0118 43.2831 67.0118C41.5378 71.1422 39.7926 75.1693 37.9309 79.816C39.4435 78.6801 40.607 77.7508 42.236 76.4084C41.4215 78.5769 40.7234 80.1257 40.1416 81.7779C39.9089 82.5007 39.9089 83.6366 40.3743 83.9464C40.9561 84.3594 42.236 84.2561 42.8177 83.9464C46.7737 82.0877 50.7297 80.0225 54.6857 78.2671C57.2454 77.1312 59.9215 76.3052 62.5977 75.1693C68.1826 72.7943 71.7895 72.6911 75.3964 76.5117C71.3241 74.653 67.0191 74.4465 62.5977 75.1693ZM59.1071 78.8866C65.1574 73.0009 71.5568 76.3052 78.0725 77.441C76.3273 75.7889 74.3493 74.4465 72.2549 73.3106C71.4404 72.8976 70.3933 72.3813 69.5788 72.4846C64.1102 73.3106 58.9907 74.9628 54.1039 77.5443C49.9152 79.7127 45.4938 81.6746 41.0724 83.7398C41.0724 83.2235 41.0724 83.1203 41.0724 83.017C47.1228 76.4084 53.7549 70.6259 64.3429 70.4194C72.8367 70.3161 79.1197 66.702 83.7738 60.6097C87.6134 55.55 91.3367 50.4903 96.2235 46.2567C99.5978 43.3654 102.856 40.3709 102.39 35.621C104.136 35.8275 105.532 35.8275 106.812 36.1373C107.975 36.447 109.604 37.1699 109.837 37.9959C110.186 38.822 109.488 40.2676 108.79 41.197C108.208 42.1263 106.928 42.5393 105.997 43.3654C102.158 46.6697 98.3179 49.974 94.4782 53.2783C94.5946 53.4848 94.8273 53.5881 94.9437 53.7946C100.063 49.974 103.786 44.6045 109.837 42.0231C111.815 43.3654 113.444 44.7078 115.305 45.7404C118.447 47.4958 119.843 49.974 119.61 53.1751C119.494 54.5174 119.145 55.9631 118.68 57.3054C117.167 62.0554 115.538 66.5988 111.233 70.1096C108.557 72.278 107.044 75.2726 106.695 78.5769C106.113 83.5333 103.205 86.9409 98.5506 89.6256C95.6418 91.2778 93.082 91.0712 90.1732 89.7289C87.3807 88.3865 84.4719 87.3539 81.4468 86.4246C78.5379 85.5985 76.56 83.5333 73.6511 82.604C69.2298 81.1583 64.9247 77.9573 59.1071 78.8866ZM67.6008 82.8105C67.4845 83.017 67.2518 83.2235 67.1354 83.4301C68.7643 84.2561 70.2769 84.979 71.9059 85.805C77.4908 88.593 82.843 91.8973 89.7078 92.2071C94.2455 92.4136 98.0852 91.5875 101.459 89.0061C103.321 87.5604 105.415 86.3213 107.393 84.9789C108.324 84.3594 109.371 83.7398 109.953 82.8105C114.025 75.9954 119.727 69.7998 118.796 61.3326C118.68 59.9902 119.727 58.1315 120.89 57.4087C121.705 56.8924 123.915 57.8217 125.079 58.5446C125.893 59.1641 125.893 60.6097 126.242 61.7456C126.592 63.088 126.708 64.6368 127.522 65.6694C129.384 68.0444 129.5 69.9031 127.988 72.3813C127.173 73.6204 127.173 75.2726 126.708 76.7182C126.359 77.6475 126.126 78.9899 125.312 79.4029C120.425 81.8812 117.865 85.7018 116.236 90.4517C115.189 93.756 112.862 94.8918 109.022 94.5821C104.368 94.169 99.7141 94.169 95.1764 95.4081C90.2896 96.7505 85.8682 95.3049 81.7958 92.7234C79.4688 91.2778 76.909 90.2452 74.4656 89.0061C73.6511 88.593 72.7203 88.18 72.0222 87.5604C69.2298 84.8757 65.8555 83.1203 61.6668 83.1203C58.2926 83.017 54.9184 83.5333 51.7769 83.7398C56.431 79.4029 61.0851 78.4736 67.3681 80.9518C74.0002 83.6366 80.6323 86.4246 87.2644 89.2126C88.5443 89.7289 89.8242 90.4517 91.104 91.0712C86.2172 91.5875 81.9122 90.3484 77.9562 88.2832C74.4656 86.4246 71.0914 84.5659 67.6008 82.8105ZM91.2204 49.8708C91.6858 48.2186 92.1512 46.4632 92.733 44.8111C92.8493 44.2948 93.5474 43.7785 93.4311 43.3654C92.0348 39.7513 92.6166 36.3438 94.9437 33.1427C96.1072 31.4906 96.8053 29.9417 94.9437 28.083C94.1292 27.257 93.7801 25.5016 95.4091 25.5016C97.3871 25.3983 99.5978 25.9146 101.459 26.7407C103.205 27.4635 102.856 29.2189 102.274 30.7678C102.041 31.4906 101.925 32.2134 101.925 32.9362C103.088 40.8872 96.6889 45.1208 91.2204 49.8708ZM106.695 84.5659C108.324 75.066 111.117 70.3161 117.981 64.8434C116.818 72.7943 111.815 78.6801 106.695 84.5659Z" fill="#C8C2B2"/>
<path fill-rule="evenodd" clip-rule="evenodd" d="M79.3523 10.2191C79.4687 8.56699 79.7014 6.91485 79.4687 5.36596C79.236 3.50729 77.7234 2.88772 76.2108 4.2301C74.1165 6.08876 72.4875 6.29529 70.5096 4.02358C69.9278 3.40402 67.9498 3.30076 67.019 3.7138C63.9938 4.74639 61.2013 6.19203 57.7108 7.63766C58.0598 5.77899 58.4089 4.33336 58.5252 2.88773C58.5252 2.06165 58.1762 0.822539 57.5944 0.512761C56.5472 -0.00353593 55.0347 -0.106797 53.9875 0.0997219C53.5221 0.202981 53.0567 1.64862 53.173 2.47469C53.2894 3.61054 53.173 4.2301 51.8931 4.64314C49.7988 5.36595 47.9372 6.39855 48.868 8.98003C48.9843 9.28981 48.5189 9.80611 48.2862 10.1159C45.4938 13.2137 42.7013 16.4147 39.7925 19.5125C39.5598 19.719 39.3271 19.9255 39.4434 19.8223C37.3491 18.1701 35.6038 16.4147 33.3931 15.0723C31.2988 13.6267 28.739 12.9039 26.1792 14.2463C23.6195 15.5886 23.1541 17.8603 23.5031 20.0288C23.9685 23.0233 24.8994 25.9146 25.4811 28.9091C25.8302 30.871 25.8302 32.8329 26.0629 34.7949C26.1792 35.9307 26.2956 37.0666 26.4119 38.2024C26.761 38.2024 27.1101 38.2024 27.4591 38.2024C27.3428 37.2731 27.1101 36.3438 27.1101 35.3112C27.1101 34.5884 26.9937 33.7623 27.2264 33.1427C28.6226 28.1863 28.5063 23.5396 25.5975 18.7897C23.9685 16.0017 26.4119 13.73 29.9025 14.3495C33.8585 15.1756 36.651 17.4473 38.3963 20.7516C38.5126 21.0614 38.629 21.3712 38.629 21.5777C38.629 21.8875 38.3963 22.094 38.2799 22.7135C38.1636 22.1972 38.0472 21.9907 38.0472 21.7842C37.8145 21.7842 37.5818 21.6809 37.3491 21.6809C36.5346 26.7406 35.8365 31.8003 35.022 36.7568C35.3711 36.8601 35.6038 36.9633 35.9529 36.9633C36.5346 26.3276 40.4906 17.2408 49.9152 10.2191C50.0315 10.5289 50.2642 10.7354 50.1479 10.7354C47.7045 13.3169 48.4026 15.7951 50.4969 18.1701C50.846 18.5831 51.3114 19.2027 51.195 19.5125C50.2642 21.8875 51.195 23.7461 52.824 25.6048C53.0567 25.9146 53.0567 26.5341 52.9403 26.9472C52.0095 29.1156 51.5441 31.1808 52.5913 33.3492C52.7076 33.659 52.5913 34.1753 52.3586 34.3818C50.6133 36.034 51.195 37.8927 52.2422 39.5448C53.8711 41.8165 53.7548 43.985 52.5913 46.2567C51.8931 47.7023 51.5441 49.2512 51.4277 50.8001C51.7768 50.0773 52.4749 49.2512 52.5913 48.4251C53.8711 42.2295 58.8743 38.4089 63.412 34.1753C64.9246 32.8329 66.2045 31.1808 67.2517 29.5286C70.2768 24.882 74.3492 21.2679 79.5851 18.7897C80.0505 18.5832 80.3995 18.3766 80.8649 18.0669C81.0976 17.9636 81.214 17.7571 81.214 17.2408C79.8178 17.8603 78.1888 18.2734 77.1416 19.2027C74.1165 21.5777 70.7423 23.8494 68.5316 26.8439C65.041 31.5938 60.6196 35.5177 56.5472 39.7513C56.3145 39.6481 56.1982 39.5448 55.9655 39.3383C56.4309 38.6155 56.8963 37.8927 57.4781 36.9633C57.5944 35.5177 57.8271 33.659 57.9435 31.9036C58.0598 30.871 58.4089 29.8384 58.1762 28.8058C57.2454 22.094 61.3177 17.4473 66.3209 13.1104C66.9026 12.6974 67.4844 12.1811 67.9498 11.768C67.9498 11.768 67.9498 11.6648 67.7171 11.2517C66.6699 12.1811 65.6227 13.0071 64.5756 13.9365C63.5284 14.9691 62.3649 16.0017 61.4341 17.0343C60.5032 18.0669 59.6888 19.306 58.8743 20.4418C58.6416 20.4418 58.4089 20.4418 58.0598 20.3386C57.9435 16.931 57.8271 13.4202 57.9435 10.0126C57.9435 9.28981 58.5252 8.15395 59.2234 7.84417C62.0158 6.39854 64.8083 5.15943 67.7171 4.12684C68.6479 3.81706 70.2768 4.12684 70.975 4.74639C73.7674 6.91484 73.7674 7.01811 76.7926 4.84966C77.258 4.53988 77.8398 4.2301 78.8869 3.81707C79.236 6.08877 79.4687 7.94743 79.7014 9.90936L79.3523 10.2191ZM56.5472 2.37143C56.7799 3.61054 57.0127 4.7464 57.0127 5.88225C57.0127 7.84418 56.6636 9.70285 56.6636 11.6648C56.6636 17.5506 57.0127 23.5396 56.8963 29.4254C56.78 33.5558 55.7328 37.5829 53.7548 41.61C52.4749 39.4415 51.3114 37.8927 52.1259 35.3112C53.0567 32.3166 53.0567 29.0123 53.173 25.8113C53.173 25.1917 52.2422 24.5722 51.8931 23.9526C51.5441 23.3331 51.0787 22.4037 51.3114 21.8875C52.2422 19.9255 51.195 18.4799 49.9152 17.0343C48.6353 15.4854 48.2862 13.9365 49.9152 12.1811C50.3806 11.6648 50.4969 10.3224 50.0315 9.70285C48.7516 7.32788 48.868 6.60506 51.6604 5.77899C53.4057 5.26269 54.1038 4.53988 53.7548 2.78447C53.6384 2.16492 54.3365 0.822544 55.0347 0.719284C56.4309 0.409506 57.5944 1.02906 57.7108 2.78447C57.0127 2.57795 56.5472 2.37143 56.5472 2.37143ZM26.0629 28.8058C25.3648 26.0178 24.6667 23.1266 23.9685 20.3386C24.2012 20.3386 24.434 20.2353 24.6667 20.2353C26.1792 22.8168 28.1572 25.3983 26.0629 28.8058Z" fill="#C8C2B2"/>
<path fill-rule="evenodd" clip-rule="evenodd" d="M38.7453 60.0933C35.7201 55.5499 32.695 51.0065 29.6698 46.463C29.4371 46.5663 29.2044 46.6696 28.9717 46.7728C31.2987 50.4902 33.8585 54.1042 33.6258 58.6477C33.9748 58.5444 34.3239 58.4411 34.5566 58.3379C34.3239 57.0988 34.0912 55.8596 33.8585 54.6205C33.9748 54.6205 34.0912 54.5173 34.2075 54.5173C35.7201 56.2727 37.2327 58.1314 38.7453 60.0933Z" fill="#C8C2B2"/>
<path fill-rule="evenodd" clip-rule="evenodd" d="M38.7453 60.0933C38.7453 60.5063 38.3962 61.0228 38.6289 61.3326C40.1415 64.4303 39.4433 67.4249 38.3962 70.4194C38.2798 70.8324 38.1635 71.1422 38.0471 71.865C41.0723 69.077 41.305 63.3976 38.7453 60.0933Z" fill="#C8C2B2"/>
<path fill-rule="evenodd" clip-rule="evenodd" d="M35.2548 76.4085C34.324 78.1639 33.1604 79.816 32.4623 81.6747C32.1133 82.5008 32.8114 83.5333 33.1604 84.5659C34.2076 81.7779 35.1384 79.1965 35.9529 76.615C35.7202 76.5117 35.4875 76.5117 35.2548 76.4085Z" fill="#C8C2B2"/>
<path fill-rule="evenodd" clip-rule="evenodd" d="M39.327 54.5176C39.0943 53.485 38.8616 52.6589 38.7452 51.8329C38.8616 51.8329 39.0943 51.8329 39.2107 51.8329C38.5125 50.4905 37.6981 49.1481 36.8836 47.5992C36.5345 50.1807 37 52.4524 39.327 54.5176Z" fill="#C8C2B2"/>
<path fill-rule="evenodd" clip-rule="evenodd" d="M41.5377 62.8814C43.0503 60.6097 43.0503 59.164 41.4214 56.9956C41.5377 58.9575 41.5377 60.8162 41.5377 62.8814Z" fill="#C8C2B2"/>
<path fill-rule="evenodd" clip-rule="evenodd" d="M35.9529 42.4361C35.4875 41.61 35.0221 40.7839 34.673 39.8546C34.5567 39.8546 34.4403 39.8546 34.324 39.8546C34.5567 41.4035 34.9057 43.0556 35.1384 44.6045C35.3711 44.6045 35.7202 44.6045 35.9529 44.6045C36.1856 43.7784 36.4183 42.9524 36.651 42.1263C36.4183 42.2296 36.1856 42.3328 35.9529 42.4361Z" fill="#C8C2B2"/>
<path fill-rule="evenodd" clip-rule="evenodd" d="M45.959 59.6804C45.7263 56.6859 43.5156 55.5501 41.5376 54.0012C43.0502 55.7566 44.3301 57.512 45.959 59.6804Z" fill="#C8C2B2"/>
<path fill-rule="evenodd" clip-rule="evenodd" d="M112.396 62.8814C116.236 62.7781 115.887 59.7836 117.632 58.1314C114.025 58.1314 114.374 61.126 112.396 62.8814Z" fill="#C8C2B2"/>
<path fill-rule="evenodd" clip-rule="evenodd" d="M104.368 57.7185C108.091 55.9631 111.931 54.1045 115.654 52.349C115.538 52.1425 115.422 51.936 115.305 51.7295C111.582 53.5882 107.859 55.4468 104.135 57.2022C104.252 57.4088 104.252 57.512 104.368 57.7185Z" fill="#C8C2B2"/>
<path fill-rule="evenodd" clip-rule="evenodd" d="M127.406 69.1802C125.893 69.1802 124.497 69.1802 122.403 69.1802C124.614 71.8649 125.893 69.5932 127.406 69.6965C127.406 69.4899 127.406 69.2834 127.406 69.1802Z" fill="#C8C2B2"/>
</svg>
