<svg width="439" height="395" viewBox="0 0 439 395" fill="none" xmlns="http://www.w3.org/2000/svg">
<path fill-rule="evenodd" clip-rule="evenodd" d="M262.912 177.327C264.362 179.948 265.92 182.643 267.21 184.876L267.218 184.888L267.297 185.025L267.325 185.074C268.187 186.567 268.922 187.84 269.413 188.727C266.174 187.643 262.755 186.567 259.235 185.46C251.322 182.971 242.904 180.322 234.901 177.071C229.433 174.938 224.127 172.57 218.821 170.201C213.516 167.832 208.21 165.464 202.743 163.331C199.63 162.079 196.442 161.091 193.216 160.091L193.214 160.091L193.21 160.09C189.683 158.997 186.109 157.89 182.541 156.408C179.184 155.158 176.075 153.546 172.518 151.7L172.515 151.698L172.511 151.697C172.001 151.432 171.482 151.163 170.952 150.889L170.355 150.582L169.768 150.281L169.426 150.106L168.995 149.887C169.724 158.251 170.786 165.456 178.856 170.531C187.77 175.722 196.35 182.072 203.321 190.094L203.215 190.026C193.61 183.896 184.003 177.765 173.772 171.205L173.703 171.524C171.813 180.236 170.282 187.291 179.825 192.011C186.442 195.163 192.077 200.418 196.967 206.086C192.984 203.815 189.133 201.52 185.282 199.224L185.239 199.198C181.398 196.908 177.557 194.618 173.583 192.353C172.936 193.297 172.504 193.926 172.171 195.085C178.814 206.872 190.241 210.373 201.482 213.817C208.222 215.881 214.895 217.926 220.43 221.723C221.463 220.023 222.543 218.084 223.593 216.201L223.595 216.198L223.599 216.191L223.601 216.188C226.177 211.567 228.566 207.282 229.611 207.671C233.886 208.985 237.882 211.695 241.909 214.425C243.633 215.595 245.364 216.769 247.124 217.838L245.182 220.668C240.156 217.219 235.444 213.986 229.887 210.636C223.02 221.28 229.362 226.006 236.015 230.963C236.376 231.232 236.738 231.502 237.099 231.774C243.48 236.615 249.214 242.4 254.595 250.718C252.332 250.319 249.99 249.867 247.648 249.414L247.638 249.412C245.291 248.959 242.945 248.505 240.677 248.106C240.628 247.841 240.633 247.497 240.638 247.153L240.637 247.148C240.642 246.806 240.647 246.465 240.598 246.201C241.55 246.16 242.477 245.987 243.405 245.814C243.864 245.729 244.322 245.643 244.784 245.573C245.256 245.502 245.731 245.448 246.212 245.428C246.22 245.371 246.227 245.316 246.233 245.262C246.244 245.167 246.252 245.076 246.26 244.988L246.274 244.809C246.314 244.292 246.346 243.885 246.662 243.424C243.713 242.578 240.726 241.789 237.709 240.992L237.704 240.991C233.611 239.91 229.464 238.814 225.284 237.543C220.057 235.871 214.886 233.797 209.661 231.701C207.311 230.758 204.951 229.812 202.569 228.895C194.049 225.824 185.529 222.753 176.91 219.152C169.45 215.883 161.989 212.614 155.275 208.931C153.443 207.985 151.673 206.873 149.88 205.745C146.328 203.513 142.681 201.221 138.273 200.04C139.932 202.335 141.646 204.552 143.359 206.768C145.072 208.985 146.786 211.201 148.445 213.496C148.401 213.561 148.335 213.629 148.255 213.7C148.176 213.771 148.084 213.844 147.989 213.917L147.857 214.017C147.726 214.116 147.596 214.215 147.487 214.31C147.394 214.39 147.317 214.467 147.268 214.539C144.401 211.646 141.613 208.808 138.824 205.969C136.036 203.131 133.247 200.292 130.38 197.4L127.496 199.584C130.071 203.189 132.723 206.847 135.376 210.505L135.431 210.58C138.102 214.263 140.772 217.945 143.364 221.573C143.148 221.888 142.933 222.202 142.187 222.616C139.904 220.417 137.666 218.152 135.402 215.861L135.398 215.857C132.698 213.125 129.961 210.355 127.067 207.615C126.586 207.979 126.184 208.397 125.781 208.815C125.379 209.233 124.977 209.65 124.496 210.014C128.724 214.305 133.03 218.649 137.336 222.994L137.369 223.026C141.653 227.348 145.936 231.67 150.141 235.938C149.818 236.409 149.415 236.827 149.013 237.245C148.611 237.663 148.209 238.081 147.885 238.552C143.811 235.063 139.79 231.495 135.77 227.927L135.751 227.911C131.737 224.348 127.723 220.785 123.655 217.3C123.461 217.583 123.203 217.822 122.92 218.086C122.572 218.408 122.186 218.767 121.83 219.286L121.844 219.3L121.848 219.304C130.914 228.298 139.98 237.293 148.83 246.602C148.506 247.074 148.104 247.491 147.702 247.909C147.299 248.327 146.897 248.745 146.573 249.216C138.012 241.492 129.451 233.767 121.204 226.258C121.132 226.363 121.051 226.462 120.964 226.558C120.908 226.619 120.85 226.678 120.79 226.736C120.669 226.855 120.541 226.968 120.413 227.082L120.407 227.086L120.399 227.093C120.105 227.354 119.811 227.614 119.595 227.929C124.288 232.537 128.927 237.223 133.566 241.91C138.205 246.597 142.845 251.283 147.538 255.891C147.214 256.363 146.866 256.702 146.517 257.041C146.169 257.38 145.821 257.72 145.497 258.191C142.208 255.241 138.841 252.236 135.473 249.232C132.105 246.227 128.738 243.222 125.449 240.272C125.233 240.586 124.939 240.847 124.644 241.107C124.35 241.368 124.056 241.628 123.84 241.943C127.856 245.855 131.818 249.846 135.779 253.836C139.741 257.827 143.702 261.817 147.718 265.728C147.659 265.814 147.59 265.902 147.515 265.99C147.312 266.228 147.059 266.474 146.805 266.721C146.457 267.06 146.109 267.4 145.893 267.714C142.025 264.597 137.843 261.265 133.759 258.463C132.685 274.84 136.75 279.017 151.804 275.933C154.836 275.368 158.681 277.213 162.107 278.858L162.144 278.876C162.474 279.035 162.801 279.191 163.123 279.344C163.534 279.539 163.937 279.727 164.329 279.902C167.9 281.428 171.279 283.233 174.658 285.038L174.661 285.039L174.665 285.041C176.355 285.944 178.046 286.848 179.761 287.716L181.271 285.515C180.83 285.015 180.427 284.459 180.006 283.879C179.435 283.09 178.831 282.256 178.051 281.454C182.466 282.528 186.835 283.57 191.145 284.597L191.16 284.601C197.905 286.209 204.505 287.783 210.915 289.391C198.556 291.642 185.891 291.524 172.557 288.786C173.695 290.492 174.755 292.143 175.815 293.795C176.877 295.449 177.938 297.103 179.078 298.811C194.769 318.366 211.872 335.191 240.118 333.758C253.976 333.091 265.851 330.6 275.623 319.728C278.841 316.386 282.687 313.475 287.045 311.839C301.706 306.635 309.161 295.098 316.321 281.972C315.822 283.71 315.243 285.394 314.665 287.078C314.086 288.763 313.508 290.448 313.008 292.187C312.341 294.505 311.655 298.197 312.696 299.374C313.813 300.45 315.608 300.54 317.938 300.657C319.088 300.715 320.37 300.779 321.765 300.972C306.615 310.928 291.877 321.63 284.307 341.414C292.516 336.4 299.396 330.035 306.188 323.752C316.509 314.204 326.628 304.843 340.904 300.69C333.115 306.641 325.441 312.424 317.86 318.138L317.825 318.164L317.814 318.173C304.61 328.123 291.687 337.862 278.931 347.901C275.358 350.811 272.37 354.122 269.3 357.524C267.867 359.111 266.417 360.718 264.881 362.313C264.93 362.579 264.901 362.79 264.871 363.001C264.86 363.086 264.848 363.17 264.841 363.259C264.836 363.322 264.834 363.387 264.836 363.455C264.839 363.528 264.846 363.606 264.862 363.688C260.171 365.243 255.496 366.887 250.84 368.526C244.217 370.857 237.63 373.175 231.083 375.202C228.359 376.071 225.508 376.252 222.579 376.438C221.055 376.535 219.51 376.633 217.952 376.83C219.178 376.089 220.418 375.135 221.668 374.172C224.438 372.038 227.26 369.865 230.1 369.901C240.153 370.219 246.277 364.552 252.629 358.674C253.058 358.278 253.487 357.88 253.919 357.483L254.316 357.119C254.552 356.904 254.788 356.69 255.025 356.476C255.417 356.12 255.786 355.791 256.134 355.48L256.161 355.456C261.198 350.96 261.809 350.415 265.616 332.289C264.636 332.683 263.624 333.123 262.575 333.579L262.567 333.583C260.887 334.313 259.111 335.086 257.216 335.776C254.773 336.644 252.384 337.432 249.994 338.221L249.977 338.226C247.593 339.013 245.209 339.8 242.771 340.666C240.885 341.353 239.036 342.239 237.13 343.153L237.124 343.155C235.917 343.734 234.687 344.324 233.409 344.881C228.309 346.928 223.235 349.108 218.16 351.288L218.138 351.298C213.063 353.478 207.989 355.658 202.889 357.705C199.808 358.829 196.197 360.051 192.918 360.115C181.494 360.602 169.972 360.558 158.449 360.515C158.332 361.36 158.214 362.204 157.881 363.363C172.761 365.248 187.64 367.132 201.461 369.214C200.88 369.653 199.913 370.165 198.417 370.956C197.435 371.476 196.226 372.115 194.749 372.934C204.034 374.218 210.787 375.151 217.854 376.3C199.698 380.714 183.17 374.511 166.652 368.312L165.119 367.737C164.54 367.52 163.96 367.303 163.38 367.087L163.221 367.028C159.429 365.502 155.677 363.691 151.671 361.756L151.662 361.752L151.649 361.746C148.776 360.358 145.772 358.908 142.529 357.454C141.581 358.377 140.681 359.386 139.771 360.406L139.77 360.407C138.006 362.386 136.206 364.404 133.953 365.909C132.436 366.805 131.074 368.313 129.684 369.852C126.094 373.827 122.312 378.016 115.151 372.435C114.323 371.867 112.538 372.695 110.554 373.616C108.771 374.443 106.829 375.344 105.278 375.374C96.5567 375.617 87.6962 375.11 79.0011 374.612C77.363 374.518 75.7306 374.425 74.1061 374.337C71.0836 374.127 67.9943 373.796 64.8779 373.463C60.2622 372.969 55.5869 372.468 50.9818 372.346C37.9869 371.755 27.8601 377.758 19.4817 387.273C18.2128 388.703 16.8224 390.05 15.2304 391.592C14.2621 392.53 13.2193 393.541 12.0838 394.686C11.6809 393.253 11.2978 392.296 11.0422 391.658C10.7869 391.02 10.6593 390.702 10.7673 390.544C14.0636 386.639 16.5812 382.147 19.0989 377.656C24.1339 368.674 29.1689 359.691 40.4348 355.395C48.3389 352.067 55.5883 347.234 62.8796 342.373C66.379 340.04 69.888 337.7 73.4839 335.517C81.5892 330.44 89.7352 330.017 99.0012 332.675C103.065 333.943 107.498 334.218 111.879 334.489L111.886 334.489C112.837 334.548 113.784 334.607 114.725 334.676C114.871 334.167 115.037 333.761 115.186 333.394C115.377 332.924 115.542 332.517 115.608 332.043C112.645 328.998 109.617 326.048 106.545 323.053L106.536 323.045C103.991 320.565 101.415 318.054 98.8185 315.435C97.9582 314.532 97.0582 313.669 96.1637 312.81C91.7499 308.575 87.4683 304.466 88.7222 296.48C88.8063 295.117 87.4967 293.495 86.0916 291.756C85.21 290.665 84.2911 289.527 83.6549 288.378C82.4175 286.141 80.6692 282.629 81.101 282C88.4795 275.961 81.3525 271.533 77.9951 269.692C66.2832 263.553 63.8876 252.907 61.5154 242.364L61.5145 242.359L61.5109 242.344C60.9935 240.045 60.4774 237.752 59.8652 235.511C57.4476 226.914 55.5601 218.218 54.517 209.639C58.3554 184.519 56.8943 160.389 31.0167 143.557C31.9784 142.829 32.9399 142.102 34.1173 141.059C35.0271 141.529 36.0435 141.918 37.06 142.308C39.0932 143.086 41.1261 143.864 42.3045 145.289C45.7252 148.887 50.2346 151.3 54.4784 153.571C58.9992 155.99 63.2185 158.247 65.4986 161.604C65.4386 163.714 65.9845 165.699 67.2613 167.503C67.2724 165.171 66.6198 163.254 65.4986 161.604C65.6483 156.345 69.5601 150.304 75.3013 144.341C76.5321 142.915 77.2021 141.104 77.872 139.293C78.4305 137.784 78.9889 136.275 79.8717 134.988C80.1772 134.543 80.482 134.093 80.7876 133.643C85.1845 127.155 89.7473 120.423 99.2979 122.999L99.1606 123.105L99.0652 123.18L99.2518 123.377C97.4765 124.898 95.6434 126.38 93.8105 127.862L93.7841 127.883C89.8638 131.052 85.9435 134.221 82.5815 137.773C80.9384 139.43 79.7303 141.663 78.5329 143.877L78.5314 143.88C77.5413 145.71 76.5582 147.527 75.3422 148.995C67.8076 158.626 69.4793 167.637 80.9254 173.178C81.9398 173.72 83.0612 174.181 84.1825 174.642C86.4247 175.564 88.6671 176.486 90.0547 178.055C92.5489 181.154 94.7096 185.412 94.3379 189.32C94.1029 191.009 88.7844 193.373 85.3888 194.281C73.1996 196.555 59.8433 229.483 67.5221 239.841C68.3921 240.991 69.607 241.881 70.8002 242.756C71.5998 243.341 72.3897 243.92 73.0593 244.565C74.3877 245.869 75.7759 247.141 77.1611 248.409C80.6695 251.622 84.1586 254.817 86.6085 258.488C91.6949 265.216 96.7215 268.665 105.201 267.083C109.944 266.027 114.801 265.585 120.111 265.102C123.348 264.808 126.754 264.498 130.404 264.024C127.157 261.572 124.108 259.147 121.03 256.698C117.76 254.097 114.458 251.47 110.848 248.755C115.166 249.868 118.011 250.433 120.857 250.999L120.859 250.999C120.967 250.842 121.051 250.552 121.134 250.262C121.217 249.973 121.301 249.683 121.409 249.526L103.188 237.023L104.051 235.765L119.483 243.579L120.562 242.006C119.308 240.749 118.028 239.473 116.714 238.163L116.642 238.091C113.385 234.845 109.91 231.382 106.07 227.437C110.075 228.335 112.077 228.783 116.926 229.798C110.152 222.836 105.459 218.228 100.765 213.62C100.981 213.306 101.413 212.677 101.943 212.578C106.125 215.91 110.307 219.243 116.688 224.084C117.033 219.434 117.41 214.967 117.777 210.628L117.779 210.618L117.779 210.608C118.662 200.167 119.482 190.47 119.618 180.764C119.558 177.485 118.678 174.223 117.799 170.961L117.798 170.958C116.919 167.695 116.039 164.431 115.979 161.152C115.35 146.009 109.35 134.034 99.2518 123.377L99.595 123.081C99.4953 123.053 99.3964 123.025 99.2979 122.999C100.644 121.957 102.108 120.965 103.57 119.976C107.537 117.291 111.482 114.62 112.978 110.987C116.685 102.892 117.663 93.387 118.21 84.5109C118.348 80.5806 116.705 76.2964 115.157 72.2584C114.748 71.1921 114.345 70.143 113.984 69.1222C110.015 58.0727 116.039 50.6421 124.636 48.2152C138.12 44.0535 144.496 34.0894 150.989 23.2808C157.267 12.7868 166.962 7.41291 179.231 7.04269C187.526 6.91509 195.791 6.83047 204.033 6.74613L204.06 6.74596C218.082 6.60249 232.036 6.45971 245.951 6.10692C250.181 6.00294 254.465 5.82036 258.749 5.63779C263.033 5.45522 267.317 5.27264 271.547 5.16867C283.502 4.58285 290.394 10.6997 295.972 20.078C300.509 28.2796 306.106 36.2833 312.351 43.3436C317.967 49.9728 324.996 53.8708 334.732 53.1505C347.314 52.9958 355.641 62.4096 358.296 76.7204C359.622 83.8725 361.003 90.9459 362.383 98.0194L362.392 98.053C363.772 105.122 365.151 112.191 366.476 119.339C375.974 117.7 380.82 116.865 384.404 118.614C388.14 120.436 390.506 125.065 395.337 134.517C396.305 136.423 397.614 138.101 398.912 139.763C400.513 141.814 402.096 143.842 402.997 146.248C403.854 148.389 404.808 150.542 405.769 152.711C408.816 159.591 411.931 166.623 412.232 173.863C412.787 187.195 416.029 197.284 426.063 205.556C428.647 207.666 430.319 211.107 431.99 214.548L432.32 215.225L432.581 215.758C432.809 216.221 433.039 216.681 433.273 217.135C433.484 217.545 433.699 217.95 433.919 218.348C429.66 220.514 425.185 222.994 421.339 225.905C417.493 228.817 414.275 232.159 411.057 235.502C406.975 240.102 403.11 244.388 397.359 247.38C398.853 245.457 400.214 243.442 401.575 241.427C403.844 238.069 406.112 234.711 408.994 231.774C412.644 227.802 417.236 224.478 422.123 222.743C431.152 219.687 433.31 216.542 426.516 210.955C412.399 199.881 407.624 185.965 408.501 168.528C408.676 163.559 406.004 158.026 403.53 153.552C400.989 148.291 398.063 143.322 395.105 138.299L395.101 138.294L395.093 138.28L395.088 138.272C393.385 135.38 391.672 132.471 390.016 129.478C386.618 122.983 382.337 119.12 374.486 121.134C367.165 123.049 365.832 127.685 366.05 134.773C366.034 143.55 363.799 152.193 360.504 161.034C360.419 160.574 360.294 160.109 360.156 159.647C360.119 159.522 360.081 159.397 360.042 159.273C359.998 159.129 359.952 158.987 359.908 158.845C359.472 157.468 359.062 156.171 359.423 155.203C364.625 142.769 362.852 130.355 361.071 117.892L361.07 117.884C360.381 113.06 359.691 108.228 359.404 103.384C358.827 96.0495 356.897 88.9669 354.968 81.8843C354.196 79.0517 353.424 76.2191 352.739 73.3703C350.341 63.3987 344.293 57.3984 333.301 57.2564C305.983 57.2163 278.875 56.8703 251.77 56.5202C251.747 56.4475 251.723 56.3767 251.7 56.3078C251.557 56.288 251.413 56.2685 251.27 56.2495L251.021 56.2167C260.01 49.5277 270.041 50.4676 280.011 51.4018C281.911 51.5799 283.809 51.7577 285.697 51.8825C289.278 52.176 292.811 52.4369 296.434 52.7043L296.437 52.7046L296.44 52.7047C302.109 53.1232 307.998 53.558 314.632 54.1598C312.098 50.6711 309.46 47.4938 306.944 44.4631C302.146 38.6837 297.79 33.4373 295.444 27.5796C288.686 11.841 278.379 8.00645 262.617 8.75458C240.087 9.77807 217.423 10.0736 194.913 10.367C190.261 10.4276 185.615 10.4882 180.979 10.5551C169.24 10.8264 161.449 16.1191 154.445 25.6521C147.971 35.0861 140.122 44.5024 130.839 50.6219C120.38 57.7836 116.809 63.6596 122.996 74.8435C127.376 82.9369 131.702 91.109 136.028 99.281C140.355 107.454 144.681 115.626 149.062 123.721C150.843 127.231 153.279 130.247 155.884 133.474C156.438 134.16 157 134.857 157.565 135.569C157.84 134.305 158.111 133.058 158.38 131.826L159.327 127.502L159.346 127.416L159.348 127.408C160.604 121.677 161.791 116.264 162.876 110.997C162.393 108.903 161.884 106.847 161.38 104.812C160.428 100.97 159.494 97.2008 158.787 93.3895C155.818 78.8631 163.705 66.6977 177.817 62.9671C178.978 62.6866 180.117 62.3657 181.251 62.046C184.988 60.9926 188.678 59.9523 192.97 60.4134C191.301 61.04 189.647 61.7444 187.978 62.4548C185.29 63.599 182.565 64.7589 179.683 65.6351C165.021 70.8391 160.588 77.9729 162.694 93.7572C163.285 98.0845 163.434 102.657 163.579 107.143C163.623 108.477 163.666 109.804 163.72 111.114C164.172 111.578 164.741 112.02 165.311 112.462C166.45 113.346 167.588 114.231 167.785 115.291C168.652 119.965 169.276 124.686 169.888 129.322C170.178 131.52 170.466 133.699 170.776 135.845L173.309 136.195C174.603 131.84 175.991 127.498 177.379 123.156C180.154 114.474 182.93 105.792 184.955 97.006L184.982 96.9C187.205 88.302 189.128 80.8634 198.237 76.9789C200.951 75.6656 202.795 71.0856 204.105 67.8332L204.181 67.6438C208.162 55.1107 219.761 49.6558 231.972 53.4091C236.155 54.6949 240.697 55.1414 245.315 55.5953L245.324 55.596L245.344 55.598C247.231 55.7837 249.13 55.9706 251.021 56.2167L250.899 56.3083C250.813 56.3733 250.726 56.4391 250.64 56.5056L251.77 56.5202C251.942 57.059 252.112 57.6937 252.28 58.3189L252.281 58.3217C252.683 59.8198 253.07 61.2618 253.429 61.1947C272.715 60.4969 282.641 72.9919 292.402 85.2803C294.633 88.0881 296.855 90.8851 299.178 93.5115C303.341 98.2184 306.679 101.434 313.53 102.897C328.292 105.626 339.897 114.977 345.201 128.793C346.601 132.289 344.058 137.422 341.504 142.576C340.33 144.945 339.155 147.317 338.358 149.538C338.119 149.449 337.871 149.354 337.617 149.257C336.307 148.756 334.825 148.189 333.411 147.993C333.635 147.09 333.808 146.151 333.98 145.212C334.412 142.866 334.844 140.519 336.077 138.721C342.434 130.132 341.038 124.086 332.556 118.266C330.604 117.059 328.688 115.8 326.764 114.537C321.972 111.39 317.135 108.214 311.588 105.728C311.972 112.471 314.46 118.485 316.925 124.446C319.916 131.676 322.874 138.828 322.006 147.106C318.532 139.805 315.351 132.705 312.238 125.757C308.909 118.324 305.656 111.064 302.204 103.914C293.05 85.6066 276.638 79.8954 256.617 82.8093C242.74 84.8509 234.949 90.1435 233.05 105.03C236.034 104.727 238.858 104.511 241.723 104.293C245.059 104.039 248.448 103.781 252.208 103.374C252.229 103.49 252.253 103.611 252.279 103.736C252.316 103.913 252.356 104.099 252.401 104.295C252.458 104.544 252.521 104.809 252.589 105.093L252.704 105.571C253.051 107.013 253.509 108.91 253.997 111.54C255.638 107.554 257.133 104.62 258.278 102.373C258.584 101.773 258.864 101.223 259.116 100.714C258.711 102.744 258.516 105.154 258.302 107.786C258.216 108.846 258.127 109.942 258.02 111.063C258.908 111.075 259.705 111.217 260.613 111.38C261.112 111.469 261.643 111.564 262.241 111.647C262.854 110.753 263.483 109.947 264.231 108.99L264.233 108.988C265.327 107.586 266.675 105.859 268.598 103.057C267.435 108.226 266.639 112.301 265.947 115.843L265.941 115.873L265.908 116.045L265.842 116.383C265.622 117.507 265.411 118.579 265.202 119.618C265.145 119.9 265.088 120.179 265.032 120.455L264.963 120.789L264.855 121.304C265.484 121.735 266.426 122.382 267.27 122.498L277.334 105.814C277.648 106.029 278.277 106.46 278.806 106.362C277.709 109.307 276.586 112.121 275.464 114.934L275.463 114.938C274.34 117.752 273.217 120.566 272.119 123.513C272.433 123.728 272.723 123.811 273.012 123.894L273.088 123.916L273.199 123.949C273.283 123.975 273.368 124.003 273.454 124.037C273.6 124.095 273.75 124.169 273.906 124.276C275.043 122.281 276.235 120.208 277.427 118.135C278.619 116.062 279.81 113.989 280.948 111.994C281.105 112.102 281.316 112.131 281.527 112.16C281.738 112.189 281.949 112.219 282.106 112.326C281.322 115.489 280.637 119.181 280.167 122.559L282.052 123.853C282.608 123.154 283.158 122.465 283.709 121.775L283.715 121.767C286.462 118.325 289.21 114.881 292.706 110.348C292.425 111.326 292.168 112.238 291.925 113.1C291.018 116.323 290.311 118.834 289.275 121.408C305.591 133.992 306.102 135.267 298.862 146.489C298.418 144.963 298.04 143.283 297.646 141.534L297.645 141.528L297.644 141.523C296.697 137.313 295.659 132.701 293.399 128.864C292.16 127.092 288.894 126.786 284.925 126.416C282.919 126.228 280.733 126.024 278.539 125.605C282.546 133.905 285.217 139.439 288.301 145.718C288.757 144.799 289.195 144.002 289.671 143.135C290.447 141.724 291.323 140.13 292.539 137.524C293.544 148.853 289.561 153.983 280.688 153.446C277.315 153.346 274.014 152.379 270.74 151.42C267.861 150.577 265.003 149.74 262.137 149.505C257.7 149.236 252.597 151.285 248.653 153.666C248.012 154.151 248.471 156.625 249.046 159.727L249.049 159.74L249.051 159.75L249.052 159.755C249.337 161.298 249.652 162.996 249.873 164.68C251.38 163.433 252.688 162.394 253.913 161.42L253.928 161.407L253.933 161.404L253.934 161.402C256.178 159.618 258.148 158.052 260.568 155.829C260.076 157.365 259.655 158.797 259.21 160.307L259.207 160.315C258.555 162.533 257.853 164.919 256.804 168.048C258.667 166.352 260.269 164.941 261.703 163.677L261.707 163.673L261.721 163.661C264.071 161.591 265.97 159.916 267.832 158.038C268.461 158.469 268.775 158.685 269.619 158.802C268.483 160.829 267.185 162.886 265.723 165.203C264.535 167.088 263.238 169.144 261.83 171.497C262.414 171.341 262.944 171.203 263.435 171.078C263.875 170.965 264.282 170.863 264.667 170.768L265.299 170.611L265.305 170.61L265.328 170.604L265.331 170.603L265.335 170.602L265.341 170.601C266.692 170.267 267.796 169.994 269.151 169.582L269.15 169.584C266.345 173.671 264.835 175.872 262.912 177.327ZM262.912 177.327C251.78 172.002 243.533 164.493 239.583 152.068C238.365 148.457 233.869 144.909 229.883 142.637C224.672 139.666 219.319 137.191 213.625 134.558C210.609 133.163 207.498 131.724 204.262 130.144C202.421 140.907 202.267 151.904 207.198 162.225C207.885 163.728 209.982 164.665 212.134 165.626L212.151 165.633L212.156 165.636C212.521 165.798 212.887 165.962 213.248 166.129C213.615 166.299 213.976 166.473 214.325 166.653C215.163 164.574 215.825 162.751 216.622 160.557C217.075 159.31 217.571 157.942 218.169 156.339C218.79 159.689 219.178 162.267 219.507 164.458L219.509 164.47C219.753 166.088 219.964 167.494 220.215 168.844C220.745 168.745 221.275 168.647 221.903 169.078C222.199 168.048 222.6 166.998 223.09 165.715C223.703 164.111 224.454 162.143 225.315 159.393C225.869 162.377 226.211 164.61 226.546 166.791L226.546 166.793C226.865 168.871 227.176 170.901 227.656 173.488C230.874 170.145 232.915 167.845 233.778 166.587C234.543 167.452 235.234 168.516 235.921 169.575C237.105 171.398 238.279 173.207 239.807 173.962C245.484 176.667 251.797 178.446 257.865 180.156L257.921 180.171C258.906 180.449 259.885 180.725 260.852 181.002C260.902 181.267 261.147 180.741 261.514 179.953C261.882 179.165 262.373 178.113 262.912 177.327ZM258.635 127.674C257.938 126.927 257.15 126.196 256.357 125.459C254.425 123.665 252.458 121.837 251.664 119.653C247.99 110.193 241.138 108.73 231.618 109.136C222.628 109.443 219.292 113.63 219.079 121.347C219.048 123.601 219.269 125.889 219.514 128.435L219.515 128.443C219.718 130.552 219.938 132.837 220.046 135.424C221.18 134.081 222.066 132.957 222.89 131.912L222.893 131.908L222.9 131.899C223.869 130.67 224.753 129.549 225.854 128.308C226.228 131.803 226.72 134.453 227.408 138.163C236.117 120.087 237.177 119.889 254.729 127.307C255.239 127.453 255.772 127.435 256.335 127.417C257.049 127.393 257.811 127.368 258.635 127.674ZM258.635 127.674L258.861 128.084C258.976 128.292 259.09 128.502 259.206 128.714C259.425 129.115 259.645 129.521 259.868 129.93C261.565 133.055 263.369 136.375 265.45 139.289C266.904 141.212 270.359 143.583 271.851 142.756C273.872 141.831 276.031 138.686 276.383 136.152C276.402 134.778 273.692 131.993 271.906 131.23C268.791 130.071 265.618 129.332 262.504 128.607C261.201 128.304 259.909 128.003 258.635 127.674ZM140.417 326.865L140.667 327.101C154.561 340.314 168.179 353.263 187.245 357.609L188.755 355.408C185.3 353.036 181.868 350.798 178.437 348.559C175.006 346.32 171.575 344.082 168.12 341.711C171.989 342.937 175.608 344.654 179.192 346.353C187.21 350.157 195.047 353.875 205.086 351.812C202.577 350.516 199.957 349.24 197.297 347.946C194.169 346.424 190.987 344.875 187.868 343.235C188.084 342.92 188.515 342.291 188.417 341.761C196.21 343.871 204.004 345.981 212.112 348.307C212.328 347.992 212.229 347.462 212.229 347.462C206.987 344.328 201.613 341.218 196.238 338.108C190.863 334.998 185.489 331.889 180.246 328.754L180.678 328.125C187.403 331.121 194.182 334.037 200.961 336.954C207.739 339.87 214.516 342.786 221.239 345.781C221.563 345.309 221.862 344.705 222.161 344.101C222.46 343.497 222.759 342.892 223.083 342.421C222.745 342.039 222.385 341.691 222.006 341.346C221.769 341.131 221.525 340.917 221.274 340.698L221.271 340.695L221.26 340.686C220.914 340.383 220.556 340.071 220.189 339.729C219.94 339.498 219.687 339.253 219.431 338.99C220.862 338.585 222.372 338.235 223.882 337.885L223.89 337.883C225.4 337.533 226.91 337.182 228.341 336.778C204.251 334.611 191.435 318.469 178.226 301.834C171.868 293.825 165.418 285.703 157.576 278.969C158.084 281.707 158.555 284.042 158.975 286.127C159.693 289.691 160.265 292.526 160.625 295.4L159.035 295.697C157.542 291.086 155.919 286.664 154.221 282.038C153.94 281.27 153.656 280.497 153.37 279.717C153.157 279.134 152.943 278.547 152.728 277.955C145.474 279.652 146.134 283.867 146.805 288.146C147.203 290.686 147.604 293.249 146.354 295.321C146.753 283.986 139.899 279.714 132.5 275.102C130.17 273.649 127.786 272.163 125.558 270.412L125.539 270.716L125.525 270.921C125.507 271.203 125.489 271.478 125.47 271.747C125.452 272.004 125.433 272.256 125.415 272.504L125.373 273.055C125.312 273.834 125.249 274.581 125.185 275.338L125.185 275.345C125.001 277.532 124.81 279.807 124.64 283.197C123.515 279.599 122.543 276.819 121.57 274.039C120.792 271.814 120.013 269.589 119.157 266.946C117.196 271.15 116.215 273.253 115.45 275.041C114.459 274.129 113.57 273.404 112.681 272.678C111.793 271.953 110.905 271.228 109.913 270.316C95.6554 307.251 127.627 349.542 156.425 354.038C154.332 352.45 152.26 350.977 150.244 349.543L150.232 349.534L150.23 349.532C146.105 346.598 142.213 343.83 138.852 340.592C135.251 337.443 132.115 333.617 128.482 329.185L128.481 329.183L128.479 329.181C127.161 327.572 125.777 325.883 124.281 324.118C139.655 336.055 153.144 346.699 166.418 357.657L168.144 355.141C159.19 345.297 149.804 336.081 140.417 326.865ZM126.809 89.4866C125.379 91.5704 124.332 92.8336 123.625 93.6859C122.732 94.7631 122.383 95.1842 122.493 95.7759C122.359 105.398 120.458 112.882 110.35 117.51C108.328 118.435 107.468 127.096 109.235 129.234C115.764 137.065 117.345 145.997 119.006 155.378C119.408 157.65 119.815 159.95 120.298 162.266C121.773 170.216 124.486 180.403 130.239 184.814C133.291 187.167 136.286 189.628 139.283 192.09C152.312 202.793 165.389 213.536 183.406 215.746C189.742 216.452 195.833 220.125 201.32 223.434L201.586 223.595C202.145 223.922 202.703 224.254 203.261 224.588C203.605 224.794 203.949 225 204.293 225.207C212.605 230.197 221.079 235.285 233.703 232.681C231.494 231.485 229.524 230.342 227.696 229.282C224.227 227.27 221.272 225.555 218.173 224.338C213.879 222.594 209.539 221.009 205.192 219.423L205.188 219.421C197.833 216.736 190.461 214.045 183.267 210.562C167.306 202.847 150.087 194.271 146.214 176.348C143.737 164.472 139.317 155.426 132.679 146.246C130.087 142.617 128.24 138.574 126.393 134.532C126.658 134.482 126.899 134.3 127.139 134.118C127.38 133.936 127.62 133.754 127.885 133.705C130.461 137.311 133.013 140.786 135.564 144.26L135.61 144.323L135.615 144.33C138.182 147.826 140.749 151.321 143.341 154.949C143.43 154.819 143.573 154.726 143.741 154.617C143.979 154.462 144.265 154.275 144.518 153.907L144.507 153.887C141.721 149.204 138.936 144.522 135.837 139.624C136.017 139.59 136.185 139.496 136.35 139.382C136.428 139.328 136.505 139.269 136.582 139.211L136.663 139.15L136.715 139.111L136.769 139.072L136.805 139.047L136.851 139.015L136.884 138.994L136.942 138.957C137.067 138.881 137.195 138.822 137.329 138.797C139.237 141.024 141.222 143.304 143.208 145.584L143.259 145.642L143.31 145.701C145.296 147.981 147.282 150.26 149.19 152.487L152.074 150.303L136.815 130.119C136.923 129.962 137.11 129.858 137.296 129.755C137.482 129.652 137.669 129.548 137.777 129.391C138.21 129.799 138.64 130.203 139.066 130.605C142.23 133.585 145.227 136.408 148.635 139.155C148.851 138.84 149.091 138.659 149.332 138.477C149.572 138.295 149.813 138.113 150.028 137.798C143.054 122.374 135.551 107.049 126.809 89.4866ZM83.0553 369.376C83.2804 369.407 83.6549 369.508 84.1293 369.636C85.4339 369.986 87.4933 370.54 89.2783 370.408C90.5029 370.293 92.0053 369.658 93.4428 369.05C95.4844 368.187 97.3942 367.38 98.1892 368.197C106.922 374.977 112.672 369.974 118.613 364.804L118.615 364.802C119.647 363.905 120.683 363.003 121.743 362.156C122.518 363.382 123.137 364.5 123.858 365.805C124.58 367.11 125.405 368.601 126.594 370.573C128.654 368.088 130.556 365.833 132.318 363.744L132.324 363.736C135.157 360.376 137.63 357.444 139.819 354.67C134.233 345.842 128.08 347.113 121.882 348.393C121.411 348.49 120.94 348.588 120.469 348.681C120.25 348.724 120.032 348.766 119.814 348.806C115.65 349.583 111.36 349.679 106.993 349.776C104.69 349.827 102.366 349.879 100.028 350.031C99.9789 349.766 99.9837 349.423 99.9886 349.079L99.9884 349.074C99.9931 348.732 99.9977 348.39 99.9489 348.127C104.188 347.336 108.506 346.598 112.824 345.861C117.143 345.124 121.461 344.386 125.701 343.595C125.711 342.907 125.642 342.166 125.573 341.424C125.504 340.683 125.435 339.943 125.445 339.256C123.648 339.18 121.718 339.128 119.789 339.077C117.861 339.026 115.933 338.974 114.138 338.898C113.946 338.896 113.754 338.895 113.561 338.895C113.399 338.895 113.237 338.896 113.075 338.897C112.734 338.9 112.392 338.906 112.05 338.911C109.948 338.943 107.846 338.975 106.109 338.477C94.1141 334.409 81.4334 334.034 71.8173 341.312C68.6923 343.593 65.4737 345.37 62.3436 347.098C59.9114 348.441 57.5327 349.754 55.2929 351.251C45.8688 357.487 37.2451 364.782 28.6591 372.045C25.6772 374.568 22.6997 377.086 19.6948 379.556C19.9007 379.928 20.2387 380.276 20.5767 380.623L20.5784 380.624C20.9172 380.973 21.256 381.321 21.4622 381.694C22.1956 381.044 22.8986 380.374 23.5929 379.712C25.1281 378.248 26.6218 376.825 28.311 375.754C29.9577 374.841 31.5507 373.817 33.1377 372.797C39.457 368.733 45.6836 364.73 54.8473 368.06C60.1388 369.83 65.9324 369.657 72.5845 369.459C75.8535 369.362 79.3297 369.258 83.0553 369.376ZM218.46 89.9305C218.725 89.881 218.936 89.9102 219.147 89.9394C219.203 89.9472 219.26 89.955 219.318 89.9613C219.392 89.9694 219.468 89.975 219.547 89.975C219.637 89.9748 219.731 89.9674 219.834 89.9483C219.723 91.2851 219.653 92.562 219.59 93.7173L219.59 93.7201L219.589 93.7348C219.508 95.2193 219.438 96.5016 219.307 97.4498C236.771 80.7551 258.087 75.9544 282.468 78.8075C274.614 73.4184 266.427 69.1883 257.907 66.1172C254.357 64.8818 250.704 63.9222 247.029 62.9569C242.21 61.6908 237.353 60.4148 232.641 58.4939C221.392 54.0127 211.715 58.0119 207.224 69.2694C205.361 74.0042 201.81 78.5057 198.278 81.6326C190.369 87.7697 181.329 114.408 185.318 124.083C185.662 124.945 186.491 125.716 187.924 127.05C188.613 127.691 189.441 128.463 190.423 129.437C198.015 115.681 204.743 103.184 212.668 88.2694C211.199 95.1243 210.081 99.4457 208.964 103.767C210.122 104.099 211.28 104.432 212.223 105.078C213.415 101.72 214.757 98.6318 216.042 95.6728L216.047 95.6607C216.896 93.708 217.719 91.8115 218.46 89.9305ZM106.847 315.856C106.325 310.025 105.838 304.143 105.345 298.178L105.342 298.149L105.341 298.135L105.34 298.122L105.339 298.112L105.338 298.104L105.337 298.097C104.623 289.466 103.896 280.663 103.023 271.602C91.2611 273.591 87.4786 266.226 83.6961 258.86C82.4353 256.405 81.1744 253.95 79.618 251.841C76.2033 254.123 73.5345 255.992 71.3954 257.763C72.8715 259.022 74.3937 260.215 75.8932 261.389C80.0181 264.621 83.9707 267.717 86.3188 271.703C89.9174 277.718 92.3826 284.076 94.8624 290.473C95.9419 293.258 97.0244 296.05 98.2041 298.824C98.3026 299.354 98.4991 300.414 98.2833 300.728C94.6056 308.856 99.5818 311.66 104.086 314.197C105.059 314.746 106.01 315.281 106.847 315.856ZM56.6784 160.703C56.4785 160.814 56.2942 160.903 56.1231 160.984C55.6558 161.208 55.287 161.384 54.9711 161.845C55.482 163.12 55.9929 164.396 56.1894 165.456C56.9349 167.665 58.0532 170.087 59.178 172.523C61.7302 178.051 64.3162 183.652 62.6552 187.007C59.2312 194.014 61.1167 198.953 62.865 203.532C63.4503 205.065 64.0201 206.558 64.3703 208.074L64.3795 208.062L64.3872 208.052L64.4117 208.02L64.424 208.004C68.8207 202.268 73.2203 196.528 78.2616 189.853C75.9305 186.702 73.5287 183.503 71.0998 180.268C66.2854 173.855 61.3648 167.301 56.6784 160.703ZM294.013 312.458C280.628 317.149 273.427 325.622 269.348 337.625C267.989 342.349 266.839 347.217 265.792 351.653L265.787 351.673C265.551 352.672 265.321 353.648 265.094 354.596C279.6 346.739 285.81 331.965 292.669 315.647L292.758 315.436C293.173 314.448 293.591 313.455 294.013 312.458ZM168.022 174.198C168.238 173.883 168.375 173.515 168.512 173.147C168.649 172.778 168.787 172.41 169.002 172.095C163.446 168.745 157.89 165.395 151.705 161.614C148.178 179.546 153.953 189.985 170.6 194.007C168.427 191.471 166.185 189.035 163.895 186.548L163.889 186.541L163.874 186.525C162.115 184.614 160.329 182.673 158.523 180.632C161.684 181.413 164.845 182.194 167.691 182.759C167.907 182.445 168.044 182.077 168.181 181.709C168.319 181.34 168.456 180.972 168.672 180.657C166.823 179.388 165.082 178.099 163.177 176.688C160.875 174.983 158.332 173.099 155.065 170.858L155.07 170.859C161.388 172.42 164.548 173.201 168.022 174.198ZM184.593 130.525C184.085 136.652 183.558 144.153 183.011 153.03C185.263 153.341 188.169 153.895 192.043 154.635L192.052 154.637C193.987 155.006 196.162 155.421 198.618 155.875C194.512 148.207 190.905 141.786 187.979 136.578L187.962 136.548L187.929 136.488L187.926 136.484L187.886 136.412C186.664 134.237 185.562 132.275 184.593 130.525ZM240.012 144.037C241.125 141.52 242.215 139.169 243.284 136.864L243.285 136.86C244.626 133.966 245.934 131.146 247.211 128.161C247.112 127.631 246.96 127.18 246.808 126.728C246.655 126.277 246.503 125.826 246.405 125.296C245.057 125.913 243.5 126.386 241.943 126.859C238.829 127.806 235.715 128.753 234.276 130.849C230.823 135.881 231.905 141.711 240.012 144.037ZM264.89 144.213L264.885 144.204C263.722 141.714 262.612 139.339 261.033 137.646C259.737 136.18 257.777 135.157 255.8 134.124C254.604 133.5 253.401 132.872 252.336 132.14C253.043 134.476 253.75 136.812 253.614 139.031C253.669 140.365 253.31 141.642 252.936 142.976L252.932 142.989C252.773 143.555 252.611 144.131 252.477 144.727C257.954 146.172 262.273 147.286 266.808 148.084C266.106 146.816 265.491 145.499 264.89 144.213ZM74.2324 175.524C77.3958 183.708 81.2254 189.574 90.7267 190.543C90.6862 179.36 83.6911 177.731 76.0353 175.949C75.4374 175.81 74.8354 175.67 74.2324 175.524ZM220.134 106.344C214.441 107.406 211.297 107.993 209.898 109.876C208.173 112.199 209.104 116.494 211.184 126.085L211.186 126.094L211.186 126.098L211.187 126.101L211.188 126.104L211.189 126.107L211.19 126.11C214.132 119.802 216.859 113.81 220.134 106.344ZM205.24 120.639C204.347 120.258 203.586 119.851 202.826 119.445C202.065 119.039 201.304 118.632 200.411 118.25C200.022 119.25 199.639 120.242 199.258 121.228C197.277 126.36 195.363 131.318 193.076 136.345C193.655 136.511 194.258 136.81 194.862 137.108C195.466 137.407 196.069 137.706 196.649 137.872C198.29 134.753 199.84 131.571 201.363 128.444L201.368 128.434C202.665 125.772 203.942 123.15 205.24 120.639Z" fill="#A5BB70"/>
<path d="M211.402 289.301L211.345 289.499L210.915 289.391L211.201 289.338L211.402 289.301Z" fill="#A5BB70"/>
<path d="M211.402 289.301L212.345 286.022C210.552 285.039 208.731 283.904 206.768 282.681L206.765 282.679C205.054 281.613 203.235 280.48 201.233 279.322C210.299 280.919 218.523 282.399 226.745 283.88L226.753 283.881C227.027 283.145 227.223 282.354 227.419 281.563C227.615 280.773 227.811 279.982 228.086 279.246C224.464 277.454 220.787 275.741 217.111 274.028C213.435 272.315 209.759 270.601 206.136 268.81C206.389 268.441 206.534 267.999 206.654 267.632C206.739 267.373 206.812 267.152 206.901 267.022C213.733 269.86 220.565 272.698 227.613 275.221C228.282 275.47 228.959 275.742 229.641 276.016C234.952 278.152 240.496 280.382 244.356 272.37C244.644 271.951 246.241 272.019 247.837 272.086L248.268 272.104C248.745 272.123 249.211 272.139 249.632 272.137C249.716 272.136 249.799 272.135 249.88 272.133C249.944 272.132 250.007 272.13 250.068 272.127C250.864 272.154 251.663 272.195 252.464 272.236C256.659 272.451 260.917 272.668 265.202 270.948C263.671 270.822 262.194 270.618 260.717 270.414C259.24 270.21 257.762 270.006 256.231 269.88C258.802 267.481 260.627 265.495 262.667 263.195C260.037 262.315 257.406 261.435 254.559 260.869C253.818 260.711 253.08 260.555 252.346 260.4C246.298 259.123 240.5 257.898 234.967 255.752C239.259 256.012 243.519 256.319 247.752 256.624C254.46 257.108 261.104 257.587 267.71 257.867L267.926 257.552C267.915 258.344 267.842 259.169 267.769 260.004L267.768 260.008C267.586 262.074 267.398 264.199 268.125 266.015C269.066 268.603 271.279 270.759 272.767 272.208L273.106 272.54C273.258 272.688 273.399 272.828 273.526 272.959C269.994 276.086 266.677 278.898 263.361 281.711C257.37 271.587 245.241 277.141 237.685 280.744C228.99 284.756 220.274 287.639 211.402 289.301Z" fill="#A5BB70"/>
<path d="M333.312 200.657C330.804 213.737 323.486 223.055 311.769 229.354C309.048 230.781 306.489 232.562 303.926 234.346C300.37 236.821 296.806 239.302 292.791 240.848C288.434 242.483 282.643 240.822 278.01 239.493C275.274 238.541 272.643 236.839 270.013 235.136C268.697 234.285 267.381 233.434 266.053 232.676C266.063 231.989 266.151 231.356 266.239 230.723L266.28 230.427L266.297 230.3C266.313 230.176 266.329 230.051 266.343 229.925C266.358 229.802 266.371 229.679 266.382 229.555C266.389 229.473 266.396 229.391 266.402 229.307C266.414 229.131 266.422 228.952 266.424 228.768C270.268 229.001 274.217 229.306 278.311 229.622L278.326 229.624C281.316 229.854 284.384 230.091 287.546 230.31C286.358 232.711 285.382 234.802 284.408 236.89L284.401 236.905L284.388 236.932C284.537 237.034 284.68 237.143 284.819 237.258C285.025 237.428 285.223 237.609 285.418 237.794C285.504 237.876 285.589 237.958 285.674 238.04L285.683 238.049L285.694 238.059C286.111 238.461 286.529 238.863 287 239.187L288.997 236.679L289.023 236.646L289.029 236.638L289.074 236.582C298.419 224.85 307.956 212.877 317.766 201.09C318.506 202.069 319.173 202.998 319.814 203.891L319.846 203.935L319.854 203.947C321.085 205.662 322.219 207.242 323.579 208.779C324.777 207.763 325.989 206.815 327.189 205.877L327.198 205.87C329.315 204.215 331.397 202.587 333.312 200.657Z" fill="#A5BB70"/>
<path d="M273.45 358.269C270.829 359.477 268.216 360.68 265.627 361.9C265.71 362.351 265.794 362.802 265.491 362.987L265.294 363.059C265.373 363.044 265.438 363.02 265.491 362.987C269.036 361.703 272.723 360.592 276.424 359.478C285.544 356.731 294.743 353.96 302.074 348.517C310.095 342.9 316.804 335.547 323.53 328.174C327.995 323.28 332.467 318.378 337.336 313.969C343.223 308.757 350.151 304.723 357.275 301.748C364.671 298.701 372.201 296.38 379.811 294.033L379.818 294.031C383.475 292.904 387.15 291.771 390.838 290.549L390.346 287.899L357.663 289.063L357.311 291.596C360.786 292.593 363.946 293.374 367.107 294.155C364.647 295.395 362.145 296.561 359.658 297.719L359.654 297.722C354.286 300.223 348.988 302.692 344.321 305.811C336.746 310.789 330.212 316.944 323.677 323.099C321.929 324.704 320.518 326.843 319.098 328.995C317.474 331.458 315.838 333.939 313.671 335.66C301.609 345.298 287.416 351.836 273.45 358.269Z" fill="#A5BB70"/>
<path d="M332.886 162.897C326.728 179.95 314.973 188.998 296.168 188.121C297.091 190.142 297.916 191.633 297.916 191.633C293.48 191.364 287.984 191.293 282.487 191.222C282.478 191.91 282.389 192.543 282.301 193.176C282.213 193.81 282.125 194.443 282.116 195.13L282.119 195.132C285.161 196.757 288.203 198.382 291.344 200.537C291.129 200.851 290.938 201.296 290.747 201.741L290.745 201.746C290.554 202.193 290.363 202.64 290.147 202.954L290.128 202.946C284.775 200.659 279.419 198.37 271.653 194.889C281.171 187.081 288.019 181.142 294.868 175.202C294.994 175.289 295.112 175.388 295.225 175.496L295.296 175.565C295.322 175.592 295.348 175.618 295.374 175.645L295.402 175.674C295.504 175.782 295.603 175.894 295.703 176.006C295.963 176.3 296.223 176.594 296.537 176.81C295.783 177.908 294.951 178.953 294.12 179.997L294.114 180.004C293.28 181.051 292.446 182.098 291.691 183.198C291.897 183.571 292.157 183.865 292.417 184.159C292.678 184.453 292.938 184.748 293.144 185.121C294.075 184.37 295.035 183.64 296.003 182.902L296.006 182.9C298.26 181.183 300.562 179.43 302.662 177.312C304.338 175.68 305.751 173.7 307.196 171.675C308.153 170.334 309.125 168.973 310.196 167.68L313.023 169.62C310.812 172.843 308.547 175.782 305.676 179.507L305.675 179.51C304.624 180.873 303.492 182.342 302.252 183.969C304.04 183.547 305.693 183.178 307.325 182.814C310.728 182.055 314.036 181.318 318.268 180.158C316.758 179.512 315.661 178.986 314.859 178.6C313.763 178.074 313.214 177.81 312.908 177.868C316.768 174.758 320.955 171.693 325.19 168.594C327.759 166.714 330.345 164.821 332.886 162.897Z" fill="#A5BB70"/>
<path d="M303.999 253.914C292.286 251.519 280.477 249.105 268.985 257.354C277.348 256.616 286.024 256.094 295.328 256.003C294.506 258.042 293.776 259.422 293.503 259.938L293.499 259.945C293.424 260.087 293.385 260.161 293.389 260.164C293.394 260.167 293.455 260.079 293.582 259.893C298.516 259.886 303.92 259.792 309.325 259.697L309.327 259.697C312.029 259.65 314.73 259.602 317.373 259.566C317.471 260.094 317.516 260.7 317.56 261.306L317.56 261.314C317.605 261.923 317.649 262.531 317.747 263.061L308.798 268.021C308.912 268.227 309.002 268.416 309.081 268.598C309.145 268.746 309.203 268.889 309.26 269.032C309.387 269.351 309.515 269.67 309.721 270.042C315.359 267.2 321.049 264.636 326.836 262.029L326.846 262.025L327.018 261.948C329.147 260.988 331.291 260.022 333.449 259.033C333.48 259.198 333.562 259.354 333.663 259.505C333.725 259.597 333.793 259.688 333.862 259.779C334.044 260.019 334.225 260.259 334.274 260.525C332.234 262.825 330.507 265.341 328.781 267.856L329.723 268.503C335.963 260.758 342.418 252.698 347.48 245.996C344.465 245.906 341.188 245.742 337.512 245.558L337.508 245.557C333.455 245.354 328.916 245.126 323.708 244.948C326.66 246.252 328.984 247.375 331.038 248.368L331.048 248.373C332.939 249.287 334.601 250.09 336.312 250.822C336.293 252.196 336.176 253.041 336.157 254.415C333.748 254.572 331.337 254.903 328.94 255.232C324.598 255.828 320.303 256.417 316.155 255.955C312.126 255.575 308.068 254.746 303.999 253.914Z" fill="#A5BB70"/>
<path d="M348.037 152.941C347.639 152.576 347.254 152.219 346.869 151.862L346.86 151.853C345.327 150.433 343.793 149.011 341.459 147.04C354.427 139.029 352.223 128.837 349.986 118.495C349.041 114.126 348.09 109.73 348.275 105.461C348.531 106.178 348.789 106.894 349.047 107.609C354.515 122.795 359.86 137.641 348.037 152.941Z" fill="#A5BB70"/>
<path d="M336.796 195.305L336.787 195.322C335.705 197.176 334.63 199.019 333.626 200.872C334.503 199.761 335.36 198.636 336.215 197.516C338.82 194.1 341.393 190.726 344.378 187.898C353.816 178.185 354.385 175.337 345.43 165.492C342.876 162.708 339.792 160.327 336.787 158.008C335.749 157.206 334.721 156.412 333.727 155.612C333.354 155.818 333.036 155.946 332.717 156.075C332.398 156.203 332.079 156.331 331.706 156.537C331.901 157.592 332.175 158.7 332.449 159.809L332.449 159.812L332.453 159.825C332.72 160.904 332.986 161.982 333.181 163.012C333.081 162.974 332.983 162.936 332.886 162.897L333.2 163.113L333.181 163.012C334.243 163.408 335.485 163.72 336.711 164.027C339.264 164.668 341.743 165.29 342.349 166.615C344.294 171.188 345.375 177.018 343.944 181.124C342.148 186.131 339.452 190.753 336.796 195.305Z" fill="#A5BB70"/>
<path d="M370.645 138.851C382.348 148.731 381.722 155.703 368.519 177.634C368.317 172.784 370.295 168.145 372.257 163.544C375.686 155.498 379.066 147.572 370.645 138.851Z" fill="#A5BB70"/>
</svg>
