<svg width="26" height="17" viewBox="0 0 26 17" fill="none" xmlns="http://www.w3.org/2000/svg">
<path d="M16.2724 8.49369C16.2724 9.97164 15.9525 11.2897 15.3127 12.4479C14.673 13.599 13.7612 14.4978 12.5772 15.1444C11.3933 15.7981 10.0366 16.125 8.50707 16.125C7.41139 16.125 6.36352 15.9189 5.36344 15.5068C4.36336 15.0947 3.503 14.5405 2.78235 13.8441C2.06171 13.1478 1.48813 12.3165 1.06163 11.3501C0.635127 10.3838 0.421875 9.37122 0.421875 8.3125C0.421875 7.25378 0.635127 6.24125 1.06163 5.2749C1.48813 4.30855 2.06171 3.47721 2.78235 2.78087C3.503 2.08453 4.36336 1.5303 5.36344 1.11818C6.36352 0.706059 7.41139 0.5 8.50707 0.5C10.6102 0.5 12.4155 1.18213 13.9229 2.54639L11.7279 4.58211C10.8675 3.77919 9.79393 3.37773 8.50707 3.37773C7.60258 3.37773 6.76428 3.598 5.99216 4.03854C5.2274 4.47908 4.62073 5.0795 4.17217 5.83979C3.7236 6.59297 3.49932 7.41721 3.49932 8.3125C3.49932 9.20779 3.7236 10.0356 4.17217 10.7959C4.62073 11.5491 5.2274 12.1459 5.99216 12.5865C6.76428 13.027 7.60258 13.2473 8.50707 13.2473C9.11741 13.2473 9.67627 13.1656 10.1837 13.0021C10.6984 12.8387 11.1212 12.6362 11.4521 12.3946C11.7831 12.1459 12.0698 11.8653 12.3125 11.5526C12.5625 11.24 12.7427 10.9451 12.853 10.668C12.9706 10.3909 13.0515 10.128 13.0957 9.87926H8.50707V7.19338H16.14C16.2283 7.64103 16.2724 8.07447 16.2724 8.49369ZM25.8356 7.19338V9.43162H23.5303V11.6592H21.2139V9.43162H18.9086V7.19338H21.2139V4.96581H23.5303V7.19338H25.8356Z" fill="currentColor"/>
</svg>
