<svg width="26" height="24" viewBox="0 0 26 24" fill="none" xmlns="http://www.w3.org/2000/svg">
<path d="M23.9463 1.88037C22.7292 0.650193 21.0161 0 18.9922 0C16.7804 0 14.8694 0.954971 13.4656 2.76151C13.3027 2.97113 13.1557 3.18096 13.0236 3.38595C12.8969 3.18357 12.7554 2.97656 12.5981 2.76976C11.2191 0.957787 9.28603 0 7.00781 0C4.9839 0 3.27083 0.650193 2.05367 1.88037C0.690903 3.2578 0 5.27054 0 7.86246C0 10.3785 1.45103 13.3974 4.31303 16.835C6.49544 19.4567 9.16185 21.8822 10.9295 23.278C11.539 23.7594 12.2694 24 13 24C13.7304 24 14.4612 23.7594 15.0705 23.278C15.6587 22.8135 16.8651 21.8235 18.3358 20.4105C18.743 20.0194 18.7603 19.3674 18.3747 18.9544C17.9889 18.5414 17.3462 18.5239 16.9389 18.9149C15.5303 20.2682 14.3818 21.2109 13.8226 21.6525C13.3382 22.0351 12.6618 22.0351 12.1774 21.6525C10.4907 20.3207 7.94667 18.0066 5.86504 15.5063C3.35692 12.4935 2.03125 9.85046 2.03125 7.86246C2.03125 3.06669 4.73753 2.06002 7.00781 2.06002C10.9126 2.06002 11.9733 5.8636 12.0183 6.03179C12.0195 6.03681 12.0215 6.04144 12.0229 6.04647C12.0294 6.07001 12.0367 6.09314 12.0449 6.11608C12.0482 6.12573 12.0516 6.13539 12.0554 6.14484C12.0639 6.16697 12.0732 6.1887 12.0832 6.21023C12.0875 6.21928 12.0917 6.22853 12.0963 6.23738C12.1074 6.25931 12.1191 6.28044 12.1316 6.30156C12.1359 6.3086 12.1401 6.31584 12.1445 6.32288C12.1589 6.34622 12.1746 6.36855 12.1911 6.39068C12.1936 6.3941 12.196 6.39772 12.1986 6.40094C12.3248 6.5663 12.5007 6.69485 12.7134 6.75822C13.1706 6.89422 13.6455 6.68962 13.8752 6.29049C13.8756 6.28969 13.8762 6.28868 13.8768 6.28768C13.8905 6.26354 13.9032 6.23899 13.9151 6.21344C13.9188 6.2056 13.9224 6.19775 13.926 6.18991C13.9343 6.171 13.942 6.15168 13.9492 6.13197C13.9553 6.11608 13.9607 6.09998 13.9658 6.08369C13.9682 6.07624 13.9712 6.0692 13.9734 6.06176C13.9765 6.0513 14.2947 5.00158 15.1005 3.98605C16.1145 2.708 17.4239 2.06002 18.9922 2.06002C21.2625 2.06002 23.9688 3.06669 23.9688 7.86246C23.9688 9.78367 22.7318 12.2714 20.2923 15.2564C19.9344 15.6944 19.9943 16.3435 20.4262 16.7067C20.6156 16.866 20.8453 16.9436 21.0736 16.9436C21.3656 16.9436 21.6554 16.8167 21.8562 16.5709C24.6446 13.1592 26 10.3105 26 7.86246C26 5.27054 25.3091 3.2578 23.9463 1.88037Z" fill="currentColor"/>
</svg>
