<svg width="22" height="21" viewBox="0 0 22 21" fill="none" xmlns="http://www.w3.org/2000/svg">
<path d="M5.24789 2.9375C5.24789 4.14562 4.1999 5.125 2.90715 5.125C1.61439 5.125 0.566406 4.14562 0.566406 2.9375C0.566406 1.72938 1.61439 0.75 2.90715 0.75C4.1999 0.75 5.24789 1.72938 5.24789 2.9375Z" fill="#C8C2B2"/>
<path d="M5.35222 7H0.566406V20.75H5.35222V7Z" fill="#C8C2B2"/>
<path d="M18.3379 7.14597C18.3046 7.1357 18.2713 7.12541 18.2356 7.11625C18.1714 7.1025 18.1072 7.09125 18.0417 7.08125C17.7876 7.03375 17.5093 7 17.183 7C14.3928 7 12.6232 8.89625 12.04 9.62875V7H7.25423V20.75H12.04V13.25C12.04 13.25 15.6568 8.5425 17.183 12V20.75H21.9675V11.4712C21.9675 9.39375 20.444 7.6625 18.3881 7.16125C18.3712 7.15626 18.3545 7.1511 18.3379 7.14597Z" fill="#C8C2B2"/>
</svg>
