<svg width="20" height="20" viewBox="0 0 20 20" fill="none" xmlns="http://www.w3.org/2000/svg">
<path d="M13.75 0H6.25C2.79875 0 0 2.79875 0 6.25V13.75C0 17.2013 2.79875 20 6.25 20H13.75C17.2013 20 20 17.2013 20 13.75V6.25C20 2.79875 17.2013 0 13.75 0ZM18.125 13.75C18.125 16.1625 16.1625 18.125 13.75 18.125H6.25C3.8375 18.125 1.875 16.1625 1.875 13.75V6.25C1.875 3.8375 3.8375 1.875 6.25 1.875H13.75C16.1625 1.875 18.125 3.8375 18.125 6.25V13.75Z" fill="currentColor"/>
<path d="M9.99994 5C7.23869 5 4.99994 7.23875 4.99994 10C4.99994 12.7613 7.23869 15 9.99994 15C12.7612 15 14.9999 12.7613 14.9999 10C14.9999 7.23875 12.7612 5 9.99994 5ZM9.99994 13.125C8.27744 13.125 6.87494 11.7225 6.87494 10C6.87494 8.27625 8.27744 6.875 9.99994 6.875C11.7224 6.875 13.1249 8.27625 13.1249 10C13.1249 11.7225 11.7224 13.125 9.99994 13.125Z" fill="currentColor"/>
<path d="M15.375 5.29148C15.743 5.29148 16.0412 4.99319 16.0412 4.62523C16.0412 4.25727 15.743 3.95898 15.375 3.95898C15.007 3.95898 14.7087 4.25727 14.7087 4.62523C14.7087 4.99319 15.007 5.29148 15.375 5.29148Z" fill="#3205F3"/>
</svg>
