<svg width="698" height="223" viewBox="0 0 698 223" fill="none" xmlns="http://www.w3.org/2000/svg">
<path d="M0 2.25922H46.8132V173.301H111.06V220.418H0V2.25922Z" fill="#E8E7E3" fill-opacity="0.35"/>
<path d="M147.542 2.25922H270.225V45.5038H194.356V89.3938H270.225V131.993H194.356V177.174H270.225V220.418H147.542V2.25922Z" fill="#E8E7E3" fill-opacity="0.35"/>
<path d="M308.32 2.25922H454.894V48.4083H404.852V220.096H357.716V48.731H308.32V2.25922Z" fill="#E8E7E3" fill-opacity="0.35"/>
<path d="M478.462 111.339C478.462 79.0666 489.116 52.6035 510.425 31.6266C531.733 10.3271 556.915 0 586.294 0C618.579 0 645.376 10.6498 666.361 31.6266C687.346 52.6035 698 79.3893 698 111.661C698 143.611 687.669 170.074 666.684 191.373C645.698 212.673 619.548 223 587.586 223C555.946 223 529.796 212.35 509.133 191.373C488.794 170.397 478.462 143.611 478.462 111.339ZM588.554 43.5673C570.152 43.2446 555.623 49.699 544.324 62.6078C533.024 75.5166 527.536 92.2981 527.536 112.63C527.536 131.993 533.347 148.129 544.647 160.715C555.946 173.301 570.475 179.755 587.908 179.755C606.311 179.755 620.839 173.624 632.139 161.038C643.438 148.452 648.927 131.993 648.927 111.339C648.927 91.0072 643.438 74.8712 632.462 62.6078C621.485 50.0217 606.634 43.89 588.554 43.5673Z" fill="#E8E7E3" fill-opacity="0.35"/>
</svg>
