<svg width="300" height="96" viewBox="0 0 300 96" fill="none" xmlns="http://www.w3.org/2000/svg">
<path d="M0 0.972577H20.1203V74.605H47.7336V94.8887H0V0.972577Z" fill="#E8E7E3" fill-opacity="0.35"/>
<path d="M63.4136 0.972577H116.143V19.5891H83.5339V38.4834H116.143V56.8221H83.5339V76.2721H116.143V94.8887H63.4136V0.972577Z" fill="#E8E7E3" fill-opacity="0.35"/>
<path d="M132.516 0.972577H195.513V20.8394H174.005V94.7497H153.746V20.9784H132.516V0.972577Z" fill="#E8E7E3" fill-opacity="0.35"/>
<path d="M205.643 47.9305C205.643 34.0376 210.222 22.6454 219.38 13.6151C228.538 4.44573 239.362 0 251.989 0C265.865 0 277.382 4.58466 286.401 13.6151C295.421 22.6454 300 34.1766 300 48.0695C300 61.8234 295.56 73.2156 286.54 82.385C277.521 91.5543 266.281 96 252.544 96C238.945 96 227.706 91.4153 218.825 82.385C210.083 73.3546 205.643 61.8234 205.643 47.9305ZM252.96 18.7554C245.051 18.6165 238.807 21.3951 233.95 26.9522C229.093 32.5094 226.734 39.7337 226.734 48.4863C226.734 56.822 229.232 63.7685 234.089 69.1867C238.945 74.6049 245.19 77.3835 252.683 77.3835C260.592 77.3835 266.836 74.7439 271.693 69.3256C276.549 63.9074 278.908 56.822 278.908 47.9305C278.908 39.178 276.549 32.2316 271.832 26.9522C267.114 21.534 260.731 18.8944 252.96 18.7554Z" fill="#E8E7E3" fill-opacity="0.35"/>
</svg>
