<svg width="1181" height="376" viewBox="0 0 1181 376" fill="none" xmlns="http://www.w3.org/2000/svg">
<path d="M0 3.80926H79.2068V292.203H187.911V371.647H0V3.80926Z" fill="#E8E7E3" fill-opacity="0.35"/>
<path d="M249.638 3.80926H457.215V76.7239H328.845V150.727H457.215V222.553H328.845V298.733H457.215V371.647H249.638V3.80926Z" fill="#E8E7E3" fill-opacity="0.35"/>
<path d="M521.671 3.80926H769.67V81.6211H685.001V371.103H605.248V82.1653H521.671V3.80926Z" fill="#E8E7E3" fill-opacity="0.35"/>
<path d="M809.547 187.728C809.547 133.314 827.574 88.6946 863.627 53.3256C899.679 17.4125 942.287 0 991.996 0C1046.62 0 1091.96 17.9566 1127.47 53.3256C1162.97 88.6946 1181 133.858 1181 188.272C1181 242.142 1163.52 286.761 1128.01 322.674C1092.51 358.588 1048.26 376 994.181 376C940.648 376 896.402 358.043 861.442 322.674C827.028 287.305 809.547 242.142 809.547 187.728ZM995.82 73.4588C964.683 72.9146 940.102 83.7974 920.983 105.563C901.864 127.329 892.578 155.624 892.578 189.904C892.578 222.553 902.411 249.76 921.53 270.981C940.648 292.203 965.23 303.085 994.728 303.085C1025.86 303.085 1050.45 292.747 1069.56 271.525C1088.68 250.304 1097.97 222.553 1097.97 187.728C1097.97 153.447 1088.68 126.24 1070.11 105.563C1051.54 84.3415 1026.41 74.0029 995.82 73.4588Z" fill="#E8E7E3" fill-opacity="0.35"/>
</svg>
