<svg width="202" height="60" viewBox="0 0 202 60" fill="none" xmlns="http://www.w3.org/2000/svg">
<path fill-rule="evenodd" clip-rule="evenodd" d="M37.1875 43.7353H12.225C9.34476 43.7353 7.04053 41.4301 7.04053 38.5486V28.175C7.68059 28.8154 8.25665 29.4557 8.89671 30.096V38.5486C8.89671 40.3415 10.3689 41.8783 12.225 41.8783H29.1867C31.811 42.6467 34.4353 43.2871 37.1875 43.7353ZM12.2891 0.448242H45.1883C48.0686 0.448242 50.3729 2.75347 50.3729 5.63501V35.2188C49.7328 35.4109 49.0927 35.603 48.5167 35.8591V5.63501C48.5167 3.84205 47.0445 2.30523 45.1883 2.30523H12.2891C10.4329 2.36927 8.96072 3.84205 8.96072 5.63501V11.0779H8.89671H8.7687H8.70469H8.64069V5.63501C7.04053 2.81751 9.40876 0.448242 12.2891 0.448242Z" fill="white"/>
<path fill-rule="evenodd" clip-rule="evenodd" d="M37.8918 42.3271C18.8179 39.3175 6.84868 28.6238 0 15.5609C18.8819 18.5705 28.9309 29.3282 37.8918 42.3271ZM27.9068 17.8021C36.4836 23.5651 41.3481 32.8501 41.6682 42.4552L41.6042 42.2631C33.5394 28.4317 17.0257 16.0091 0.192019 14.4083C9.08891 11.2066 19.3939 12.103 27.9068 17.8021Z" fill="white"/>
<path fill-rule="evenodd" clip-rule="evenodd" d="M32.1311 10.8227C31.427 13.2559 31.043 15.6892 30.979 18.1225C37.6357 23.4374 41.9241 31.1855 42.9482 39.638C46.8526 27.9198 43.3322 14.6647 33.7313 6.4043C33.0912 7.81305 32.5792 9.28583 32.1311 10.8227Z" fill="white"/>
<path fill-rule="evenodd" clip-rule="evenodd" d="M55.3658 38.0366C52.3575 42.3269 47.237 44.2479 42.4365 43.4154C44.9968 38.2287 50.6933 35.2831 56.3899 36.3076C56.0699 36.884 55.7499 37.4603 55.3658 38.0366Z" fill="white"/>
<path d="M63.0464 0.448273H72.3273V34.3864H85.0646V43.7354H63.0464V0.448273Z" fill="white"/>
<path d="M92.2974 0.448273H116.62V9.02885H101.578V17.7375H116.62V26.19H101.578V35.1548H116.62V43.7354H92.2974V0.448273Z" fill="white"/>
<path d="M124.172 0.448273H153.231V9.60515H143.31V43.6713H133.965V9.66919H124.172V0.448273Z" fill="white"/>
<path d="M157.904 22.0918C157.904 15.6884 160.016 10.4376 164.24 6.27535C168.465 2.04909 173.457 0 179.282 0C185.683 0 190.995 2.11313 195.156 6.27535C199.316 10.4376 201.428 15.7524 201.428 22.1558C201.428 28.4952 199.38 33.746 195.22 37.9722C191.059 42.1985 185.875 44.2476 179.538 44.2476C173.265 44.2476 168.081 42.1345 163.984 37.9722C159.952 33.81 157.904 28.4952 157.904 22.0918ZM179.73 8.64461C176.082 8.58057 173.201 9.86126 170.961 12.4226C168.721 14.984 167.633 18.3138 167.633 22.3479C167.633 26.19 168.785 29.3917 171.025 31.889C173.265 34.3863 176.146 35.667 179.602 35.667C183.25 35.667 186.131 34.4504 188.371 31.953C190.611 29.4557 191.699 26.19 191.699 22.0918C191.699 18.0576 190.611 14.8559 188.435 12.4226C186.259 9.92529 183.314 8.70864 179.73 8.64461Z" fill="white"/>
<path d="M7.87261 59.7445H7.04053V52.8289H8.96072C9.21674 52.8289 9.53678 52.8289 9.7288 52.8929C9.98482 52.9569 10.1768 52.9569 10.3689 53.085C10.7529 53.2131 11.0729 53.4692 11.329 53.7253C11.521 54.0455 11.649 54.3657 11.649 54.8139C11.649 55.1981 11.585 55.4543 11.457 55.7744C11.329 56.0306 11.1369 56.2867 10.8169 56.4148C10.5609 56.6069 10.2408 56.7349 9.85681 56.799C9.47277 56.863 9.02473 56.927 8.57668 56.927C8.32066 56.927 8.12864 56.927 7.87261 56.927V59.7445ZM7.87261 56.1586C8.00062 56.1586 8.12864 56.1586 8.25665 56.1586C8.38466 56.1586 8.51267 56.1586 8.64069 56.1586C9.02473 56.1586 9.34476 56.1586 9.66479 56.0946C9.92081 56.0306 10.1768 55.9665 10.3689 55.8385C10.5609 55.7104 10.6889 55.5823 10.7529 55.3902C10.8169 55.1981 10.8809 55.006 10.8809 54.8139C10.8809 54.5578 10.8169 54.3016 10.6889 54.1736C10.5609 53.9815 10.3689 53.8534 10.1128 53.7894C9.98482 53.7253 9.7928 53.7253 9.60078 53.6613C9.40876 53.5973 9.15274 53.5973 8.89671 53.5973H7.87261V56.1586Z" fill="white"/>
<path d="M17.9214 56.863V59.7445H17.0894V52.8289H18.8815C19.2016 52.8289 19.4576 52.8289 19.6496 52.8929C19.8416 52.9569 20.0336 52.9569 20.2257 53.021C20.7377 53.149 21.0578 53.4052 21.3138 53.6613C21.5698 53.9815 21.6978 54.3657 21.6978 54.8139C21.6978 55.0701 21.6338 55.3262 21.5698 55.5823C21.5058 55.7744 21.3778 55.9665 21.1858 56.1586C20.9937 56.3507 20.8017 56.4788 20.6097 56.5428C20.4177 56.6069 20.1617 56.7349 19.8416 56.799L21.8898 59.7445H21.1218L19.0095 56.863H17.9214ZM17.9214 53.5973V56.1586H18.7535C19.0095 56.1586 19.2656 56.1586 19.3936 56.1586C19.5856 56.1586 19.7136 56.0946 19.9056 56.0946C20.2257 56.0306 20.4177 55.8385 20.6097 55.6464C20.7377 55.4543 20.8657 55.1981 20.8657 54.8779C20.8657 54.5578 20.8017 54.3657 20.6097 54.1736C20.4817 53.9815 20.2257 53.8534 19.9696 53.7894C19.8416 53.7253 19.7136 53.7253 19.5216 53.7253C19.3296 53.7253 19.1376 53.7253 18.8815 53.7253H17.9214V53.5973Z" fill="white"/>
<path d="M33.6033 56.2867C33.6033 56.7989 33.5393 57.3112 33.3473 57.7594C33.2193 58.2077 32.9633 58.5919 32.7072 58.9121C32.4512 59.2322 32.0672 59.4884 31.6831 59.6805C31.2991 59.8726 30.851 59.9366 30.339 59.9366C29.8269 59.9366 29.3789 59.8726 28.9949 59.6805C28.6108 59.4884 28.2268 59.2322 27.9708 58.9121C27.7147 58.5919 27.4587 58.2077 27.3307 57.7594C27.2027 57.3112 27.1387 56.863 27.1387 56.2867C27.1387 55.7744 27.2027 55.2621 27.3947 54.8139C27.5227 54.3656 27.7787 53.9814 28.0348 53.6613C28.2908 53.3411 28.6748 53.085 29.0589 52.8929C29.4429 52.7008 29.8909 52.6367 30.403 52.6367C30.915 52.6367 31.3631 52.7008 31.7471 52.8929C32.1312 53.085 32.5152 53.3411 32.7712 53.6613C33.0273 53.9814 33.2833 54.3656 33.4113 54.8139C33.5393 55.2621 33.6033 55.7744 33.6033 56.2867ZM32.7712 56.2867C32.7712 55.8384 32.7072 55.3902 32.5792 55.07C32.4512 54.7498 32.2592 54.4297 32.0672 54.1735C31.8751 53.9174 31.6191 53.7253 31.2991 53.6613C30.9791 53.5332 30.723 53.4692 30.339 53.4692C29.955 53.4692 29.6989 53.5332 29.3789 53.6613C29.0589 53.7893 28.8028 53.9814 28.6108 54.1735C28.4188 54.4297 28.2908 54.6858 28.1628 55.07C28.0348 55.4542 27.9708 55.8384 27.9708 56.2867C27.9708 56.7349 28.0348 57.1831 28.1628 57.5033C28.2908 57.8875 28.4828 58.1437 28.6748 58.3998C28.8668 58.6559 29.1229 58.848 29.4429 58.9121C29.7629 59.0401 30.019 59.1042 30.403 59.1042C30.723 59.1042 31.0431 59.0401 31.3631 58.9121C31.6831 58.784 31.8751 58.5919 32.1312 58.3998C32.3232 58.1437 32.5152 57.8875 32.6432 57.5033C32.7072 57.1831 32.7712 56.7989 32.7712 56.2867Z" fill="white"/>
<path d="M40.0044 59.7445H39.1724V52.8289H43.3328V53.5973H40.0685V55.8385H42.8847V56.6069H39.9404V59.7445H40.0044Z" fill="white"/>
<path d="M49.3487 58.9761H52.933V59.7445H48.5166V52.8289H52.741V53.5973H49.3487V55.8385H52.357V56.6069H49.3487V58.9761Z" fill="white"/>
<path d="M59.0133 54.6859C59.0133 54.878 59.0773 55.0701 59.1413 55.1981C59.2053 55.3262 59.3333 55.4543 59.4613 55.5183C59.5893 55.5823 59.7813 55.6464 59.9734 55.7104C60.1654 55.7744 60.3574 55.8385 60.5494 55.8385C60.8055 55.9025 61.0615 55.9665 61.3175 56.0306C61.5735 56.0946 61.8296 56.2227 62.0216 56.3507C62.2136 56.4788 62.4056 56.6709 62.5336 56.9271C62.6616 57.1832 62.7256 57.4393 62.7256 57.8235C62.7256 58.2077 62.6616 58.4639 62.5336 58.784C62.4056 59.0402 62.2136 59.2323 61.9576 59.4244C61.7015 59.6165 61.4455 59.7446 61.1255 59.8086C60.8055 59.8726 60.4214 59.9367 60.0374 59.9367C59.8454 59.9367 59.6533 59.9367 59.4613 59.8726C59.2693 59.8086 59.0773 59.8086 58.9493 59.8086C58.7572 59.7446 58.6292 59.7446 58.5012 59.6805C58.3732 59.6165 58.2452 59.5525 58.1172 59.4884V58.72C58.2452 58.784 58.3732 58.8481 58.5652 58.9121C58.6932 58.9761 58.8853 58.9761 59.0773 59.0402C59.2693 59.1042 59.3973 59.1042 59.5893 59.1042C59.7814 59.1042 59.9094 59.1042 60.0374 59.1042C60.2934 59.1042 60.4854 59.1042 60.7414 59.0402C60.9335 58.9761 61.1255 58.9121 61.3175 58.8481C61.5095 58.784 61.6375 58.5919 61.7015 58.4639C61.8296 58.2718 61.8296 58.0797 61.8296 57.8235C61.8296 57.6314 61.7656 57.4393 61.7015 57.3113C61.6375 57.1832 61.5095 57.0551 61.3815 56.9911C61.2535 56.9271 61.0615 56.863 60.8695 56.799C60.6774 56.7349 60.4854 56.6709 60.2934 56.6709C60.0374 56.6069 59.7814 56.5428 59.5253 56.4788C59.2693 56.4148 59.0133 56.2867 58.8213 56.1586C58.6292 56.0306 58.4372 55.8385 58.3092 55.6464C58.1812 55.4543 58.1172 55.1341 58.1172 54.8139C58.1172 54.4297 58.1812 54.1736 58.3092 53.9174C58.4372 53.6613 58.6292 53.4692 58.8213 53.2771C59.0133 53.085 59.2693 52.9569 59.5893 52.8929C59.8454 52.8289 60.1654 52.7648 60.4854 52.7648C60.8695 52.7648 61.1895 52.8289 61.5095 52.8929C61.8296 52.9569 62.1496 53.085 62.4056 53.149V53.9174C62.1496 53.7894 61.8296 53.7253 61.5095 53.5973C61.1895 53.5332 60.8695 53.4692 60.5494 53.4692C60.2934 53.4692 60.0374 53.4692 59.8454 53.5332C59.6533 53.5973 59.4613 53.6613 59.3333 53.7894C59.2053 53.9174 59.1413 54.0455 59.0773 54.1736C59.0133 54.3016 59.0133 54.4938 59.0133 54.6859Z" fill="white"/>
<path d="M68.8711 54.6858C68.8711 54.878 68.9352 55.0701 68.9992 55.1981C69.0632 55.3262 69.1912 55.4543 69.3192 55.5183C69.4472 55.5823 69.6392 55.6464 69.8312 55.7104C70.0233 55.7744 70.2153 55.8385 70.4073 55.8385C70.6633 55.9025 70.9193 55.9665 71.1754 56.0306C71.4314 56.0946 71.6874 56.2227 71.8794 56.3507C72.0715 56.4788 72.2635 56.6709 72.3915 56.927C72.5195 57.1832 72.5835 57.4393 72.5835 57.8235C72.5835 58.2077 72.5195 58.4639 72.3915 58.784C72.2635 59.0402 72.0715 59.2323 71.8154 59.4244C71.5594 59.6165 71.3034 59.7445 70.9834 59.8086C70.6633 59.8726 70.2793 59.9366 69.8952 59.9366C69.7032 59.9366 69.5112 59.9366 69.3192 59.8726C69.1272 59.8086 68.9352 59.8086 68.8071 59.8086C68.6151 59.7445 68.4871 59.7445 68.3591 59.6805C68.2311 59.6165 68.1031 59.5524 68.0391 59.5524V58.784C68.1671 58.8481 68.2951 58.9121 68.4871 58.9761C68.6151 59.0402 68.8071 59.0402 68.9992 59.1042C69.1912 59.1682 69.3192 59.1682 69.5112 59.1682C69.7032 59.1682 69.8312 59.1682 69.9593 59.1682C70.2153 59.1682 70.4073 59.1682 70.6633 59.1042C70.8553 59.0402 71.0474 58.9761 71.2394 58.9121C71.4314 58.8481 71.5594 58.656 71.6234 58.5279C71.7514 58.3358 71.7514 58.1437 71.7514 57.8876C71.7514 57.6955 71.6874 57.5033 71.6234 57.3753C71.5594 57.2472 71.4314 57.1191 71.3034 57.0551C71.1754 56.9911 70.9834 56.927 70.7913 56.863C70.5993 56.799 70.4073 56.7349 70.2153 56.7349C69.9592 56.6709 69.7032 56.6069 69.4472 56.5428C69.1912 56.4788 68.9352 56.3507 68.7431 56.2227C68.5511 56.0946 68.3591 55.9025 68.2311 55.7104C68.1031 55.5183 68.0391 55.1981 68.0391 54.8779C68.0391 54.4937 68.1031 54.2376 68.2311 53.9815C68.3591 53.7253 68.5511 53.5332 68.7431 53.3411C68.9352 53.149 69.1912 53.021 69.5112 52.9569C69.7672 52.8929 70.0873 52.8289 70.4073 52.8289C70.7913 52.8289 71.1114 52.8929 71.4314 52.9569C71.7514 53.021 72.0715 53.149 72.3275 53.2131V53.9815C72.0715 53.8534 71.7514 53.7894 71.4314 53.6613C71.1114 53.5973 70.7913 53.5332 70.4713 53.5332C70.2153 53.5332 69.9593 53.5332 69.7672 53.5973C69.5752 53.6613 69.3832 53.7253 69.2552 53.8534C69.1272 53.9815 69.0632 54.1095 68.9992 54.2376C68.9352 54.3657 68.8711 54.4937 68.8711 54.6858Z" fill="white"/>
<path d="M78.0884 59.7445V52.8289H78.9205V59.7445H78.0884Z" fill="white"/>
<path d="M90.889 56.2867C90.889 56.7989 90.825 57.3112 90.6329 57.7594C90.5049 58.2077 90.2489 58.5919 89.9929 58.9121C89.7368 59.2322 89.3528 59.4884 88.9688 59.6805C88.5847 59.8726 88.1367 59.9366 87.6246 59.9366C87.1126 59.9366 86.6645 59.8726 86.2805 59.6805C85.8965 59.4884 85.5124 59.2322 85.2564 58.9121C85.0004 58.5919 84.7443 58.2077 84.6163 57.7594C84.4883 57.3112 84.4243 56.863 84.4243 56.2867C84.4243 55.7744 84.4883 55.2621 84.6803 54.8139C84.8084 54.3656 85.0644 53.9814 85.3204 53.6613C85.5764 53.3411 85.9605 53.085 86.3445 52.8929C86.7285 52.7008 87.1766 52.6367 87.6886 52.6367C88.2007 52.6367 88.6487 52.7008 89.0328 52.8929C89.4168 53.085 89.8008 53.3411 90.0569 53.6613C90.3129 53.9814 90.5689 54.3656 90.6969 54.8139C90.825 55.2621 90.889 55.7744 90.889 56.2867ZM90.0569 56.2867C90.0569 55.8384 89.9929 55.3902 89.8649 55.07C89.7368 54.7498 89.5448 54.4297 89.3528 54.1735C89.1608 53.9174 88.9048 53.7253 88.5847 53.6613C88.2647 53.5332 88.0087 53.4692 87.6246 53.4692C87.2406 53.4692 86.9846 53.5332 86.6645 53.6613C86.3445 53.7893 86.0885 53.9814 85.8965 54.1735C85.7044 54.4297 85.5124 54.6858 85.3844 55.07C85.2564 55.4542 85.1924 55.8384 85.1924 56.2867C85.1924 56.7349 85.2564 57.1831 85.3844 57.5033C85.5124 57.8875 85.7044 58.1437 85.8965 58.3998C86.0885 58.6559 86.3445 58.848 86.6645 58.9121C86.9846 59.0401 87.2406 59.1042 87.6246 59.1042C87.9447 59.1042 88.2647 59.0401 88.5847 58.9121C88.9048 58.784 89.0968 58.5919 89.3528 58.3998C89.5448 58.1437 89.7368 57.8875 89.8649 57.5033C89.9929 57.1831 90.0569 56.7989 90.0569 56.2867Z" fill="white"/>
<path d="M100.042 56.6709C100.49 57.3113 100.874 57.8876 101.322 58.5279C101.258 57.8235 101.258 57.1832 101.258 56.4788V52.7648H102.09V59.6805H101.258L98.5057 55.8385C98.0577 55.1341 97.6096 54.5578 97.2256 53.9815C97.2896 54.6218 97.2896 55.3262 97.2896 56.2227V59.7446H96.4575V52.8289H97.2896L100.042 56.6709Z" fill="white"/>
<path d="M107.147 59.7445L109.963 52.8289H110.667L113.484 59.7445H112.588L111.755 57.6314H108.875L108.043 59.7445H107.147ZM110.347 53.9174C110.027 54.7499 109.771 55.5823 109.451 56.2867L109.195 56.927H111.499L111.243 56.2867C110.923 55.5183 110.667 54.7499 110.347 53.9174Z" fill="white"/>
<path d="M119.436 52.8289V58.9761H122.828V59.7445H118.604V52.8289H119.436Z" fill="white"/>
<path d="M136.205 56.1586C136.205 56.6709 136.141 57.1191 135.949 57.5034C135.757 57.8876 135.565 58.2718 135.309 58.5919C135.437 58.72 135.629 58.9121 135.757 59.0402C135.885 59.1682 136.013 59.2963 136.077 59.4244C136.205 59.5524 136.269 59.6165 136.333 59.6805C136.397 59.7445 136.461 59.8086 136.461 59.8086H135.437C135.437 59.8086 135.373 59.7445 135.245 59.6165C135.117 59.4884 134.989 59.3603 134.797 59.1682C134.477 59.4244 134.093 59.6165 133.709 59.7445C133.325 59.8726 132.941 59.9366 132.557 59.9366C132.173 59.9366 131.853 59.8726 131.597 59.8086C131.341 59.6805 131.085 59.5524 130.957 59.4244C130.765 59.2323 130.637 59.0402 130.573 58.8481C130.509 58.656 130.445 58.3998 130.445 58.2077C130.445 57.9516 130.509 57.6955 130.573 57.5034C130.637 57.3112 130.765 57.1191 130.893 56.9911C131.021 56.863 131.149 56.6709 131.341 56.5428C131.533 56.4148 131.725 56.2867 131.853 56.2227C131.725 56.0946 131.597 55.9665 131.469 55.8385C131.341 55.7104 131.213 55.5823 131.149 55.4543C131.085 55.3262 130.957 55.1341 130.957 55.006C130.893 54.878 130.893 54.6858 130.893 54.4937C130.893 54.2376 130.957 53.9815 131.021 53.7894C131.085 53.5973 131.213 53.4052 131.405 53.2771C131.597 53.149 131.789 53.021 131.981 52.9569C132.237 52.8929 132.493 52.8289 132.749 52.8289C133.005 52.8289 133.261 52.8929 133.453 52.9569C133.645 53.021 133.901 53.149 134.029 53.2771C134.221 53.4052 134.349 53.5973 134.413 53.7253C134.541 53.9174 134.541 54.1095 134.541 54.3657C134.541 54.6218 134.477 54.878 134.413 55.0701C134.349 55.2622 134.221 55.4543 134.029 55.5823C133.901 55.7104 133.709 55.9025 133.517 56.0306C133.325 56.1586 133.133 56.2867 132.941 56.3507C133.069 56.4788 133.197 56.6069 133.325 56.7349C133.453 56.863 133.645 57.0551 133.773 57.1832C133.901 57.3112 134.093 57.5033 134.285 57.6955C134.477 57.8876 134.605 58.0156 134.797 58.2077C134.989 57.9516 135.117 57.6955 135.245 57.3753C135.373 57.0551 135.437 56.6709 135.437 56.2867H136.205V56.1586ZM132.493 59.2323C132.621 59.2323 132.749 59.2323 132.877 59.1682C133.005 59.1042 133.197 59.1042 133.325 59.0402C133.453 58.9761 133.645 58.9121 133.773 58.8481C133.901 58.784 134.093 58.656 134.221 58.5919C134.029 58.3998 133.901 58.2718 133.709 58.0797C133.517 57.8876 133.325 57.6955 133.197 57.5674C133.005 57.3753 132.877 57.2472 132.685 57.0551C132.557 56.863 132.365 56.7349 132.237 56.6069C132.109 56.6709 131.917 56.799 131.789 56.863C131.661 56.9911 131.533 57.0551 131.469 57.1832C131.341 57.3112 131.277 57.4393 131.213 57.5674C131.149 57.6955 131.149 57.8876 131.149 58.0156C131.149 58.1437 131.149 58.3358 131.213 58.4639C131.277 58.5919 131.341 58.72 131.469 58.8481C131.597 58.9761 131.725 59.0402 131.853 59.1042C131.981 59.1682 132.237 59.2323 132.493 59.2323ZM131.597 54.3016C131.597 54.4297 131.597 54.5578 131.661 54.6858C131.725 54.8139 131.725 54.942 131.853 55.006C131.981 55.0701 132.045 55.1981 132.109 55.3262C132.237 55.4543 132.365 55.5823 132.493 55.7104C132.685 55.6464 132.813 55.5183 132.941 55.4543C133.069 55.3902 133.197 55.2622 133.325 55.1341C133.453 55.006 133.517 54.8779 133.581 54.7499C133.645 54.6218 133.709 54.4297 133.709 54.3016C133.709 54.1095 133.709 53.9815 133.645 53.9174C133.581 53.7894 133.517 53.7253 133.453 53.6613C133.389 53.5973 133.261 53.5332 133.133 53.4692C133.005 53.4052 132.877 53.4052 132.685 53.4052C132.365 53.4052 132.109 53.4692 131.917 53.6613C131.725 53.7894 131.597 53.9815 131.597 54.3016Z" fill="white"/>
<path d="M147.727 56.1586C147.919 56.1586 148.111 56.2227 148.303 56.3507C148.495 56.4788 148.623 56.5428 148.751 56.6709C148.879 56.799 148.943 56.927 149.007 57.1191C149.071 57.3112 149.135 57.5033 149.135 57.7595C149.135 57.9516 149.135 58.0797 149.071 58.2718C149.007 58.4639 148.943 58.5919 148.815 58.784C148.687 58.9761 148.559 59.1042 148.367 59.2323C148.175 59.3603 147.983 59.4884 147.727 59.5524C147.535 59.6165 147.279 59.6805 147.023 59.6805C146.767 59.6805 146.447 59.7445 146.127 59.7445H144.334V52.8289H146.063C146.191 52.8289 146.383 52.8289 146.511 52.8289C146.639 52.8289 146.767 52.8289 146.895 52.8289C147.023 52.8289 147.087 52.8289 147.215 52.8929C147.343 52.9569 147.407 52.9569 147.471 52.9569C147.663 53.021 147.855 53.085 148.047 53.2131C148.239 53.3411 148.367 53.4052 148.495 53.5973C148.623 53.7253 148.687 53.9174 148.751 54.1095C148.815 54.3016 148.879 54.4937 148.879 54.6858C148.879 54.878 148.879 55.006 148.815 55.1981C148.751 55.3262 148.687 55.5183 148.623 55.6464C148.559 55.7744 148.431 55.9025 148.303 56.0306C148.111 56.0306 147.983 56.0946 147.727 56.1586ZM146.511 55.8385C146.703 55.8385 146.831 55.8385 146.959 55.8385C147.087 55.8385 147.215 55.7744 147.279 55.7744C147.535 55.7104 147.727 55.5823 147.855 55.3902C147.983 55.1981 148.047 55.006 148.047 54.7499C148.047 54.4937 147.983 54.3016 147.855 54.1095C147.727 53.9174 147.535 53.8534 147.279 53.7253C147.151 53.6613 147.023 53.6613 146.831 53.6613C146.639 53.6613 146.447 53.6613 146.191 53.6613H145.231V55.9025H146.511V55.8385ZM145.231 59.0402H146.255C146.511 59.0402 146.703 59.0402 146.959 58.9761C147.151 58.9761 147.343 58.9121 147.471 58.8481C147.599 58.784 147.791 58.72 147.855 58.656C147.983 58.5919 148.047 58.4639 148.111 58.3998C148.175 58.2718 148.239 58.2077 148.239 58.0797C148.239 57.9516 148.303 57.8876 148.303 57.7595C148.303 57.6314 148.303 57.5033 148.239 57.3753C148.239 57.2472 148.175 57.1832 148.111 57.0551C148.047 56.9911 147.919 56.863 147.855 56.799C147.727 56.7349 147.599 56.6709 147.407 56.6069C147.279 56.6069 147.215 56.5428 147.023 56.5428C146.895 56.5428 146.703 56.5428 146.511 56.5428H145.231V59.0402Z" fill="white"/>
<path d="M155.535 58.9761H159.12V59.7445H154.703V52.8289H158.928V53.5973H155.535V55.8385H158.544V56.6069H155.535V58.9761Z" fill="white"/>
<path d="M163.856 59.7445L166.673 52.8289H167.377L170.193 59.7445H169.297L168.465 57.6314H165.585L164.753 59.7445H163.856ZM167.057 53.9174C166.737 54.7499 166.481 55.5823 166.161 56.2867L165.905 56.927H168.209L167.953 56.2867C167.633 55.5183 167.313 54.7499 167.057 53.9174Z" fill="white"/>
<path d="M178.002 59.1683C178.258 59.1683 178.45 59.1683 178.642 59.1043C178.834 59.0402 179.026 58.9762 179.154 58.8481C179.282 58.7201 179.41 58.592 179.538 58.4639C179.666 58.3358 179.73 58.1437 179.73 57.9516C179.794 57.8236 179.794 57.6955 179.794 57.5674C179.794 57.4394 179.794 57.3113 179.794 57.1832V52.8929H180.626V57.1832C180.626 57.3753 180.626 57.5034 180.626 57.6955C180.626 57.8876 180.562 58.0157 180.562 58.2078C180.498 58.4639 180.37 58.7201 180.242 58.9122C180.114 59.1043 179.922 59.2964 179.73 59.4885C179.538 59.6165 179.282 59.7446 178.962 59.8727C178.642 59.9367 178.322 60.0007 177.938 60.0007C177.554 60.0007 177.234 59.9367 176.914 59.8727C176.658 59.8086 176.402 59.6806 176.146 59.5525C175.954 59.4244 175.762 59.2323 175.634 59.0402C175.506 58.8481 175.378 58.592 175.314 58.3999C175.25 58.2078 175.25 58.0157 175.186 57.8236C175.122 57.6315 175.122 57.4394 175.122 57.2473V52.957H175.954V57.2473C175.954 57.3753 175.954 57.5674 176.018 57.6955C176.018 57.8876 176.082 58.0157 176.146 58.1437C176.274 58.4639 176.466 58.7201 176.722 58.9122C177.17 59.0402 177.49 59.1683 178.002 59.1683Z" fill="white"/>
<path d="M188.05 59.7445V53.5973H185.746V52.8289H191.251V53.5973H188.946V59.7445H188.05Z" fill="white"/>
<path d="M198.996 56.9911V59.8086H198.164V56.9911L195.668 52.8289H196.564L198.548 56.2227L200.532 52.8289H201.429L198.996 56.9911Z" fill="white"/>
</svg>
