<svg width="175" height="61" viewBox="0 0 175 61" fill="none" xmlns="http://www.w3.org/2000/svg">
<path fill-rule="evenodd" clip-rule="evenodd" d="M32.2292 37.9039H10.5951C8.09881 37.9039 6.10181 35.9061 6.10181 33.4087V24.4184C6.65653 24.9733 7.15578 25.5283 7.7105 26.0832V33.4087C7.7105 34.9626 8.98636 36.2946 10.5951 36.2946H25.2952C27.5695 36.9605 29.8439 37.5155 32.2292 37.9039ZM10.6505 0.388489H39.1632C41.6595 0.388489 43.6565 2.38635 43.6565 4.88368V30.5229C43.1018 30.6894 42.547 30.8559 42.0478 31.0779V4.88368C42.0478 3.32979 40.7719 1.99788 39.1632 1.99788H10.6505C9.04183 2.05338 7.76597 3.32979 7.76597 4.88368V9.60086H7.7105H7.59956H7.54408H7.48861V4.88368C6.10181 2.44185 8.15428 0.388489 10.6505 0.388489Z" fill="#697F34"/>
<path fill-rule="evenodd" clip-rule="evenodd" d="M32.8395 36.6832C16.3088 34.0748 5.93552 24.807 0 13.4857C16.3643 16.0941 25.0734 25.4174 32.8395 36.6832ZM24.1859 15.4281C31.6192 20.4228 35.835 28.4697 36.1124 36.7942L36.0569 36.6277C29.0674 24.6405 14.7556 13.8742 0.166417 12.4868C7.87705 9.71199 16.8081 10.4889 24.1859 15.4281Z" fill="#697F34"/>
<path fill-rule="evenodd" clip-rule="evenodd" d="M27.847 9.37862C27.2368 11.4875 26.904 13.5963 26.8485 15.7052C32.6176 20.3114 36.3343 27.0264 37.2218 34.3519C40.6056 24.1961 37.5546 12.7084 29.2338 5.54938C28.6791 6.77029 28.2353 8.04671 27.847 9.37862Z" fill="#631C00"/>
<path fill-rule="evenodd" clip-rule="evenodd" d="M47.9837 32.9646C45.3765 36.6829 40.9387 38.3477 36.7783 37.6263C38.9972 33.1311 43.9342 30.5783 48.8713 31.4662C48.5939 31.9657 48.3165 32.4651 47.9837 32.9646Z" fill="#631C00"/>
<path d="M54.6401 0.388503H62.6836V29.8015H73.7226V37.904H54.6401V0.388503Z" fill="#697F34"/>
<path d="M79.991 0.388503H101.07V7.825H88.0344V15.3725H101.07V22.698H88.0344V30.4675H101.07V37.904H79.991V0.388503Z" fill="#697F34"/>
<path d="M107.616 0.388503H132.8V8.32446H124.202V37.8485H116.103V8.37996H107.616V0.388503Z" fill="#697F34"/>
<path d="M136.85 19.1462C136.85 13.5966 138.68 9.04589 142.342 5.43863C146.003 1.77588 150.33 0 155.378 0C160.925 0 165.529 1.83138 169.135 5.43863C172.74 9.04589 174.571 13.6521 174.571 19.2017C174.571 24.6958 172.796 29.2465 169.19 32.9093C165.584 36.572 161.091 38.3479 155.599 38.3479C150.163 38.3479 145.67 36.5165 142.12 32.9093C138.625 29.302 136.85 24.6958 136.85 19.1462ZM155.766 7.49199C152.604 7.4365 150.108 8.54642 148.166 10.7663C146.225 12.9861 145.282 15.8719 145.282 19.3682C145.282 22.698 146.28 25.4728 148.222 27.6371C150.163 29.8015 152.659 30.9114 155.655 30.9114C158.817 30.9114 161.313 29.857 163.255 27.6926C165.196 25.5283 166.139 22.698 166.139 19.1462C166.139 15.6499 165.196 12.8751 163.31 10.7663C161.424 8.60192 158.872 7.54749 155.766 7.49199Z" fill="#697F34"/>
<path d="M6.82282 60.778H6.10168V54.7844H7.76585C7.98774 54.7844 8.2651 54.7844 8.43152 54.8399C8.65341 54.8954 8.81982 54.8954 8.98624 55.0064C9.31907 55.1174 9.59643 55.3393 9.81832 55.5613C9.98474 55.8388 10.0957 56.1163 10.0957 56.5048C10.0957 56.8377 10.0402 57.0597 9.92927 57.3372C9.81832 57.5592 9.6519 57.7812 9.37454 57.8922C9.15266 58.0587 8.87529 58.1696 8.54246 58.2251C8.20963 58.2806 7.82132 58.3361 7.43302 58.3361C7.21113 58.3361 7.04471 58.3361 6.82282 58.3361V60.778ZM6.82282 57.6702C6.93377 57.6702 7.04471 57.6702 7.15566 57.6702C7.2666 57.6702 7.37754 57.6702 7.48849 57.6702C7.82132 57.6702 8.09868 57.6702 8.37604 57.6147C8.59793 57.5592 8.81982 57.5037 8.98624 57.3927C9.15266 57.2817 9.2636 57.1707 9.31907 57.0042C9.37454 56.8377 9.43002 56.6713 9.43002 56.5048C9.43002 56.2828 9.37454 56.0608 9.2636 55.9498C9.15266 55.7833 8.98624 55.6723 8.76435 55.6168C8.65341 55.5613 8.48699 55.5613 8.32057 55.5058C8.15416 55.4503 7.93227 55.4503 7.71038 55.4503H6.82282V57.6702Z" fill="#333333"/>
<path d="M15.5318 58.2806V60.778H14.8107V54.7844H16.3639C16.6412 54.7844 16.8631 54.7844 17.0296 54.8399C17.196 54.8954 17.3624 54.8954 17.5288 54.9509C17.9726 55.0619 18.2499 55.2838 18.4718 55.5058C18.6937 55.7833 18.8047 56.1163 18.8047 56.5048C18.8047 56.7267 18.7492 56.9487 18.6937 57.1707C18.6382 57.3372 18.5273 57.5037 18.3609 57.6702C18.1945 57.8367 18.0281 57.9477 17.8616 58.0032C17.6952 58.0587 17.4733 58.1696 17.196 58.2251L18.9711 60.778H18.3054L16.4748 58.2806H15.5318ZM15.5318 55.4503V57.6702H16.2529C16.4748 57.6702 16.6967 57.6702 16.8077 57.6702C16.9741 57.6702 17.085 57.6147 17.2514 57.6147C17.5288 57.5592 17.6952 57.3927 17.8616 57.2262C17.9726 57.0597 18.0835 56.8377 18.0835 56.5603C18.0835 56.2828 18.0281 56.1163 17.8616 55.9498C17.7507 55.7833 17.5288 55.6723 17.3069 55.6168C17.196 55.5613 17.085 55.5613 16.9186 55.5613C16.7522 55.5613 16.5858 55.5613 16.3639 55.5613H15.5318V55.4503Z" fill="#333333"/>
<path d="M29.1228 57.7811C29.1228 58.2251 29.0673 58.6691 28.9009 59.0576C28.7899 59.446 28.568 59.779 28.3462 60.0565C28.1243 60.334 27.7914 60.556 27.4586 60.7224C27.1258 60.8889 26.7375 60.9444 26.2937 60.9444C25.8499 60.9444 25.4616 60.8889 25.1288 60.7224C24.7959 60.556 24.4631 60.334 24.2412 60.0565C24.0193 59.779 23.7974 59.446 23.6865 59.0576C23.5755 58.6691 23.5201 58.2806 23.5201 57.7811C23.5201 57.3372 23.5755 56.8932 23.742 56.5047C23.8529 56.1163 24.0748 55.7833 24.2967 55.5058C24.5186 55.2283 24.8514 55.0063 25.1842 54.8398C25.5171 54.6734 25.9054 54.6179 26.3492 54.6179C26.7929 54.6179 27.1812 54.6734 27.5141 54.8398C27.8469 55.0063 28.1797 55.2283 28.4016 55.5058C28.6235 55.7833 28.8454 56.1163 28.9563 56.5047C29.0673 56.8932 29.1228 57.3372 29.1228 57.7811ZM28.4016 57.7811C28.4016 57.3927 28.3462 57.0042 28.2352 56.7267C28.1243 56.4492 27.9578 56.1718 27.7914 55.9498C27.625 55.7278 27.4031 55.5613 27.1258 55.5058C26.8484 55.3948 26.6265 55.3393 26.2937 55.3393C25.9608 55.3393 25.739 55.3948 25.4616 55.5058C25.1842 55.6168 24.9623 55.7833 24.7959 55.9498C24.6295 56.1718 24.5186 56.3937 24.4076 56.7267C24.2967 57.0597 24.2412 57.3927 24.2412 57.7811C24.2412 58.1696 24.2967 58.5581 24.4076 58.8356C24.5186 59.1686 24.685 59.3905 24.8514 59.6125C25.0178 59.8345 25.2397 60.001 25.5171 60.0565C25.7944 60.1675 26.0163 60.223 26.3492 60.223C26.6265 60.223 26.9039 60.1675 27.1812 60.0565C27.4586 59.9455 27.625 59.779 27.8469 59.6125C28.0133 59.3905 28.1797 59.1686 28.2907 58.8356C28.3462 58.5581 28.4016 58.2251 28.4016 57.7811Z" fill="#333333"/>
<path d="M34.6704 60.778H33.9493V54.7844H37.555V55.4503H34.7259V57.3927H37.1667V58.0587H34.6149V60.778H34.6704Z" fill="#333333"/>
<path d="M42.7687 60.112H45.8752V60.778H42.0476V54.7844H45.7088V55.4503H42.7687V57.3927H45.3759V58.0587H42.7687V60.112Z" fill="#333333"/>
<path d="M51.1447 56.3938C51.1447 56.5603 51.2002 56.7268 51.2557 56.8377C51.3111 56.9487 51.4221 57.0597 51.533 57.1152C51.644 57.1707 51.8104 57.2262 51.9768 57.2817C52.1432 57.3372 52.3096 57.3927 52.4761 57.3927C52.6979 57.4482 52.9198 57.5037 53.1417 57.5592C53.3636 57.6147 53.5855 57.7257 53.7519 57.8367C53.9183 57.9477 54.0847 58.1142 54.1957 58.3361C54.3066 58.5581 54.3621 58.7801 54.3621 59.1131C54.3621 59.4461 54.3066 59.6681 54.1957 59.9455C54.0847 60.1675 53.9183 60.334 53.6964 60.5005C53.4746 60.667 53.2527 60.778 52.9753 60.8335C52.6979 60.889 52.3651 60.9445 52.0323 60.9445C51.8659 60.9445 51.6994 60.9445 51.533 60.889C51.3666 60.8335 51.2002 60.8335 51.0892 60.8335C50.9228 60.778 50.8119 60.778 50.7009 60.7225C50.59 60.667 50.4791 60.6115 50.3681 60.556V59.89C50.4791 59.9455 50.59 60.001 50.7564 60.0565C50.8674 60.112 51.0338 60.112 51.2002 60.1675C51.3666 60.223 51.4776 60.223 51.644 60.223C51.8104 60.223 51.9213 60.223 52.0323 60.223C52.2542 60.223 52.4206 60.223 52.6425 60.1675C52.8089 60.112 52.9753 60.0565 53.1417 60.001C53.3081 59.9455 53.4191 59.779 53.4746 59.6681C53.5855 59.5016 53.5855 59.3351 53.5855 59.1131C53.5855 58.9466 53.53 58.7801 53.4746 58.6691C53.4191 58.5581 53.3081 58.4471 53.1972 58.3916C53.0862 58.3361 52.9198 58.2806 52.7534 58.2252C52.587 58.1697 52.4206 58.1142 52.2542 58.1142C52.0323 58.0587 51.8104 58.0032 51.5885 57.9477C51.3666 57.8922 51.1447 57.7812 50.9783 57.6702C50.8119 57.5592 50.6455 57.3927 50.5345 57.2262C50.4236 57.0597 50.3681 56.7822 50.3681 56.5048C50.3681 56.1718 50.4236 55.9498 50.5345 55.7278C50.6455 55.5058 50.8119 55.3393 50.9783 55.1729C51.1447 55.0064 51.3666 54.8954 51.644 54.8399C51.8659 54.7844 52.1432 54.7289 52.4206 54.7289C52.7534 54.7289 53.0308 54.7844 53.3081 54.8399C53.5855 54.8954 53.8629 55.0064 54.0847 55.0619V55.7278C53.8629 55.6168 53.5855 55.5613 53.3081 55.4503C53.0308 55.3948 52.7534 55.3393 52.4761 55.3393C52.2542 55.3393 52.0323 55.3393 51.8659 55.3948C51.6994 55.4503 51.533 55.5058 51.4221 55.6168C51.3111 55.7278 51.2557 55.8388 51.2002 55.9498C51.1447 56.0608 51.1447 56.2273 51.1447 56.3938Z" fill="#333333"/>
<path d="M59.6882 56.3938C59.6882 56.5603 59.7437 56.7267 59.7991 56.8377C59.8546 56.9487 59.9656 57.0597 60.0765 57.1152C60.1875 57.1707 60.3539 57.2262 60.5203 57.2817C60.6867 57.3372 60.8531 57.3927 61.0195 57.3927C61.2414 57.4482 61.4633 57.5037 61.6852 57.5592C61.9071 57.6147 62.129 57.7257 62.2954 57.8367C62.4618 57.9477 62.6282 58.1142 62.7392 58.3361C62.8501 58.5581 62.9056 58.7801 62.9056 59.1131C62.9056 59.4461 62.8501 59.668 62.7392 59.9455C62.6282 60.1675 62.4618 60.334 62.2399 60.5005C62.018 60.667 61.7962 60.778 61.5188 60.8335C61.2414 60.889 60.9086 60.9445 60.5758 60.9445C60.4093 60.9445 60.2429 60.9445 60.0765 60.889C59.9101 60.8335 59.7437 60.8335 59.6327 60.8335C59.4663 60.778 59.3554 60.778 59.2444 60.7225C59.1335 60.667 59.0225 60.6115 58.9671 60.6115V59.9455C59.078 60.001 59.189 60.0565 59.3554 60.112C59.4663 60.1675 59.6327 60.1675 59.7991 60.223C59.9656 60.2785 60.0765 60.2785 60.2429 60.2785C60.4093 60.2785 60.5203 60.2785 60.6312 60.2785C60.8531 60.2785 61.0195 60.2785 61.2414 60.223C61.4078 60.1675 61.5743 60.112 61.7407 60.0565C61.9071 60.001 62.018 59.8345 62.0735 59.7235C62.1845 59.5571 62.1845 59.3906 62.1845 59.1686C62.1845 59.0021 62.129 58.8356 62.0735 58.7246C62.018 58.6136 61.9071 58.5026 61.7962 58.4471C61.6852 58.3916 61.5188 58.3361 61.3524 58.2806C61.186 58.2251 61.0195 58.1696 60.8531 58.1696C60.6312 58.1142 60.4093 58.0587 60.1875 58.0032C59.9656 57.9477 59.7437 57.8367 59.5773 57.7257C59.4108 57.6147 59.2444 57.4482 59.1335 57.2817C59.0225 57.1152 58.9671 56.8377 58.9671 56.5603C58.9671 56.2273 59.0225 56.0053 59.1335 55.7833C59.2444 55.5613 59.4108 55.3948 59.5773 55.2284C59.7437 55.0619 59.9656 54.9509 60.2429 54.8954C60.4648 54.8399 60.7422 54.7844 61.0195 54.7844C61.3524 54.7844 61.6297 54.8399 61.9071 54.8954C62.1845 54.9509 62.4618 55.0619 62.6837 55.1174V55.7833C62.4618 55.6723 62.1845 55.6168 61.9071 55.5058C61.6297 55.4503 61.3524 55.3948 61.075 55.3948C60.8531 55.3948 60.6312 55.3948 60.4648 55.4503C60.2984 55.5058 60.132 55.5613 60.021 55.6723C59.9101 55.7833 59.8546 55.8943 59.7991 56.0053C59.7437 56.1163 59.6882 56.2273 59.6882 56.3938Z" fill="#333333"/>
<path d="M67.6765 60.778V54.7844H68.3976V60.778H67.6765Z" fill="#333333"/>
<path d="M78.7703 57.7811C78.7703 58.2251 78.7148 58.6691 78.5484 59.0576C78.4375 59.446 78.2156 59.779 77.9937 60.0565C77.7718 60.334 77.439 60.556 77.1061 60.7224C76.7733 60.8889 76.385 60.9444 75.9412 60.9444C75.4974 60.9444 75.1091 60.8889 74.7763 60.7224C74.4435 60.556 74.1106 60.334 73.8887 60.0565C73.6669 59.779 73.445 59.446 73.334 59.0576C73.2231 58.6691 73.1676 58.2806 73.1676 57.7811C73.1676 57.3372 73.2231 56.8932 73.3895 56.5047C73.5005 56.1163 73.7223 55.7833 73.9442 55.5058C74.1661 55.2283 74.4989 55.0063 74.8318 54.8398C75.1646 54.6734 75.5529 54.6179 75.9967 54.6179C76.4405 54.6179 76.8288 54.6734 77.1616 54.8398C77.4944 55.0063 77.8273 55.2283 78.0492 55.5058C78.2711 55.7833 78.4929 56.1163 78.6039 56.5047C78.7148 56.8932 78.7703 57.3372 78.7703 57.7811ZM78.0492 57.7811C78.0492 57.3927 77.9937 57.0042 77.8827 56.7267C77.7718 56.4492 77.6054 56.1718 77.439 55.9498C77.2726 55.7278 77.0507 55.5613 76.7733 55.5058C76.4959 55.3948 76.2741 55.3393 75.9412 55.3393C75.6084 55.3393 75.3865 55.3948 75.1091 55.5058C74.8318 55.6168 74.6099 55.7833 74.4435 55.9498C74.2771 56.1718 74.1106 56.3937 73.9997 56.7267C73.8888 57.0597 73.8333 57.3927 73.8333 57.7811C73.8333 58.1696 73.8888 58.5581 73.9997 58.8356C74.1106 59.1686 74.2771 59.3905 74.4435 59.6125C74.6099 59.8345 74.8318 60.001 75.1091 60.0565C75.3865 60.1675 75.6084 60.223 75.9412 60.223C76.2186 60.223 76.4959 60.1675 76.7733 60.0565C77.0507 59.9455 77.2171 59.779 77.439 59.6125C77.6054 59.3905 77.7718 59.1686 77.8827 58.8356C77.9937 58.5581 78.0492 58.2251 78.0492 57.7811Z" fill="#333333"/>
<path d="M86.7028 58.1142C87.0911 58.6691 87.424 59.1686 87.8123 59.7236C87.7568 59.1131 87.7568 58.5581 87.7568 57.9477V54.7289H88.478V60.7225H87.7568L85.3715 57.3927C84.9832 56.7822 84.5949 56.2828 84.2621 55.7833C84.3175 56.3383 84.3175 56.9487 84.3175 57.7257V60.778H83.5964V54.7844H84.3175L86.7028 58.1142Z" fill="#333333"/>
<path d="M92.8606 60.778L95.3014 54.7844H95.9115L98.3523 60.778H97.5757L96.8546 58.9466H94.3583L93.6372 60.778H92.8606ZM95.6342 55.7278C95.3568 56.4493 95.1349 57.1707 94.8576 57.7812L94.6357 58.3361H96.6327L96.4108 57.7812C96.1334 57.1152 95.9116 56.4493 95.6342 55.7278Z" fill="#333333"/>
<path d="M103.511 54.7844V60.112H106.451V60.778H102.79V54.7844H103.511Z" fill="#333333"/>
<path d="M118.045 57.6702C118.045 58.1142 117.989 58.5026 117.823 58.8356C117.656 59.1686 117.49 59.5016 117.268 59.779C117.379 59.89 117.545 60.0565 117.656 60.1675C117.767 60.2785 117.878 60.3895 117.934 60.5005C118.045 60.6115 118.1 60.667 118.155 60.7225C118.211 60.778 118.266 60.8335 118.266 60.8335H117.379C117.379 60.8335 117.323 60.778 117.212 60.667C117.102 60.556 116.991 60.445 116.824 60.2785C116.547 60.5005 116.214 60.667 115.881 60.778C115.548 60.889 115.215 60.9445 114.883 60.9445C114.55 60.9445 114.272 60.889 114.051 60.8335C113.829 60.7225 113.607 60.6115 113.496 60.5005C113.329 60.334 113.218 60.1675 113.163 60.001C113.108 59.8345 113.052 59.6126 113.052 59.4461C113.052 59.2241 113.108 59.0021 113.163 58.8356C113.218 58.6691 113.329 58.5026 113.44 58.3916C113.551 58.2806 113.662 58.1142 113.829 58.0032C113.995 57.8922 114.161 57.7812 114.272 57.7257C114.161 57.6147 114.051 57.5037 113.94 57.3927C113.829 57.2817 113.718 57.1707 113.662 57.0597C113.607 56.9487 113.496 56.7822 113.496 56.6713C113.44 56.5603 113.44 56.3938 113.44 56.2273C113.44 56.0053 113.496 55.7833 113.551 55.6168C113.607 55.4503 113.718 55.2838 113.884 55.1729C114.051 55.0619 114.217 54.9509 114.383 54.8954C114.605 54.8399 114.827 54.7844 115.049 54.7844C115.271 54.7844 115.493 54.8399 115.659 54.8954C115.826 54.9509 116.048 55.0619 116.158 55.1729C116.325 55.2838 116.436 55.4503 116.491 55.5613C116.602 55.7278 116.602 55.8943 116.602 56.1163C116.602 56.3383 116.547 56.5603 116.491 56.7267C116.436 56.8932 116.325 57.0597 116.158 57.1707C116.048 57.2817 115.881 57.4482 115.715 57.5592C115.548 57.6702 115.382 57.7812 115.215 57.8367C115.326 57.9477 115.437 58.0587 115.548 58.1696C115.659 58.2806 115.826 58.4471 115.937 58.5581C116.048 58.6691 116.214 58.8356 116.38 59.0021C116.547 59.1686 116.658 59.2796 116.824 59.4461C116.991 59.2241 117.102 59.0021 117.212 58.7246C117.323 58.4471 117.379 58.1142 117.379 57.7812H118.045V57.6702ZM114.827 60.334C114.938 60.334 115.049 60.334 115.16 60.2785C115.271 60.223 115.437 60.223 115.548 60.1675C115.659 60.112 115.826 60.0565 115.937 60.001C116.048 59.9455 116.214 59.8345 116.325 59.779C116.158 59.6126 116.048 59.5016 115.881 59.3351C115.715 59.1686 115.548 59.0021 115.437 58.8911C115.271 58.7246 115.16 58.6136 114.994 58.4471C114.883 58.2806 114.716 58.1697 114.605 58.0587C114.494 58.1142 114.328 58.2251 114.217 58.2806C114.106 58.3916 113.995 58.4471 113.94 58.5581C113.829 58.6691 113.773 58.7801 113.718 58.8911C113.662 59.0021 113.662 59.1686 113.662 59.2796C113.662 59.3906 113.662 59.5571 113.718 59.668C113.773 59.779 113.829 59.89 113.94 60.001C114.051 60.112 114.161 60.1675 114.272 60.223C114.383 60.2785 114.605 60.334 114.827 60.334ZM114.051 56.0608C114.051 56.1718 114.051 56.2828 114.106 56.3938C114.161 56.5048 114.161 56.6158 114.272 56.6713C114.383 56.7267 114.439 56.8377 114.494 56.9487C114.605 57.0597 114.716 57.1707 114.827 57.2817C114.994 57.2262 115.105 57.1152 115.215 57.0597C115.326 57.0042 115.437 56.8932 115.548 56.7822C115.659 56.6713 115.715 56.5603 115.77 56.4493C115.826 56.3383 115.881 56.1718 115.881 56.0608C115.881 55.8943 115.881 55.7833 115.826 55.7278C115.77 55.6168 115.715 55.5613 115.659 55.5058C115.604 55.4503 115.493 55.3948 115.382 55.3393C115.271 55.2838 115.16 55.2838 114.994 55.2838C114.716 55.2838 114.494 55.3393 114.328 55.5058C114.161 55.6168 114.051 55.7833 114.051 56.0608Z" fill="#333333"/>
<path d="M128.03 57.6702C128.196 57.6702 128.363 57.7257 128.529 57.8367C128.695 57.9477 128.806 58.0032 128.917 58.1142C129.028 58.2251 129.084 58.3361 129.139 58.5026C129.195 58.6691 129.25 58.8356 129.25 59.0576C129.25 59.2241 129.25 59.3351 129.195 59.5016C129.139 59.668 129.084 59.779 128.973 59.9455C128.862 60.112 128.751 60.223 128.584 60.334C128.418 60.445 128.252 60.556 128.03 60.6115C127.863 60.667 127.641 60.7225 127.42 60.7225C127.198 60.7225 126.92 60.778 126.643 60.778H125.09V54.7844H126.587C126.698 54.7844 126.865 54.7844 126.976 54.7844C127.087 54.7844 127.198 54.7844 127.309 54.7844C127.42 54.7844 127.475 54.7844 127.586 54.8399C127.697 54.8954 127.752 54.8954 127.808 54.8954C127.974 54.9509 128.141 55.0064 128.307 55.1174C128.474 55.2283 128.584 55.2838 128.695 55.4503C128.806 55.5613 128.862 55.7278 128.917 55.8943C128.973 56.0608 129.028 56.2273 129.028 56.3938C129.028 56.5603 129.028 56.6712 128.973 56.8377C128.917 56.9487 128.862 57.1152 128.806 57.2262C128.751 57.3372 128.64 57.4482 128.529 57.5592C128.363 57.5592 128.252 57.6147 128.03 57.6702ZM126.976 57.3927C127.142 57.3927 127.253 57.3927 127.364 57.3927C127.475 57.3927 127.586 57.3372 127.641 57.3372C127.863 57.2817 128.03 57.1707 128.141 57.0042C128.252 56.8377 128.307 56.6713 128.307 56.4493C128.307 56.2273 128.252 56.0608 128.141 55.8943C128.03 55.7278 127.863 55.6723 127.641 55.5613C127.531 55.5058 127.42 55.5058 127.253 55.5058C127.087 55.5058 126.92 55.5058 126.698 55.5058H125.866V57.4482H126.976V57.3927ZM125.866 60.1675H126.754C126.976 60.1675 127.142 60.1675 127.364 60.112C127.531 60.112 127.697 60.0565 127.808 60.001C127.919 59.9455 128.085 59.89 128.141 59.8345C128.252 59.779 128.307 59.668 128.363 59.6126C128.418 59.5016 128.474 59.4461 128.474 59.3351C128.474 59.2241 128.529 59.1686 128.529 59.0576C128.529 58.9466 128.529 58.8356 128.474 58.7246C128.474 58.6136 128.418 58.5581 128.363 58.4471C128.307 58.3916 128.196 58.2806 128.141 58.2251C128.03 58.1696 127.919 58.1142 127.752 58.0587C127.641 58.0587 127.586 58.0032 127.42 58.0032C127.309 58.0032 127.142 58.0032 126.976 58.0032H125.866V60.1675Z" fill="#333333"/>
<path d="M134.797 60.112H137.903V60.778H134.076V54.7844H137.737V55.4503H134.797V57.3927H137.404V58.0587H134.797V60.112Z" fill="#333333"/>
<path d="M142.009 60.778L144.45 54.7844H145.06L147.501 60.778H146.724L146.003 58.9466H143.507L142.785 60.778H142.009ZM144.782 55.7278C144.505 56.4493 144.283 57.1707 144.006 57.7812L143.784 58.3361H145.781L145.559 57.7812C145.282 57.1152 145.004 56.4493 144.782 55.7278Z" fill="#333333"/>
<path d="M154.268 60.2786C154.49 60.2786 154.656 60.2786 154.823 60.2231C154.989 60.1676 155.156 60.1121 155.267 60.0011C155.378 59.8901 155.489 59.7791 155.599 59.6681C155.71 59.5571 155.766 59.3906 155.766 59.2241C155.821 59.1131 155.821 59.0021 155.821 58.8911C155.821 58.7802 155.821 58.6692 155.821 58.5582V54.8399H156.542V58.5582C156.542 58.7247 156.542 58.8357 156.542 59.0021C156.542 59.1686 156.487 59.2796 156.487 59.4461C156.432 59.6681 156.321 59.8901 156.21 60.0566C156.099 60.2231 155.932 60.3895 155.766 60.556C155.599 60.667 155.378 60.778 155.1 60.889C154.823 60.9445 154.546 61 154.213 61C153.88 61 153.602 60.9445 153.325 60.889C153.103 60.8335 152.881 60.7225 152.659 60.6115C152.493 60.5005 152.327 60.334 152.216 60.1676C152.105 60.0011 151.994 59.7791 151.938 59.6126C151.883 59.4461 151.883 59.2796 151.827 59.1131C151.772 58.9466 151.772 58.7802 151.772 58.6137V54.8954H152.493V58.6137C152.493 58.7247 152.493 58.8911 152.549 59.0021C152.549 59.1686 152.604 59.2796 152.659 59.3906C152.77 59.6681 152.937 59.8901 153.159 60.0566C153.547 60.1676 153.824 60.2786 154.268 60.2786Z" fill="#333333"/>
<path d="M162.977 60.778V55.4503H160.98V54.7844H165.75V55.4503H163.753V60.778H162.977Z" fill="#333333"/>
<path d="M172.463 58.3916V60.8335H171.742V58.3916L169.579 54.7844H170.355L172.075 57.7257L173.795 54.7844H174.571L172.463 58.3916Z" fill="#333333"/>
</svg>
