<svg width="77" height="17" viewBox="0 0 77 17" fill="none" xmlns="http://www.w3.org/2000/svg">
<path fill-rule="evenodd" clip-rule="evenodd" d="M14.5918 16.0117H5.10649C4.01204 16.0117 3.13647 15.1678 3.13647 14.1129V10.3152C3.37969 10.5496 3.59858 10.784 3.84179 11.0184V14.1129C3.84179 14.7692 4.40118 15.3319 5.10649 15.3319H11.5516C12.5488 15.6132 13.5459 15.8476 14.5918 16.0117ZM5.13081 0.164551H17.6319C18.7264 0.164551 19.6019 1.00848 19.6019 2.0634V12.8938C19.3587 12.9642 19.1155 13.0345 18.8966 13.1283V2.0634C18.8966 1.407 18.3372 0.844384 17.6319 0.844384H5.13081C4.4255 0.867826 3.86611 1.407 3.86611 2.0634V4.05601H3.84179H3.79315H3.76883H3.7445V2.0634C3.13647 1.03192 4.03636 0.164551 5.13081 0.164551Z" fill="#697F34"/>
<path fill-rule="evenodd" clip-rule="evenodd" d="M14.8593 15.4956C7.61161 14.3938 3.06355 10.4789 0.461182 5.69665C7.63593 6.79845 11.4544 10.7368 14.8593 15.4956ZM11.0652 6.51714C14.3243 8.62697 16.1727 12.0261 16.2943 15.5425L16.27 15.4722C13.2055 10.4086 6.93062 5.86075 0.534145 5.27469C3.91479 4.10256 7.8305 4.43076 11.0652 6.51714Z" fill="#697F34"/>
<path fill-rule="evenodd" clip-rule="evenodd" d="M12.6704 3.96226C12.4029 4.85308 12.257 5.74389 12.2327 6.63471C14.7621 8.58044 16.3916 11.417 16.7807 14.5114C18.2643 10.2214 16.9267 5.36881 13.2785 2.34473C13.0353 2.86046 12.8407 3.39964 12.6704 3.96226Z" fill="#631C00"/>
<path fill-rule="evenodd" clip-rule="evenodd" d="M21.4991 13.9247C20.356 15.4954 18.4103 16.1987 16.5862 15.8939C17.5591 13.9951 19.7237 12.9167 21.8883 13.2918C21.7667 13.5028 21.6451 13.7138 21.4991 13.9247Z" fill="#631C00"/>
<path d="M24.4176 0.16411H27.9442V12.5886H32.7841V16.0113H24.4176V0.16411Z" fill="#697F34"/>
<path d="M35.5324 0.16411H44.7745V3.30541H39.059V6.49359H44.7745V9.588H39.059V12.87H44.7745V16.0113H35.5324V0.16411Z" fill="#697F34"/>
<path d="M47.6443 0.16411H58.6861V3.51639H54.9163V15.9878H51.3654V3.53983H47.6443V0.16411Z" fill="#697F34"/>
<path d="M60.4616 8.08767C60.4616 5.74342 61.2642 3.82113 62.8694 2.29737C64.4746 0.750161 66.3717 0 68.5849 0C71.017 0 73.0357 0.773603 74.6165 2.29737C76.1974 3.82113 77 5.76686 77 8.11111C77 10.4319 76.2217 12.3542 74.6409 13.9014C73.06 15.4486 71.09 16.1988 68.6822 16.1988C66.2987 16.1988 64.3287 15.4252 62.7721 13.9014C61.2399 12.3777 60.4616 10.4319 60.4616 8.08767ZM68.7551 3.16474C67.3688 3.1413 66.2744 3.61015 65.4231 4.54785C64.5719 5.48555 64.1584 6.70456 64.1584 8.18144C64.1584 9.58799 64.5962 10.7601 65.4474 11.6744C66.2987 12.5886 67.3931 13.0575 68.7065 13.0575C70.0928 13.0575 71.1872 12.6121 72.0385 11.6978C72.8897 10.7836 73.3032 9.58799 73.3032 8.08767C73.3032 6.61079 72.8897 5.43866 72.0628 4.54785C71.2359 3.63359 70.1171 3.18818 68.7551 3.16474Z" fill="#697F34"/>
</svg>
