<svg width="21" height="14" viewBox="0 0 21 14" fill="none" xmlns="http://www.w3.org/2000/svg">
<path fill-rule="evenodd" clip-rule="evenodd" d="M14.1112 13.5188C7.00794 12.3862 2.55051 8.36192 0 3.446C7.03177 4.57859 10.7741 8.627 14.1112 13.5188ZM10.3927 4.28941C13.5868 6.45821 15.3984 9.95237 15.5176 13.567L15.4937 13.4947C12.4903 8.28963 6.34052 3.61468 0.0715096 3.01224C3.38479 1.80735 7.22247 2.14472 10.3927 4.28941Z" fill="#697F34"/>
<path fill-rule="evenodd" clip-rule="evenodd" d="M11.9662 1.66276C11.704 2.57847 11.5609 3.49418 11.5371 4.40989C14.0161 6.41 15.6132 9.32582 15.9945 12.5067C17.4486 8.09684 16.1376 3.10862 12.5621 1.52588e-05C12.3237 0.530164 12.133 1.08441 11.9662 1.66276Z" fill="#631C00"/>
<path fill-rule="evenodd" clip-rule="evenodd" d="M20.6187 11.9045C19.4984 13.519 17.5914 14.2419 15.8037 13.9287C16.7572 11.9768 18.8786 10.8683 21.0001 11.2538C20.8809 11.4707 20.7617 11.6876 20.6187 11.9045Z" fill="#631C00"/>
</svg>
