<svg width="153" height="117" viewBox="0 0 153 117" fill="none" xmlns="http://www.w3.org/2000/svg">
<path fill-rule="evenodd" clip-rule="evenodd" d="M33.6043 116.665H100.428C93.0607 115.466 86.0356 113.753 79.0105 111.697H33.6043C28.6353 111.697 24.6944 107.586 24.6944 102.789V80.1765C23.8376 79.32 23.0237 78.4634 22.2098 77.6068L22.2094 77.6064C21.3957 76.75 20.5819 75.8937 19.7254 75.0373V102.789C19.7254 110.498 25.8938 116.665 33.6043 116.665ZM121.846 0.861252H33.7756C26.0651 0.861252 19.7254 7.19962 24.009 14.7371V29.2983H24.1803H24.3517H24.6944H24.8657V14.7371C24.8657 9.94054 28.8066 6.00047 33.7756 5.82916H121.846C126.815 5.82916 130.756 9.94054 130.756 14.7371V95.5942C132.298 94.9089 134.012 94.395 135.725 93.8811V14.7371C135.725 7.02831 129.557 0.861252 121.846 0.861252ZM102.709 113.06C51.4791 105.011 19.3314 76.4114 0.936646 41.475C51.651 49.524 78.6414 78.2952 102.709 113.06ZM112.852 113.403C111.993 87.7144 98.9272 62.8821 75.8908 47.469C53.0263 32.2271 25.3483 29.8295 1.45239 38.3923C46.6656 42.6738 91.0192 75.8976 112.68 112.889L112.852 113.403ZM87.3203 28.1741C85.4505 34.6825 84.4306 41.191 84.2606 47.6994C101.939 61.9152 113.328 82.6394 116.047 105.248C126.416 73.9044 117.067 38.4506 91.5699 16.3561C89.87 20.1242 88.5102 24.0635 87.3203 28.1741ZM114.486 115.353C127.414 117.526 141.204 112.513 149.305 101.316C150.34 99.8125 151.202 98.3085 152.063 96.8046C136.722 94.1309 121.381 101.818 114.486 115.353Z" fill="white"/>
</svg>
