<svg width="227" height="174" viewBox="0 0 227 174" fill="none" xmlns="http://www.w3.org/2000/svg">
<path fill-rule="evenodd" clip-rule="evenodd" d="M48.9998 173.7H149.233C138.182 171.901 127.644 169.332 117.107 166.248H48.9998C41.5465 166.248 35.6354 160.081 35.6354 152.887V118.969C34.3503 117.684 33.1295 116.4 31.9087 115.115C30.688 113.83 29.4672 112.545 28.1821 111.26V152.887C28.1821 164.45 37.4344 173.7 48.9998 173.7ZM181.359 0H49.2568C39.471 0 30.4726 3.9552 30.4726 15.75C30.4726 16.5194 30.4185 19.5797 30.3511 23.3866C30.2216 30.7123 30.0431 40.803 30.1073 42.6541H34.8643H35.1213H35.6354H35.8924V20.8132C35.8924 13.6185 41.8036 7.70858 49.2568 7.45163H181.359C188.812 7.45163 194.723 13.6185 194.723 20.8132V142.095C197.036 141.067 199.606 140.296 202.177 139.525V20.8132C202.177 9.2503 192.924 0 181.359 0ZM152.654 168.293C75.8113 156.22 27.5912 113.321 0 60.9185C76.0692 72.9917 116.553 116.147 152.654 168.293ZM167.868 168.807C166.579 130.275 146.981 93.0281 112.428 69.9092C78.132 47.0471 36.6163 43.4508 0.773585 56.2947C68.5912 62.7166 135.119 112.551 167.61 168.036L167.868 168.807ZM129.571 40.9679C126.767 50.7303 125.237 60.4926 124.982 70.255C151.498 91.578 168.581 122.663 172.661 156.575C188.214 109.561 174.191 56.3822 135.945 23.2416C133.396 28.8935 131.356 34.8022 129.571 40.9679ZM170.319 171.733C189.71 174.991 210.394 167.472 222.546 150.678C224.098 148.422 225.39 146.167 226.683 143.911C203.672 139.9 180.661 151.43 170.319 171.733Z" fill="#EAEAEA"/>
</svg>
