<svg width="322" height="376" viewBox="0 0 322 376" fill="none" xmlns="http://www.w3.org/2000/svg">
<path d="M206.191 274.526C203.593 261.676 200.755 249.061 204.332 236.156C207.415 225.027 214.175 214.292 221.509 205.463C235.574 188.63 256.204 180.057 277.037 174.692C280.251 173.894 283.585 172.978 286.914 172.538C291.195 171.87 295.589 171.796 299.871 171.128C303.676 170.574 307.25 169.423 310.596 167.321C313.585 165.333 316.106 162.629 318.39 159.921C318.51 159.804 318.627 159.924 318.626 160.042C315.618 163.93 312.138 167.456 307.605 169.546C302.115 172.22 295.468 172.033 289.525 172.684C283.344 173.332 277.39 175.051 271.436 176.652C266.197 178.142 260.954 179.987 255.827 182.071C245.69 186.36 236.132 192.079 228.098 199.713C219.225 208.17 212.345 219.023 207.48 230.252C201.399 244.199 203.136 259.89 206.191 274.526Z" fill="#B4AE9E" fill-opacity="0.89"/>
<path d="M203.707 250.635C204.623 242.452 206.721 234.756 210.242 227.193C214.002 219.515 219.181 212.444 224.945 206.092C230.59 199.858 236.94 194.343 243.875 189.665C251.767 184.285 260.712 180.341 269.766 177.466C270.004 177.35 270.001 177.706 269.882 177.705C265.824 179.8 261.299 181.059 257.125 182.797C252.713 184.651 248.652 186.984 244.706 189.674C237.772 194.233 231.423 199.748 225.779 205.863C214.613 217.859 204.711 233.904 203.707 250.635Z" fill="#B4AE9E" fill-opacity="0.89"/>
<path d="M204.19 249.809C202.889 249.32 203.019 248.253 203.743 247.192C204.708 245.658 206.265 244.368 208.156 245.219C210.521 246.193 212.038 248.702 214.16 250.149C217.461 252.439 221.366 253.786 225.272 254.895C229.89 256.13 234.635 256.535 239.268 256.345C243.901 256.037 250.087 254.914 251.918 250.064C252.036 250.184 252.152 250.423 252.269 250.543C250.842 250.766 249.54 250.396 249.32 248.732C249.322 248.494 249.442 248.377 249.561 248.378C254.787 248.194 260.748 245.881 263.88 241.521C263.997 241.641 264.113 241.879 264.231 241.999C262.798 242.815 261.608 243.041 259.95 242.667C259.712 242.665 259.717 242.19 259.956 242.074C263.052 241.156 265.798 239.759 268.195 237.528C270.712 235.298 272.759 232.47 275.042 229.881C275.282 229.646 275.754 229.889 275.513 230.243C274.308 232.011 271.322 233.642 269.68 231.726C269.563 231.606 269.565 231.368 269.804 231.252C274.095 229.634 276.975 226.696 279.388 222.921C280.474 221.27 281.561 219.5 282.648 217.731C282.768 217.613 280.396 217.351 280.396 217.351C279.803 217.226 279.212 216.983 278.741 216.622C278.622 216.62 278.742 216.503 278.743 216.384C287.207 213.147 290.168 202.373 294.514 195.413C294.634 195.295 294.87 195.417 294.75 195.534C292.093 199.9 290.262 204.749 287.605 209.114C286.276 211.357 284.594 213.239 282.56 214.761C281.721 215.465 280.767 215.93 279.813 216.277C278.382 216.855 282.536 217.017 283.249 217.024C283.367 217.026 283.484 217.264 283.364 217.382C281.192 220.684 279.375 224.227 276.731 227.287C275.529 228.699 274.094 229.753 272.542 230.568C272.183 230.802 269.084 231.957 271.815 231.985C273.12 231.999 274.439 230.825 275.161 229.883C275.278 230.003 275.514 230.124 275.632 230.244C271.067 235.421 267.215 240.487 260.187 242.67C260.19 242.432 260.191 242.314 260.193 242.076C261.732 242.567 262.686 242.102 264 241.403C264.238 241.287 264.472 241.645 264.351 241.882C262.665 244.12 260.394 245.64 258.006 246.922C256.574 247.619 255.026 248.078 253.477 248.537C252.883 248.65 252.288 248.762 251.693 248.875C251.336 248.99 250.979 248.986 250.623 248.982C249.077 249.204 251.326 249.94 252.039 249.828C252.278 249.712 252.512 250.071 252.391 250.307C249.699 257.997 237.829 257.636 231.306 256.975C226.68 256.571 221.946 255.098 217.69 253.273C215.326 252.298 212.61 250.846 210.849 248.928C209.91 247.849 209.091 246.654 207.793 245.928C205.667 244.837 202.182 248.838 204.19 249.809Z" fill="#B4AE9E" fill-opacity="0.89"/>
<path d="M289.746 197.263C287.002 198.541 284.139 199.818 281.055 199.548C279.75 199.416 278.688 198.811 277.985 197.854C277.634 197.376 277.638 197.02 278.231 197.026C278.35 197.027 278.349 197.146 278.23 197.144C277.043 197.132 279.396 199.175 279.396 199.175C279.869 199.417 280.342 199.541 280.935 199.666C282.001 199.914 283.072 199.688 284.024 199.46C286.047 199.006 288.073 198.315 289.746 197.263Z" fill="#B4AE9E" fill-opacity="0.89"/>
<path d="M294.752 195.415C293.661 197.541 289.267 197.615 287.499 196.409C287.381 196.289 287.384 196.052 287.621 196.054C290.118 195.724 292.748 193.97 293.014 191.242C293.131 191.362 293.249 191.482 293.367 191.483C292.653 191.713 291.82 191.823 291.223 192.173C291.103 192.291 290.867 192.169 290.869 191.932C290.653 189.911 292.561 189.1 293.879 187.926C294.119 187.691 294.353 188.05 294.113 188.285C293.035 189.224 291.125 190.154 291.344 191.937C291.227 191.817 291.108 191.816 290.871 191.813C291.588 191.346 292.419 191.354 293.135 191.006C293.374 190.889 293.49 191.128 293.489 191.247C293.22 194.212 290.472 195.965 287.617 196.41C287.619 196.292 287.739 196.174 287.74 196.055C289.391 197.141 293.311 196.944 294.752 195.415Z" fill="#B4AE9E" fill-opacity="0.89"/>
<path d="M293.278 188.632C293.633 188.755 293.516 188.635 293.751 188.875C294.104 189.116 291.619 188.378 291.856 188.38C291.619 188.378 291.622 188.022 291.86 188.024C294.481 187.101 296.172 184.388 298.209 182.509C300.727 180.161 303.477 178.289 305.879 175.702C308.401 172.879 310.454 169.575 312.623 166.511C314.67 163.682 316.604 160.378 319.123 157.91C319.363 157.675 319.715 158.035 319.594 158.271C318.015 161.698 315.252 164.876 312.965 167.82C310.557 171.12 308.384 174.541 305.505 177.36C302.867 179.945 299.878 181.933 297.239 184.518C296.039 185.693 294.84 186.868 293.405 187.803C293.286 187.92 293.047 188.036 292.928 188.035C292.451 188.268 292.331 188.385 292.689 188.151C293.401 188.277 294.108 188.76 294.579 189.121C294.697 189.241 294.694 189.478 294.458 189.357C294.103 189.235 293.751 188.875 293.278 188.632Z" fill="#B4AE9E" fill-opacity="0.89"/>
<path d="M206.483 246.27C203.481 249.564 204.495 254.799 204.929 258.721C205.26 261.218 205.711 263.479 206.518 265.862C207.322 268.482 208.242 271.341 207.977 274.069C207.977 274.069 207.977 274.069 208.095 274.07C208.503 269.088 206.054 264.788 205.511 259.915C205.08 255.636 203.594 250.04 206.719 246.392C206.958 246.275 206.604 246.034 206.483 246.27Z" fill="#B4AE9E" fill-opacity="0.89"/>
<path d="M201.782 253.108C202.298 249.077 199.832 246.439 196.528 244.505C194.285 243.176 191.677 242.793 189.436 241.345C184.483 238.088 181.108 231.523 179.622 225.927C177.911 219.142 177.04 211.534 178.061 204.658C178.704 199.915 180.673 193.168 185.563 191.081C185.801 190.965 186.036 191.205 186.034 191.442C185.774 193.577 182.648 197.344 185.962 198.447C185.722 198.682 185.602 198.799 185.362 199.034C183.514 194.028 185.721 187.283 187.552 182.434C188.894 178.886 191.422 175.588 193.708 172.643C196.116 169.462 198.877 166.523 201.755 163.821C202.114 163.469 202.466 163.948 202.462 164.304C202.199 166.794 200.516 168.795 200.254 171.167C200.018 171.046 199.781 170.925 199.545 170.804C203.965 168.237 208.036 164.955 212.922 163.224C213.16 163.108 213.396 163.229 213.394 163.467C214.089 165.136 213.362 166.553 212.634 168.089C212.516 167.97 212.281 167.73 212.164 167.61C214.308 166.919 215.866 165.511 217.542 164.222C219.336 162.935 221.365 161.887 223.276 160.838C226.26 159.325 229.36 158.051 232.461 156.659C235.325 155.263 238.306 154.107 241.402 153.189C243.307 152.734 245.686 152.283 247.336 153.488C247.453 153.608 247.57 153.846 247.448 154.083C246.967 154.671 246.486 155.26 246.007 155.73C245.89 155.491 245.773 155.371 245.657 155.133C247.319 155.15 248.866 154.81 250.531 154.471C250.889 154.356 251.239 154.953 250.88 155.187C250.039 156.128 249.912 156.958 248.836 157.659C248.839 157.422 248.721 157.302 248.724 157.064C251.333 157.329 253.951 156.762 256.565 156.552C257.04 156.556 257.153 157.151 256.794 157.385C255.958 157.851 255.24 158.438 254.522 158.905C254.525 158.668 254.526 158.549 254.41 158.31C258.913 159.188 264.022 158.766 268.545 157.744C271.282 157.179 275.092 156.149 277.568 157.837C277.804 157.958 277.8 158.314 277.679 158.551C276.357 160.081 274.801 161.252 273.362 162.662C273.246 162.423 273.13 162.184 273.132 161.947C275.149 162.087 277.288 161.871 279.302 162.367C280.841 162.739 282.137 163.702 283.556 164.311C285.683 165.282 288.411 165.548 290.663 165.928C293.151 166.428 295.641 166.81 298.133 166.955C305.847 167.272 314.67 163.682 319.483 157.558C319.723 157.323 320.076 157.564 319.837 157.799C315.614 164.286 307.389 167.406 299.905 167.804C295.272 167.994 290.536 166.757 286.033 165.88C284.137 165.504 282.484 164.656 280.83 163.807C278.468 162.596 275.734 162.924 273.241 162.898C272.885 162.894 272.771 162.418 272.892 162.182C274.214 160.652 275.888 159.482 277.09 158.07C277.088 158.307 277.085 158.545 277.202 158.783C274.489 156.974 269.84 158.826 266.867 159.27C262.823 159.941 258.553 159.54 254.521 159.024C254.284 159.021 254.169 158.664 254.409 158.429C255.245 157.963 255.846 157.256 256.681 156.79C256.798 157.029 256.914 157.268 257.03 157.506C254.296 157.834 251.803 157.808 249.072 157.78C248.835 157.778 248.601 157.419 248.841 157.184C249.679 156.48 249.809 155.413 250.649 154.591C250.765 154.829 250.881 155.068 250.998 155.307C249.332 155.646 247.667 155.866 246.005 155.849C245.768 155.846 245.535 155.369 245.774 155.253C245.894 155.135 246.857 153.839 246.857 153.839C246.267 153.477 245.555 153.469 244.843 153.462C243.418 153.447 241.988 153.908 240.679 154.25C237.82 155.171 235.076 156.448 232.332 157.726C229.588 159.004 226.726 160.161 223.981 161.558C221.952 162.605 219.801 163.889 217.888 165.175C216.214 166.345 214.776 167.637 212.869 168.329C212.511 168.444 212.158 168.203 212.399 167.85C212.764 167.022 214.223 163.713 212.314 164.524C210.765 165.102 209.331 166.037 207.897 166.853C205.388 168.371 202.995 170.127 200.486 171.645C200.128 171.878 199.774 171.637 199.778 171.281C200.041 168.79 201.724 166.789 201.986 164.417C202.222 164.539 202.458 164.66 202.694 164.781C197.298 169.949 192.251 175.834 188.974 182.687C187.882 184.931 187.259 187.774 186.877 190.264C186.254 193.107 185.866 196.19 186.669 198.929C186.784 199.286 186.424 199.639 186.069 199.516C182.049 197.931 185.648 194.288 186.033 191.561C186.15 191.681 186.268 191.801 186.385 191.921C181.138 194.123 179.395 201.941 178.986 207.042C178.438 214.16 179.064 222.478 181.845 229.156C183.119 232.256 184.631 235.24 186.741 237.874C188.85 240.627 191.451 241.722 194.643 243.061C198.545 244.645 202.907 247.658 201.782 253.108Z" fill="#B4AE9E" fill-opacity="0.89"/>
<path d="M206.08 239.261C212.348 230.183 225.593 235.307 234.364 236.823C241.831 238.087 249.168 240.419 256.776 239.548C264.265 238.675 269.42 233.86 273.52 227.847C273.761 227.494 274.232 227.855 273.991 228.208C270.734 233.162 266.773 237.276 261.054 239.236C254.381 241.541 247.152 240.16 240.518 238.786C234.711 237.657 228.908 236.291 223.1 235.281C217.174 234.27 210.29 234.08 206.08 239.261C206.198 239.381 206.079 239.38 206.08 239.261Z" fill="#B4AE9E" fill-opacity="0.89"/>
<path d="M204.415 239.6C201.262 234.462 198.347 229.326 194.477 224.656C191.076 220.584 188.627 216.284 187.136 211.163C185.874 206.876 185.207 202.476 185.372 198.084C185.533 193.93 186.653 188.955 189.888 186.139C190.127 186.023 190.362 186.263 190.242 186.38C189.155 188.15 187.949 189.919 187.216 191.929C186.363 194.058 185.982 196.429 185.958 198.803C185.671 203.549 186.691 208.309 188.07 212.716C189.563 217.6 192.369 221.784 195.654 225.618C199.053 229.927 201.613 234.941 204.415 239.6Z" fill="#B4AE9E" fill-opacity="0.89"/>
<path d="M212.277 225.552C215.948 215.023 230.08 214.813 239.337 215.146C247.765 215.352 256.058 217.1 264.489 217.068C272.8 217.035 281.965 214.874 285.967 206.723C286.088 206.487 286.562 206.61 286.44 206.965C279.281 221.852 258.549 217.363 245.619 216.161C239.451 215.622 233.279 215.44 227.214 216.327C221.032 217.094 214.714 219.522 212.277 225.552C212.276 225.671 212.276 225.671 212.277 225.552Z" fill="#B4AE9E" fill-opacity="0.89"/>
<path d="M214.153 216.429C218.703 212.677 218.175 206.379 216.803 201.259C215.665 196.498 213.812 191.967 212.912 187.09C211.106 178.047 213.238 167.027 223.01 163.566C223.249 163.45 223.364 163.807 223.125 163.924C217.876 166.363 214.394 170.126 213.148 175.812C212.026 180.906 212.921 186.258 214.294 191.259C216.586 199.238 221.464 209.737 214.153 216.429Z" fill="#B4AE9E" fill-opacity="0.89"/>
<path d="M238.011 194.117C246.046 186.363 259.15 193.623 267.789 196.443C272.404 197.915 277.384 198.56 282.138 198.135C284.752 197.924 287.371 197.239 289.64 195.956C292.03 194.556 292.763 192.545 294.092 190.303C294.212 190.186 294.448 190.307 294.447 190.425C294.284 194.698 289.271 197.258 285.699 198.171C281.176 199.312 276.075 198.903 271.573 197.907C266.242 196.783 261.279 194.476 256.191 192.761C250.154 191.036 243.045 189.538 238.011 194.117C238.01 194.235 237.892 194.115 238.011 194.117Z" fill="#B4AE9E" fill-opacity="0.89"/>
<path d="M251.282 185.23C257.383 180.781 260.538 174.284 264.874 168.273C267.764 164.385 271.871 157.541 277.556 158.906C277.675 158.907 277.673 159.144 277.553 159.262C271.256 159.672 267.277 165.567 264.02 170.52C260.282 176.062 256.9 181.607 251.282 185.23C251.281 185.349 251.163 185.229 251.282 185.23Z" fill="#B4AE9E" fill-opacity="0.89"/>
<path d="M267.493 179.105C275.805 179.072 283.865 180.343 292.075 178.646C292.313 178.649 292.428 179.006 292.189 179.123C284.322 182.128 275.681 179.546 267.493 179.105C267.373 179.222 267.374 179.104 267.493 179.105Z" fill="#B4AE9E" fill-opacity="0.89"/>
<path d="M214.485 195.773C214.926 187.585 217.844 180.966 223.602 175.208C223.721 175.209 223.721 175.209 223.72 175.328C221.199 178.033 218.912 180.977 217.214 184.403C215.516 187.948 214.882 191.859 214.485 195.773Z" fill="#B4AE9E" fill-opacity="0.89"/>
<path d="M230.617 162.814C231.106 161.394 231.241 159.852 231.731 158.432C231.24 159.971 231.224 161.514 230.617 162.814C230.616 162.932 230.616 162.932 230.617 162.814Z" fill="#B4AE9E" fill-opacity="0.89"/>
<path d="M231.216 196.777C232.423 194.89 233.746 193.241 234.952 191.354C236.52 188.996 237.022 186.389 237.524 183.782C238.405 178.923 238.456 174.055 238.862 169.192C239.396 163.498 240.907 155.202 247.572 153.609C247.809 153.611 247.807 153.849 247.687 153.966C240.292 157.214 239.731 165.52 239.302 172.639C239.013 177.623 238.486 182.605 237.129 187.577C236.142 191.129 233.265 193.83 231.216 196.777Z" fill="#B4AE9E" fill-opacity="0.89"/>
<path d="M196.012 225.503C191.904 220.83 190.416 215.471 192.259 209.435C194.229 202.688 198.209 196.674 198.995 189.558C198.996 189.439 199.234 189.442 199.233 189.56C197.922 201.539 185.44 214.47 196.012 225.503Z" fill="#B4AE9E" fill-opacity="0.89"/>
<path d="M227.133 235.679C235.052 239.204 241.412 232.621 247.626 228.767C252.647 225.494 258.835 224.134 264.766 224.67C264.885 224.671 264.881 225.027 264.763 225.026C260.963 224.987 257.518 225.189 253.826 226.338C250.37 227.489 247.144 229.474 244.272 231.701C239.484 235.451 233.157 238.71 227.133 235.679C227.013 235.797 227.014 235.678 227.133 235.679Z" fill="#B4AE9E" fill-opacity="0.89"/>
<path d="M215.262 235.438C220.246 235.727 224.853 238.03 229.102 240.449C231.346 241.659 233.47 242.869 235.835 243.843C238.556 244.821 241.166 244.967 244.134 244.997C244.372 245 244.368 245.356 244.13 245.353C233.545 247.144 225.462 236.493 215.262 235.438C215.144 235.437 215.144 235.437 215.262 235.438Z" fill="#B4AE9E" fill-opacity="0.89"/>
<path d="M229.601 215.164C232.568 215.313 235.417 215.343 238.159 214.303C241.019 213.264 243.299 210.913 245.692 209.156C249.4 206.464 253.327 205.673 257.837 205.839C257.956 205.84 257.953 206.077 257.834 206.076C254.986 205.928 252.253 206.137 249.512 207.177C247.008 208.22 244.734 209.977 242.697 211.737C238.747 214.784 234.702 215.573 229.601 215.164Z" fill="#B4AE9E" fill-opacity="0.89"/>
<path d="M219.355 218.501C222.341 216.87 225.176 218.205 227.892 219.658C231.908 221.718 236.067 221.405 240.332 222.28C240.569 222.283 240.566 222.639 240.327 222.755C237.357 222.962 233.8 222.45 230.959 221.59C227.174 220.244 223.414 216.406 219.355 218.501C219.354 218.62 219.237 218.5 219.355 218.501Z" fill="#B4AE9E" fill-opacity="0.89"/>
<path d="M259.625 193.628C270.851 198.849 278.957 184.21 289.98 186.105C290.217 186.107 290.214 186.464 289.976 186.461C283.92 186.517 279.259 189.437 274.006 192.233C269.468 194.798 264.466 196.29 259.625 193.628C259.505 193.745 259.507 193.626 259.625 193.628Z" fill="#B4AE9E" fill-opacity="0.89"/>
<path d="M239.238 178.813C239.392 175.371 240.249 172.887 242.885 170.539C244.443 169.131 246.235 168.081 247.792 166.791C250.186 164.916 251.634 162.675 252.139 159.712C252.142 159.474 252.498 159.478 252.496 159.715C252.455 163.633 249.219 166.568 246.23 168.555C244.437 169.724 242.76 171.132 241.319 172.779C239.877 174.426 239.616 176.68 239.358 178.695C239.474 178.934 239.236 178.932 239.238 178.813Z" fill="#B4AE9E" fill-opacity="0.89"/>
<path d="M235.705 187.444C235.248 185.777 234.907 184.23 234.33 182.68C233.636 180.892 232.222 179.809 230.93 178.49C227.875 175.371 226.856 170.611 227.612 166.345C227.615 166.107 227.971 166.111 227.968 166.348C228.064 168.605 227.922 170.86 228.254 173.119C228.82 175.856 230.464 177.654 232.343 179.573C234.576 181.852 234.905 184.467 235.705 187.444Z" fill="#B4AE9E" fill-opacity="0.89"/>
<path d="M216.306 203.391C216.822 199.359 211.849 198.121 209.495 196.078C206.905 193.914 205.036 190.926 204.001 187.71C204.002 187.591 204.121 187.592 204.121 187.592C205.62 191.882 208.319 194.997 212.092 197.529C214.334 198.859 216.573 200.544 216.306 203.391Z" fill="#B4AE9E" fill-opacity="0.89"/>
<path d="M199.015 233.608C197.841 232.289 196.668 230.971 195.134 230.006C193.483 228.92 191.587 228.544 189.812 227.932C186.857 226.714 184.506 224.434 183.826 221.221C183.828 221.103 184.065 221.105 184.064 221.224C185.086 225.746 188.75 227.328 192.654 228.674C195.375 229.652 197.256 231.452 199.015 233.608Z" fill="#B4AE9E" fill-opacity="0.89"/>
<path d="M76.2307 39.7551C77.5528 26.7082 62.0238 24.2919 52.1615 25.0211C49.0723 25.2266 45.6246 25.6659 42.9956 27.301C41.2025 28.4698 39.877 30.3558 38.2002 31.7633C36.6434 33.0532 34.734 33.9833 32.9446 34.796C30.4392 35.9574 28.7625 37.3649 27.3121 39.8433C27.0709 40.197 26.5985 39.9546 26.7209 39.5997C29.6205 34.7616 34.9702 34.1045 38.9272 30.346C40.8452 28.5848 42.2882 26.8187 44.6736 25.7748C47.7738 24.5008 51.5741 24.4213 54.8995 24.337C64.0433 24.194 79.3238 27.6764 76.2307 39.7551C76.3481 39.8751 76.2294 39.8738 76.2307 39.7551Z" fill="#B4AE9E" fill-opacity="0.89"/>
<path d="M25.3147 37.8042C25.4334 37.8054 25.5534 37.6879 25.6708 37.8078C25.7895 37.8091 25.7871 38.0465 25.7859 38.1652C25.3 39.2288 23.1569 39.8003 22.2035 40.1467C19.2232 41.3032 16.0178 41.2701 12.9397 40.4071C13.0608 40.1709 13.182 39.9347 13.4219 39.6997C16.8046 45.5526 12.2221 52.3917 10.0287 57.8307C9.17438 60.0778 8.67744 62.2098 8.89035 64.5867C9.10571 66.7261 10.0358 68.6354 10.3699 70.776C10.5914 72.3218 10.4616 73.3891 9.85206 74.9263C8.75536 77.6458 10.4052 78.8502 11.2117 81.2331C11.443 81.8292 10.4871 82.413 10.1371 81.8157C9.55573 80.6224 8.61948 79.3066 8.39553 77.9983C8.17403 76.4525 8.89618 75.5101 9.62198 74.2115C10.9524 71.8506 9.441 68.748 8.75324 66.3662C8.29552 64.6992 8.31144 63.1559 8.44733 61.495C9.11208 54.6154 16.9037 47.4533 12.7022 40.4047C12.4684 40.0461 12.7108 39.5736 13.1845 39.6973C15.9076 40.4378 18.7581 40.3485 21.4948 39.7831C22.9231 39.4417 24.3563 38.6254 25.6647 38.4014C25.0723 38.2766 24.9573 37.9192 25.3147 37.8042Z" fill="#B4AE9E" fill-opacity="0.89"/>
<path d="M11.1003 80.5196C10.35 84.1925 8.18475 86.901 6.01591 89.9656C2.6427 94.6801 3.18725 99.435 5.50888 104.564C7.59675 109.335 11.8412 112.229 14.6475 116.413C17.2225 120.002 20.9995 122.178 23.5745 125.767C23.8083 126.125 23.3298 126.477 23.096 126.118C21.6922 124.085 19.6899 122.521 17.8076 120.839C16.1602 119.397 15.1089 117.724 13.8214 115.93C11.1326 111.865 7.12305 109.212 5.03151 104.797C3.52252 101.457 2.02208 97.2858 3.36482 93.7377C5.07597 89.0061 9.38543 85.6074 10.7429 80.6346C10.8653 80.2797 11.1028 80.2822 11.1003 80.5196Z" fill="#B4AE9E" fill-opacity="0.89"/>
<path d="M107.432 65.1301C110.199 61.7154 113.338 56.6424 107.782 54.329C104.827 52.9925 101.857 53.1992 99.2669 51.0353C97.6195 49.5935 96.4495 47.9191 94.5635 46.5936C92.9125 45.5079 90.5405 45.246 88.6471 44.6327C87.1087 44.1419 85.5739 43.2949 84.0367 42.6854C81.7896 41.831 79.5401 41.2141 77.1706 40.7147C72.4304 39.8346 67.7954 40.2616 63.9657 43.1903C61.2131 45.2991 59.1654 48.1275 56.0603 49.8764C53.3138 51.3915 50.3593 50.0549 47.5162 49.4319C42.3036 48.3094 39.6562 51.7253 36.1814 54.7764C35.8228 55.0102 35.5902 54.5329 35.8301 54.2979C38.8263 51.598 40.9939 48.6521 45.3902 48.3413C47.1723 48.241 49.0669 48.7355 50.844 49.1101C53.8058 49.7344 56.3075 48.9291 58.7003 47.1728C61.9315 44.7128 64.4578 41.5332 68.3903 40.149C72.6789 38.7686 77.6553 39.7698 81.9169 41.0012C83.8103 41.6144 85.8212 42.3476 87.5934 43.1971C89.3643 44.1652 91.7375 44.3085 93.6296 45.0404C95.523 45.6536 96.8142 47.0918 98.1067 48.4112C100.103 50.569 101.991 51.6571 104.714 52.3976C107.439 53.0195 110.873 53.8861 111.672 56.9814C112.474 59.8392 109.472 63.1327 107.671 65.0138C107.547 65.4875 107.313 65.2476 107.432 65.1301Z" fill="#B4AE9E" fill-opacity="0.89"/>
<path d="M37.7345 53.8426C40.6927 54.8231 41.6155 57.4447 42.4171 60.3026C42.4159 60.4213 42.2971 60.4201 42.2984 60.3013C41.2556 57.7972 40.3328 55.1755 37.6121 54.1976C37.3747 54.1951 37.4971 53.8402 37.7345 53.8426Z" fill="#B4AE9E" fill-opacity="0.89"/>
<path d="M35.9452 54.6553C34.7715 53.3371 34.0064 58.4347 34.004 58.6721C33.7334 61.8751 34.2939 65.0866 33.5484 68.2847C32.9266 71.0091 30.7786 72.0555 28.6257 73.5768C25.8755 75.4481 24.5181 80.4208 24.8423 83.5112C24.8411 83.6299 24.7224 83.6287 24.7236 83.51C24.2782 80.6558 25.146 77.1028 26.8327 74.7456C27.9171 73.2133 29.4678 72.5169 30.9034 71.4631C34.0122 69.3581 33.2229 65.313 33.4923 62.2288C33.6331 60.0931 33.1975 56.2891 35.1129 54.7654C35.2329 54.6479 35.9476 54.4178 35.9452 54.6553C36.0626 54.7752 36.0626 54.7752 35.9452 54.6553C36.0626 54.7752 35.9439 54.774 35.9452 54.6553Z" fill="#B4AE9E" fill-opacity="0.89"/>
<path d="M25.6243 88.2686C25.5056 88.2673 25.5056 88.2673 25.6243 88.2686V88.2686Z" fill="#B4AE9E" fill-opacity="0.89"/>
<path d="M24.8522 82.5614C24.7175 84.1036 24.9243 87.074 27.4272 86.15C28.6193 85.6874 29.924 85.8196 31.2287 85.9518C33.9555 86.3362 37.1462 87.794 38.5463 90.1831C38.6626 90.4217 38.304 90.6555 38.1877 90.4168C36.664 88.5014 34.7755 87.4133 32.4085 86.6764C31.3425 86.4279 30.2753 86.2982 29.3255 86.2884C28.3758 86.2785 27.5386 86.8636 26.7075 86.855C24.3331 86.8304 24.4788 84.2198 24.8522 82.5614C24.7347 82.4415 24.8534 82.4427 24.8522 82.5614Z" fill="#B4AE9E" fill-opacity="0.89"/>
<path d="M27.0735 85.9089C22.2904 89.184 25.7795 96.2252 25.2568 100.85C24.854 105.358 23.5039 109.618 25.8354 113.798C27.8168 117.381 32.4224 119.803 35.9668 121.502C42.1083 124.652 48.8569 126.503 54.9984 129.653C61.2574 132.924 63.3269 139.476 68.0254 144.392C68.0242 144.511 68.0229 144.63 67.9054 144.51C65.1994 142.107 63.4505 139.002 61.343 136.131C58.6493 132.541 55.1085 130.486 51.2092 128.664C44.2379 125.387 36.7818 123.054 30.5351 118.596C27.4704 116.427 24.8844 113.907 24.2113 110.101C23.5371 106.413 24.9985 102.866 24.9178 99.1846C24.8445 94.7908 22.0578 88.7066 27.0735 85.9089Z" fill="#B4AE9E" fill-opacity="0.89"/>
<path d="M96.8155 46.9731C107.095 40.3116 113.698 56.2899 117.067 63.4487C120.435 70.7261 121.064 78.8064 118.374 86.3775C117.027 90.2817 115.208 93.9436 112.445 97.1208C109.442 100.414 105.854 102.989 104.738 107.608C104.735 107.846 104.26 107.841 104.264 107.485C104.769 104.522 106.336 102.282 108.376 100.166C111.019 97.2248 113.538 94.7575 115.475 91.0968C119.232 83.7742 120.269 75.355 117.856 67.4937C116.247 62.3716 113.333 57.1173 110.411 52.694C107.254 47.9121 102.541 44.4201 96.813 47.2105C96.813 47.2105 96.6955 47.0905 96.8155 46.9731Z" fill="#B4AE9E" fill-opacity="0.89"/>
<path d="M110.576 59.7009C113.995 61.9921 115.022 66.0396 114.864 69.8374C114.723 71.9732 113.633 74.0991 112.782 75.99C111.689 78.3533 109.297 79.9909 108.795 82.5978C108.792 82.9539 108.081 82.8279 108.203 82.4729C108.453 81.2882 108.939 80.2246 109.661 79.2822C111.105 77.3974 112.311 75.6289 113.165 73.3818C114.991 69.0076 114.341 62.9456 110.576 59.7009C110.457 59.6996 110.457 59.6996 110.576 59.7009Z" fill="#B4AE9E" fill-opacity="0.89"/>
<path d="M116.317 90.0369C116.549 90.633 116.665 90.8716 116.539 91.5827C116.538 91.7014 116.3 91.699 116.301 91.5803C115.377 89.0774 114.451 86.8119 113.05 84.5415C111.53 82.2698 109.147 83.0763 106.893 82.8156C104.403 82.5524 102.278 81.3431 99.785 81.3174C97.8855 81.2977 96.2111 82.4677 94.3092 82.6856C91.9311 83.0172 89.6902 81.5692 87.1958 81.6622C84.8202 81.7564 82.5474 83.3951 80.5157 84.6802C77.7679 86.314 75.0177 88.1853 71.8246 86.965C66.8568 85.1327 64.2035 77.6252 63.4215 72.8678C62.6371 68.3478 63.0657 61.3471 69.5793 62.9579C70.1717 63.0828 70.1607 64.1512 69.4496 64.0252C67.9074 63.8905 66.3653 63.7558 65.1646 65.0495C64.2038 66.1081 64.0667 67.8877 64.0532 69.1936C64.0262 71.8054 64.5928 74.4234 65.3993 76.8064C66.3184 79.7842 68.186 82.8905 70.5395 84.9333C74.1867 88.1767 78.4974 84.6593 81.8436 82.5567C84.83 80.8066 87.8054 80.125 91.2434 80.6354C93.4954 81.0149 95.0362 81.2683 97.2993 80.5793C98.9662 80.1216 100.273 80.0164 101.933 80.271C104.066 80.6492 105.837 81.6174 108.213 81.5232C109.281 81.5342 110.707 81.4302 111.771 81.9162C113.069 82.642 113.771 83.7178 114.589 84.9136C115.057 85.6308 115.286 86.4643 115.515 87.2978C115.628 87.7739 115.86 88.3699 115.974 88.846C116.087 89.3222 116.773 91.9413 116.317 90.0369Z" fill="#B4AE9E" fill-opacity="0.89"/>
<path d="M112.219 4.03245C110.666 4.96626 107.707 4.10455 106.414 2.78514C104.888 1.10712 103.202 3.46433 101.887 4.28187C100.214 5.33317 98.1872 6.14335 96.284 6.47988C95.3318 6.7075 94.3809 6.81641 93.4311 6.80659C92.5988 6.91673 92.0114 6.31699 92.1227 7.03054C92.354 7.62659 92.3491 8.10147 92.1068 8.57389C91.6172 9.99362 89.7115 10.5676 88.5182 11.1489C84.3459 12.768 79.0023 12.8316 75.2925 15.6428C73.617 16.9315 74.4271 18.9584 75.1235 20.5091C75.9374 22.1797 75.799 24.078 75.6619 25.8576C75.5186 28.2307 75.2579 30.484 75.7082 32.8633C76.0398 35.2413 76.7289 37.5044 76.7043 39.8788C76.7006 40.2349 76.1058 40.3475 76.1107 39.8726C76.0226 36.9034 75.1023 34.0443 74.6581 31.0714C74.2164 27.8611 75.4367 24.6679 74.6376 21.5726C74.1811 19.7869 72.7699 18.4663 73.5031 16.4554C73.8703 15.3906 74.7087 14.6869 75.6646 14.1031C78.2936 12.468 81.6227 12.0275 84.598 11.3459C86.7411 10.7744 92.6869 9.88594 91.2966 6.54707C91.1804 6.30841 91.4215 5.9547 91.6589 5.95715C94.2695 6.10286 96.6488 5.65252 99.0318 4.84602C101.296 4.0383 102.499 2.50721 104.293 1.2197C104.891 0.869677 105.719 1.1157 106.192 1.35805C106.9 1.72157 107.368 2.43879 108.075 2.92103C109.255 3.64562 110.791 4.37389 112.103 3.79378C112.222 3.79501 112.339 3.91496 112.219 4.03245Z" fill="#B4AE9E" fill-opacity="0.89"/>
<path d="M111.986 3.67384C112.399 9.61472 116.155 13.8092 121.353 16.3563C125.37 18.2975 130.245 17.6355 134.141 19.8129C137.446 21.6281 136.209 26.4833 136.297 29.4525C136.383 32.6592 137.899 35.2869 139.175 38.1497C140.569 41.1324 141.487 44.2289 142.166 47.4417C144.665 58.3909 143.352 70.6068 139.327 80.8949C137.254 86.2164 137.434 91.7987 135.716 97.1239C134.12 102.213 130.395 106.567 131.167 112.275C131.279 112.869 130.328 112.978 130.216 112.383C129.55 107.865 131.61 103.849 133.432 99.8311C134.528 97.2303 135.383 94.8645 135.768 92.1377C136.152 89.4108 136.419 86.564 137.16 83.8408C137.895 81.5925 138.867 79.4653 139.601 77.3357C140.821 74.2613 141.33 70.9421 141.719 67.7403C142.505 60.6245 142.695 53.74 141.104 46.8371C140.421 43.9805 139.381 41.2389 138.341 38.4973C137.298 35.9931 136.014 33.8427 135.567 31.1072C135.122 28.253 135.982 25.4124 135.298 22.6744C134.732 20.0565 131.411 19.666 129.159 19.2865C120.626 17.7735 111.762 13.8825 111.508 3.90637C111.513 3.43149 111.869 3.43517 111.986 3.67384Z" fill="#B4AE9E" fill-opacity="0.89"/>
<path d="M96.4642 46.4945C105.186 41.2417 116.229 41.1183 124.959 46.5515C128.499 48.7253 131.91 51.8476 133.77 55.6662C135.514 59.2462 135.125 62.4479 133.9 66.116C132.432 70.2564 130.847 74.277 132.226 78.6843C133.258 82.2569 136.407 87.7512 133.994 91.4069C132.788 93.2942 130.873 94.6992 128.962 95.8667C126.571 97.3855 124.416 99.1443 122.027 100.544C119.875 101.947 117.496 102.397 115.113 103.204C112.254 104.124 110.455 105.886 109.357 108.725C109.235 108.961 108.88 108.838 109.002 108.602C110.223 105.29 112.377 103.65 115.596 102.378C117.862 101.451 120.126 100.643 122.16 99.1209C124.313 97.5997 126.111 95.956 128.379 94.7921C130.767 93.5107 133.389 92.588 133.895 89.5062C134.4 86.6618 132.887 83.6779 131.844 81.1737C130.455 77.7161 129.889 75.0982 130.995 71.4289C131.978 68.2333 133.671 65.2825 134.181 61.8445C134.825 56.9832 131.07 52.67 127.657 49.7852C119.183 42.5736 106.602 42.0874 96.933 47.093C96.4556 47.3255 96.1056 46.7283 96.4642 46.4945Z" fill="#B4AE9E" fill-opacity="0.89"/>
<path d="M130.283 94.3369C130.977 96.125 131.554 97.7932 132.01 99.5789C132.352 101.007 133.385 104.461 131.714 105.275C131.594 105.393 131.359 105.153 131.36 105.034C131.251 104.083 131.499 103.136 131.272 102.065C131.046 100.994 130.819 99.9228 130.593 98.8519C130.37 97.4248 129.791 95.994 129.331 94.5645C129.217 94.0884 130.052 93.7408 130.283 94.3369Z" fill="#B4AE9E" fill-opacity="0.89"/>
<path d="M141.146 42.8006C145.247 36.5502 154.949 39.8562 159.537 43.9405C159.655 44.0605 159.651 44.4166 159.533 44.4154C156.547 46.0468 161.281 47.5205 162.584 47.8902C164.122 48.381 165.662 48.7531 167.2 49.2439C168.856 49.8547 170.387 51.0579 171.803 51.9036C173.456 52.8706 175.225 53.9574 176.754 55.398C177.46 55.999 177.81 56.5963 177.444 57.5423C177.201 58.1335 176.245 58.7173 175.765 59.1872C174.449 60.1235 173.49 61.0634 172.763 62.4807C171.674 64.3692 170.572 67.6823 173.771 68.309C174.719 68.4375 175.309 68.7998 176.016 69.4008C177.075 70.2429 177.527 72.5034 177.988 73.8143C178.22 74.4103 177.266 74.7567 177.035 74.1606C176.574 72.8498 176.113 71.4202 175.532 70.2269C174.832 69.0324 172.811 69.2489 171.751 68.4069C169.513 66.7215 171.81 62.7083 172.896 61.0573C173.619 59.9962 174.575 59.4124 175.532 58.7099C177.567 57.1874 177.099 56.4702 175.452 55.0284C172.978 53.1031 170.144 51.649 167.548 50.0787C165.659 48.9906 157.354 48.4298 157.863 45.1106C157.866 44.8731 158.708 43.8132 158.944 43.9344C157.65 42.7337 155.878 41.8843 154.222 41.2735C150.08 39.9246 144.152 39.151 141.146 42.8006C141.263 42.9206 141.144 42.9193 141.146 42.8006Z" fill="#B4AE9E" fill-opacity="0.89"/>
<path d="M178.704 73.4655C182.992 72.2037 184.348 78.8667 184.912 81.7221C185.476 84.5775 185.565 87.428 185.06 90.3911C184.684 92.287 184.188 94.3003 183.22 96.0713C182.252 97.8422 180.811 99.3709 179.961 101.262C178.989 103.389 180.386 106.015 181.198 107.924C182.011 109.713 182.706 111.382 183.042 113.286C183.716 116.973 181.653 121.345 180.194 124.654C178.734 128.083 177.746 131.753 175.577 134.818C173.045 138.591 168.406 139.374 164.704 141.473C164.465 141.589 164.111 141.348 164.351 141.113C166.867 138.883 170.315 138.444 173.068 136.335C176.179 133.993 177.053 129.846 178.395 126.417C179.856 122.87 181.435 119.443 182.068 115.65C182.702 111.739 179.888 108.266 178.977 104.576C178.406 102.314 179.019 100.421 180.344 98.6536C182.876 94.8804 184.336 91.4522 184.622 86.8246C184.772 83.7391 183.578 72.9222 178.937 73.9428C178.462 73.9379 178.348 73.4618 178.704 73.4655Z" fill="#B4AE9E" fill-opacity="0.89"/>
<path d="M152.132 82.6894C155.735 90.2068 155.771 98.1622 154.383 106.103C153.625 110.488 152.513 114.751 151.4 119.014C150.537 122.092 149.436 125.286 147.627 127.999C142.563 135.426 133.39 138.419 127.971 145.724C125.563 149.024 125.641 152.943 124.297 156.609C123.439 159.213 121.867 161.927 118.781 161.895C118.424 161.892 118.311 161.416 118.668 161.301C122.605 159.442 123.236 155.886 123.987 152.094C124.61 149.251 125.825 146.652 127.511 144.294C132.447 137.697 140.787 134.933 145.958 128.575C150.529 122.923 151.802 114.625 153.18 107.634C155.165 99.3433 155.611 90.6805 152.132 82.6894Z" fill="#B4AE9E" fill-opacity="0.89"/>
<path d="M150.798 119.839C148.585 115.66 143.733 114.185 139.468 113.191C134.849 112.075 129.853 112.973 125.107 112.687C123.446 112.551 121.549 112.294 120.012 111.684C117.294 110.469 114.802 110.324 111.951 110.414C110.407 110.517 108.989 109.789 107.691 109.064C105.212 107.613 103.078 107.354 100.23 107.206C91.8033 106.881 84.8724 99.6855 78.0272 95.6966C73.8953 93.398 69.5186 91.8092 64.8959 91.049C61.8141 90.5423 59.5707 89.3318 57.4583 86.9353C57.2233 86.6954 57.5819 86.4616 57.8169 86.7015C60.9843 90.415 64.7846 90.3355 69.1649 91.5681C73.0716 92.6771 77.0897 94.4996 80.5092 96.7908C84.4 99.4431 88.1708 102.213 92.4238 104.275C94.6685 105.367 97.0355 106.104 99.5237 106.605C101.538 106.982 103.68 106.529 105.572 107.261C107.819 108.115 109.465 109.676 112.076 109.821C114.212 109.962 115.995 109.743 118.127 110.24C120.259 110.737 122.268 111.708 124.521 111.968C127.011 112.232 129.506 112.139 132 112.046C138.651 111.877 148.141 112.687 151.274 119.725C151.273 119.844 150.916 119.959 150.798 119.839Z" fill="#B4AE9E" fill-opacity="0.89"/>
<path d="M57.6982 86.7003C56.8721 86.2168 55.5674 86.0846 54.6139 86.431C54.3753 86.5472 54.2602 86.1898 54.4989 86.0736C55.6885 85.8484 56.6346 86.2144 57.6982 86.7003Z" fill="#B4AE9E" fill-opacity="0.89"/>
<path d="M58.0433 87.7725C56.8745 85.9794 55.0888 86.4359 53.6544 87.3709C53.0571 87.7209 52.4574 88.3084 51.9764 88.8971C51.4966 89.3671 51.488 90.1981 51.0082 90.6681C50.7695 90.7843 50.5308 90.9006 50.4146 90.6619C49.4808 89.1088 52.4708 87.0025 53.5442 86.5386C55.2173 85.4873 57.3518 85.7469 58.0433 87.7725Z" fill="#B4AE9E" fill-opacity="0.89"/>
<path d="M144.395 130.459C144.75 130.581 145.225 130.586 145.34 130.943C145.107 130.585 144.632 130.58 144.395 130.459C144.277 130.457 144.278 130.339 144.395 130.459Z" fill="#B4AE9E" fill-opacity="0.89"/>
<path d="M142.589 132.933C138.18 134.431 134.128 135.933 129.382 135.646C124.754 135.361 119.901 133.886 115.888 131.589C114 130.501 112.59 129.061 111.421 127.268C109.667 124.638 109.827 120.603 106.638 119.026C102.621 117.085 97.87 117.273 93.7356 115.212C89.2476 112.91 86.4449 108.369 83.3975 104.538C81.4038 102.143 79.3942 101.291 76.4237 101.498C74.523 101.597 72.7446 101.341 71.0911 100.493C69.3189 99.6435 67.9078 98.3228 66.3767 97.1197C64.2569 95.4355 62.005 95.0561 59.5217 94.0805C57.6295 93.3486 55.9772 92.3817 53.9639 91.8859C52.6616 91.5163 51.2395 91.2641 50.5382 90.1883C50.422 89.9496 50.6606 89.8333 50.8968 89.9545C52.188 91.3926 54.7986 91.5384 56.4558 92.0304C58.113 92.5225 59.6453 93.6069 61.3037 93.9802C65.6852 95.0941 68.4965 98.8038 72.7569 100.154C74.6502 100.767 76.6746 100.194 78.6929 100.215C80.2362 100.231 81.4173 100.837 82.5959 101.68C84.4819 103.006 85.882 105.395 87.287 107.309C89.162 109.703 91.1569 111.98 93.7528 113.55C97.646 115.965 102.046 115.298 106.188 116.647C110.566 118.117 110.622 124.173 112.843 127.52C115.882 132.182 122.989 133.799 128.087 134.564C132.826 135.563 137.824 134.428 142.589 132.933Z" fill="#B4AE9E" fill-opacity="0.89"/>
<path d="M51.2555 89.7208C51.138 89.6008 51.1368 89.7195 51.2555 89.7208C51.2567 89.602 51.2567 89.602 51.2555 89.7208Z" fill="#B4AE9E" fill-opacity="0.89"/>
<path d="M57.2795 92.7513C60.3245 96.8197 63.0121 101.003 64.6239 105.888C66.1206 110.415 65.9552 114.925 65.5512 119.552C65.1399 124.89 64.4911 130.226 65.147 135.695C65.6915 140.45 67.903 144.747 70.593 148.693C75.7382 156.345 83.8709 162.128 92.3844 165.541C97.4697 167.493 102.447 168.376 107.804 167.006C112.924 165.634 117.585 162.714 121.891 159.672C122.369 159.32 122.954 160.158 122.476 160.509C118.174 163.195 113.87 166 108.986 167.612C104.338 169.226 99.7107 168.941 94.9742 167.705C86.3309 165.359 78.5519 159.817 72.6846 153.108C66.1124 145.678 64.0674 136.752 64.6442 126.904C64.9368 121.564 65.8255 115.992 64.9309 110.64C63.9275 104.337 60.4285 98.2455 57.0396 92.9863C56.9233 92.7476 57.162 92.6314 57.2795 92.7513Z" fill="#B4AE9E" fill-opacity="0.89"/>
<path d="M94.7712 60.9623C97.0465 59.0861 99.0893 56.7326 102.18 56.4083C104.676 56.0779 106.43 58.7082 107.122 60.7338C108.732 65.7372 108.074 72.0232 103.06 74.5835C98.7632 76.795 93.4306 75.79 89.054 74.2013C86.9244 73.4669 79.7266 69.1181 82.6066 66.1796C82.8465 65.9446 83.2002 66.1857 83.0778 66.5406C81.7375 69.8513 87.2891 72.6395 89.6549 73.4951C93.2018 74.9565 97.3521 75.4743 101.043 74.4439C105.806 73.187 106.917 69.0429 106.725 64.6478C106.522 61.3212 105.506 56.2053 100.983 57.3458C98.7208 57.9161 96.7992 60.0334 95.1224 61.4409C94.7626 61.7934 94.4126 61.1961 94.7712 60.9623Z" fill="#B4AE9E" fill-opacity="0.89"/>
<path d="M82.8489 65.7072C80.3472 66.5124 78.0781 67.795 76.6301 70.036C75.1797 72.5144 75.8515 76.4395 78.4511 77.6536C80.9319 78.8666 85.2145 78.0797 86.3698 81.1787C86.486 81.4174 86.2473 81.5336 86.0111 81.4125C84.9525 80.4517 84.1288 79.7308 82.7078 79.3599C81.5243 78.9915 80.3371 78.9792 79.1536 78.6108C77.1403 78.115 75.9666 76.7969 75.3926 74.8912C74.0183 70.009 78.6827 66.7327 82.8489 65.7072C82.9677 65.7084 82.9677 65.7084 82.8489 65.7072Z" fill="#B4AE9E" fill-opacity="0.89"/>
<path d="M93.4429 74.6028C91.2826 76.8364 89.465 80.3796 86.366 81.5349C86.1274 81.6511 86.0123 81.2938 86.1323 81.1763C87.3317 80.0013 88.6487 78.9463 89.8494 77.6527C90.9289 76.5953 92.1271 75.5391 93.4429 74.6028C93.4441 74.4841 93.5628 74.4853 93.4429 74.6028Z" fill="#B4AE9E" fill-opacity="0.89"/>
<path d="M83.2063 65.5921C82.7511 63.6877 84.6677 62.0452 86.4522 61.7075C89.6638 61.147 91.0467 65.1982 93.4064 66.6474C95.4123 67.8554 100.18 66.1237 101.217 69.1027C102.024 71.4857 101.517 74.5675 99.1304 75.7302C98.653 75.9627 98.3043 75.2467 98.7816 75.0142C100.214 74.3166 100.706 72.6594 100.72 71.2348C100.859 69.3365 99.3227 68.6082 97.7818 68.3548C96.1222 68.1002 94.5764 68.3217 93.0392 67.7122C91.9744 67.345 91.1568 66.0305 90.4543 65.0733C89.6343 63.9963 88.9306 63.1579 87.6296 62.6695C86.0912 62.1787 83.1035 64.0475 83.2063 65.5921Z" fill="#B4AE9E" fill-opacity="0.89"/>
<path d="M95.486 60.7323C93.8092 62.1397 94.7294 64.9988 93.6426 66.7686C93.5214 67.0048 93.0478 66.8811 93.1689 66.6449C93.7834 64.6328 93.9267 62.2597 95.486 60.7323Z" fill="#B4AE9E" fill-opacity="0.89"/>
<path d="M94.5129 62.9781C91.5817 59.3859 89.484 55.5647 87.1501 51.6225C86.6826 50.9052 86.1025 49.5932 84.903 50.7681C84.5432 51.1206 83.4624 52.2967 83.4575 52.7716C83.4539 53.1278 83.5677 53.6039 83.2091 53.8376C82.3719 54.4227 81.0635 54.6466 79.9938 54.7543C78.0906 55.0908 76.1973 54.4776 75.338 57.1995C75.0932 57.9094 74.9671 58.6205 74.6036 59.3291C73.8729 61.1026 71.3834 60.7206 72.185 63.5785C72.7566 65.7216 76.5507 66.2357 78.3266 66.729C78.8002 66.8526 78.6729 67.6824 78.1993 67.5588C74.645 66.8097 70.1459 65.5759 71.4985 61.078C71.6221 60.6044 72.2194 60.2544 72.578 60.0206C73.8949 58.9656 74.1447 57.7809 74.7542 56.2436C75.4898 53.9953 77.8667 53.7824 79.8886 53.4471C80.6021 53.3358 81.3169 53.1057 81.913 52.8744C82.8664 52.5281 82.1455 53.3517 82.1479 53.1143C82.0329 52.7569 82.1553 52.402 82.5127 52.2869C83.4698 51.5844 84.4367 49.9322 85.8626 49.8282C86.9311 49.8392 87.9762 52.1059 88.325 52.8219C90.3089 56.1669 92.5303 59.5144 94.8715 62.7444C95.1065 62.9842 94.6292 63.2168 94.5129 62.9781Z" fill="#B4AE9E" fill-opacity="0.89"/>
<path d="M72.1777 64.2908C70.9929 64.0411 70.0407 64.2687 68.8523 64.3752C68.6148 64.3727 68.4998 64.0153 68.7373 64.0178C69.8131 63.3165 71.1166 63.5675 72.3001 63.9359C72.5375 63.9383 72.4139 64.412 72.1777 64.2908Z" fill="#B4AE9E" fill-opacity="0.89"/>
<path d="M63.8514 65.7483C64.1232 62.4266 57.3071 67.1054 56.1125 67.8055C54.4394 68.8568 52.0429 70.9692 50.0234 71.0671C50.1446 70.8309 50.2658 70.5946 50.387 70.3584C53.0795 74.067 55.6606 77.0619 57.0399 81.4693C57.6151 83.2562 57.5967 85.037 57.9357 86.7028C57.9332 86.9402 57.6957 86.9377 57.5783 86.8178C57.1169 85.507 57.0154 83.8437 56.554 82.5329C55.1784 77.7693 52.4785 74.7731 49.5498 70.9434C49.3148 70.7035 49.5572 70.2311 49.9133 70.2348C51.4579 70.132 65.3398 59.5896 64.3238 65.9906C64.3225 66.1094 63.8489 65.9857 63.8514 65.7483Z" fill="#B4AE9E" fill-opacity="0.89"/>
<path d="M61.3455 135.893C58.664 131.116 53.9385 128.811 48.9695 127.098C44.2367 125.505 39.0228 124.502 34.0378 124.331C31.1898 124.183 28.5718 124.75 25.8327 125.553C24.0457 126.128 22.3837 126.111 20.6078 125.617C17.5309 124.636 15.2715 124.969 12.2925 126.006C9.90955 126.813 7.76644 127.384 5.39697 126.885C5.63564 126.769 5.7556 126.651 5.87676 126.415C6.55103 130.103 9.62058 131.797 12.5689 133.727C15.0461 135.296 16.9247 137.334 18.8022 139.49C22.7883 144.4 23.9154 150.229 25.5174 156.064C27.0067 161.303 29.0811 167.38 34.2778 170.046C37.1123 171.5 40.4439 170.822 43.4045 171.565C46.009 172.304 47.5081 176.594 50.4957 174.725C50.7344 174.609 51.0905 174.613 51.3255 174.852C52.7268 177.123 54.608 178.923 56.8477 180.49C57.9088 181.213 58.9736 181.581 60.1571 181.949C62.1692 182.563 64.0835 181.158 65.8679 180.821C67.6524 180.483 68.9534 180.971 70.6118 181.345C73.2163 182.084 75.8416 180.805 78.112 179.404C81.9356 177.069 85.1753 173.778 88.6476 170.964C92.4785 167.916 97.4734 167.137 102.22 167.423L102.218 167.542C95.9264 167.477 91.0355 169.682 86.3637 173.671C82.8902 176.603 79.2918 180.128 74.8832 181.626C73.215 182.203 71.5542 182.067 69.8958 181.693C68.2386 181.201 67.0527 181.07 65.1495 181.407C63.6024 181.747 62.4067 182.566 60.8621 182.669C56.9406 182.984 52.236 178.661 50.4872 175.556C50.7246 175.559 50.9608 175.68 51.3169 175.684C49.4051 176.851 47.983 176.599 46.4543 175.158C45.0444 173.719 43.9858 172.758 41.8525 172.38C39.9567 172.004 38.1735 172.223 36.2776 171.847C30.7088 170.721 27.7997 164.992 25.9493 160.224C23.5236 153.668 22.8837 146.656 18.6699 140.795C16.0937 137.325 13.2641 135.396 9.84449 133.105C7.36855 131.417 5.60619 129.618 5.04327 126.644C5.04572 126.406 5.28559 126.171 5.52303 126.174C10.6194 127.058 15.0549 122.948 20.1415 124.781C23.4546 125.884 25.4887 124.362 28.6979 124.039C31.3134 123.71 33.9252 123.737 36.5346 124.001C45.7874 124.809 56.4464 127.413 61.3455 135.893C61.4642 135.894 61.3442 136.012 61.3455 135.893Z" fill="#B4AE9E" fill-opacity="0.89"/>
<path d="M66.0397 164.2C60.3412 164.141 44.2895 166.35 51.2031 175.207C51.3194 175.446 51.0807 175.562 50.8445 175.441C43.2234 166.101 60.1062 163.901 66.0397 164.2C66.1585 164.201 66.1585 164.201 66.0397 164.2Z" fill="#B4AE9E" fill-opacity="0.89"/>
<path d="M54.6586 162.539C52.2793 162.989 50.0162 163.678 47.8658 164.962C45.1181 166.596 44.3824 168.844 44.8254 171.936C44.823 172.173 44.4655 172.288 44.3493 172.05C41.8013 165.849 50.2586 163.206 54.6586 162.539Z" fill="#B4AE9E" fill-opacity="0.89"/>
<path d="M165.656 141.245C160.433 141.073 158.355 146.869 155.354 150.044C152.353 153.219 147.823 154.953 143.772 156.336C140.793 157.374 137.24 156.506 134.158 155.999C132.381 155.624 130.484 155.367 128.703 155.349C126.209 155.442 125.127 156.737 123.566 158.383C123.326 158.618 122.734 158.493 122.858 158.019C124.833 150.678 137.243 156.15 141.997 155.724C144.73 155.515 147.595 154.001 149.982 152.838C152.727 151.442 154.883 149.683 156.689 147.208C158.859 144.025 161.387 140.726 165.656 141.245Z" fill="#B4AE9E" fill-opacity="0.89"/>
<path d="M133.333 155.397C139.618 156.174 145.402 159.44 150.23 163.289C151.644 164.372 154.002 165.94 153.743 168.075C153.478 170.684 150.847 172.556 149.403 174.441C148.441 175.619 147.831 177.156 146.868 178.452C145.905 179.748 144.824 180.924 143.743 182.1C142.421 183.63 141.218 185.161 140.249 187.051C139.644 188.113 139.161 188.939 138.202 189.761C137.364 190.464 136.174 190.69 135.222 190.917C133.318 191.372 131.766 192.188 130.327 193.479C128.649 195.005 127.326 196.653 125.296 197.82C122.191 199.569 118.742 200.127 115.917 197.723C115.682 197.483 115.448 197.124 115.213 196.885C114.979 196.526 113.893 198.296 113.773 198.413C113.169 199.357 112.685 200.302 111.962 201.244C109.799 203.834 106.572 205.819 103.941 207.691C101.429 209.446 98.6816 211.08 95.82 212.238C92.4811 213.628 90.1288 211.467 86.8022 211.67C85.1389 211.771 83.4646 212.941 81.9138 213.638C80.7205 214.219 79.0584 214.202 77.7513 214.307C74.4259 214.392 70.764 212.573 67.8083 211.355C65.7987 210.503 63.789 209.651 62.0217 208.327C61.7868 208.087 62.0291 207.614 62.2653 207.736C64.6323 208.472 66.7558 209.8 69.1204 210.775C72.0761 211.993 76.6877 213.821 79.9066 212.549C81.9335 211.738 83.7253 210.688 85.8659 210.354C88.4827 209.906 90.7224 211.473 93.333 211.619C95.8261 211.644 99.2911 209.543 101.44 208.378C104.186 206.982 106.578 205.225 108.739 202.992C110.659 200.993 110.566 198.499 112.013 196.376C112.857 195.079 114.288 194.5 115.827 194.991C116.3 195.115 116.534 195.473 116.648 195.949C116.97 199.277 120.655 198.84 122.919 198.033C125.183 197.225 126.741 195.816 128.421 194.171C130.34 192.292 132.136 190.767 134.873 190.201C138.562 189.408 139.305 186.448 141.233 183.737C143.28 180.908 146.036 178.562 147.731 175.374C149.062 172.894 153.962 169.858 152.095 166.633C150.462 163.885 146.21 161.704 143.733 160.135C140.429 158.082 137.002 156.503 133.21 155.87C133.213 155.514 133.214 155.396 133.333 155.397Z" fill="#B4AE9E" fill-opacity="0.89"/>
<path d="M67.3766 195.678C64.2323 201.226 59.6718 205.928 53.0137 206.809C47.4266 207.464 45.2408 200.673 40.2644 199.672C39.672 199.547 39.918 198.719 40.3917 198.842C45.0144 199.602 46.5087 204.367 50.7691 205.717C53.846 206.699 57.9045 204.604 60.4136 203.086C63.5187 201.337 65.5664 198.509 67.3766 195.678Z" fill="#B4AE9E" fill-opacity="0.89"/>
<path d="M55.4328 179.525C49.8616 178.637 45.8936 183.464 43.8288 187.954C42.9793 189.726 42.3673 191.501 41.7553 193.276C41.2657 194.696 40.169 197.415 41.104 198.85C41.3378 199.208 40.7393 199.677 40.5055 199.318C39.5681 198.121 40.0625 196.227 40.3135 194.923C40.8141 192.435 41.9084 189.953 42.8839 187.47C45.0736 182.387 49.634 177.685 55.554 179.289C55.6715 179.409 55.5503 179.645 55.4328 179.525Z" fill="#B4AE9E" fill-opacity="0.89"/>
<path d="M49.7712 175.905C44.7837 175.972 38.4732 177.688 38.4094 183.861C38.3726 187.423 39.7542 191.593 41.0258 194.931C41.1421 195.169 40.7847 195.284 40.6684 195.046C38.6882 191.344 36.8378 186.576 37.4756 182.308C38.4866 176.382 45.0273 175.381 49.7736 175.668C49.8923 175.669 49.8899 175.906 49.7712 175.905Z" fill="#B4AE9E" fill-opacity="0.89"/>
<path d="M63.8001 208.583C62.5052 207.501 60.8345 208.314 59.29 208.417C57.7454 208.52 55.9805 206.958 56.4726 205.301C56.5962 204.827 57.3122 204.479 57.6622 205.076C58.011 205.792 57.8825 206.74 58.5911 207.104C59.181 207.466 60.0146 207.237 60.6082 207.244C61.9141 207.257 63.4586 207.154 63.8001 208.583C63.9188 208.584 63.9188 208.584 63.8001 208.583Z" fill="#B4AE9E" fill-opacity="0.89"/>
<path d="M183.819 118.518C185.388 116.041 189.078 115.129 191.805 115.513C195.954 116.15 199.378 118.085 202.677 120.494C205.861 122.664 207.732 125.414 206.859 129.442C206.362 131.574 205.393 133.464 204.896 135.596C204.4 137.609 204.027 139.267 202.822 140.917C201.978 142.214 200.898 143.272 200.172 144.57C199.324 146.224 199.183 148.36 198.928 150.138C198.41 154.288 199.198 158.452 197.969 162.476C196.984 165.909 194.226 168.493 190.89 169.646C186.84 170.91 182.576 169.916 178.753 172.132C178.395 172.366 177.921 172.243 177.807 171.766C177.233 169.861 177.014 168.078 175.724 166.521C175.608 166.282 175.848 166.047 175.965 166.167C178.21 167.259 178.309 169.16 178.999 171.304C178.644 171.181 178.408 171.06 178.053 170.938C184.029 167.2 192.186 170.609 196.062 163.169C197.637 160.098 197.203 156.176 197.119 152.85C197.028 150.118 196.473 146.432 197.686 143.951C199.018 141.353 201.76 140.312 203.093 137.714C203.821 136.178 203.957 134.517 204.567 132.98C205.422 130.614 206.515 128.251 205.947 125.752C205.033 122.299 199.837 119.633 196.883 118.178C194.756 117.206 192.505 116.708 190.132 116.565C187.76 116.303 185.85 117.351 183.819 118.518Z" fill="#B4AE9E" fill-opacity="0.89"/>
<path d="M179.483 170.478C174.793 176.247 175.541 184.21 171.796 190.464C170.105 193.296 167.241 194.691 164.144 195.609C162.953 195.953 162.002 196.062 160.816 195.931C159.63 195.8 155.965 194.337 155.236 195.873C154.993 196.464 154.049 195.861 154.529 195.391C155.494 193.976 158.332 195.074 159.636 195.206C164.614 196.089 169.395 193.051 171.695 188.801C175.081 182.78 174.324 175.649 179.247 170.357C179.368 170.12 179.484 170.359 179.483 170.478Z" fill="#B4AE9E" fill-opacity="0.89"/>
<path d="M155.598 195.402C155.479 195.401 155.479 195.401 155.598 195.402C155.361 195.281 155.36 195.4 155.598 195.402C156.075 195.17 157.018 195.773 157.131 196.368C157.573 199.578 151.366 202.72 149.335 204.005C143.479 207.625 134.172 212.041 127.691 207.343C125.922 206.138 124.991 204.347 122.86 203.731C121.558 203.362 120.254 203.111 118.953 202.622C116.706 201.768 115.54 199.737 116.039 197.368C116.164 196.776 116.994 196.903 116.987 197.615C116.717 200.699 119.322 201.439 121.686 202.413C123.933 203.267 125.35 204.113 127.113 205.794C132.873 211.434 142.293 207.494 148.147 203.993C150.178 202.826 152.211 201.422 154.125 200.017C155.082 199.315 156.518 198.261 156.886 197.078C156.897 196.009 155.835 195.405 155.598 195.402Z" fill="#B4AE9E" fill-opacity="0.89"/>
<path d="M123.098 203.734C124.388 205.291 124.6 207.667 125.174 209.573C125.631 211.359 126.326 213.028 127.14 214.699C129.471 218.879 132.399 222.827 135.806 226.305C139.332 229.785 143.337 232.914 147.344 235.805C150.997 238.454 154.41 241.339 158.185 243.753C162.431 246.528 166.797 249.066 171.288 251.131C175.543 252.956 179.921 254.426 183.934 256.723C188.185 259.023 192.187 262.389 195.476 265.866C197.591 268.025 198.993 270.177 200.152 272.92C200.501 273.636 200.731 274.351 201.081 274.948C201.318 274.95 201.437 274.951 201.675 274.954C200.043 271.969 199.009 268.634 196.424 265.995C193.488 262.877 189.961 259.516 186.304 257.223C182.411 254.808 178.153 253.22 173.897 251.395C169.641 249.689 165.506 247.628 161.613 245.213C156.892 242.433 152.772 239.066 148.292 235.933C144.285 233.042 140.279 230.032 136.753 226.553C132.994 222.714 128.769 217.921 126.922 212.797C125.766 209.817 125.327 206.25 123.098 203.734Z" fill="#B4AE9E" fill-opacity="0.89"/>
<path d="M115.099 196.408C116.479 200.816 117.738 205.341 119.355 209.75C121.203 214.756 124.124 219.298 127.285 223.605C133.49 232.099 141.985 237.293 150.474 243.08C154.719 245.973 158.725 248.983 163.33 251.405C167.817 253.826 172.427 255.773 177.034 258.077C180.813 260.016 184.951 261.721 188.367 264.368C191.901 267.135 193.991 271.669 195.373 275.839C195.487 276.315 194.772 276.545 194.658 276.069C192.814 270.707 190.13 266.167 185.173 263.266C181.042 260.849 176.669 258.904 172.298 256.841C168.044 254.778 163.672 252.833 159.541 250.416C155.291 247.997 151.406 244.87 147.397 242.098C143.389 239.326 139.142 236.67 135.374 233.662C131.724 230.656 128.674 227.063 125.982 223.354C123.172 219.526 120.603 215.344 118.868 210.933C117.016 206.283 116.116 201.406 114.98 196.526C114.863 196.287 114.983 196.17 115.099 196.408Z" fill="#B4AE9E" fill-opacity="0.89"/>
<path d="M163.081 252.471C154.898 251.555 146.955 250.405 138.756 251.032C131.032 251.665 123.762 254.321 117.073 258.17C104.412 265.519 93.4989 275.973 86.1245 288.72C79.356 300.286 75.8944 313.548 73.6225 326.585C72.2381 334.17 71.8071 341.408 71.7286 349.006C71.6844 353.28 71.1653 357.549 69.4616 361.568C67.8814 365.114 65.2389 368.055 62.4801 370.757C62.3602 370.875 62.5952 371.115 62.7152 370.997C67.032 366.886 70.6414 362.293 71.7725 356.249C72.4017 352.812 72.3197 349.25 72.2366 345.805C72.1633 341.412 72.3262 337.139 72.9652 332.752C74.8858 319.237 78.1124 305.735 84.2947 293.45C90.9604 280.34 101.158 270.116 113.234 262.048C120.288 257.253 127.924 253.651 136.487 252.315C145.286 251.1 154.542 251.552 163.081 252.471C163.199 252.591 163.2 252.472 163.081 252.471Z" fill="#B4AE9E" fill-opacity="0.89"/>
<path d="M139.812 252.23C123.036 255.619 109.167 264.974 97.8744 277.681C92.4694 283.68 87.8882 290.401 84.1342 297.486C80.018 305.161 76.8405 313.914 75.2088 322.446C75.2064 322.683 75.5613 322.806 75.5638 322.568C77.0228 319.259 77.7743 315.467 78.7597 312.034C79.9935 307.535 81.6985 303.397 83.8784 299.264C87.6347 291.942 92.336 285.104 97.7446 278.748C108.321 266.39 123.281 254.909 139.812 252.23C139.93 252.35 139.931 252.232 139.812 252.23Z" fill="#B4AE9E" fill-opacity="0.89"/>
<path d="M139.094 252.817C137.815 250.191 134.689 253.959 134.553 255.619C134.411 257.874 137.008 259.325 138.419 260.646C141.478 263.408 143.453 267.585 145.077 271.282C146.931 275.694 147.952 280.335 148.258 285.207C148.566 289.84 148.144 296.247 143.37 298.573C143.607 298.694 143.843 298.815 144.079 298.936C144.096 297.274 143.631 296.32 141.97 296.184C141.733 296.181 141.493 296.416 141.49 296.654C141.675 301.761 140.073 307.444 136.118 310.965C136.355 311.086 136.59 311.326 136.826 311.447C137.434 310.028 137.685 308.725 137.107 307.176C136.992 306.818 136.399 306.812 136.276 307.167C134.901 313.92 130.465 318.03 125.903 322.851C125.543 323.204 126.131 323.803 126.491 323.451C128.168 322.043 129.384 319.206 127.383 317.523C127.147 317.402 126.791 317.399 126.668 317.754C125.437 322.015 122.913 324.957 119.561 327.654C118.124 328.826 116.57 329.879 115.014 331.05C114.534 331.52 114.55 329.976 114.549 330.095C114.322 329.024 114.091 328.428 113.506 327.591C113.389 327.471 113.27 327.47 113.15 327.587C110.688 335.992 100.676 339.807 94.3331 344.609C94.0944 344.725 94.3282 345.084 94.5669 344.968C98.634 342.041 103.169 339.832 107.118 336.786C108.674 335.615 110.232 334.206 111.318 332.555C111.921 331.612 112.525 330.668 113.01 329.604C113.253 329.132 113.256 328.776 113.38 328.302C113.38 328.302 114.062 331.277 114.176 331.754C114.174 331.872 114.409 332.112 114.648 331.996C119.915 327.895 125.291 324.626 127.379 317.88C127.141 317.996 126.903 317.993 126.783 318.111C128.667 319.674 126.982 321.912 125.785 322.85C126.02 323.09 126.137 323.21 126.372 323.45C131.054 318.511 135.489 314.401 136.986 307.412C136.749 307.409 136.511 307.407 136.155 307.403C136.737 308.596 136.605 309.782 135.881 310.962C135.757 311.436 136.229 311.797 136.588 311.445C138.505 309.802 139.833 307.679 140.689 305.313C141.299 303.657 141.671 302.117 142.045 300.459C142.17 299.866 142.176 299.273 142.181 298.798C142.183 298.561 142.186 298.323 142.189 297.967C142.084 296.66 142.319 296.9 142.893 298.805C142.889 299.161 143.363 299.285 143.602 299.169C150.522 295.916 149.326 285.218 148.32 279.152C147.651 274.989 146.148 271.056 144.288 267.237C143.128 264.613 141.49 262.221 139.611 260.183C138.673 259.105 137.492 258.499 136.313 257.656C132.898 254.89 138.275 251.621 139.094 252.817Z" fill="#B4AE9E" fill-opacity="0.89"/>
<path d="M96.2817 339.88C97.2585 337.278 98.1165 334.675 97.791 331.703C97.6845 330.515 96.5244 327.89 94.9761 328.349C94.9761 328.349 94.8574 328.348 94.8561 328.467C94.8549 328.586 94.8537 328.704 94.8524 328.823C94.8512 328.942 94.97 328.943 94.9712 328.824C95.5685 328.474 96.0421 328.598 96.3921 329.195C96.8621 329.675 97.0946 330.152 97.326 330.748C97.6723 331.702 97.66 332.889 97.6502 333.839C97.6293 335.857 97.1299 338.226 96.2817 339.88C96.163 339.879 96.1618 339.997 96.2817 339.88Z" fill="#B4AE9E" fill-opacity="0.89"/>
<path d="M94.8055 344.851C96.836 343.685 96.524 339.408 95.2353 337.732C95.0003 337.492 94.7616 337.608 94.6405 337.845C94.496 340.336 93.1643 342.816 90.5476 343.264C90.6651 343.384 90.9013 343.505 91.0175 343.744C91.1436 343.033 91.1522 342.202 91.5145 341.612C91.6357 341.375 91.5194 341.137 91.1633 341.133C89.1438 341.231 88.5318 343.006 87.5673 344.42C87.3262 344.774 87.9173 345.018 88.0397 344.663C88.883 343.484 89.4938 341.828 91.1571 341.727C91.0396 341.607 90.9234 341.368 90.8059 341.248C90.4424 341.957 90.4338 342.788 90.3065 343.618C90.1853 343.854 90.539 344.095 90.7764 344.097C93.6331 343.415 95.0859 340.699 95.2328 337.969C95.1141 337.968 94.8755 338.084 94.638 338.082C95.928 339.639 96.1274 343.322 94.8055 344.851Z" fill="#B4AE9E" fill-opacity="0.89"/>
<path d="M88.1634 344.189C88.7423 345.62 87.7082 342.285 87.8208 342.88C87.7045 342.641 87.3483 342.637 87.2272 342.873C86.3667 345.714 83.734 347.705 82.0474 350.063C80.2433 352.3 78.9116 354.779 76.9888 357.015C72.1823 362.546 65.2598 366.037 60.8071 371.808C60.5659 372.162 60.9172 372.641 61.2758 372.407C64.8582 370.426 67.8605 367.132 70.8568 364.432C73.9729 361.615 77.0854 359.154 79.4954 355.735C81.5418 353.026 83.2333 350.194 85.2786 347.603C86.1207 346.543 86.844 345.482 87.3312 344.299C87.6947 343.591 87.3385 343.587 87.4548 343.826C87.5686 344.302 88.1548 345.02 88.5073 345.38C88.6236 345.619 88.9822 345.385 88.8659 345.146C88.0533 343.357 89.4497 346.102 88.1634 344.189Z" fill="#B4AE9E" fill-opacity="0.89"/>
<path d="M167.101 254.175C161.861 255.664 152.987 252.723 147.527 252.548C143.609 252.507 138.745 252.101 135.864 255.158C135.624 255.393 135.977 255.753 136.216 255.518C139.576 252.109 146.456 252.774 150.962 253.296C155.467 253.936 162.575 255.553 167.101 254.175Z" fill="#B4AE9E" fill-opacity="0.89"/>
<path d="M142.09 250.117C134.357 251.58 133.019 243.255 129.266 238.705C125.515 234.035 118.058 231.821 112.367 231.05C106.083 230.154 99.0774 230.2 92.8881 231.68C88.2457 232.819 82.284 235.251 80.6903 240.102C80.5679 240.457 80.9217 240.699 81.1603 240.582C82.8273 240.125 86.4208 237.075 87.581 239.699C87.8209 239.464 88.0608 239.229 88.3019 238.875C83.4467 237.638 77.365 240.187 73.0702 242.161C66.1513 245.295 60.3829 252.003 55.6927 257.773C55.3316 258.244 55.6804 258.96 56.2765 258.729C58.657 258.16 60.455 256.516 62.7168 255.946C62.4818 255.706 62.2481 255.347 62.0131 255.107C59.8295 259.596 57.1735 263.843 55.936 268.699C55.8148 268.935 56.0486 269.293 56.286 269.296C58.0619 269.789 59.3764 268.972 60.8096 268.155C60.5746 267.915 60.2197 267.793 59.9847 267.553C59.4877 269.685 58.1647 271.334 57.0778 273.103C55.9897 274.992 55.1378 277.002 54.2859 279.011C53.1867 281.968 52.2051 285.045 51.106 288.002C49.762 291.669 46.3606 299.114 49.5292 302.708C49.7642 302.948 50.1216 302.833 50.2415 302.716C50.7213 302.246 51.201 301.776 51.6821 301.187C51.3271 301.065 51.0909 300.944 50.736 300.821C50.8388 302.366 50.7041 303.908 50.5694 305.45C50.4446 306.042 51.1532 306.406 51.633 305.936C52.5913 305.115 53.1886 304.765 53.7933 303.702C53.5571 303.581 53.3196 303.579 52.9647 303.456C53.4138 305.954 53.1494 308.564 53.1224 311.176C53.1175 311.651 53.946 311.897 54.1884 311.424C54.5531 310.597 55.0354 309.889 55.4014 308.943C55.1639 308.941 54.9265 308.938 54.5716 308.816C55.9496 313.342 55.7768 318.564 55.1354 323.188C54.7535 325.678 54.4817 329 56.1217 331.154C56.3554 331.512 56.8303 331.517 57.1889 331.283C58.5096 329.872 59.4765 328.22 60.7971 326.809C60.4422 326.687 60.0873 326.564 59.7323 326.442C60.2879 330.128 60.4983 332.742 62.6034 335.851C63.7722 337.644 64.1063 339.785 64.7978 341.81C65.4868 344.074 66.1757 346.337 66.6273 348.597C68.2096 356.331 65.4997 365.802 59.7435 371.323C59.5036 371.558 59.8548 372.036 60.2134 371.802C65.9598 367.231 68.1753 359.655 68.2489 352.532C68.2955 348.021 66.6776 343.73 65.4159 339.442C64.8407 337.655 64.3817 336.107 63.3304 334.434C61.5766 331.804 61.365 329.308 61.0407 326.218C60.9269 325.742 60.4557 325.381 59.9759 325.851C58.6553 327.262 57.6883 328.914 56.2502 330.205C56.6064 330.209 56.9613 330.331 57.3174 330.335C55.4449 327.703 56.6775 323.323 56.8269 320.356C57.1048 316.441 56.1968 312.395 55.4063 308.468C55.2912 308.111 54.8164 308.106 54.5765 308.341C54.093 309.167 53.492 309.873 53.1285 310.582C53.4834 310.704 53.8396 310.708 54.1945 310.831C54.3402 308.22 54.0098 305.723 53.6807 303.108C53.6843 302.751 53.2119 302.509 52.9708 302.863C52.2499 303.686 51.2964 304.033 50.5755 304.857C50.9305 304.979 51.2854 305.101 51.6403 305.224C51.7762 303.563 51.9097 302.139 51.6894 300.475C51.5756 299.999 51.1032 299.756 50.7434 300.109C49.4227 301.52 49.3101 300.925 49.2086 299.262C49.1058 297.717 49.4792 296.059 49.8513 294.519C50.4743 291.676 51.571 288.957 52.5502 286.117C53.7718 282.805 54.7571 279.372 56.2136 276.3C57.6689 273.347 59.954 270.521 60.6995 267.323C60.8231 266.849 60.3519 266.488 59.8746 266.721C59.0386 267.187 56.4096 268.822 57.0253 266.691C57.5149 265.272 58.1233 263.853 58.8491 262.555C60.062 260.074 61.5124 257.595 62.7254 255.115C62.9677 254.642 62.4978 254.162 62.0217 254.276C59.6411 254.845 57.8444 256.37 55.5826 256.94C55.8163 257.299 56.0501 257.658 56.1664 257.896C60.6154 252.481 65.5369 247.307 71.3934 243.568C75.578 240.762 82.4871 238.577 87.4647 239.46C88.0571 239.585 88.4194 238.995 88.1869 238.518C86.2079 234.698 82.9632 238.464 80.344 239.149C80.4615 239.269 80.6964 239.509 80.8139 239.629C82.7723 233.95 90.8686 231.778 96.2196 231.002C102.996 230.122 110.477 230.081 117.104 232.168C120.655 233.273 124.082 234.852 126.907 237.256C129.143 239.178 130.064 241.919 131.464 244.308C134.386 248.85 137.682 251.615 142.09 250.117C142.208 250.237 142.209 250.118 142.09 250.117Z" fill="#B4AE9E" fill-opacity="0.89"/>
<path d="M129.092 255.563C121.188 262.13 126.41 273.82 128.82 281.919C130.884 288.945 133.542 295.978 133.704 303.341C133.98 311.061 129.646 316.834 124.016 321.644C123.656 321.997 124.125 322.595 124.485 322.243C128.914 318.727 132.519 314.608 134.002 308.924C135.732 302.412 133.785 295.505 131.83 289.311C130.225 283.833 128.499 278.472 127.012 272.995C125.529 267.162 124.413 260.264 129.092 255.563C129.328 255.684 129.211 255.564 129.092 255.563Z" fill="#B4AE9E" fill-opacity="0.89"/>
<path d="M129.347 253.903C124.504 251.479 119.302 249.288 114.823 246.154C110.933 243.383 106.681 241.202 102.062 240.086C97.2058 238.967 92.1046 238.558 87.2285 239.339C83.4233 239.893 78.6586 241.388 76.4861 244.808C76.3649 245.045 76.5998 245.284 76.8385 245.168C78.8702 243.883 80.5483 242.357 82.815 241.312C85.0817 240.267 87.4598 239.935 89.8366 239.722C94.3529 239.294 98.9768 239.935 103.477 241.05C108.334 242.169 111.864 245.174 116.114 247.592C120.484 249.775 124.975 251.84 129.347 253.903Z" fill="#B4AE9E" fill-opacity="0.89"/>
<path d="M116.433 262.675C106.411 267.32 107.574 281.224 108.785 290.379C110.546 303.814 119.577 326.11 104.759 335.337C104.4 335.571 104.75 336.168 105.109 335.934C118.133 327.995 113.098 309.658 110.73 297.523C108.697 287.41 105.09 268.85 116.549 262.913C116.669 262.796 116.552 262.676 116.433 262.675Z" fill="#B4AE9E" fill-opacity="0.89"/>
<path d="M107.857 265.317C104.003 270.62 97.123 269.955 91.4355 268.828C86.8141 267.949 82.3138 266.834 77.5674 266.547C69.0233 266.103 59.8451 269.57 57.6149 278.571C57.4925 278.926 57.9674 278.931 58.0886 278.694C62.244 267.22 73.5359 266.031 84.201 268.041C92.0218 269.546 102.199 272.857 107.857 265.317Z" fill="#B4AE9E" fill-opacity="0.89"/>
<path d="M88.483 290.288C81.8675 298.531 89.4653 310.126 92.9459 317.999C94.92 322.293 95.9406 326.935 96.2477 331.687C96.3394 334.3 96.075 336.909 95.1007 339.274C94.004 341.994 91.9772 342.804 89.9405 344.564C89.8206 344.681 89.9356 345.039 90.1731 345.041C93.9758 344.724 96.1618 339.997 96.9072 336.799C97.9036 332.298 97.0029 327.539 95.8611 323.134C94.4892 318.015 91.6878 313.355 89.5999 308.584C86.9283 302.858 84.3876 295.945 88.483 290.288Z" fill="#B4AE9E" fill-opacity="0.89"/>
<path d="M81.1 303.866C77.1148 310.355 70.6622 314.325 65.0321 319.135C61.7972 321.951 56.0496 326.641 58.1362 331.531C58.2525 331.769 58.4911 331.653 58.4936 331.416C58.7961 325.126 63.7065 321.021 68.2571 317.269C73.1663 313.282 78.0731 309.534 81.1 303.866Z" fill="#B4AE9E" fill-opacity="0.89"/>
<path d="M76.658 320.086C77.2869 328.167 78.8705 335.782 78.4309 343.851C78.4272 344.207 79.0208 344.213 79.0245 343.857C81.3624 335.926 78.0029 327.818 76.778 319.969C76.8967 319.97 76.6592 319.968 76.658 320.086Z" fill="#B4AE9E" fill-opacity="0.89"/>
<path d="M88.005 267.605C80.156 268.83 74.0669 272.092 69.0157 278.332C68.8957 278.45 69.0132 278.57 69.1331 278.452C74.4181 272.57 80.2722 269.069 88.005 267.605Z" fill="#B4AE9E" fill-opacity="0.89"/>
<path d="M57.7751 286.052C56.463 286.633 55.0359 286.855 53.7226 287.554C55.0347 286.974 56.4618 286.751 57.7751 286.052Z" fill="#B4AE9E" fill-opacity="0.89"/>
<path d="M90.4524 283.541C88.7768 284.829 87.0988 286.356 85.4232 287.644C83.389 289.167 81.0073 289.855 78.5068 290.541C73.862 291.918 68.8709 292.341 64.1123 293.242C58.7589 294.255 50.8988 296.549 50.1203 302.952C50.1178 303.19 50.4716 303.431 50.5939 303.076C53.6429 295.271 61.7269 294.286 69.0997 293.175C73.381 292.507 77.5485 291.362 81.7184 289.981C85.2898 289.068 87.816 285.888 90.4524 283.541Z" fill="#B4AE9E" fill-opacity="0.89"/>
<path d="M114.932 247.105C109.865 243.372 104.885 242.727 99.044 244.923C92.6086 247.231 87.3371 251.807 80.5554 253.162C80.4366 253.16 80.4342 253.398 80.6716 253.4C92.0945 251.025 103.27 238.08 114.932 247.105Z" fill="#B4AE9E" fill-opacity="0.89"/>
<path d="M127.574 276.088C131.768 283.849 125.405 290.67 122.248 297.405C119.941 302.368 119.288 308.06 120.302 313.413C120.299 313.651 120.775 313.537 120.659 313.298C119.905 305.81 121.039 299.529 125.142 293.16C128.401 287.97 131.078 281.705 127.694 275.97C127.694 275.97 127.455 276.087 127.574 276.088Z" fill="#B4AE9E" fill-opacity="0.89"/>
<path d="M126.148 264.675C126.815 269.075 128.915 272.659 131.252 276.363C132.654 278.515 134.058 280.548 135.342 282.698C136.975 285.565 137.539 288.42 137.862 291.629C137.858 291.986 138.333 291.99 138.337 291.634C139.039 281.074 128.303 274.433 126.267 264.676C126.387 264.559 126.15 264.556 126.148 264.675Z" fill="#B4AE9E" fill-opacity="0.89"/>
<path d="M108.057 280.398C108.504 283.133 108.714 285.748 108.093 288.472C107.351 291.314 105.427 293.669 103.859 296.027C101.444 299.921 100.929 303.833 101.594 308.352C101.593 308.471 101.831 308.473 101.832 308.354C100.942 302.527 102.53 298.269 105.668 293.315C108.56 289.189 108.837 285.393 108.057 280.398Z" fill="#B4AE9E" fill-opacity="0.89"/>
<path d="M110.3 270.21C109.204 272.811 110.132 274.958 111.413 277.346C113.863 281.527 114.415 285.569 115.675 290.094C115.79 290.451 116.266 290.338 116.269 289.981C116.181 287.012 115.503 283.681 114.226 280.937C112.718 277.478 108.832 274.351 110.3 270.21C110.42 270.093 110.301 270.092 110.3 270.21Z" fill="#B4AE9E" fill-opacity="0.89"/>
<path d="M90.0479 311.201C93.1956 316.814 90.5249 322.486 88.214 327.805C86.3915 331.823 84.0855 336.667 85.4635 341.193C85.5798 341.432 85.936 341.435 85.9396 341.079C85.766 334.903 88.1895 330.179 90.3853 324.503C92.2127 320.01 92.8542 315.386 90.0479 311.201C90.0491 311.082 89.9291 311.2 90.0479 311.201Z" fill="#B4AE9E" fill-opacity="0.89"/>
<path d="M73.8522 292.868C70.8793 293.312 68.4963 294.118 66.5711 296.592C63.3227 300.714 62.2064 305.333 56.7269 307.057C56.4882 307.174 56.4845 307.53 56.8407 307.533C60.2885 307.094 62.4512 304.623 64.2602 301.911C67.0361 297.546 68.7314 294.358 74.086 293.226C74.0872 293.108 74.0897 292.87 73.8522 292.868Z" fill="#B4AE9E" fill-opacity="0.89"/>
<path d="M81.8494 288.795C80.1898 288.54 78.4114 288.284 76.7542 287.792C74.7421 287.178 73.6908 285.505 72.0398 284.419C68.7378 282.248 64.3488 281.846 60.6575 282.877C60.4188 282.993 60.4151 283.349 60.7713 283.353C62.6708 283.372 64.5752 282.917 66.5922 283.057C69.7964 283.208 71.9162 284.893 74.2722 286.698C76.5119 288.265 79.2425 288.293 81.8494 288.795Z" fill="#B4AE9E" fill-opacity="0.89"/>
<path d="M95.4745 268.632C91.6669 269.424 89.9351 264.657 87.7016 262.497C85.3505 260.216 82.3972 258.761 79.1979 258.134C79.0792 258.133 78.958 258.369 79.1955 258.372C83.8145 259.488 86.7555 262.131 89.8054 265.724C91.3304 267.521 92.9765 269.081 95.4745 268.632Z" fill="#B4AE9E" fill-opacity="0.89"/>
<path d="M123.102 249.208C121.57 248.124 120.158 246.922 119.104 245.486C117.931 244.049 117.476 242.145 116.662 240.474C115.265 237.848 112.79 236.041 109.944 235.655C109.707 235.653 109.705 235.89 109.822 236.01C114.327 236.651 116.194 239.876 117.816 243.692C118.859 246.196 120.861 247.76 123.102 249.208C123.101 249.327 123.101 249.327 123.102 249.208Z" fill="#B4AE9E" fill-opacity="0.89"/>
</svg>
