<svg width="55" height="58" viewBox="0 0 55 58" fill="none" xmlns="http://www.w3.org/2000/svg">
<path d="M24.4615 50.0771C24.4615 49.4949 23.9947 49.0291 23.4111 49.0291H6.75862C4.19098 49.0291 2.11141 46.9439 2.11141 44.3929V10.1723H10.4775V14.1206C10.4775 14.7027 10.9443 15.1685 11.5279 15.1685C12.1114 15.1685 12.5782 14.7027 12.5782 14.1206V10.1723H25.2361V14.1206C25.2361 14.7027 25.7029 15.1685 26.2865 15.1685C26.87 15.1685 27.3369 14.7027 27.3369 14.1206V10.1723H35.7029V22.2364C35.7029 22.8186 36.1698 23.2843 36.7533 23.2843C37.3369 23.2843 37.8037 22.8186 37.8037 22.2364V9.12438C37.8037 8.5422 37.3369 8.07646 36.7533 8.07646H27.3263C27.1459 3.59894 23.443 0 18.9019 0C14.3607 0 10.6578 3.58836 10.4775 8.07646H1.0504C0.466843 8.07646 0 8.5422 0 9.12438V44.3929C0 48.1082 3.02387 51.125 6.74801 51.125H23.4005C23.9947 51.125 24.4615 50.6487 24.4615 50.0771ZM18.9019 2.09586C22.2759 2.09586 25.0451 4.75272 25.2255 8.07646H12.5782C12.7586 4.75272 15.5279 2.09586 18.9019 2.09586Z" fill="#A5BB70"/>
<path d="M33.6376 31.0962V32.2923H27.8551C27.2715 32.2923 26.8047 32.758 26.8047 33.3402V51.7266C26.8047 54.701 29.2238 57.1144 32.2052 57.1144H48.8524C51.8339 57.1144 54.253 54.701 54.253 51.7266V33.3402C54.253 32.758 53.7861 32.2923 53.2026 32.2923H47.4201V31.0962C47.4201 27.3067 44.3325 24.2158 40.5235 24.2158C36.7251 24.2264 33.6376 27.3067 33.6376 31.0962ZM46.3697 38.04C46.9532 38.04 47.4201 37.5743 47.4201 36.9921V34.3881H52.1522V51.7266C52.1522 53.5472 50.6668 55.0186 48.8524 55.0186H32.2052C30.3803 55.0186 28.9055 53.5366 28.9055 51.7266V34.3881H33.6376V36.9921C33.6376 37.5743 34.1044 38.04 34.688 38.04C35.2715 38.04 35.7384 37.5743 35.7384 36.9921V34.3881H45.3193V36.9921C45.3193 37.5743 45.7861 38.04 46.3697 38.04ZM45.3193 31.0962V32.2923H35.7384V31.0962C35.7384 28.4605 37.8922 26.3117 40.5341 26.3117C43.1654 26.3223 45.3193 28.4605 45.3193 31.0962Z" fill="#441A00"/>
</svg>
