<svg width="25" height="25" viewBox="0 0 25 25" fill="none" xmlns="http://www.w3.org/2000/svg">
<path d="M20.4946 12.8029C20.4949 12.3895 20.1597 12.0543 19.7466 12.0549L13.5987 12.0541V5.90702C13.599 5.49363 13.2635 5.15819 12.8504 5.15872C12.4375 5.15899 12.1024 5.49416 12.1019 5.90729L12.1016 12.0058L6.00783 12.005C5.59497 12.0053 5.2598 12.3405 5.25953 12.7533C5.2598 12.9609 5.34359 13.1481 5.47909 13.2836C5.61459 13.4191 5.80126 13.5024 6.00862 13.5024L12.1498 13.5029L12.1509 19.6447C12.1506 19.8518 12.2339 20.0385 12.3694 20.174C12.5052 20.3097 12.6926 20.3938 12.8992 20.393C13.3123 20.393 13.6475 20.0578 13.6475 19.6447L13.6472 13.552L19.7458 13.5517C20.1597 13.5515 20.4946 13.2166 20.4946 12.8029Z" fill="black"/>
<path d="M21.4393 4.21327C16.7698 -0.456286 9.17067 -0.456816 4.50031 4.21354C-0.169508 8.88336 -0.169243 16.4827 4.50031 21.1523C9.17014 25.8221 16.7695 25.8224 21.4393 21.1525C26.1099 16.4825 26.1094 8.88336 21.4393 4.21327ZM5.55859 20.094C1.47213 16.0075 1.47239 9.35853 5.55859 5.27234C9.64531 1.18562 16.2941 1.18562 20.3805 5.27207C24.4672 9.3588 24.4672 16.0075 20.3805 20.0943C16.2946 24.1807 9.64558 24.181 5.55859 20.094Z" fill="black"/>
</svg>
