<svg width="58" height="54" viewBox="0 0 58 54" fill="none" xmlns="http://www.w3.org/2000/svg">
<path d="M32.7705 17.0434L24.9911 24.0933L24.1211 23.1204C23.7681 22.7288 23.1755 22.7035 22.7846 23.0573C22.3937 23.411 22.3685 24.0048 22.7216 24.3965L23.5915 25.3693L22.3811 26.4685L21.5111 25.4957C21.1581 25.104 20.5655 25.0787 20.1746 25.4325C19.7838 25.7863 19.7586 26.3801 20.1116 26.7717L20.9816 27.7446L17.3251 31.0421C16.9343 31.3959 16.9091 31.9897 17.2621 32.3813C17.6151 32.773 18.2077 32.7983 18.5986 32.4445L22.255 29.147L26.2771 33.6068C26.6302 33.9985 27.2228 34.0238 27.6136 33.67C28.0045 33.3163 28.0297 32.7225 27.6767 32.3308L23.6546 27.8709L24.865 26.7717L26.9832 29.1217C29.3284 31.7117 33.4261 31.8381 36.137 29.387C38.8478 26.936 39.1756 22.893 36.8935 20.1893C36.8809 20.1767 36.8809 20.1767 36.8683 20.164L34.107 17.1065C33.754 16.7149 33.1614 16.6896 32.7705 17.0434ZM35.4561 21.4274C37.07 23.3479 36.8052 26.2158 34.8635 27.972C32.9344 29.7155 30.0219 29.665 28.3828 27.8456L26.2645 25.4957L33.3505 19.0901L35.4561 21.4274Z" fill="#6F7A27"/>
<path fill-rule="evenodd" clip-rule="evenodd" d="M33.5522 0H57.0544C57.5713 0 58 0.429564 58 0.947568V24.1693C58 24.4472 57.8739 24.7126 57.6722 24.8894L25.0667 52.9248C24.8902 53.0638 24.6632 53.1396 24.4489 53.1396C24.2093 53.1396 23.9697 53.0512 23.7806 52.8743L0.278441 29.741C0.0893144 29.5515 -0.0115534 29.2988 0.00105507 29.0335C0.0136635 28.7682 0.12714 28.5155 0.328875 28.3512L32.9344 0.227415C33.1109 0.0758039 33.3252 0 33.5522 0ZM24.4993 50.9033L56.1213 23.7271V1.8825H33.9178L2.34623 29.1093L24.4993 50.9033ZM52.7926 10.7391C52.7926 13.7713 50.334 16.235 47.3079 16.235C44.2819 16.235 41.8232 13.7713 41.8232 10.7391C41.8232 7.70684 44.2819 5.24316 47.3079 5.24316C50.334 5.24316 52.7926 7.70684 52.7926 10.7391ZM50.9013 10.7391C50.9013 8.75548 49.2875 7.1383 47.3079 7.1383C45.3284 7.1383 43.7145 8.75548 43.7145 10.7391C43.7145 12.7226 45.3284 14.3398 47.3079 14.3398C49.2875 14.3398 50.9013 12.7226 50.9013 10.7391Z" fill="#441A00"/>
</svg>
