<svg width="220" height="395" viewBox="0 0 220 395" fill="none" xmlns="http://www.w3.org/2000/svg">
<path fill-rule="evenodd" clip-rule="evenodd" d="M111.279 250.938C122.101 252.996 132.752 255.19 143.711 257.421C139.787 256.333 135.999 255.418 131.46 254.258C147.423 249.754 162.906 245.35 178.217 241.081C178.551 242.212 179.021 243.514 179.355 244.644C175.375 246.668 171.531 248.863 167.316 250.235C159.366 252.881 151.317 255.046 143.232 257.52C153.677 254.858 164.186 252.983 174.261 249.498C179.127 247.891 183.061 247.576 188.151 248.022C202.637 249.422 216.362 251.98 228.402 260.884C229.695 261.816 232.29 262.279 234.071 261.71C243.631 258.632 250.772 264.152 258.23 268.306C280.775 280.634 305.486 286.516 330.831 289.668C320.831 287.239 310.659 284.946 300.56 282.038C291.962 279.619 283.4 276.892 274.911 273.551C271.638 272.229 269.406 268.692 266.17 267.063C262.048 265.017 259.564 258.333 253.486 262.29C245.677 254.509 235.238 261.069 226.785 257.42C222.934 255.718 219.671 252.994 216.2 250.714C223.158 243.275 229.527 236.859 236.141 229.691C241.213 232.94 246.347 236.976 247.934 244.645C248.566 247.214 250.354 250.542 252.569 251.583C263.435 257.232 274.374 262.265 285.449 267.471C285.693 266.72 286.245 266.006 286.49 265.256C277.323 261.055 268.02 256.683 258.853 252.482C254.116 250.363 250.989 247.812 249.798 242.06C249.14 238.397 245.986 234.751 243.166 232.236C237.933 227.721 237.384 223.136 241.42 218.002C248.215 209.298 256.34 201.218 262.286 191.79C267.227 184.269 269.854 175.228 273.331 166.91C271.847 168.917 269.92 170.715 269.494 173.003C265.949 191.132 248.221 198.7 240.084 213.48C240.52 209.791 241.534 206.482 243.435 203.589C251.344 192.055 260.411 181.281 262.561 167.04C262.67 166.118 262.816 164.888 263.295 164.789C271.281 161.836 266.845 155.857 266.639 151.001C266.4 141.153 261.531 133.564 255.874 126.037C254.79 124.662 254.356 123.052 253.444 121.542C254.131 121 254.954 120.629 255.642 120.087C262.935 128.275 270.092 136.29 274.12 147.053C273.696 144.042 274.304 140.217 272.678 138.154C258.6 117.475 244.315 97.2394 229.894 76.8315C229.216 75.9721 228.366 75.2482 226.875 73.3575C231.188 92.2589 234.072 110.056 245.901 124.703C245.603 123.265 245.342 121.519 244.872 120.217C240.303 108.767 236.041 97.3525 231.471 85.9021C232.466 85.3963 233.425 85.1979 234.42 84.692C237.283 90.7973 240.318 96.7671 242.874 102.836C245.8 109.728 246.836 118.111 251.517 123.34C258.539 131.184 259.085 141.068 263.367 149.679C263.972 151.153 262.415 153.775 262.025 155.755C260.931 155.781 260.008 155.672 258.914 155.699C254.543 145.207 250.308 134.887 245.765 124.531C244.264 124.042 242.248 123.959 241.434 122.928C234.495 113.068 224.171 108.107 213.431 104.032C201.976 99.405 193.063 93.0523 190.765 79.5323C190.044 75.083 185.769 70.3695 181.928 67.2658C173.666 60.6783 171.537 52.3218 172.528 42.6196C172.901 38.1437 174.17 32.6826 168.672 31.7211C163.79 30.8324 155.443 31.5603 153.85 34.4893C147.514 45.8977 135.243 45.5384 126.117 50.2266C113.146 57.1101 109.672 60.1285 111.174 75.1129C111.3 76.6864 111.118 78.2235 111.38 79.9689C110.113 80.131 109.155 80.3294 108.712 80.1212C96.282 73.1969 96.282 73.1969 87.4768 85.7162C81.8479 93.7792 69.2405 97.5884 57.3961 94.9416C54.6655 94.3071 51.7897 94.9024 48.9865 94.8828C49.4462 97.5868 50.5208 100.363 50.673 103.031C50.6535 105.834 50.5248 109.56 48.9052 111.395C44.0827 116.591 42.2353 121.672 45.6407 128.465C46.5169 130.283 46.9766 132.987 46.1437 134.759C43.0372 143.9 48.1978 149.03 54.7963 153.862C57.96 156.106 61.051 158.965 63.319 162.195C70.8635 173.529 80.166 177.902 93.7223 175.296C98.9947 174.204 102.882 175.599 105.104 180.538C106.622 183.522 107.66 186.606 108.87 189.555C114.596 201.766 120.323 213.976 126.049 226.187C126.357 226.223 124.955 226.213 123.554 226.204C123.742 228.564 123.795 230.752 123.984 233.112C127.673 233.548 131.362 233.984 136.76 234.467C142.655 237.345 150.456 241.229 159.451 245.565C153.538 245.49 148.239 245.487 142.94 245.484C142.034 247.871 140.623 249.262 138.742 249.352C129.165 249.934 120.204 250.59 111.279 250.938ZM108.558 97.2478C114.283 94.9631 120.045 92.371 125.869 90.5656C132.824 88.4262 147.413 99.5022 147.463 106.99C147.625 108.256 146.386 109.512 145.616 112.071C143.9 108.127 142.789 105.658 141.714 102.881C141.235 102.98 141.063 103.116 140.584 103.215C141.143 106.398 141.394 109.545 141.953 112.729C141.302 112.963 140.823 113.063 140.307 113.469C138.581 110.927 136.991 108.557 134.488 104.677C134.875 107.996 135.137 109.741 135.362 111.794C134.882 111.893 134.538 112.164 134.059 112.263C132.062 109.378 130.373 106.528 127.599 102.304C128.122 105.795 128.211 107.675 128.697 111.474C124.694 107.104 121.91 104.281 119.127 101.458C116.585 103.184 114.188 103.68 112.724 102.884C111.024 101.436 109.913 98.9667 108.558 97.2478C107.471 101.172 117.17 107.462 110.46 108.851C108.358 116.083 106.573 121.951 104.961 127.683C104.174 127.746 103.559 127.674 102.908 127.908C101.681 122.464 99.6675 117.083 99.0554 111.711C98.1821 104.594 100.139 98.5906 108.558 97.2478ZM181.972 119.641C171.357 117.139 160.914 114.502 151.53 112.146C149.823 106.801 149.545 102.56 147.205 99.9452C138.348 90.4819 128.46 81.8318 114.61 92.1962C114.095 92.6029 113 92.6294 112.349 92.8642C98.4757 96.8355 95.8513 100.578 96.5037 114.838C96.6295 116.412 95.0099 118.247 93.9688 120.461C95.3242 122.18 97.2219 124.587 99.1196 126.993C94.8519 126.177 90.3131 125.017 88.1444 122.267C85.8401 119.345 83.3933 112.354 84.7683 111.269C92.3046 104.211 89.4247 95.6098 90.5413 87.4811C91.8396 77.8153 96.2987 75.6926 104.263 80.8422C111.783 85.7835 115.175 84.7816 118.615 76.7717C119.656 74.5568 120.562 72.17 121.739 70.1271C128.2 60.2922 138.147 60.5326 143.268 71.2689C146.872 79.0204 149.346 87.1058 152.768 96.3944C152.725 92.8045 152.708 90.3087 152.691 87.8129C153.17 87.7137 153.478 87.7501 153.957 87.6509C155.438 90.9432 157.055 94.4074 159.078 98.3872C159.739 96.7509 160.02 95.693 160.681 94.0567C164.278 97.9107 162.157 107.947 171.138 104.488C178.966 109.466 186.795 114.444 196.051 120.525C189.387 120.205 185.526 119.905 181.972 119.641C195.416 123.256 204.445 132.584 211.474 144.325C213.028 147.002 216.4 148.804 218.297 151.21C220.972 154.955 222.959 159.242 225.29 163.258C224.43 163.936 223.399 164.749 222.675 165.599C217.171 160.74 211.667 155.881 206.47 151.059C206.063 150.543 206.417 148.87 206.526 147.948C208.102 142.523 206.35 138.887 201.305 136.733C195.989 134.234 191.775 135.606 188.562 140.37C185.693 144.863 182.52 144.02 178.949 141.26C176.671 139.432 174.331 136.818 171.772 136.048C164.847 133.982 156.195 129.375 151.085 131.732C142.203 135.67 135.407 144.374 127.907 151.125C127.266 149.958 126.218 148.276 124.33 144.468C124.744 148.881 125.104 151.105 125.23 152.679C111.548 153.712 98.1536 157.584 93.6067 138.031C92.655 142.127 92.1295 143.935 91.9115 145.78C91.4322 145.879 90.9529 145.978 90.5099 145.77C89.3725 142.206 88.4069 138.507 87.1339 134.772C86.3374 136.237 85.5408 137.701 84.9162 139.03C77.8845 132.588 76.2342 124.132 80.2532 116.502C87.3017 125.44 87.3017 125.44 100.836 130.936C102.607 131.769 104.207 132.738 105.807 133.706C121.97 144.656 134.442 140.675 140.827 122.259C144.313 112.54 148.772 110.417 157.83 115.54C165.315 120.789 173.417 120.812 181.972 119.641ZM204.857 122.501C202.963 114.796 200.76 107.054 198.965 99.8284C203.837 102.119 209.252 105.097 215.256 107.053C229.034 111.799 238.75 120.584 244.847 133.618C246.563 137.562 249.409 141.171 251.125 145.115C253.645 151.491 258.65 159.252 256.938 164.505C253.723 174.568 246.583 183.543 241.288 192.737C232.957 181.465 232.864 170.388 236.261 158.788C234.757 163.598 233.118 168.236 230.953 174.682C228.265 163.142 225.874 153.041 223.52 142.631C222.885 145.362 222.459 147.649 222.204 149.801C221.418 149.864 220.631 149.927 219.709 149.818C219.206 143.524 218.875 137.095 218.372 130.801C218.064 130.764 217.757 130.728 217.757 130.728C217.112 134.86 216.604 139.164 215.788 143.432C215.173 143.359 214.386 143.422 213.771 143.349C213.159 137.978 212.375 132.742 211.8 127.063C210.93 129.142 210.306 130.471 209.473 132.243C207.413 128.57 206.239 125.314 204.857 122.501C204.54 123.867 203.879 125.503 203 128.984C197.724 120.879 193.36 114.284 189.267 108.034C186.986 111.505 182.953 111.34 180.731 106.402C176.251 96.8321 171.771 87.2626 168.25 77.4947C165.496 70.4671 161.664 65.9618 155.3 61.7807C151.251 59.12 147.954 51.4048 148.129 45.9703C148.522 38.6912 159.747 32.069 165.823 33.4106C167.631 33.936 170.008 36.2432 170.134 37.8167C170.961 46.6427 171.002 55.5316 171.386 64.1494C180.454 67.8708 186.093 72.9015 188.937 81.8101C193.731 95.3133 199.448 108.925 204.857 122.501ZM213.673 191.655C216.159 193.04 218.671 195.519 221.167 195.502C228.175 195.551 238.172 203.279 236.794 209.662C234.917 218.948 231.503 228.052 228.876 237.093C221.073 218.715 221.073 218.715 185.737 197.237C192.67 203.2 200.326 208.313 207.43 214.141C212.564 218.176 217.834 222.384 221.593 227.504C226.942 234.994 223.674 242.869 214.666 245.233C208.878 246.731 202.792 246.791 196.878 246.716C184.092 246.763 174.548 237.842 173.542 225.254C173.416 223.68 172.884 221.591 173.644 220.434C180.195 212.48 176.809 202.884 175.357 195.387C173.373 185.801 171.842 175.021 163.554 167.34C159.613 163.757 157.636 158.068 154.763 153.364C157.9 154.514 160.313 156.514 162.383 158.785C167.642 164.394 172.241 171.64 178.641 175.513C189.263 181.912 201.405 185.997 212.651 191.067C209.759 189.166 206.731 187.094 203.802 185.501C191.607 179.228 179.167 173.705 170.429 161.918C165.314 155.079 156.627 150.779 149.314 145.395C148.455 146.072 147.731 146.922 146.872 147.6C154.046 158.111 161.22 168.622 169.171 180.472C166.133 179.802 164.325 179.276 162.652 178.923C161.149 183.733 159.509 188.371 158.006 193.18C158.449 193.389 158.756 193.425 159.027 193.769C160.657 190.532 162.286 187.296 164.259 183.789C172.332 188.016 166.974 196.423 170.082 201.777C173.289 207.612 173.901 212.983 168.907 218.316C165.789 214.362 162.807 210.581 159.825 206.8C161.171 209.92 162.652 213.212 164.169 216.197C167.71 223.162 171.559 230.163 175.642 237.815C163.415 241.046 153.25 242.65 144.301 236.605C136.816 231.356 130.337 224.2 123.441 217.93C123.956 217.523 124.336 216.944 124.852 216.538C127.582 217.172 130.449 217.979 133.179 218.613C133.215 218.306 133.424 217.863 133.324 217.383C128.009 214.885 122.693 212.386 117.513 210.059C117.757 209.309 118.137 208.73 118.554 207.844C121.284 208.479 123.843 209.249 126.709 210.055C126.745 209.748 126.782 209.44 126.818 209.133C122.732 206.78 118.511 204.254 114.425 201.901C114.805 201.323 115.185 200.744 115.565 200.166C117.852 200.592 120.276 201.19 124.236 201.97C119.029 198.549 115.287 195.924 111.545 193.3C111.753 192.857 111.961 192.414 112.341 191.836C115.551 192.371 119.068 192.942 122.278 193.478C122.314 193.17 122.486 193.035 122.523 192.727C118.228 190.817 114.07 189.079 108.004 186.335C111.666 185.677 113.24 185.552 115.329 185.019C111.993 182.91 109.236 181.182 104.915 178.177C118.118 177.244 129.367 177.015 137.9 183.946C146.026 190.362 152.459 199.227 159.653 206.935C153.229 196.668 148.551 186.14 154.824 173.945C152.606 178.203 150.389 182.461 148.171 186.719C147.285 186.302 146.534 186.058 145.648 185.641C146.908 181.582 147.995 177.658 149.181 174.213C146.739 176.418 144.16 178.452 141.889 180.521C141.05 178.396 140.382 176.135 139.542 174.009C130.081 177.567 135.231 169.603 134.672 166.42C132.646 167.739 130.828 168.615 129.145 169.663C128.034 167.194 127.059 164.897 126.824 164.245C123.677 164.497 121.181 164.514 118.821 164.702C124.091 168.91 129.053 173.081 134.323 177.289C132.676 178.029 131.619 177.749 130.561 177.468C118.128 175.842 105.741 172.508 93.4973 173.243C79.6797 174.104 70.8104 171.341 63.8179 159.292C62.3995 156.787 60.0226 154.48 57.7085 152.959C51.8869 149.466 46.6439 146.352 47.0101 137.979C47.2938 131.622 46.176 125.255 45.8085 119.133C45.7456 118.347 46.5422 116.882 47.2297 116.34C53.4901 110.845 55.9259 104.743 47.9552 95.6961C56.9335 97.5365 63.1715 100.144 68.715 99.3966C74.4304 98.5135 79.7588 94.3116 84.9055 91.6468C89.7292 100.945 84.2555 106.377 77.3802 111.799C76.947 110.189 76.6494 108.751 76.3155 107.62C66.4022 112.372 72.3662 119.934 71.9735 127.213C70.013 124.02 68.3599 120.864 66.3993 117.671C76.1432 142.046 95.7767 155.276 118.785 165.01C115.793 162.63 112.801 160.25 108.689 156.803C112.315 156.452 114.232 156.055 116.077 156.273C126.321 157.951 133.177 155.333 138.581 145.217C145.75 132.037 159.468 130.697 171.779 139.945C173.072 140.877 174.364 141.809 175.792 142.913C181.297 147.772 186.07 149.583 191.183 141.927C192.496 140.055 197.831 139.751 201.004 140.594C202.37 140.911 202.747 145.631 203.342 148.507C204.01 150.768 203.782 154.014 205.346 155.29C211.158 160.185 217.657 164.538 223.813 169.162C224.527 169.714 225.168 170.881 225.674 171.876C226.712 174.96 227.75 178.044 228.924 181.3C228.617 181.264 227.486 181.598 227.486 181.598C230.333 185.208 233.487 188.853 235.854 192.562C236.631 193.901 235.246 196.387 234.721 198.195C233.22 197.706 231.547 197.352 230.083 196.556C225.048 192.999 220.955 186.749 213.673 191.655ZM172.225 100.565C169.243 96.7831 167.564 92.5322 164.327 90.9028C156.562 86.7118 150.099 82.0514 148.386 72.809C148.124 71.0636 146.905 69.5166 145.82 68.1416C141.78 64.0793 137.261 60.1162 133.185 56.3613C127.06 62.0277 120.555 68.2727 114.394 74.2465C111.424 63.7645 114.819 57.4637 125.681 53.9158C128.765 52.8775 131.614 51.1881 134.292 49.6342C140.886 45.2701 143.273 46.1757 146.298 53.5471C148.014 57.4905 150.408 62.2935 153.744 64.4022C163.416 69.5979 173.444 87.6161 172.225 100.565ZM118.267 136.426C117.751 136.832 117.199 137.546 116.683 137.953C113.864 135.438 108.449 132.46 108.703 130.308C109.674 123.409 111.64 116.004 115.713 110.562C119.441 105.392 124.357 111.272 128.516 113.011C129.709 113.464 131.074 113.781 132.403 114.405C140.278 117.674 140.575 119.112 135.254 127.211C133.211 126.035 131.24 124.243 129.125 123.681C124.893 122.558 120.553 122.357 116.113 121.676C116.699 125.953 117.456 130.095 117.906 134.201C117.969 134.988 118.032 135.774 118.267 136.426ZM118.819 135.712C118.686 130.241 118.534 127.573 118.418 124.598C122.957 125.758 127.188 126.881 131.69 128.349C131.998 128.385 131.38 133.611 130.385 134.117C127.129 135.291 123.711 135.199 118.819 135.712Z" fill="#828282"/>
<path fill-rule="evenodd" clip-rule="evenodd" d="M111.414 251.109C94.8256 242.447 82.1274 229.88 71.2935 214.727C84.6722 222.855 95.4531 235.819 113.069 234.472C109.155 231.983 106.771 225.779 100.312 230.314C99.9682 230.586 98.3053 228.83 97.1482 228.07C87.4489 221.78 77.614 215.319 67.8783 209.336C65.8353 208.16 63.2403 207.697 60.8535 206.791C60.3016 207.506 60.057 208.256 59.505 208.97C71.9684 220.886 84.2599 232.937 96.5877 244.681C100.799 248.608 103.59 255.328 111.414 251.109Z" fill="#828282"/>
<path fill-rule="evenodd" clip-rule="evenodd" d="M300.566 271.439C313.121 279.937 327.769 282.604 344.85 284.467C328.575 279.738 314.417 275.57 300.566 271.439Z" fill="#828282"/>
<path fill-rule="evenodd" clip-rule="evenodd" d="M243.918 246.976C234.612 247.902 228.282 248.713 222.124 249.388C221.879 250.138 221.807 250.753 221.562 251.503C226.888 252.6 232.312 254.177 237.611 254.179C239.148 254.361 240.986 250.682 243.918 246.976Z" fill="#828282"/>
</svg>
