<svg width="201" height="192" viewBox="0 0 201 192" fill="none" xmlns="http://www.w3.org/2000/svg">
<path fill-rule="evenodd" clip-rule="evenodd" d="M83.1116 95.5062C83.0258 96.6059 82.9152 97.7469 82.8236 98.6921L82.823 98.6974L82.8174 98.7555L82.8153 98.7762C82.7543 99.408 82.7023 99.9468 82.6733 100.319C83.5934 99.4614 84.5751 98.5788 85.5855 97.6704C87.8574 95.6279 90.2741 93.4552 92.4601 91.1437C93.9669 89.5941 95.3835 87.9902 96.8 86.3863C98.2164 84.7824 99.6329 83.1786 101.14 81.6291C101.992 80.7343 102.909 79.9164 103.838 79.089L103.839 79.0875C104.855 78.1826 105.883 77.266 106.853 76.2246C107.787 75.2933 108.583 74.2783 109.493 73.1166L109.495 73.1145C109.625 72.948 109.758 72.7784 109.894 72.6057L110.047 72.4115L110.198 72.2211L110.286 72.1103L110.397 71.9712C111.43 74.8856 112.174 77.4624 110.244 80.3951C108.049 83.4958 106.143 86.934 105.032 90.6866L105.057 90.6478C107.34 87.127 109.624 83.6054 112.051 79.845L112.123 79.9413C114.086 82.5723 115.676 84.7029 113.199 87.7419C111.463 89.8085 110.376 92.4299 109.603 95.076C110.591 93.7068 111.531 92.3496 112.471 90.9924L112.482 90.977C113.419 89.6232 114.357 88.2694 115.343 86.9037C115.704 87.121 115.945 87.2658 116.233 87.6033C115.807 92.5681 112.511 95.4859 109.27 98.3562C107.326 100.077 105.402 101.781 104.127 103.899C103.521 103.487 102.863 103.002 102.224 102.531L102.22 102.529C100.651 101.373 99.1955 100.301 98.9045 100.591C97.6726 101.684 96.7472 103.202 95.8146 104.732C95.4151 105.388 95.0143 106.045 94.5876 106.672L95.6706 107.324C96.8285 105.401 97.9141 103.598 99.2647 101.627C103.191 104.146 101.787 106.698 100.315 109.375C100.235 109.52 100.155 109.666 100.075 109.812C98.6757 112.409 97.6373 115.223 97.1038 118.832C97.8014 118.353 98.5172 117.844 99.233 117.334L99.2361 117.332C99.9533 116.822 100.67 116.312 101.369 115.832C101.345 115.735 101.291 115.621 101.237 115.507L101.237 115.505C101.183 115.391 101.129 115.277 101.105 115.181C100.78 115.313 100.443 115.397 100.105 115.48C99.9385 115.522 99.7717 115.563 99.6063 115.61C99.4374 115.658 99.2699 115.713 99.1057 115.779C99.0944 115.762 99.0837 115.744 99.0734 115.727C99.0553 115.697 99.0385 115.668 99.0225 115.639L98.9903 115.581C98.8979 115.414 98.825 115.283 98.6488 115.177C99.5079 114.443 100.389 113.722 101.278 112.994L101.28 112.993C102.486 112.006 103.709 111.006 104.916 109.942C106.412 108.583 107.828 107.099 109.259 105.599C109.903 104.924 110.549 104.246 111.208 103.576C113.594 101.245 115.981 98.9153 118.319 96.3926C120.321 94.1581 122.322 91.9235 124.01 89.6643C124.479 89.0674 124.902 88.4245 125.331 87.7728C126.181 86.4824 127.053 85.1576 128.35 84.0887C128.145 85.1112 127.909 86.1156 127.673 87.12C127.437 88.1245 127.201 89.1289 126.995 90.1514C127.02 90.1663 127.053 90.1791 127.09 90.1908C127.128 90.2023 127.17 90.2127 127.213 90.2227L127.272 90.2362C127.331 90.2494 127.39 90.2626 127.441 90.2777C127.484 90.2904 127.522 90.3045 127.549 90.321C128.068 88.914 128.57 87.537 129.071 86.16C129.572 84.783 130.073 83.406 130.592 81.999L131.892 82.2903C131.58 83.8916 131.249 85.5226 130.919 87.1538L130.912 87.1872C130.579 88.829 130.246 90.4708 129.932 92.0826C130.052 92.1551 130.172 92.2275 130.485 92.2522C130.915 91.1666 131.319 90.0659 131.728 88.9525L131.729 88.9506C132.216 87.6227 132.711 86.2767 133.262 84.9165C133.479 84.9651 133.678 85.0437 133.876 85.1223C134.075 85.2009 134.273 85.2795 134.49 85.3281C133.728 87.4113 132.948 89.5248 132.169 91.6382L132.163 91.6542C131.387 93.7566 130.611 95.8588 129.853 97.9313C130.034 98.0399 130.232 98.1185 130.431 98.1971C130.63 98.2758 130.828 98.3544 131.009 98.463C131.841 96.6716 132.644 94.862 133.447 93.0525L133.451 93.0441C134.252 91.2372 135.053 89.4302 135.885 87.6414C135.993 87.7065 136.116 87.7473 136.251 87.7923C136.416 87.8474 136.601 87.9086 136.799 88.0283L136.797 88.035L136.796 88.0369C135.131 92.4354 133.466 96.8341 131.921 101.305C132.102 101.414 132.3 101.492 132.499 101.571C132.697 101.649 132.896 101.728 133.076 101.837C134.766 97.9408 136.456 94.0448 138.073 90.2691C138.114 90.2934 138.156 90.3144 138.2 90.3331C138.228 90.345 138.256 90.356 138.285 90.3664C138.344 90.3875 138.404 90.406 138.464 90.4244L138.467 90.4252L138.471 90.4264C138.609 90.4687 138.747 90.5111 138.868 90.5836C137.998 92.8444 137.159 95.1233 136.32 97.4022C135.481 99.6811 134.642 101.96 133.772 104.221C133.953 104.33 134.121 104.39 134.29 104.451C134.458 104.511 134.627 104.572 134.807 104.68C135.459 103.189 136.129 101.668 136.799 100.147C137.469 98.6259 138.139 97.1048 138.79 95.6138C138.911 95.6863 139.049 95.7287 139.188 95.7711C139.326 95.8135 139.464 95.8559 139.585 95.9283C138.836 97.8525 138.118 99.7948 137.399 101.737C136.681 103.679 135.962 105.621 135.214 107.545C135.247 107.565 135.283 107.584 135.322 107.602C135.426 107.651 135.549 107.695 135.671 107.739C135.84 107.799 136.008 107.86 136.129 107.932C136.949 106.297 137.842 104.542 138.783 102.979C141.643 108.304 140.919 110.324 135.402 111.589C134.3 111.862 133.293 113.068 132.396 114.142L132.387 114.154C132.3 114.258 132.214 114.36 132.13 114.46C132.022 114.588 131.915 114.713 131.811 114.832C130.847 115.888 129.99 117.009 129.133 118.13L129.132 118.132C128.703 118.693 128.274 119.253 127.832 119.806L126.99 119.299C127.061 119.064 127.112 118.817 127.164 118.558C127.235 118.206 127.31 117.834 127.449 117.447C126.133 118.48 124.828 119.497 123.541 120.499L123.536 120.503C121.521 122.071 119.55 123.606 117.647 125.124C122.133 123.991 126.359 122.018 130.41 119.065C130.289 119.81 130.186 120.526 130.082 121.241C129.979 121.957 129.876 122.674 129.755 123.42C127.482 132.37 124.319 140.619 114.634 144.451C109.887 146.344 105.527 147.322 100.593 145.17C99.004 144.542 97.2704 144.153 95.5605 144.27C89.8524 144.765 85.5926 142.036 81.1889 138.73C81.6217 139.237 82.0726 139.713 82.5236 140.189C82.9748 140.665 83.426 141.142 83.859 141.648C84.4363 142.323 85.2299 143.456 85.0607 144.009C84.8506 144.54 84.263 144.844 83.4999 145.239C83.1231 145.434 82.7034 145.652 82.2652 145.929C88.8627 146.953 95.4359 148.289 100.993 153.764C97.4765 153.337 94.1992 152.254 90.9637 151.185C86.047 149.561 81.2267 147.969 75.8082 148.757C79.327 149.562 82.7818 150.329 86.1949 151.086L86.2103 151.089L86.2156 151.09C92.1601 152.409 97.9778 153.7 103.786 155.117C105.427 155.547 106.934 156.2 108.482 156.872C109.205 157.185 109.936 157.502 110.695 157.802C110.718 157.898 110.761 157.965 110.803 158.031C110.82 158.058 110.836 158.084 110.852 158.113C110.863 158.133 110.874 158.155 110.884 158.178C110.894 158.203 110.903 158.23 110.911 158.26C112.72 158.065 114.538 157.902 116.349 157.74C118.924 157.51 121.486 157.282 123.989 156.961C125.034 156.837 126.018 156.462 127.028 156.077C127.553 155.877 128.086 155.674 128.638 155.502C128.114 155.441 127.553 155.311 126.987 155.179C125.733 154.886 124.456 154.589 123.509 155.035C120.189 156.676 117.271 155.712 114.245 154.712C114.041 154.644 113.836 154.577 113.631 154.51L113.442 154.448C113.33 154.412 113.218 154.376 113.106 154.341C112.921 154.282 112.747 154.228 112.583 154.177L112.57 154.173C110.195 153.435 109.907 153.345 105.864 147.852C106.253 147.835 106.659 147.827 107.08 147.82L107.084 147.82C107.758 147.808 108.471 147.796 109.212 147.738C110.163 147.656 111.084 147.555 112.005 147.455L112.012 147.454C112.931 147.354 113.85 147.254 114.799 147.172C115.536 147.114 116.291 147.129 117.069 147.144L117.072 147.144C117.565 147.153 118.067 147.163 118.58 147.155C120.602 147.062 122.635 147.018 124.669 146.974L124.678 146.974C126.711 146.93 128.745 146.886 130.767 146.793C131.971 146.699 133.368 146.558 134.476 146.078C138.379 144.497 142.234 142.724 146.089 140.95C146.257 141.215 146.426 141.48 146.714 141.818C142.015 144.721 137.316 147.624 133.002 150.432C133.264 150.491 133.666 150.514 134.289 150.551C134.697 150.575 135.2 150.605 135.82 150.654C132.904 152.502 130.783 153.846 128.59 155.309C135.349 154.017 139.941 149.415 144.53 144.815L144.956 144.389C145.117 144.227 145.278 144.066 145.44 143.905L145.484 143.861C146.522 142.771 147.503 141.591 148.55 140.331L148.553 140.328L148.556 140.324C149.307 139.42 150.092 138.476 150.957 137.493C151.416 137.658 151.871 137.859 152.332 138.062C153.225 138.455 154.137 138.857 155.122 139.018C155.767 139.086 156.454 139.384 157.155 139.687C158.965 140.472 160.872 141.298 162.42 138.334C162.61 138.017 163.335 138.022 164.141 138.028C164.864 138.033 165.653 138.039 166.177 137.812C169.137 136.562 172.029 135.039 174.867 133.545C175.402 133.263 175.934 132.982 176.465 132.705C177.446 132.173 178.431 131.591 179.425 131.003C180.896 130.133 182.387 129.251 183.911 128.507C188.176 126.325 192.486 126.791 196.747 128.701C197.391 128.986 198.062 129.225 198.831 129.499C199.299 129.666 199.803 129.845 200.358 130.055C200.274 129.514 200.257 129.134 200.245 128.882C200.233 128.629 200.227 128.503 200.167 128.467C198.466 127.661 196.937 126.54 195.407 125.419C192.348 123.178 189.289 120.936 184.858 121.216C181.701 121.308 178.534 120.795 175.348 120.279C173.819 120.031 172.286 119.783 170.747 119.6C167.256 119.136 164.461 120.238 161.762 122.543C160.593 123.589 159.149 124.358 157.723 125.118L157.72 125.119C157.411 125.284 157.102 125.448 156.797 125.615C156.671 125.467 156.553 125.356 156.447 125.255C156.312 125.127 156.194 125.016 156.1 124.867C156.628 123.394 157.192 121.943 157.765 120.471L157.766 120.467C158.24 119.247 158.72 118.012 159.191 116.738C159.341 116.304 159.511 115.877 159.68 115.453C160.512 113.36 161.32 111.329 159.68 108.844C159.444 108.4 159.635 107.657 159.841 106.859C159.97 106.359 160.104 105.837 160.142 105.355C160.215 104.416 160.264 102.972 160.024 102.828C156.629 101.93 158.341 99.3583 159.186 98.2287C162.173 94.3832 161.351 90.4494 160.536 86.5542L160.536 86.5524L160.535 86.5465C160.357 85.6972 160.18 84.8498 160.043 84.0055C159.541 80.7552 158.846 77.5527 157.885 74.5182C152.764 66.6858 149.569 58.3758 155.672 48.784C155.239 48.6869 154.805 48.5898 154.252 48.4203C154.018 48.7167 153.737 49.0023 153.456 49.2879C152.893 49.8591 152.331 50.4303 152.154 51.0879C151.556 52.8159 150.414 54.313 149.338 55.7219C148.192 57.2228 147.123 58.6235 146.871 60.0966C147.214 60.7948 147.334 61.5433 147.181 62.3426C146.821 61.5628 146.747 60.8209 146.871 60.0966C146.018 58.3569 143.785 56.9297 140.95 55.8078C140.32 55.5178 139.819 55.0131 139.318 54.5085C138.901 54.088 138.483 53.6675 137.991 53.3711C137.82 53.2685 137.65 53.1644 137.478 53.06C135.014 51.5572 132.457 49.9975 129.65 52.3189L129.712 52.3337L129.756 52.3443L129.723 52.4386C130.55 52.6774 131.391 52.8941 132.231 53.1109L132.243 53.114C134.041 53.5774 135.839 54.0409 137.508 54.718C138.311 55.0226 139.057 55.5865 139.797 56.1457C140.408 56.6078 141.016 57.0675 141.647 57.3737C145.643 59.4513 146.458 62.7263 143.468 66.3309C143.211 66.6674 142.906 66.9931 142.6 67.3188C141.99 67.9701 141.379 68.6214 141.153 69.3591C140.791 70.7785 140.717 72.5353 141.438 73.7883C141.774 74.3185 143.918 74.2986 145.194 74.0844C149.627 72.9858 159.13 81.982 158.138 86.6254C158.022 87.1439 157.751 87.6277 157.484 88.1028C157.306 88.4212 157.129 88.7357 157.003 89.0542C156.757 89.6941 156.486 90.332 156.216 90.9686C155.53 92.581 154.849 94.1845 154.588 95.7888C153.911 98.8202 152.753 100.744 149.67 101.508C147.919 101.878 146.224 102.472 144.37 103.12C143.24 103.516 142.052 103.932 140.756 104.331C141.47 103.013 142.121 101.735 142.779 100.444C143.478 99.0735 144.184 97.6887 144.979 96.2276C143.702 97.2598 142.834 97.8839 141.967 98.5078C141.907 98.4716 141.834 98.3877 141.762 98.3033C141.69 98.2189 141.617 98.1346 141.557 98.0984L145.755 91.1264L145.273 90.8367L141.295 95.8112L140.693 95.4491C140.921 94.8362 141.155 94.2134 141.396 93.5735L141.409 93.5385C142.005 91.9534 142.641 90.2623 143.325 88.3538C142.12 89.2661 141.518 89.7222 140.048 90.8025C141.255 87.4352 142.124 85.1743 142.994 82.9136C142.873 82.8411 142.633 82.6962 142.44 82.744C141.547 84.4993 140.654 86.2546 139.255 88.8513C138.43 87.3456 137.621 85.906 136.836 84.508L136.834 84.5046L136.832 84.5016C134.942 81.1372 133.186 78.0125 131.659 74.7803C131.179 73.6725 130.975 72.445 130.772 71.2175C130.569 69.9896 130.365 68.7605 129.884 67.6524C127.783 62.4812 127.966 57.5521 129.723 52.4386L129.563 52.392C129.592 52.3672 129.621 52.3429 129.65 52.3189C129.04 52.1752 128.398 52.0665 127.757 51.9581C126.017 51.6639 124.287 51.3713 123.231 50.382C120.753 48.2351 118.974 45.199 117.436 42.3077C116.789 41.0117 116.686 39.325 116.588 37.7353C116.562 37.3156 116.537 36.9025 116.502 36.5052C116.146 32.1962 112.992 30.6256 109.741 31.1248C104.586 31.7888 100.928 29.4229 97.1018 26.792C93.3958 24.2335 89.3261 23.9127 85.158 25.6617C82.3585 26.8854 79.5755 28.119 76.8006 29.3491L76.7915 29.3531C72.0703 31.4459 67.3721 33.5284 62.6549 35.5346C61.2214 36.1456 59.7577 36.7385 58.2941 37.3314C56.8305 37.9242 55.3668 38.5172 53.9333 39.1281C49.8376 40.7569 48.4617 43.8591 48.0241 47.8538C47.7557 51.2951 47.1018 54.832 46.087 58.1516C45.2168 61.2307 43.4564 63.6102 40.0836 64.8552C35.8431 66.7244 34.49 71.1505 35.7851 76.3519C36.4324 78.9514 37.0497 81.5327 37.6669 84.114L37.6691 84.1266C38.2861 86.7063 38.903 89.286 39.5501 91.8838C36.1172 92.7847 34.3655 93.2445 33.4311 94.3779C32.4575 95.559 32.3712 97.4715 32.1951 101.377C32.162 102.163 31.9793 102.925 31.7982 103.681C31.5747 104.613 31.3537 105.534 31.4193 106.478C31.4589 107.326 31.4679 108.193 31.477 109.067C31.506 111.838 31.5356 114.67 32.5403 117.143C34.3899 121.695 34.8435 125.571 32.7439 129.876C32.1998 130.977 32.1649 132.386 32.1301 133.794L32.123 134.071L32.117 134.29C32.1113 134.48 32.1045 134.669 32.0954 134.857C32.0871 135.027 32.077 135.195 32.064 135.362C33.8219 135.438 35.7002 135.586 37.4338 135.974C39.1673 136.363 40.7561 136.991 42.3449 137.62C44.4151 138.539 46.3649 139.385 48.7489 139.51C47.9547 139.093 47.1909 138.626 46.4272 138.159C45.1542 137.38 43.8812 136.6 42.4669 136.056C40.6374 135.282 38.5909 134.869 36.6881 135.034C33.1958 135.388 31.9924 134.664 33.4163 131.754C36.4567 125.887 35.9324 120.495 32.9761 114.785C32.159 113.147 32.2095 110.884 32.3559 109.007C32.4039 106.856 32.6261 104.744 32.8506 102.609L32.8509 102.607L32.8515 102.601L32.852 102.597C32.9812 101.368 33.1112 100.132 33.2092 98.8756C33.3565 96.1801 34.2013 94.2322 37.14 93.7083C39.8859 93.2323 41.0405 94.5824 42.0495 96.9912C43.395 99.9303 45.4635 102.486 47.9174 104.945C47.8757 104.778 47.8466 104.603 47.8223 104.428C47.8157 104.38 47.8095 104.332 47.8035 104.285C47.7965 104.23 47.7899 104.175 47.7833 104.121C47.719 103.593 47.6583 103.096 47.3897 102.826C43.7479 99.4535 42.4469 95.0224 41.1408 90.5738L41.1399 90.571C40.6343 88.8488 40.1278 87.1241 39.4844 85.4572C38.5581 82.9109 38.1234 80.2427 37.6887 77.5744C37.5149 76.5073 37.3411 75.4402 37.1357 74.3809C36.417 70.6729 37.5278 67.7386 41.1901 66.0127C50.3391 61.8285 59.3712 57.5739 68.4015 53.3183C68.3982 53.2904 68.3952 53.2631 68.3924 53.2365C68.4375 53.208 68.4826 53.1795 68.5278 53.1512L68.606 53.1023C64.5723 52.233 61.3541 54.0795 58.1555 55.9147C57.5459 56.2644 56.937 56.6138 56.3233 56.9439C55.1681 57.5889 54.0238 58.2158 52.8505 58.8585L52.8485 58.8596C51.0125 59.8654 49.1054 60.9101 46.9739 62.1247C47.2904 60.5687 47.6893 59.1012 48.0698 57.7013C48.7955 55.0318 49.4544 52.6085 49.3462 50.2873C49.2082 43.9809 52.0769 41.1222 57.4736 38.9665C65.1804 35.8697 72.8213 32.5084 80.4098 29.1701C81.9783 28.4802 83.5444 27.7912 85.1084 27.1057C89.0838 25.4045 92.5029 25.9888 96.3058 28.1142C99.9159 30.2874 103.984 32.2449 108.029 32.8785C112.628 33.6817 114.722 35.1058 114.356 39.7986C114.123 43.1797 113.921 46.5789 113.719 49.9781C113.517 53.3776 113.315 56.7771 113.082 60.1585C113.021 61.6072 112.666 62.9898 112.285 64.4688C112.204 64.7835 112.122 65.1026 112.041 65.4277C111.757 65.0458 111.475 64.6694 111.197 64.2978L110.22 62.9931L110.2 62.9673L110.198 62.9648C108.902 61.2361 107.678 59.6029 106.51 58.0037C106.353 57.2281 106.209 56.4614 106.067 55.7023C105.8 54.2693 105.537 52.8636 105.192 51.4784C103.97 46.1568 99.4691 43.2838 94.1699 44.1882C93.738 44.2714 93.3074 44.3377 92.8785 44.4037C91.4654 44.6212 90.0697 44.836 88.7017 45.6458C89.3568 45.601 90.0188 45.5844 90.6866 45.5677C91.7621 45.5408 92.8524 45.5135 93.952 45.3672C99.6601 44.8727 102.235 46.5866 103.939 52.198C104.402 53.7386 105.05 55.2938 105.686 56.8192C105.875 57.273 106.063 57.7242 106.245 58.1716C106.165 58.3961 106.041 58.6312 105.918 58.8663C105.671 59.3365 105.425 59.8067 105.521 60.192C105.944 61.8911 106.455 63.5682 106.958 65.2156C107.196 65.9964 107.433 66.7706 107.656 67.5373L106.861 68.0412C105.762 66.7792 104.634 65.5358 103.506 64.2925C101.25 61.8066 98.9948 59.3207 96.9748 56.6855L96.9495 56.6541C94.8917 54.1121 93.1116 51.9127 89.4659 52.0016C88.3557 51.9758 87.0385 50.7225 86.1031 49.8324L86.0485 49.7806C82.801 46.1881 78.0809 46.1308 74.5616 49.253C73.3559 50.3226 71.9018 51.1657 70.4236 52.0228L70.4208 52.0244L70.4142 52.0282C69.8102 52.3785 69.2025 52.731 68.606 53.1023L68.661 53.1144C68.6999 53.123 68.7389 53.1318 68.7779 53.1409L68.4015 53.3183C68.4262 53.5251 68.466 53.7639 68.5052 53.999C68.5991 54.5625 68.6897 55.1059 68.559 55.1383C61.9891 57.8489 60.5704 63.5518 59.1751 69.1604C58.8563 70.4419 58.5387 71.7185 58.1612 72.9533C57.4846 75.1664 56.8569 76.7537 54.7842 78.2901C50.2534 81.4585 47.7919 86.3638 48.1235 91.8041C48.1881 93.1895 49.8243 94.5214 51.4672 95.8589C52.222 96.4734 52.9782 97.089 53.5842 97.7116C53.6507 97.6452 53.7193 97.5757 53.7896 97.5043C54.1521 97.1364 54.5624 96.72 55.0064 96.4386C54.7934 96.1701 54.5922 95.8819 54.391 95.5937C53.8879 94.8731 53.3849 94.1524 52.6972 93.7385C49.2554 91.8303 48.8001 89.591 50.7541 86.3455C51.224 85.643 51.6742 84.9285 52.1262 84.2113C53.2515 82.4254 54.3878 80.6221 55.8672 78.9421C56.7681 81.2606 56.8525 83.6561 56.9362 86.0303C57.0378 88.91 57.1383 91.7584 58.6931 94.3999C58.7427 91.4228 58.7247 88.5579 58.7071 85.7539C58.6883 82.7546 58.67 79.8249 58.7351 76.9017C59.0077 69.3687 63.6362 64.9489 70.7908 62.8687C75.7533 61.4342 79.1724 62.0185 82.0815 66.7176C81.0352 67.0714 80.0557 67.4306 79.0623 67.7948C77.9056 68.2188 76.7301 68.6498 75.4082 69.0875C75.4188 69.1298 75.4292 69.1738 75.4396 69.2196C75.4543 69.2845 75.469 69.3531 75.4839 69.4257C75.5029 69.5177 75.5224 69.6161 75.543 69.7218L75.5774 69.8997C75.681 70.4357 75.8173 71.1414 76.0554 72.0974C74.8968 71.012 73.9479 70.2571 73.2208 69.6788C73.027 69.5245 72.8489 69.3828 72.6868 69.2507C73.1325 69.8694 73.5659 70.6471 74.0394 71.4967C74.23 71.8387 74.4271 72.1923 74.6341 72.5519C74.3385 72.6912 74.093 72.8608 73.8134 73.0539C73.6601 73.1598 73.4965 73.2728 73.3087 73.3918C72.9669 73.186 72.6329 73.012 72.2361 72.8052C71.6554 72.5024 70.9389 72.1291 69.8668 71.4837C71.0458 73.0386 71.9345 74.2824 72.7075 75.3641L72.7139 75.3731L72.7513 75.4257L72.8251 75.529C73.0706 75.872 73.3046 76.1992 73.5335 76.5154C73.5955 76.601 73.6571 76.6859 73.7184 76.77L73.7925 76.8712L73.907 77.0274C73.7622 77.2678 73.5451 77.6284 73.28 77.7964L67.3599 73.7413C67.2876 73.8615 67.1428 74.102 66.9501 74.1497C67.7678 74.9694 68.5735 75.7409 69.3792 76.5125C70.1851 77.2842 70.9919 78.0568 71.8099 78.8767C71.7375 78.9969 71.6532 79.0689 71.5688 79.141L71.5468 79.1597L71.5146 79.1878C71.4903 79.2093 71.4662 79.2317 71.4426 79.2562C71.4023 79.298 71.3636 79.3457 71.3277 79.4052C70.6419 78.9105 69.9259 78.3976 69.21 77.8848C68.4941 77.3719 67.7782 76.8591 67.0923 76.3643C67.0562 76.4244 66.9899 76.4664 66.9236 76.5084C66.8574 76.5504 66.7911 76.5924 66.7549 76.6525C67.5005 77.5926 68.294 78.7255 68.9672 79.7858L68.533 80.507C68.2399 80.3579 67.9502 80.2108 67.6604 80.0637L67.6571 80.0619C66.211 79.3277 64.7643 78.5933 62.9006 77.6078C63.1441 77.8927 63.3695 78.1592 63.5823 78.4109C64.3783 79.3524 64.9988 80.0863 65.7391 80.7904C62.1922 87.4988 62.2157 88.0043 66.3552 90.66C66.271 90.0807 66.1413 89.4598 66.0062 88.8134L66.0057 88.8114L66.0053 88.8096C65.6798 87.2539 65.3234 85.5499 65.4952 83.9189C65.6399 83.1358 66.6878 82.5349 67.9613 81.8046C68.605 81.4356 69.3063 81.0334 69.9779 80.5579C69.9022 83.9515 69.8517 86.2139 69.7768 88.7892C69.4839 88.5506 69.2153 88.3503 68.9235 88.1327C68.4481 87.7782 67.9109 87.3775 67.1058 86.69C68.4986 90.64 70.6166 91.7513 73.5081 90.2165C74.6233 89.668 75.5821 88.84 76.5327 88.0189C77.369 87.2966 78.1989 86.5797 79.1237 86.0634C80.5694 85.296 82.5924 85.2036 84.278 85.3994C84.5669 85.4642 84.7907 86.3633 85.0715 87.4907L85.0725 87.4954L85.0734 87.4991L85.0739 87.5009C85.2137 88.0617 85.3675 88.6786 85.5504 89.277C84.855 89.0891 84.2581 88.9404 83.699 88.8009L83.6919 88.7991L83.6897 88.7987C82.6653 88.5433 81.7652 88.3189 80.6149 87.9436C81.0142 88.383 81.3741 88.7985 81.7536 89.2368L81.7559 89.2393C82.313 89.8828 82.9128 90.5753 83.7419 91.4638C82.8587 91.1799 82.1063 90.9513 81.4327 90.7468L81.4309 90.7461L81.4243 90.7442C80.3207 90.4091 79.4284 90.1381 78.5177 89.7929C78.373 90.0333 78.3006 90.1535 78.0355 90.3215C78.7258 90.8273 79.4746 91.3186 80.3184 91.8722C81.0044 92.3222 81.7531 92.8134 82.584 93.387C82.3646 93.4239 82.1657 93.4586 81.9823 93.4915C81.8176 93.521 81.6655 93.549 81.5221 93.5757L81.2862 93.6197L81.2842 93.6201L81.2753 93.6218L81.273 93.6223L81.2707 93.6227C80.7668 93.7172 80.3551 93.7943 79.8381 93.8631C81.402 94.8046 82.2449 95.312 83.1116 95.5062ZM83.1116 95.5062C86.0292 92.0218 87.6466 88.2461 87.0735 83.4793C86.9304 82.083 87.8957 80.2075 88.8844 78.8375C90.1772 77.0463 91.5934 75.3993 93.0995 73.6477C93.8974 72.7198 94.7203 71.7626 95.5636 70.7391C97.824 74.065 99.5542 77.7269 99.4776 81.9388C99.4769 82.5473 98.9171 83.1813 98.3426 83.8319L98.3381 83.8371L98.3366 83.8387C98.2394 83.9489 98.1416 84.0597 98.0462 84.1707C97.9492 84.2837 97.8546 84.3971 97.7651 84.5109C97.167 83.9421 96.6667 83.4321 96.0648 82.8186C95.7224 82.4695 95.3472 82.087 94.9023 81.6411C95.2054 82.8585 95.469 83.7819 95.6932 84.5664L95.6944 84.5708C95.8598 85.1501 96.0037 85.6538 96.1258 86.1444C95.9331 86.1922 95.7404 86.2399 95.5957 86.4803C95.3391 86.1804 95.0445 85.8898 94.6844 85.5348C94.2343 85.0908 93.6818 84.5458 92.9735 83.7555C93.2436 84.8401 93.4697 85.6409 93.6906 86.4227C93.901 87.1679 94.1068 87.8967 94.3409 88.8367C92.7521 88.2078 91.717 87.7485 91.2357 87.4587C91.1114 87.8654 91.0424 88.3274 90.9736 88.7873C90.8552 89.5789 90.7377 90.3643 90.3412 90.8507C88.8515 92.6241 87.0073 94.184 85.2347 95.6835L85.2184 95.6974C84.9306 95.9408 84.6449 96.1825 84.363 96.4232C84.3869 96.5196 84.2245 96.3808 83.9808 96.1727C83.7372 95.9646 83.4124 95.6873 83.1116 95.5062ZM76.9643 78.2127C77.0838 77.8556 77.236 77.4904 77.3894 77.1224C77.7629 76.2262 78.1433 75.3133 78.0759 74.4601C77.8629 70.729 79.9356 69.1925 83.1882 67.875C86.2479 66.6053 88.005 67.4992 89.2547 70.053C89.6094 70.8035 89.8848 71.6043 90.1911 72.4947L90.1921 72.4977C90.446 73.2355 90.7211 74.0349 91.08 74.9185C90.4949 74.6414 90.0263 74.4 89.5906 74.1755L89.589 74.1746L89.5854 74.1728C89.073 73.9089 88.6056 73.6682 88.0471 73.4203C88.4552 74.6486 88.6951 75.6119 89.0309 76.9604C83.3523 72.2318 82.9668 72.3274 78.2172 77.4931C78.0685 77.6201 77.8871 77.6956 77.6957 77.7753C77.4527 77.8764 77.1935 77.9843 76.9643 78.2127ZM76.9643 78.2127L76.9511 78.3845C76.9445 78.4718 76.938 78.5597 76.9316 78.6481C76.9195 78.816 76.9075 78.9857 76.8955 79.1567C76.8037 80.4633 76.7062 81.8513 76.4534 83.1459C76.2599 84.012 75.4638 85.3342 74.8377 85.2849C74.0189 85.2833 72.8155 84.5589 72.3107 83.7636C72.0943 83.3059 72.5774 81.959 73.0596 81.4304C73.9264 80.5666 74.877 79.8346 75.81 79.116C76.2003 78.8154 76.5875 78.5172 76.9643 78.2127ZM146.994 126.92L146.947 127.037C144.308 133.586 141.721 140.005 135.995 144.372L135.153 143.865C135.949 142.543 136.757 141.269 137.565 139.995C138.373 138.721 139.181 137.447 139.977 136.124C138.868 137.126 137.917 138.254 136.975 139.371C134.869 141.87 132.81 144.312 129.131 145.153C129.773 144.336 130.457 143.509 131.151 142.669C131.967 141.681 132.797 140.676 133.592 139.65C133.471 139.578 133.23 139.433 133.183 139.24C130.893 141.137 128.603 143.034 126.241 145.051C126.12 144.979 126.072 144.786 126.072 144.786C127.351 142.936 128.677 141.073 130.004 139.21C131.33 137.347 132.657 135.484 133.935 133.634L133.694 133.489C131.898 135.519 130.071 137.532 128.244 139.544C126.418 141.556 124.592 143.568 122.796 145.598C122.616 145.49 122.423 145.333 122.231 145.176C122.038 145.019 121.846 144.862 121.665 144.754C121.72 144.574 121.788 144.403 121.862 144.229C121.909 144.121 121.958 144.012 122.008 143.9L122.011 143.894C122.081 143.74 122.153 143.581 122.224 143.41C122.272 143.295 122.32 143.174 122.366 143.046C121.824 143.129 121.265 143.243 120.705 143.356L120.702 143.356C120.143 143.469 119.583 143.583 119.042 143.666C126.784 139.261 128.615 131.895 130.502 124.303C131.41 120.649 132.331 116.942 133.931 113.488C134.179 114.483 134.378 115.337 134.555 116.1C134.859 117.404 135.1 118.442 135.418 119.46L135.997 119.316C135.793 117.543 135.662 115.814 135.524 114.004C135.502 113.704 135.479 113.401 135.455 113.096C135.438 112.868 135.42 112.639 135.402 112.407C138.092 111.869 138.514 113.382 138.942 114.919C139.197 115.831 139.454 116.751 140.189 117.255C138.325 113.517 139.969 111.039 141.745 108.363C142.304 107.521 142.876 106.659 143.356 105.732L143.408 105.83L143.444 105.897C143.493 105.989 143.541 106.078 143.589 106.166C143.634 106.249 143.679 106.331 143.723 106.411L143.821 106.589C143.96 106.841 144.096 107.082 144.232 107.326L144.234 107.328C144.629 108.033 145.04 108.766 145.615 109.876C145.443 108.499 145.344 107.418 145.246 106.338C145.167 105.474 145.088 104.609 144.971 103.593C146.271 104.702 146.92 105.257 147.45 105.74C147.643 105.283 147.83 104.904 148.017 104.525C148.204 104.147 148.391 103.768 148.584 103.311C159.001 113.512 154.743 132.567 145.778 138.47C146.237 137.619 146.707 136.808 147.164 136.02L147.166 136.015C148.101 134.402 148.983 132.879 149.615 131.281C150.341 129.676 150.808 127.915 151.349 125.875L151.349 125.873C151.545 125.133 151.751 124.355 151.983 123.535C148.653 129.883 145.757 135.51 142.982 141.209L142.019 140.629C143.517 135.963 145.256 131.441 146.994 126.92ZM115.313 45.2882C116.111 45.7682 116.655 46.0316 117.021 46.2094C117.485 46.4341 117.667 46.5219 117.72 46.737C119.234 49.9411 121.014 52.1589 125.108 52.1668C125.927 52.1684 127.537 54.9395 127.271 55.9258C126.279 59.547 127.113 62.7818 127.989 66.1792C128.201 67.0023 128.415 67.8349 128.607 68.6849C129.326 71.5746 129.973 75.4028 128.718 77.7592C128.055 79.014 127.426 80.2958 126.798 81.5787C124.066 87.1546 121.323 92.7515 115.622 96.243C113.607 97.447 112.126 99.6078 110.793 101.555L110.728 101.649C110.591 101.844 110.454 102.041 110.318 102.238C110.234 102.359 110.151 102.481 110.067 102.603C108.043 105.544 105.98 108.543 101.352 109.598C101.909 108.86 102.395 108.176 102.846 107.541C103.701 106.337 104.43 105.312 105.283 104.431C106.455 103.19 107.668 101.997 108.882 100.801C110.937 98.7786 112.998 96.7501 114.878 94.4845C119.049 89.4621 123.51 83.9589 122.072 77.3613C121.089 73.0028 121.189 69.2964 122.012 65.2062C122.327 63.5942 122.328 61.9575 122.33 60.3209C122.234 60.3447 122.125 60.3205 122.017 60.2962C121.909 60.2719 121.8 60.2476 121.704 60.2715C121.391 61.8732 121.066 63.4275 120.742 64.9814L120.736 65.0094L120.736 65.0125C120.409 66.5759 120.082 68.1394 119.768 69.7509C119.718 69.7209 119.655 69.7116 119.583 69.7006C119.479 69.685 119.355 69.6663 119.214 69.5814L119.215 69.5728C119.433 67.5783 119.652 65.5837 119.943 63.4693C119.877 63.4855 119.806 63.4795 119.734 63.4664C119.699 63.4602 119.665 63.4524 119.63 63.4446L119.593 63.4365L119.57 63.4315L119.546 63.4266L119.53 63.4236L119.51 63.4201L119.496 63.4178L119.47 63.4144C119.417 63.4081 119.365 63.4079 119.316 63.4199C119.017 64.4575 118.7 65.5246 118.382 66.5919L118.374 66.6193L118.366 66.6467C118.048 67.714 117.731 68.7811 117.432 69.8186L116.131 69.5273L118.164 60.4331C118.103 60.3969 118.025 60.3908 117.947 60.3846C117.869 60.3784 117.79 60.3722 117.73 60.336C117.647 60.5388 117.565 60.74 117.483 60.9398C116.878 62.4214 116.305 63.8251 115.582 65.266C115.461 65.1936 115.353 65.1693 115.245 65.145C115.136 65.1208 115.028 65.0965 114.908 65.024C114.89 58.7901 115.065 52.5084 115.313 45.2882ZM172.709 132.409C172.638 132.454 172.528 132.545 172.389 132.66C172.005 132.977 171.399 133.477 170.781 133.705C170.353 133.853 169.752 133.87 169.178 133.886C168.362 133.908 167.599 133.929 167.457 134.324C165.566 137.93 162.875 137.131 160.094 136.305C159.612 136.162 159.125 136.018 158.641 135.896C158.568 136.425 158.532 136.894 158.489 137.442C158.446 137.989 158.398 138.615 158.3 139.457C157.231 138.939 156.249 138.473 155.339 138.042L155.336 138.041C153.874 137.347 152.597 136.742 151.44 136.147C151.964 132.335 154.221 131.822 156.493 131.305C156.666 131.265 156.839 131.226 157.011 131.185C157.09 131.166 157.17 131.147 157.249 131.127C158.763 130.752 160.216 130.129 161.694 129.495C162.474 129.16 163.261 128.823 164.067 128.517C164.043 128.421 163.989 128.306 163.935 128.192L163.934 128.19C163.881 128.076 163.827 127.962 163.803 127.867C162.261 128.249 160.702 128.661 159.142 129.073C157.582 129.485 156.022 129.897 154.481 130.28C154.372 130.051 154.282 129.792 154.192 129.533C154.102 129.274 154.012 129.015 153.904 128.786C154.495 128.486 155.133 128.175 155.772 127.863C156.41 127.551 157.049 127.24 157.639 126.94C157.703 126.91 157.767 126.88 157.832 126.851C157.886 126.826 157.94 126.802 157.995 126.778C158.11 126.727 158.225 126.676 158.341 126.626C159.05 126.316 159.759 126.006 160.265 125.573C163.664 122.379 167.857 120.317 172.191 121.288C173.586 121.575 174.936 121.679 176.249 121.78C177.269 121.859 178.267 121.936 179.246 122.096C183.356 122.747 187.36 123.875 191.346 124.998C192.731 125.389 194.113 125.778 195.497 126.147C195.485 126.303 195.425 126.471 195.365 126.639C195.304 126.808 195.244 126.977 195.232 127.133C194.887 127.028 194.549 126.91 194.215 126.794C193.477 126.538 192.759 126.289 192.029 126.188C191.338 126.134 190.648 126.034 189.96 125.934C187.222 125.537 184.524 125.146 181.961 127.661C180.458 129.062 178.49 129.889 176.231 130.838C175.12 131.305 173.94 131.801 172.709 132.409ZM84.6659 59.4296C84.5695 59.4535 84.5032 59.4955 84.437 59.5375C84.4192 59.5488 84.4013 59.5601 84.383 59.571C84.3594 59.585 84.3348 59.5985 84.3082 59.6106C84.2781 59.6242 84.2454 59.6361 84.2081 59.6454C84.4494 60.0765 84.6677 60.4938 84.8651 60.8713L84.8682 60.877C85.1219 61.3622 85.3412 61.7813 85.5301 62.0789C77.1283 59.1503 69.2516 60.7958 61.5163 65.4744C63.3256 62.4692 65.4236 59.8016 67.8101 57.4715C68.8112 56.5155 69.8889 55.6362 70.973 54.7517C72.3948 53.5916 73.8278 52.4224 75.1137 51.0592C78.1995 47.8399 82.0529 47.7029 85.2768 50.79C86.6241 52.0924 88.5015 53.0588 90.1626 53.5674C93.7501 54.4168 100.847 61.9641 100.987 65.8155C101.003 66.1568 100.843 66.5418 100.567 67.2077C100.434 67.5278 100.274 67.9128 100.094 68.3891C95.4491 64.9383 91.2861 61.7772 86.3531 57.9888C87.8923 60.0617 88.9265 61.3393 89.9607 62.617C89.6233 62.9052 89.2858 63.1934 89.0687 63.554C88.1564 62.6105 87.2353 61.7804 86.3528 60.985L86.3492 60.9817C85.7667 60.4568 85.2011 59.947 84.6659 59.4296ZM156.564 118.105C155.849 116.071 155.114 114.025 154.369 111.951L154.365 111.941L154.363 111.936L154.362 111.931L154.361 111.928L154.36 111.925L154.359 111.922C153.28 108.921 152.18 105.86 151.089 102.69C155.335 101.561 155.478 98.5149 155.621 95.4689C155.669 94.4536 155.717 93.4382 155.916 92.4939C157.409 92.7375 158.589 92.9564 159.576 93.2231C159.274 93.8706 158.946 94.5026 158.622 95.1252C157.733 96.838 156.881 98.4792 156.703 100.173C156.415 102.739 156.56 105.246 156.705 107.768C156.769 108.866 156.832 109.967 156.86 111.077C156.908 111.27 157.004 111.655 157.125 111.727C159.598 113.89 158.358 115.589 157.236 117.127C156.994 117.46 156.757 117.784 156.564 118.105ZM149.69 58.4482C149.774 58.4548 149.849 58.4563 149.919 58.4576C150.109 58.4612 150.26 58.464 150.436 58.57C150.46 59.0755 150.483 59.581 150.579 59.9663C150.667 60.8205 150.662 61.803 150.657 62.7911C150.645 65.0334 150.634 67.3052 151.703 68.176C153.92 70.0015 154.042 71.9446 154.155 73.746C154.193 74.3492 154.23 74.9365 154.344 75.4981L154.339 75.4955L154.335 75.4933L154.322 75.4863L154.316 75.4829C151.966 74.2318 149.616 72.9799 146.907 71.5124C147.207 70.1006 147.524 68.6618 147.844 67.2068C148.478 64.3226 149.126 61.3749 149.69 58.4482ZM93.3195 145.541C98.5218 145.07 102.229 146.81 105.428 150.21C106.605 151.586 107.733 153.042 108.762 154.369L108.766 154.374C108.998 154.673 109.224 154.965 109.445 155.248C103.384 154.83 99.047 150.827 94.2569 146.405L94.1949 146.348C93.9049 146.08 93.6134 145.811 93.3195 145.541ZM114.435 79.97C114.315 79.8975 114.212 79.7951 114.11 79.6926C114.008 79.59 113.906 79.4876 113.785 79.4151C115.136 77.4441 116.486 75.473 117.982 73.2616C121.902 78.7329 121.56 83.1128 116.595 87.0023C116.936 85.8207 117.316 84.6621 117.703 83.4789L117.704 83.4756L117.707 83.4678C118.005 82.559 118.307 81.6357 118.6 80.676C117.66 81.4204 116.72 82.1647 115.853 82.7888C115.733 82.7164 115.63 82.6139 115.528 82.5115C115.426 82.4089 115.323 82.3065 115.203 82.234C115.629 81.5265 116.016 80.8287 116.439 80.065C116.95 79.1419 117.515 78.1224 118.267 76.8725L118.266 76.8736C116.387 78.3615 115.447 79.1057 114.435 79.97ZM102.213 67.8637C103.319 69.8395 104.641 72.273 106.179 75.1643C105.472 75.6123 104.583 76.2419 103.398 77.0813L103.395 77.0832C102.803 77.5023 102.137 77.9735 101.384 78.5006C101.589 75.3039 101.817 72.6013 102.003 70.4092L102.004 70.3965L102.006 70.3716L102.006 70.3698L102.009 70.3395C102.086 69.4238 102.156 68.5981 102.213 67.8637ZM85.7035 80.8531C84.9462 80.1795 84.2219 79.5579 83.512 78.9486C82.6207 78.1837 81.7508 77.437 80.8673 76.6317C80.8193 76.439 80.8014 76.2645 80.7835 76.0899C80.7656 75.9154 80.7477 75.7409 80.6998 75.5483C81.2456 75.5493 81.8397 75.4702 82.4339 75.3911C83.6221 75.233 84.8103 75.0748 85.6126 75.5577C87.538 76.7168 88.0656 78.8359 85.7035 80.8531ZM77.3931 84.7102L77.3932 84.7067C77.4029 83.6946 77.4123 82.729 77.6829 81.9207C77.8936 81.2314 78.3941 80.5893 78.8991 79.9415C79.2046 79.5495 79.5117 79.1555 79.7573 78.7476C79.8768 79.6384 79.9963 80.5292 80.3808 81.252C80.5659 81.7077 80.8812 82.0809 81.2106 82.4707L81.2136 82.4743C81.3533 82.6398 81.4956 82.8082 81.6314 82.9874C80.0165 84.308 78.7391 85.3406 77.3413 86.3006C77.3828 85.7683 77.388 85.233 77.3931 84.7102ZM146.069 66.0952C146.259 69.3208 145.871 71.8714 142.835 73.6466C141.141 69.8927 143.237 68.279 145.53 66.5129C145.709 66.3749 145.89 66.2361 146.069 66.0952ZM86.6106 65.1859C88.6806 64.6728 89.8242 64.3894 90.5806 64.807C91.5132 65.3222 91.8568 66.9038 92.6242 70.4356L92.6249 70.4386L92.6254 70.4414L92.6258 70.4437C90.6768 68.7792 88.8482 67.188 86.6106 65.1859ZM93.7847 67.703C94.0258 67.4387 94.2186 67.1864 94.4115 66.934C94.6045 66.6817 94.7974 66.4293 95.0385 66.165C95.3214 66.4408 95.6012 66.7148 95.8792 66.987C97.3268 68.4044 98.7252 69.7736 100.259 71.1093C100.091 71.2533 99.9338 71.4456 99.7771 71.6378C99.6204 71.83 99.4637 72.0223 99.2949 72.1664C98.2686 71.3718 97.2634 70.5421 96.2754 69.7266L96.2724 69.7241C95.4315 69.0299 94.603 68.3461 93.7847 67.703Z" fill="#C8C2B2"/>
<path d="M117.47 125.168L117.519 125.226L117.647 125.124L117.543 125.15L117.47 125.168Z" fill="#C8C2B2"/>
<path d="M117.47 125.168L116.653 124.213C117.104 123.61 117.541 122.952 118.012 122.242C118.423 121.624 118.86 120.965 119.354 120.271C116.56 122.191 114.03 123.942 111.5 125.694L111.498 125.696C111.294 125.491 111.107 125.256 110.921 125.02C110.734 124.785 110.548 124.55 110.343 124.345C111.284 123.192 112.254 122.057 113.225 120.921C114.195 119.786 115.166 118.65 116.106 117.497C115.965 117.412 115.849 117.286 115.753 117.181C115.685 117.107 115.627 117.044 115.577 117.014C113.721 119.009 111.864 121.003 109.887 122.924C109.701 123.11 109.516 123.305 109.329 123.5C107.875 125.027 106.358 126.621 103.841 124.525C103.681 124.429 103.156 124.695 102.631 124.962L102.489 125.033C102.332 125.113 102.178 125.189 102.037 125.253C102.009 125.265 101.981 125.278 101.954 125.289C101.932 125.299 101.91 125.307 101.889 125.316C101.627 125.447 101.365 125.582 101.103 125.718C99.7302 126.431 98.3364 127.154 96.6375 127.231C97.1315 126.955 97.5954 126.661 98.0593 126.368C98.5232 126.074 98.9871 125.78 99.4811 125.504C98.2532 125.092 97.3385 124.705 96.3035 124.246C97.0508 123.55 97.798 122.853 98.6656 122.229C98.8899 122.063 99.1133 121.898 99.3357 121.734C101.168 120.382 102.924 119.086 104.45 117.522C103.052 118.265 101.671 119.018 100.299 119.767C98.1247 120.953 95.9713 122.128 93.8 123.23L93.6796 123.158C93.8041 123.421 93.9544 123.687 94.1067 123.956C94.4832 124.62 94.8713 125.305 94.9049 126.024C94.9847 127.035 94.572 128.096 94.2948 128.809L94.2316 128.972C94.2035 129.045 94.1777 129.113 94.1551 129.176C95.8162 129.685 97.3571 130.121 98.8979 130.557C99.3599 126.25 104.273 126.259 107.355 126.313C110.882 126.33 114.243 125.966 117.47 125.168Z" fill="#C8C2B2"/>
<path d="M63.0799 114.073C65.9175 118.074 69.7927 120.079 74.6812 120.401C75.8108 120.464 76.9403 120.67 78.0715 120.877C79.6413 121.163 81.2144 121.451 82.796 121.356C84.506 121.239 86.1932 119.798 87.543 118.645C88.3145 117.909 88.9362 116.936 89.558 115.964C89.8689 115.478 90.1799 114.992 90.5095 114.535C90.4013 114.306 90.2751 114.108 90.1489 113.909L90.09 113.816L90.0649 113.776C90.0404 113.737 90.016 113.697 89.992 113.657C89.9685 113.618 89.9454 113.579 89.9227 113.539C89.9077 113.513 89.8928 113.486 89.8782 113.459C89.8471 113.402 89.817 113.343 89.7882 113.282C88.5357 113.947 87.2589 114.652 85.9349 115.383L85.9303 115.386C84.9635 115.92 83.9713 116.467 82.9449 117.024C83.7099 117.647 84.356 118.199 85.0014 118.75L85.0059 118.754L85.0143 118.761C84.9801 118.817 84.9489 118.876 84.9198 118.936C84.8767 119.024 84.8381 119.115 84.801 119.207C84.7846 119.247 84.7686 119.288 84.7526 119.328L84.7508 119.333L84.7488 119.338C84.6703 119.536 84.5918 119.735 84.4833 119.915L83.4311 119.38L83.4173 119.372L83.414 119.371L83.3906 119.359C78.4674 116.854 73.4433 114.297 68.3562 111.845C68.2577 112.286 68.1758 112.699 68.0974 113.096L68.0934 113.116L68.0924 113.121C67.9418 113.884 67.8031 114.586 67.5821 115.309C67.0251 115.151 66.4743 115.019 65.9288 114.888L65.9249 114.887C64.9626 114.655 64.0163 114.428 63.0799 114.073Z" fill="#C8C2B2"/>
<path d="M107.205 157.755C108.268 157.759 109.327 157.764 110.381 157.777C110.422 157.941 110.463 158.105 110.593 158.121L110.67 158.115C110.641 158.122 110.616 158.124 110.593 158.121C109.209 158.232 107.803 158.423 106.393 158.614C102.917 159.086 99.4113 159.562 96.1235 158.857C92.5778 158.199 89.2067 156.759 85.8268 155.315C83.5835 154.357 81.3362 153.396 79.0313 152.662C76.2627 151.814 73.3248 151.52 70.483 151.611C67.5393 151.719 64.6612 152.09 61.7526 152.466L61.7499 152.466C60.3523 152.647 58.9476 152.828 57.5252 152.982L57.2854 152.018L68.4163 147.419L68.9211 148.214C67.9088 149.079 66.9688 149.823 66.0288 150.567C67.0427 150.607 68.059 150.616 69.0693 150.624L69.0713 150.625C71.2519 150.643 73.4047 150.662 75.4447 150.995C78.7435 151.506 81.8731 152.571 85.0027 153.637C85.8337 153.908 86.633 154.409 87.4376 154.914C88.3578 155.491 89.2849 156.073 90.274 156.318C95.788 157.707 101.542 157.731 107.205 157.755Z" fill="#C8C2B2"/>
<path d="M57.4578 101.353C62.1249 106.128 67.4459 107.366 73.6143 104.201C73.6134 105.019 73.5646 105.645 73.5646 105.645C75.0103 104.877 76.8414 104.014 78.6727 103.151C78.7808 103.38 78.9071 103.579 79.0333 103.778C79.1595 103.977 79.2857 104.176 79.3938 104.404C78.6225 105.414 77.8502 106.424 77.1267 107.625C77.2467 107.698 77.3786 107.818 77.5107 107.938C77.643 108.058 77.7764 108.18 77.8968 108.253L77.9018 108.247C79.3466 106.663 80.7923 105.078 82.8635 102.726C78.4816 101.563 75.2796 100.618 72.0776 99.6728C72.0485 99.7212 72.0242 99.7725 72.0029 99.8256L71.9896 99.8598C71.9847 99.8727 71.9801 99.8855 71.9755 99.8985L71.9707 99.9123C71.9529 99.964 71.9368 100.017 71.9206 100.07C71.8783 100.208 71.8361 100.346 71.7637 100.466C72.184 100.719 72.6222 100.943 73.0605 101.166L73.0633 101.167C73.5026 101.39 73.9419 101.614 74.3632 101.867C74.351 102.024 74.3087 102.162 74.2664 102.3C74.2241 102.439 74.1818 102.577 74.1696 102.734C73.7431 102.624 73.3099 102.526 72.8729 102.427C71.8553 102.195 70.8149 101.959 69.7878 101.57C68.9769 101.279 68.2009 100.831 67.4075 100.373C66.8819 100.07 66.3486 99.7618 65.7923 99.4921L65.1409 100.574C66.3741 101.316 67.5816 101.955 69.1127 102.766C69.673 103.062 70.2775 103.382 70.9415 103.738C70.2778 103.87 69.6673 103.999 69.0648 104.126C67.8086 104.391 66.5873 104.649 64.992 104.906C65.3996 104.459 65.6866 104.115 65.8968 103.864C66.1838 103.52 66.3273 103.348 66.4385 103.32C64.6701 102.867 62.799 102.48 60.9066 102.087C59.7588 101.85 58.6031 101.61 57.4578 101.353Z" fill="#C8C2B2"/>
<path d="M81.0347 127.446C84.5946 124.855 88.1836 122.243 93.2943 123.253C90.3792 124.283 87.3918 125.432 84.2597 126.822C84.8465 127.38 85.3017 127.731 85.4721 127.862L85.4744 127.864C85.5212 127.9 85.5447 127.921 85.5447 127.921C85.5447 127.921 85.5098 127.902 85.4387 127.859C83.7842 128.61 81.9585 129.404 80.1328 130.197C79.2202 130.594 78.3067 130.991 77.4156 131.382C77.4633 131.574 77.5409 131.784 77.6185 131.994L77.6197 131.997C77.6977 132.207 77.7758 132.418 77.8237 132.61L81.5803 132.906C81.5735 132.993 81.5723 133.07 81.5736 133.143C81.5746 133.202 81.5772 133.259 81.5799 133.316C81.5858 133.442 81.5917 133.568 81.5795 133.725C79.256 133.633 76.9576 133.643 74.6204 133.652L74.6163 133.652L74.5468 133.653C73.6867 133.656 72.8209 133.66 71.9465 133.658C71.9614 133.718 71.9577 133.782 71.9469 133.849C71.9404 133.889 71.9313 133.93 71.9221 133.971C71.8979 134.079 71.8737 134.187 71.8977 134.284C72.9327 134.743 73.8955 135.323 74.8582 135.902L74.6411 136.263C71.3675 134.62 67.9737 132.904 65.2539 131.431C66.2506 130.941 67.3238 130.385 68.5275 129.762C69.8549 129.075 71.3426 128.305 73.0607 127.45C72.2706 128.338 71.6631 129.069 71.1264 129.716L71.1236 129.719C70.6295 130.314 70.1952 130.837 69.7333 131.343C69.9495 131.801 70.1179 132.066 70.3341 132.524C71.1654 132.208 72.0239 131.951 72.8774 131.696C74.4234 131.232 75.9528 130.774 77.2725 129.986C78.5648 129.244 79.798 128.346 81.0347 127.446Z" fill="#C8C2B2"/>
<path d="M50.8602 100.33C50.9377 100.147 51.0122 99.9683 51.0867 99.7899L51.0884 99.7857C51.3852 99.0756 51.6822 98.3648 52.1637 97.3478C46.5944 96.6432 45.7771 92.8908 44.9478 89.0834C44.5975 87.4749 44.2451 85.8566 43.5313 84.4542C43.5549 84.7335 43.5778 85.0128 43.6007 85.2918C44.0866 91.216 44.5618 97.0076 50.8602 100.33Z" fill="#C8C2B2"/>
<path d="M61.0951 112.811L61.101 112.816C61.7466 113.272 62.3883 113.725 63.0077 114.193C62.5441 113.954 62.085 113.708 61.6276 113.464C60.2329 112.716 58.8556 111.979 57.4233 111.486C52.7773 109.672 52.152 108.805 53.6499 104.138C54.0808 102.815 54.751 101.546 55.4037 100.31C55.6293 99.8832 55.8527 99.4601 56.0634 99.0401C56.22 99.0525 56.3464 99.0467 56.4729 99.041C56.5993 99.0352 56.7258 99.0294 56.8822 99.0417C56.9778 99.4251 57.0553 99.8382 57.1328 100.251L57.1338 100.258C57.2092 100.66 57.2845 101.062 57.3763 101.437C57.4041 101.409 57.4313 101.381 57.4578 101.353L57.3854 101.474L57.3763 101.437C57.0811 101.732 56.7122 102.026 56.3485 102.316C55.5905 102.921 54.8547 103.508 54.8542 104.044C54.9004 105.874 55.4281 107.993 56.5346 109.15C57.901 110.554 59.5102 111.691 61.0951 112.811Z" fill="#C8C2B2"/>
<path d="M41.1321 99.0594C38.7186 104.157 39.9927 106.398 47.7659 111.733C47.093 110.076 45.7217 108.823 44.362 107.581C41.9841 105.408 39.6415 103.268 41.1321 99.0594Z" fill="#C8C2B2"/>
</svg>
