<svg width="236" height="221" viewBox="0 0 236 221" fill="none" xmlns="http://www.w3.org/2000/svg">
<path fill-rule="evenodd" clip-rule="evenodd" d="M139.79 106.902C140.104 108.254 140.457 109.653 140.75 110.811L140.752 110.818L140.77 110.889L140.776 110.914C140.971 111.689 141.138 112.35 141.244 112.807C139.938 111.915 138.551 111.003 137.123 110.064C133.913 107.954 130.498 105.709 127.343 103.248C125.177 101.606 123.112 99.8793 121.048 98.1524C118.984 96.4257 116.92 94.6989 114.754 93.0569C113.526 92.1051 112.23 91.2617 110.919 90.4084L110.918 90.4077L110.917 90.4069C109.484 89.4736 108.032 88.5284 106.63 87.4166C105.292 86.4352 104.111 85.3232 102.759 84.0505L102.758 84.0494L102.757 84.0483C102.563 83.8658 102.366 83.6801 102.164 83.4909L101.937 83.2784L101.714 83.07L101.583 82.9489L101.419 82.7969C100.686 86.6195 100.249 89.9672 103.202 93.2501C106.516 96.6917 109.536 100.608 111.627 105.067L111.589 105.023C108.085 101.075 104.58 97.1269 100.852 92.9086L100.78 93.0421C98.8368 96.6888 97.2627 99.6419 100.917 102.953C103.466 105.195 105.312 108.251 106.774 111.396C105.287 109.88 103.861 108.37 102.436 106.86L102.42 106.842C100.999 105.336 99.577 103.829 98.0932 102.317C97.6854 102.656 97.4136 102.882 97.1185 103.357C98.5873 109.454 103.236 112.459 107.808 115.415C110.55 117.187 113.264 118.942 115.249 121.335C115.925 120.708 116.651 119.979 117.357 119.272L117.358 119.271L117.361 119.268L117.362 119.267C119.094 117.532 120.7 115.922 121.117 116.228C122.855 117.354 124.293 119.067 125.741 120.794C126.362 121.534 126.984 122.276 127.633 122.975L126.41 123.992C124.607 121.819 122.917 119.781 120.865 117.585C116.46 121.465 118.687 124.374 121.024 127.426C121.151 127.591 121.278 127.757 121.405 127.924C123.635 130.889 125.458 134.194 126.804 138.584C125.846 138.12 124.86 137.622 123.873 137.125L123.869 137.122C122.881 136.624 121.893 136.125 120.933 135.66C120.945 135.536 120.991 135.383 121.036 135.231L121.037 135.228C121.082 135.076 121.127 134.925 121.139 134.801C121.568 134.903 122.003 134.943 122.438 134.983C122.654 135.003 122.869 135.023 123.083 135.05C123.303 135.078 123.521 135.114 123.738 135.165C123.748 135.141 123.758 135.117 123.768 135.094C123.785 135.053 123.8 135.013 123.815 134.975L123.844 134.897C123.927 134.672 123.993 134.494 124.192 134.329C122.985 133.579 121.754 132.849 120.51 132.113L120.508 132.111C118.822 131.112 117.113 130.099 115.411 129.004C113.294 127.598 111.253 126.02 109.19 124.425C108.262 123.708 107.331 122.987 106.386 122.277C102.978 119.831 99.5706 117.385 96.1863 114.69C93.2761 112.289 90.3658 109.889 87.8401 107.398C87.1437 106.744 86.496 106.025 85.8394 105.295C84.5394 103.851 83.2047 102.368 81.39 101.284C81.839 102.517 82.3221 103.722 82.8051 104.927C83.2882 106.133 83.7712 107.338 84.2203 108.571C84.1924 108.594 84.1541 108.616 84.1097 108.638C84.0656 108.659 84.0155 108.68 83.9636 108.701L83.8922 108.729C83.8215 108.757 83.7509 108.784 83.6903 108.813C83.6391 108.837 83.595 108.861 83.564 108.887C82.6525 107.235 81.7692 105.617 80.8859 103.998C80.0026 102.38 79.1192 100.762 78.2078 99.1094L76.6465 99.7188C77.3378 101.652 78.057 103.619 78.7762 105.586L78.7911 105.626C79.5152 107.606 80.2392 109.586 80.9352 111.532C80.7992 111.645 80.6633 111.757 80.2787 111.848C79.5398 110.578 78.8291 109.285 78.1102 107.978L78.1089 107.975C77.2515 106.416 76.3824 104.835 75.4397 103.247C75.1795 103.348 74.9475 103.484 74.7153 103.619C74.4833 103.755 74.2513 103.89 73.9911 103.992C75.3319 106.44 76.701 108.922 78.07 111.403L78.0805 111.422C79.4423 113.891 80.8041 116.359 82.1379 118.794C81.934 118.964 81.702 119.099 81.47 119.235C81.238 119.37 81.0059 119.506 80.802 119.675C79.4282 117.604 78.0884 115.505 76.7485 113.406L76.7419 113.396C75.4042 111.3 74.0665 109.203 72.6948 107.135C72.5726 107.237 72.4277 107.311 72.268 107.393C72.0726 107.493 71.8552 107.604 71.6308 107.79L71.6352 107.798L71.6366 107.801C74.538 112.958 77.4395 118.115 80.2051 123.385C80.0011 123.554 79.7691 123.69 79.5371 123.826C79.3051 123.961 79.0731 124.097 78.8692 124.266C76.032 119.739 73.1948 115.212 70.4704 110.821C70.4248 110.859 70.3761 110.893 70.3253 110.924C70.2927 110.944 70.2593 110.964 70.2253 110.982C70.1564 111.019 70.0849 111.054 70.0136 111.088L70.0105 111.09L70.0062 111.092C69.8422 111.171 69.6781 111.25 69.5422 111.363C71.0502 114.011 72.5243 116.687 73.9984 119.364C75.4725 122.04 76.9466 124.717 78.4546 127.365C78.2507 127.534 78.0527 127.642 77.8547 127.749C77.6566 127.856 77.4586 127.964 77.2547 128.133C76.1626 126.401 75.0423 124.636 73.9219 122.87C72.8016 121.105 71.6813 119.339 70.5892 117.608C70.4533 117.721 70.2892 117.8 70.1252 117.879C69.9611 117.958 69.7971 118.037 69.6611 118.15C70.9554 120.402 72.2158 122.682 73.4762 124.963C74.7364 127.243 75.9967 129.523 77.2909 131.775C77.2539 131.806 77.2122 131.836 77.1672 131.866C77.047 131.947 76.9029 132.025 76.7589 132.103C76.5608 132.21 76.3627 132.317 76.2267 132.43C74.8977 130.551 73.4559 128.537 71.9908 126.771C69.4413 133.94 70.724 136.316 77.8209 136.843C79.243 136.974 80.7226 138.283 82.0408 139.449L82.0551 139.462C82.1824 139.574 82.3081 139.686 82.4321 139.794C82.5907 139.933 82.7465 140.068 82.899 140.196C84.2968 141.327 85.5739 142.559 86.8511 143.791L86.852 143.792L86.8535 143.794C87.4926 144.41 88.1316 145.027 88.7857 145.63L89.7371 144.839C89.6036 144.561 89.4944 144.262 89.3803 143.95C89.2256 143.526 89.0618 143.078 88.8157 142.622C90.647 143.658 92.4616 144.675 94.2518 145.678L94.2581 145.681C97.0595 147.251 99.8011 148.787 102.453 150.314C96.6625 149.756 91.0351 148.103 85.4412 145.198C85.7325 146.102 85.9958 146.973 86.2592 147.843C86.5228 148.715 86.7865 149.587 87.0784 150.493C91.5957 161.197 97.0877 170.862 109.853 173.792C116.111 175.245 121.716 175.635 127.445 172.02C129.301 170.936 131.383 170.124 133.531 169.944C140.721 169.476 145.501 165.272 150.351 160.323C149.908 161.035 149.438 161.713 148.967 162.391C148.496 163.069 148.025 163.747 147.583 164.46C146.992 165.409 146.22 166.97 146.535 167.626C146.896 168.247 147.684 168.514 148.708 168.861C149.213 169.032 149.776 169.222 150.373 169.485C142.365 172.011 134.445 174.922 128.571 182.789C132.862 181.59 136.732 179.621 140.553 177.677C146.358 174.722 152.05 171.825 158.935 171.777C154.713 173.447 150.563 175.057 146.462 176.647L146.444 176.654L146.438 176.657C139.297 179.427 132.308 182.138 125.355 185.004C123.396 185.85 121.646 186.949 119.848 188.079C119.009 188.606 118.16 189.139 117.274 189.657C117.262 189.781 117.222 189.871 117.182 189.962C117.166 189.998 117.151 190.035 117.136 190.073C117.126 190.101 117.117 190.129 117.109 190.16C117.101 190.193 117.095 190.228 117.091 190.267C114.805 190.368 112.514 190.511 110.233 190.653C106.987 190.856 103.76 191.058 100.587 191.135C99.2634 191.178 97.9699 190.898 96.6416 190.611C95.9505 190.462 95.2499 190.311 94.5307 190.202C95.1707 190.026 95.8438 189.757 96.5224 189.486C98.0265 188.884 99.5582 188.271 100.819 188.646C105.257 190.058 108.703 188.304 112.275 186.485C112.517 186.363 112.758 186.239 113.001 186.117L113.224 186.005C113.356 185.939 113.488 185.873 113.621 185.807C113.841 185.699 114.047 185.598 114.241 185.504L114.256 185.496C117.069 184.127 117.41 183.961 121.398 176.358C120.912 176.41 120.405 176.478 119.88 176.549L119.876 176.55C119.035 176.663 118.146 176.784 117.215 176.852C116.017 176.93 114.852 176.98 113.688 177.03L113.68 177.03C112.518 177.08 111.356 177.13 110.161 177.208C109.234 177.276 108.298 177.438 107.334 177.604L107.33 177.605C106.719 177.71 106.097 177.818 105.457 177.905C102.926 178.174 100.39 178.505 97.8534 178.836L97.8424 178.838C95.3058 179.169 92.7694 179.5 90.2387 179.769C88.7239 179.881 86.9604 179.97 85.4919 179.584C80.3409 178.357 75.2129 176.882 70.085 175.407C69.9259 175.769 69.7667 176.131 69.4717 176.606C75.8625 179.326 82.2532 182.046 88.1469 184.721C87.8325 184.844 87.337 184.95 86.5705 185.114C86.0676 185.221 85.4479 185.354 84.6861 185.533C88.6604 187.278 91.5509 188.547 94.554 189.953C85.9076 189.628 79.3286 184.773 72.7537 179.921L72.1434 179.471C71.9127 179.301 71.6819 179.131 71.4509 178.961L71.3875 178.915C69.891 177.755 68.4485 176.473 66.9082 175.104L66.9048 175.101L66.8998 175.097C65.7953 174.115 64.6404 173.088 63.3794 172.03C62.8405 172.322 62.3119 172.659 61.7778 172.999L61.7769 172.999C60.7408 173.658 59.6839 174.331 58.4899 174.718C57.7005 174.926 56.9034 175.426 56.0892 175.937C53.9873 177.257 51.7727 178.647 49.288 175.253C48.9911 174.895 48.0908 175.039 47.0905 175.199C46.192 175.342 45.2128 175.499 44.518 175.316C40.6018 174.323 36.7186 172.977 32.9078 171.656C32.1899 171.408 31.4745 171.16 30.7619 170.915C29.4419 170.44 28.1074 169.902 26.7612 169.36C24.7673 168.556 22.7477 167.742 20.7116 167.106C14.997 165.2 9.7264 166.598 4.79047 169.783C4.04428 170.261 3.25456 170.686 2.35025 171.173C1.80027 171.469 1.20794 171.788 0.557263 172.155C0.558955 171.465 0.509263 170.99 0.476056 170.673C0.442956 170.356 0.426468 170.198 0.494433 170.141C2.45686 168.816 4.14647 167.131 5.83607 165.446C9.21513 162.076 12.5942 158.705 18.1565 158.213C22.0987 157.727 25.9395 156.487 29.8025 155.241C31.6566 154.642 33.5157 154.042 35.3938 153.523C39.6468 152.282 43.3294 153.123 47.1214 155.479C48.7713 156.558 50.7118 157.241 52.6291 157.915L52.6323 157.916C53.0482 158.063 53.463 158.208 53.8735 158.358C54.0029 158.15 54.1278 157.989 54.2407 157.845C54.3853 157.659 54.5101 157.499 54.5994 157.295C53.6645 155.563 52.689 153.865 51.6987 152.141L51.696 152.136C50.8758 150.708 50.0456 149.263 49.2201 147.767C48.951 147.255 48.6592 146.756 48.3693 146.261C46.9385 143.814 45.5507 141.44 47.1191 138.037C47.329 137.439 46.9506 136.551 46.5446 135.598C46.2898 135 46.0243 134.376 45.8863 133.783C45.6179 132.629 45.2832 130.841 45.5551 130.616C49.6058 128.855 46.9907 125.979 45.7278 124.734C41.2863 120.516 41.5655 115.465 41.8418 110.463L41.842 110.461L41.8424 110.453C41.9026 109.363 41.9627 108.275 41.9733 107.198C41.9834 103.058 42.2422 98.9413 42.8624 94.9829C47.7491 84.2643 50.1497 73.3173 40.7496 62.5406C41.2701 62.3375 41.7905 62.1343 42.4468 61.8182C42.7927 62.1428 43.1963 62.4448 43.5999 62.7468C44.4073 63.3508 45.2146 63.9547 45.5593 64.7393C46.6283 66.7762 48.3321 68.4221 49.9356 69.971C51.6438 71.621 53.238 73.161 53.8293 74.9463C53.5357 75.88 53.5279 76.8342 53.8687 77.7999C54.1685 76.7612 54.1201 75.8241 53.8293 74.9463C54.5611 72.6195 57.0677 70.4196 60.3795 68.4853C61.1082 68.0048 61.6357 67.2817 62.1632 66.5586C62.6028 65.9561 63.0425 65.3535 63.5984 64.8913C63.7908 64.7313 63.9835 64.5693 64.1766 64.4069C66.9559 62.069 69.84 59.6427 73.7691 61.9983L73.6945 62.0285L73.6425 62.0499L73.7008 62.161C72.7175 62.6153 71.7134 63.0446 70.7095 63.4739L70.695 63.48C68.5478 64.3981 66.4005 65.3161 64.4535 66.4756C63.5119 67.0072 62.6913 67.8505 61.8779 68.6867L61.8768 68.6879C61.2043 69.3791 60.5366 70.0652 59.8093 70.5661C55.2345 73.91 54.8398 78.14 59.2383 82.0577C59.6217 82.4276 60.063 82.7749 60.5043 83.1222C61.3866 83.8167 62.269 84.5112 62.6888 85.3863C63.4081 87.0836 63.8322 89.2557 63.1724 90.9518C62.8541 91.6754 60.1858 92.0576 58.5582 92.0335C52.8402 91.5081 42.7258 104.507 44.837 110.096C45.079 110.72 45.5077 111.27 45.9288 111.811C46.211 112.173 46.4897 112.531 46.7064 112.903C47.1333 113.653 47.591 114.395 48.0477 115.136C49.2044 117.012 50.3547 118.878 50.982 120.825C52.3971 124.468 54.2003 126.642 58.178 127.007C60.4247 127.136 62.6444 127.552 65.0711 128.008C66.5505 128.285 68.1068 128.578 69.793 128.828C68.6565 127.323 67.605 125.857 66.5431 124.375C65.4156 122.803 64.2764 121.213 63.0115 119.546C64.7944 120.588 65.9908 121.2 67.1869 121.812L67.1879 121.812C67.2559 121.756 67.3296 121.637 67.4034 121.518C67.4772 121.4 67.551 121.281 67.619 121.225L61.0827 113.346L61.6263 112.894L67.513 118.329L68.1926 117.764C67.7931 117.044 67.3842 116.314 66.9643 115.563L66.9413 115.522C65.9007 113.663 64.7906 111.68 63.579 109.435C65.2496 110.341 66.0849 110.794 68.1168 111.859C65.979 107.898 64.471 105.25 62.9629 102.602C63.0987 102.489 63.3706 102.263 63.6192 102.286C65.061 104.301 66.5028 106.315 68.7335 109.281C69.4749 107.251 70.208 105.306 70.9202 103.417L70.9221 103.412L70.9235 103.408C72.6373 98.8629 74.2291 94.6415 75.5168 90.3295C75.9046 88.8598 75.9254 87.2937 75.9463 85.7276L75.9463 85.7262C75.9671 84.1596 75.988 82.5931 76.3759 81.123C78.0104 74.2893 76.8518 68.1905 73.7008 62.161L73.891 62.0727C73.8502 62.0474 73.8096 62.0226 73.7691 61.9983C74.5004 61.7036 75.2781 61.4465 76.0544 61.1899C78.1613 60.4935 80.2569 59.8009 81.3827 58.3694C84.058 55.2273 85.6957 51.1115 87.0617 47.2217C87.6204 45.4863 87.4302 43.3679 87.251 41.3712C87.2036 40.844 87.157 40.3252 87.1251 39.8243C86.7542 34.3946 90.3774 31.8415 94.5143 31.8453C101.048 31.6928 105.148 28.0543 109.408 24.054C113.532 20.1666 118.531 18.9948 124.043 20.3797C127.755 21.3709 131.448 22.3775 135.13 23.3812L135.143 23.3845C141.408 25.0922 147.642 26.7915 153.886 28.3922C155.784 28.8803 157.715 29.3402 159.647 29.8C161.579 30.2599 163.51 30.7197 165.408 31.2078C170.808 32.4569 173.105 36.0559 174.404 40.9435C175.388 45.1748 176.869 49.4517 178.759 53.3897C180.422 57.056 183.061 59.6826 187.489 60.5915C193.114 62.1122 195.633 67.3628 195.006 74.0811C194.693 77.4387 194.414 80.7679 194.134 84.0972L194.134 84.1133C193.854 87.4404 193.575 90.7676 193.262 94.1229C197.7 94.5923 199.964 94.8317 201.34 96.0647C202.774 97.3495 203.243 99.7129 204.2 104.539C204.39 105.512 204.761 106.425 205.129 107.331C205.583 108.448 206.032 109.552 206.129 110.739C206.24 111.802 206.392 112.883 206.546 113.972C207.034 117.425 207.532 120.955 206.751 124.223C205.312 130.239 205.481 135.148 208.905 140.106C209.789 141.373 210.099 143.119 210.408 144.865L210.469 145.209L210.518 145.479C210.561 145.714 210.605 145.949 210.652 146.181C210.695 146.391 210.739 146.598 210.787 146.804C208.616 147.231 206.309 147.772 204.227 148.585C202.145 149.397 200.289 150.481 198.432 151.566C196.032 153.102 193.768 154.525 190.828 155.133C191.737 154.464 192.598 153.737 193.459 153.011C194.894 151.799 196.33 150.588 197.985 149.642C200.113 148.332 202.579 147.43 204.976 147.273C209.385 147.051 210.744 145.921 208.424 142.571C203.535 135.848 203.167 129.038 205.763 121.372C206.47 119.178 205.979 116.372 205.442 114.064C204.976 111.396 204.301 108.81 203.618 106.197L203.617 106.194L203.615 106.187L203.614 106.182C203.221 104.678 202.826 103.163 202.466 101.619C201.774 98.2931 200.355 96.0296 196.603 95.9358C193.099 95.8647 191.919 97.7639 191.12 100.953C190.003 104.866 187.914 108.438 185.328 111.965C185.348 111.749 185.351 111.526 185.348 111.302C185.348 111.242 185.346 111.181 185.345 111.121C185.343 111.052 185.341 110.982 185.339 110.913C185.319 110.244 185.301 109.614 185.584 109.228C189.474 104.339 190.253 98.5785 191.036 92.795L191.037 92.7912C191.34 90.5523 191.644 88.31 192.128 86.1136C192.799 82.7692 192.835 79.3665 192.871 75.9638C192.885 74.6029 192.9 73.2421 192.955 71.8849C193.147 67.1344 191.212 63.6941 186.332 62.2419C174.167 58.7725 162.134 55.1932 150.103 51.6124C150.102 51.577 150.101 51.5425 150.099 51.5089C150.038 51.4819 149.976 51.4551 149.915 51.4284L149.808 51.3825C154.659 49.5348 159.009 51.2214 163.332 52.8977C164.156 53.2172 164.979 53.5363 165.804 53.8305C167.362 54.4138 168.904 54.9766 170.484 55.5536L170.485 55.5541L170.486 55.5545C172.959 56.4575 175.527 57.3954 178.407 58.502C177.719 56.6259 176.946 54.8755 176.208 53.2059C174.802 50.022 173.524 47.1316 173.22 44.2227C172.2 36.3492 168.093 33.3367 160.976 31.6789C150.809 29.2888 140.675 26.5569 130.61 23.8438C128.529 23.2831 126.452 22.7231 124.378 22.1671C119.114 20.8051 114.974 22.1813 110.648 25.5481C106.57 28.9378 101.883 32.146 96.9738 33.7025C91.4082 35.5752 89.0744 37.7448 90.4165 43.5147C91.3442 47.6778 92.2382 51.8693 93.132 56.0607C94.0259 60.2525 94.9199 64.4442 95.8478 68.6077C96.1976 70.3988 96.9012 72.0516 97.6538 73.8198C97.8139 74.1961 97.9763 74.5775 98.138 74.9667C98.42 74.4375 98.6987 73.9156 98.9743 73.4004L99.9429 71.5913L99.9623 71.5555L99.9643 71.552C101.249 69.1549 102.462 66.8902 103.611 64.6784C103.661 63.6835 103.694 62.7022 103.727 61.7306C103.789 59.8967 103.849 58.0977 104.016 56.3085C104.531 49.4544 109.583 45.0249 116.342 45.1441C116.894 45.1657 117.442 45.1665 117.988 45.1672C119.786 45.1695 121.561 45.1718 123.415 45.9197C122.592 45.9883 121.766 46.0934 120.933 46.1994C119.591 46.3701 118.23 46.5431 116.835 46.5698C109.645 47.0384 106.768 49.66 105.71 56.9661C105.426 58.9708 104.914 61.0292 104.412 63.048C104.263 63.6487 104.114 64.2458 103.973 64.8371C104.115 65.1012 104.313 65.3703 104.511 65.6394C104.906 66.1777 105.302 66.716 105.255 67.2136C105.051 69.4082 104.731 71.5922 104.418 73.7375C104.269 74.7544 104.122 75.7626 103.989 76.7591L105.072 77.2352C106.2 75.4562 107.367 73.6949 108.535 71.9335C110.869 68.412 113.204 64.8903 115.217 61.2277L115.242 61.1838C117.32 57.6299 119.117 54.5552 123.667 53.9735C125.042 53.7307 126.443 51.9209 127.437 50.6358L127.495 50.561C130.854 45.474 136.711 44.5065 141.676 47.7234C143.377 48.8254 145.345 49.5984 147.344 50.3843L147.348 50.3857L147.357 50.3892C148.174 50.7104 148.996 51.0337 149.808 51.3825L149.742 51.4079C149.695 51.426 149.648 51.4444 149.602 51.4632L150.103 51.6124C150.112 51.8744 150.107 52.1791 150.103 52.4791L150.103 52.4804C150.093 53.1994 150.083 53.8915 150.251 53.907C158.932 56.0325 161.773 62.8594 164.568 69.5735C165.207 71.1076 165.843 72.6359 166.546 74.1008C167.805 76.7261 168.886 78.5821 171.753 80.1004C177.984 83.1826 181.972 88.8192 182.588 95.6517C182.769 97.3879 180.987 99.3559 179.197 101.332C178.375 102.24 177.551 103.15 176.916 104.039C176.82 103.97 176.722 103.896 176.621 103.821C176.101 103.432 175.512 102.991 174.907 102.726C175.121 102.351 175.317 101.954 175.512 101.557C176.002 100.565 176.491 99.5728 177.267 98.9271C181.186 95.8992 181.328 93.0263 178.286 89.3588C177.569 88.5738 176.874 87.7703 176.176 86.9637C174.44 84.9551 172.686 82.9269 170.53 81.1173C169.848 84.1733 170.196 87.1702 170.54 90.1404C170.958 93.743 171.372 97.3065 169.938 100.889C169.314 97.1935 168.795 93.6253 168.286 90.1327C167.743 86.397 167.212 82.7479 166.578 79.1229C164.816 69.8009 158.226 65.1801 148.938 63.9501C142.497 63.1073 138.357 64.4835 135.629 70.8832C136.996 71.1248 138.282 71.3857 139.586 71.6503C141.104 71.9584 142.647 72.2715 144.373 72.5651C144.368 72.6197 144.363 72.6764 144.359 72.7354C144.353 72.819 144.348 72.9071 144.343 73.0003C144.337 73.1184 144.331 73.2446 144.325 73.38L144.316 73.6078C144.289 74.2945 144.253 75.1986 144.137 76.4333C145.373 74.8628 146.41 73.7432 147.204 72.8855C147.416 72.6567 147.611 72.4466 147.787 72.2514C147.35 73.1059 146.958 74.1559 146.53 75.303C146.358 75.7648 146.18 76.2422 145.99 76.7291C146.384 76.8463 146.721 77.0106 147.105 77.1978C147.316 77.3005 147.541 77.41 147.797 77.5225C148.183 77.2015 148.565 76.9215 149.019 76.5889L149.02 76.5883C149.685 76.1012 150.504 75.5012 151.715 74.4946C150.543 76.6533 149.674 78.3698 148.917 79.8625L148.911 79.875L148.874 79.9475L148.802 80.09C148.562 80.5635 148.333 81.0151 148.108 81.452C148.047 81.5703 147.986 81.6876 147.926 81.8039L147.853 81.9439L147.74 82.16C147.966 82.4317 148.304 82.8392 148.665 82.9979L155.258 76.8279C155.371 76.9637 155.597 77.2354 155.845 77.2582C154.984 78.4335 154.128 79.5465 153.272 80.6596L153.271 80.6607C152.415 81.7741 151.559 82.8874 150.697 84.0629C150.81 84.1988 150.928 84.2724 151.047 84.346L151.077 84.3652L151.123 84.394C151.157 84.4162 151.191 84.4395 151.225 84.4655C151.283 84.5098 151.34 84.5618 151.396 84.6291C152.155 83.8832 152.949 83.1092 153.742 82.3351C154.535 81.5609 155.328 80.7868 156.087 80.041C156.143 80.1089 156.234 80.1486 156.324 80.1883C156.414 80.228 156.505 80.2676 156.561 80.3355C155.812 81.647 155.039 83.2072 154.403 84.6545L155.079 85.4695C155.415 85.2283 155.748 84.9902 156.08 84.7522L156.084 84.7493C157.743 83.5611 159.403 82.3726 161.533 80.7925C161.284 81.1931 161.055 81.5676 160.838 81.9212C160.026 83.2439 159.393 84.2749 158.606 85.2917C164.284 92.9657 164.35 93.5992 159.706 97.6897C159.701 96.9529 159.745 96.1558 159.79 95.3257L159.791 95.3231L159.791 95.3208C159.901 93.3232 160.022 91.1352 159.501 89.1383C159.173 88.1912 157.756 87.6425 156.035 86.9756C155.165 86.6386 154.217 86.2713 153.292 85.8072C154.028 90.0156 154.518 92.8212 155.098 96.0115C155.417 95.6589 155.713 95.3587 156.035 95.0325C156.559 94.5011 157.151 93.9006 158.022 92.8923C157.037 98.0719 154.614 99.8568 150.729 98.496C149.239 98.0253 147.891 97.1769 146.554 96.3357C145.377 95.5958 144.21 94.8613 142.963 94.3944C141.02 93.714 138.488 93.9832 136.429 94.5468C136.082 94.6823 135.974 95.8436 135.838 97.2998L135.838 97.3058L135.837 97.3106L135.837 97.3129C135.769 98.0373 135.695 98.8342 135.58 99.6135C136.409 99.2477 137.123 98.9492 137.792 98.6695L137.801 98.666L137.803 98.665L137.804 98.6646C139.029 98.1524 140.105 97.7026 141.464 97.0172C141.051 97.6397 140.682 98.2251 140.293 98.8426L140.291 98.8461C139.72 99.7526 139.105 100.728 138.242 101.991C139.286 101.47 140.179 101.043 140.977 100.661L140.98 100.659L140.987 100.656C142.296 100.029 143.354 99.5226 144.421 98.9202C144.646 99.1918 144.759 99.3277 145.12 99.4863C144.358 100.247 143.52 101 142.575 101.849C141.808 102.54 140.97 103.293 140.045 104.165C140.325 104.169 140.579 104.174 140.813 104.18C141.023 104.186 141.218 104.192 141.401 104.198L141.703 104.208L141.705 104.208L141.716 104.208L141.718 104.208L141.719 104.208L141.722 104.208C142.367 104.23 142.893 104.248 143.549 104.236L143.548 104.236C141.782 105.705 140.831 106.495 139.79 106.902ZM139.79 106.902C135.504 103.12 132.779 98.7287 132.591 92.6884C132.505 90.9238 130.95 88.7732 129.462 87.2562C127.516 85.2728 125.444 83.4923 123.241 81.5986C122.074 80.5955 120.869 79.5607 119.628 78.4472C117.446 83.015 115.987 87.9001 116.879 93.1267C116.995 93.8837 117.81 94.5663 118.648 95.2669L118.654 95.2724L118.656 95.2742C118.798 95.3928 118.941 95.5121 119.08 95.6322C119.222 95.7543 119.361 95.8774 119.494 96.0021C120.13 95.1807 120.655 94.4511 121.288 93.5734C121.648 93.0741 122.042 92.5269 122.511 91.8875C122.364 93.4599 122.211 94.6589 122.08 95.6777L122.08 95.6834C121.983 96.4357 121.9 97.0898 121.841 97.7235C122.089 97.7463 122.338 97.7692 122.563 98.0408C122.826 97.6189 123.137 97.2014 123.517 96.6912C123.993 96.0532 124.577 95.2703 125.308 94.1523C125.177 95.5532 125.048 96.5927 124.921 97.6073L124.921 97.6084C124.8 98.5757 124.682 99.5205 124.569 100.735C126.425 99.6505 127.625 98.8824 128.169 98.4305C128.4 98.9129 128.573 99.4747 128.746 100.034C129.042 100.996 129.337 101.951 129.922 102.481C132.109 104.405 134.697 105.996 137.184 107.525L137.207 107.54C137.61 107.788 138.011 108.034 138.407 108.28C138.396 108.405 138.572 108.201 138.835 107.896C139.099 107.591 139.45 107.184 139.79 106.902ZM144.163 84.2154C143.947 83.7938 143.689 83.3683 143.429 82.9395C142.795 81.8952 142.149 80.8315 142.072 79.757C141.632 75.0737 138.764 73.5554 134.472 72.5335C130.428 71.5345 128.412 72.9806 127.341 76.3956C127.042 77.3969 126.851 78.4455 126.639 79.6117L126.638 79.6156C126.462 80.5819 126.271 81.6289 125.992 82.7965C126.667 82.3406 127.204 81.9512 127.703 81.5891L127.705 81.5878L127.709 81.5849C128.296 81.1591 128.832 80.7708 129.479 80.3564C129.204 81.9624 129.088 83.2065 128.925 84.9482C135.091 77.9861 135.588 78.0318 142.47 83.5579C142.679 83.6877 142.918 83.7472 143.171 83.81C143.493 83.8897 143.835 83.9747 144.163 84.2154ZM144.163 84.2154L144.212 84.4267C144.237 84.5341 144.262 84.6422 144.286 84.751C144.333 84.9576 144.38 85.1665 144.427 85.3771C144.788 86.9855 145.172 88.6941 145.731 90.257C146.135 91.298 147.375 92.7922 148.144 92.6119C149.162 92.4544 150.521 91.3246 150.998 90.2391C151.181 89.6285 150.325 88.0441 149.626 87.4779C148.385 86.5677 147.065 85.8372 145.769 85.1203C145.227 84.8203 144.689 84.5228 144.163 84.2154ZM66.3073 158.12L66.3883 158.257C70.9076 165.906 75.3368 173.402 83.2811 177.749L84.2325 176.958C82.9928 175.464 81.7473 174.032 80.5018 172.6C79.2564 171.168 78.0111 169.736 76.7715 168.242C78.3399 169.278 79.7354 170.501 81.1169 171.712C84.2082 174.421 87.2295 177.069 91.9626 177.418C91.009 176.523 90.0028 175.623 88.9814 174.709C87.7805 173.635 86.5586 172.543 85.3764 171.417C85.5124 171.304 85.7842 171.078 85.8074 170.829C89.0127 172.755 92.218 174.681 95.5359 176.742C95.6719 176.629 95.6951 176.38 95.6951 176.38C93.7561 174.32 91.755 172.254 89.7537 170.188C87.7525 168.122 85.7514 166.056 83.8124 163.995L84.0842 163.769C86.7015 165.955 89.3527 168.113 92.004 170.27C94.6545 172.427 97.305 174.584 99.9215 176.769C100.125 176.599 100.335 176.368 100.545 176.136C100.754 175.904 100.964 175.673 101.168 175.503C101.066 175.29 100.949 175.089 100.824 174.888C100.746 174.762 100.664 174.636 100.58 174.506L100.579 174.504L100.575 174.499C100.459 174.32 100.339 174.136 100.219 173.937C100.138 173.802 100.056 173.661 99.9747 173.511C100.664 173.512 101.381 173.546 102.098 173.581L102.101 173.581C102.818 173.616 103.535 173.65 104.224 173.651C93.7658 169.64 90.0973 160.822 86.3166 151.733C84.4966 147.358 82.6505 142.92 80.0085 138.926C79.8886 140.212 79.803 141.312 79.7265 142.295C79.5957 143.976 79.4918 145.313 79.2887 146.64L78.543 146.571C78.4608 144.326 78.2971 142.149 78.1258 139.871C78.0973 139.493 78.0686 139.112 78.0402 138.728C78.019 138.441 77.9977 138.152 77.9766 137.861C74.5305 137.702 74.2916 139.665 74.0492 141.658C73.9052 142.842 73.76 144.036 72.9411 144.802C74.5523 139.797 72.0392 137.025 69.3259 134.033C68.4716 133.091 67.5975 132.127 66.8261 131.065L66.7793 131.197L66.7474 131.287C66.7036 131.411 66.6606 131.531 66.6182 131.649C66.5776 131.761 66.5376 131.871 66.498 131.979L66.4094 132.22C66.2839 132.56 66.1614 132.885 66.0373 133.214L66.0362 133.217C65.6778 134.17 65.305 135.16 64.8004 136.65C64.7545 134.904 64.6727 133.541 64.591 132.178C64.5255 131.088 64.4601 129.997 64.4131 128.71C63.0075 130.337 62.3047 131.151 61.7378 131.852C61.4113 131.32 61.1072 130.884 60.8031 130.448C60.499 130.013 60.1949 129.577 59.8685 129.045C48.8459 143.717 57.7413 166.619 70.0024 172.263C69.2708 171.29 68.5342 170.371 67.8173 169.477L67.813 169.471L67.8124 169.47C66.3455 167.64 64.9618 165.914 63.8738 164.045C62.668 162.186 61.7547 160.083 60.6967 157.647L60.6963 157.646L60.6958 157.645C60.3118 156.761 59.9088 155.833 59.4657 154.857C64.8054 162.123 69.4689 168.575 73.9965 175.139L75.0838 174.235C72.3395 168.713 69.3234 163.417 66.3073 158.12ZM90.2635 50.5275C89.363 51.2762 88.7367 51.7073 88.3141 51.9982C87.78 52.3658 87.5712 52.5095 87.5453 52.7873C86.2688 57.0617 84.4753 60.1594 79.387 60.9466C78.3694 61.104 76.8908 64.858 77.4078 66.0348C79.3261 70.3524 78.9009 74.536 78.4544 78.9298C78.3462 79.9943 78.2368 81.0711 78.1592 82.1652C77.811 85.8976 77.731 90.7839 79.7363 93.4778C80.7984 94.9132 81.8216 96.389 82.8456 97.866C87.2963 104.286 91.7638 110.729 99.5111 113.991C102.245 115.107 104.493 117.515 106.52 119.684L106.618 119.789C106.825 120.006 107.032 120.225 107.238 120.444C107.366 120.579 107.493 120.715 107.62 120.85C110.692 124.126 113.824 127.466 119.777 127.9C118.944 127.087 118.211 126.328 117.531 125.625C116.24 124.289 115.14 123.151 113.913 122.216C112.221 120.896 110.488 119.641 108.752 118.384L108.75 118.383C105.813 116.256 102.869 114.124 100.105 111.662C93.9693 106.204 87.3831 100.204 87.9241 91.7206C88.3221 86.1107 87.497 81.5176 85.7008 76.5843C85.0047 74.6381 84.6933 72.6018 84.3818 70.5656C84.5061 70.577 84.6363 70.5262 84.7664 70.4754C84.8965 70.4246 85.0265 70.3738 85.1509 70.3853C85.8424 72.319 86.5399 74.1914 87.2372 76.0634L87.2496 76.0971L87.2509 76.1008C87.9525 77.9843 88.6542 79.8677 89.35 81.8133C89.4062 81.7665 89.4819 81.7431 89.5705 81.7155C89.6958 81.6766 89.8471 81.6296 90.0064 81.4972L90.0038 81.4867C89.355 79.0464 88.7062 76.6059 87.9451 74.03C88.0293 74.0377 88.1163 74.0168 88.2041 73.9868C88.2457 73.9725 88.2876 73.9561 88.3294 73.9398L88.3729 73.9229L88.4011 73.9122L88.43 73.9016L88.4491 73.8948L88.4739 73.8866L88.491 73.8811L88.5218 73.872C88.5869 73.854 88.6513 73.8439 88.7141 73.8497C89.2827 75.0839 89.8789 76.3515 90.4753 77.6194L90.4906 77.6518L90.5059 77.6844C91.1023 78.9523 91.6986 80.2199 92.267 81.454L93.8283 80.8446L89.5828 69.9142C89.6508 69.8577 89.747 69.8352 89.8431 69.8126C89.9392 69.7901 90.0352 69.7675 90.1032 69.7111C90.2449 69.9477 90.3851 70.1824 90.5243 70.4154C91.5567 72.1442 92.5349 73.7821 93.706 75.4377C93.842 75.3248 93.972 75.274 94.1021 75.2232C94.2323 75.1725 94.3623 75.1217 94.4983 75.0086C93.3419 67.2481 91.9369 59.4648 90.2635 50.5275ZM35.3761 169.833C35.4725 169.876 35.6266 169.968 35.8218 170.085C36.3586 170.406 37.206 170.913 38.0179 171.08C38.5781 171.183 39.3278 171.09 40.045 171.001C41.0637 170.874 42.0166 170.755 42.2675 171.22C45.3005 175.347 48.495 173.842 51.7955 172.287L51.7968 172.286C52.3696 172.016 52.9457 171.745 53.5246 171.501C53.7151 172.146 53.8492 172.723 54.0057 173.396C54.1624 174.069 54.3413 174.839 54.6215 175.868C55.8535 175.02 56.9859 174.255 58.0351 173.545L58.0388 173.543C59.7261 172.402 61.1982 171.407 62.5243 170.446C61.1524 165.803 58.2501 165.593 55.3273 165.38C55.1051 165.364 54.8829 165.348 54.6611 165.33C54.5585 165.322 54.4559 165.313 54.3536 165.303C52.4003 165.124 50.4768 164.624 48.519 164.116C47.4866 163.848 46.4447 163.577 45.3839 163.35C45.3955 163.225 45.4411 163.073 45.4867 162.92L45.4873 162.918C45.5326 162.766 45.5779 162.614 45.5895 162.49C47.5782 162.673 49.5951 162.89 51.612 163.107C53.6292 163.323 55.6463 163.54 57.6354 163.723C57.7266 163.417 57.7897 163.078 57.8527 162.739C57.9156 162.399 57.9787 162.06 58.0698 161.755C57.279 161.494 56.4259 161.228 55.573 160.961C54.7205 160.694 53.8681 160.428 53.0777 160.167C52.9927 160.142 52.9071 160.117 52.821 160.093C52.7491 160.072 52.6768 160.052 52.6043 160.032C52.4522 159.991 52.299 159.95 52.1458 159.909C51.2056 159.658 50.2652 159.407 49.5542 158.965C44.7248 155.635 39.1229 153.865 33.9184 155.897C32.2378 156.519 30.5792 156.905 28.9662 157.28C27.7129 157.572 26.4871 157.857 25.2999 158.242C20.3128 159.832 15.5484 161.996 10.8048 164.151C9.15731 164.899 7.51229 165.647 5.86133 166.368C5.90599 166.56 6.01262 166.758 6.11926 166.956L6.11981 166.957C6.22673 167.155 6.33365 167.353 6.37836 167.545C6.78718 167.348 7.18515 167.138 7.57819 166.931C8.44721 166.472 9.2927 166.025 10.1806 165.761C11.0297 165.562 11.8689 165.307 12.7049 165.052C16.0341 164.038 19.3144 163.039 22.9757 165.682C25.1093 167.14 27.7122 167.796 30.7008 168.548C32.1695 168.917 33.7312 169.31 35.3761 169.833ZM131.038 62.3052C131.162 62.3166 131.253 62.3563 131.343 62.3959C131.367 62.4066 131.392 62.4172 131.417 62.4273C131.449 62.4403 131.482 62.4524 131.517 62.4624C131.557 62.4737 131.6 62.4823 131.648 62.4867C131.43 63.0689 131.237 63.6296 131.063 64.137L131.063 64.1382L131.06 64.1446C130.836 64.7965 130.643 65.3596 130.465 65.7659C140.356 60.5264 150.46 61.0784 160.961 65.4314C158.143 62.0355 155.031 59.1144 151.623 56.6681C150.198 55.6686 148.692 54.7791 147.177 53.8843C145.19 52.7107 143.188 51.5279 141.331 50.0758C136.887 46.6558 132.07 47.217 128.646 51.6705C127.217 53.5469 125.065 55.1059 123.096 56.0543C118.797 57.7923 111.401 68.5312 111.954 73.3503C111.999 73.7781 112.27 74.2268 112.74 75.0029C112.966 75.3759 113.238 75.8247 113.552 76.3832C118.673 71.2073 123.251 66.4833 128.668 60.8326C127.146 63.7043 126.102 65.4905 125.058 67.2767C125.532 67.5712 126.006 67.8657 126.344 68.2732C127.3 66.926 128.288 65.7182 129.235 64.5608L129.239 64.5561C129.864 63.7924 130.47 63.0506 131.038 62.3052ZM52.7437 148.969C53.2482 146.302 53.7753 143.617 54.3098 140.895L54.3125 140.881L54.3137 140.875L54.3148 140.869L54.3156 140.864L54.3162 140.86L54.3167 140.857C55.0902 136.917 55.8792 132.9 56.6365 128.748C51.1447 128.149 50.3911 124.386 49.6374 120.623C49.3862 119.369 49.135 118.114 48.7082 116.977C46.8983 117.564 45.473 118.06 44.2962 118.579C44.7945 119.328 45.3218 120.052 45.8413 120.765C47.2703 122.728 48.6396 124.608 49.1817 126.682C50.0243 129.82 50.3184 132.967 50.6143 136.134C50.7431 137.512 50.8722 138.894 51.047 140.28C51.0239 140.529 50.9774 141.027 50.8414 141.14C48.1752 144.3 50.0376 146.179 51.7234 147.88C52.0876 148.248 52.4435 148.607 52.7437 148.969ZM50.0137 73.4303C49.9107 73.4544 49.8174 73.4705 49.7308 73.4854C49.4943 73.5261 49.3078 73.5581 49.1088 73.7235C49.1751 74.357 49.2414 74.9905 49.1949 75.4882C49.2476 76.5677 49.4395 77.7893 49.6326 79.0179C50.0705 81.8059 50.5143 84.6306 49.35 85.9172C46.9386 88.6098 47.154 91.0507 47.3538 93.3139C47.4207 94.0716 47.4858 94.8094 47.45 95.53L47.4556 95.5258L47.4603 95.5223L47.4753 95.511L47.4828 95.5056C50.1669 93.5028 52.8528 91.4986 55.943 89.1581C55.3029 87.4584 54.6374 85.7282 53.9644 83.9785C52.6305 80.51 51.2672 76.9651 50.0137 73.4303ZM136.557 171.101C130 171.502 125.721 174.371 122.386 179.21C121.183 181.145 120.055 183.171 119.028 185.017L119.023 185.025C118.792 185.441 118.565 185.847 118.345 186.242C125.801 184.57 130.435 178.765 135.555 172.354L135.621 172.271C135.931 171.883 136.243 171.492 136.557 171.101ZM97.9114 93.5168C98.0472 93.4038 98.1551 93.2569 98.2628 93.1099C98.3705 92.9629 98.4783 92.816 98.6141 92.703C96.5624 90.5068 94.5107 88.3106 92.2336 85.8427C88.3946 93.3951 89.6472 98.7803 96.555 102.678C95.9076 101.272 95.2167 99.9024 94.5112 98.5037L94.5092 98.4997L94.5046 98.4906C93.9627 97.4162 93.4123 96.3247 92.8661 95.1863C94.1754 95.934 95.4847 96.6817 96.6814 97.2936C96.8172 97.1806 96.9249 97.0337 97.0326 96.8868C97.1404 96.7399 97.2482 96.5929 97.3842 96.4798C96.7209 95.6803 96.1085 94.8855 95.4382 94.0155C94.6281 92.9639 93.7333 91.8025 92.5615 90.3901L92.5635 90.3912C95.1808 91.8859 96.4897 92.6335 97.9114 93.5168ZM110.817 76.1318C109.816 78.8004 108.632 82.0796 107.266 85.9694C108.23 86.3926 109.454 87.0072 111.087 87.8266L111.091 87.8285C111.906 88.2375 112.822 88.6975 113.859 89.2103C113 85.2715 112.205 81.9518 111.56 79.2593L111.556 79.2438L111.549 79.2131L111.548 79.211L111.539 79.1737C111.27 78.049 111.027 77.0349 110.817 76.1318ZM133.798 89.1604C134.612 88.1783 135.395 87.2674 136.162 86.3743L136.163 86.3728C137.127 85.2518 138.066 84.159 139.012 82.9892C139.036 82.7403 139.025 82.5197 139.014 82.2991C139.003 82.0786 138.992 81.858 139.016 81.6092C138.337 81.7142 137.584 81.7286 136.83 81.743C135.323 81.7718 133.816 81.8006 132.91 82.5538C130.735 84.3617 130.48 87.0988 133.798 89.1604ZM144.858 92.382L144.858 92.3776C144.654 91.12 144.46 89.9203 143.971 88.9659C143.579 88.1482 142.835 87.4442 142.085 86.734C141.631 86.3043 141.175 85.8723 140.792 85.4114C140.812 86.5425 140.832 87.6736 140.49 88.6461C140.346 89.2483 140.025 89.7725 139.689 90.3202L139.686 90.3251C139.544 90.5576 139.399 90.7942 139.264 91.0429C141.521 92.3797 143.304 93.4219 145.223 94.3512C145.071 93.6966 144.964 93.0316 144.858 92.382ZM55.9599 82.2583C56.3343 86.3081 57.2986 89.4082 61.409 91.0407C62.8052 86.0479 59.8947 84.4378 56.7094 82.6757C56.4606 82.538 56.2101 82.3995 55.9599 82.2583ZM129.709 69.8372C127.038 69.5918 125.563 69.4562 124.701 70.1195C123.639 70.9376 123.511 72.971 123.225 77.5114L123.224 77.5154L123.224 77.5173L123.224 77.519L123.224 77.5205L123.224 77.5218L123.224 77.523C125.333 75.0817 127.305 72.7533 129.709 69.8372ZM121.265 74.3314C120.916 74.0484 120.628 73.771 120.341 73.4937C120.053 73.2163 119.766 72.9389 119.416 72.6558C119.116 73.0527 118.82 73.4467 118.526 73.8382C116.994 75.8769 115.515 77.8462 113.86 79.7994C114.097 79.9467 114.328 80.1561 114.559 80.3656C114.79 80.575 115.022 80.7845 115.259 80.9318C116.384 79.7481 117.477 78.5249 118.551 77.3225L118.555 77.3188C119.469 76.2954 120.369 75.2871 121.265 74.3314Z" fill="#B4AE9E" fill-opacity="0.36"/>
<path d="M102.682 150.335L102.631 150.416L102.453 150.314L102.588 150.326L102.682 150.335Z" fill="#B4AE9E" fill-opacity="0.36"/>
<path d="M102.682 150.335L103.517 148.992C102.842 148.327 102.174 147.591 101.454 146.797L101.453 146.796C100.826 146.104 100.158 145.369 99.4131 144.599C103.25 146.457 106.727 148.157 110.203 149.856L110.206 149.857C110.421 149.564 110.609 149.236 110.796 148.908C110.983 148.58 111.17 148.252 111.386 147.958C109.999 146.701 108.578 145.473 107.156 144.244C105.735 143.016 104.314 141.787 102.927 140.531C103.086 140.398 103.207 140.219 103.307 140.071C103.377 139.966 103.438 139.877 103.494 139.83C106.179 141.959 108.864 144.088 111.684 146.103C111.951 146.299 112.218 146.506 112.487 146.714C114.583 148.338 116.771 150.033 119.504 146.948C119.685 146.797 120.388 147.029 121.091 147.261L121.28 147.323C121.49 147.392 121.696 147.458 121.884 147.51C121.922 147.52 121.959 147.53 121.995 147.54C122.024 147.547 122.052 147.554 122.08 147.561C122.431 147.673 122.781 147.793 123.133 147.912C124.975 148.538 126.844 149.173 128.971 148.947C128.305 148.697 127.672 148.42 127.04 148.142C126.408 147.864 125.775 147.587 125.109 147.337C126.558 146.592 127.622 145.937 128.822 145.169C127.761 144.444 126.701 143.719 125.504 143.107C125.194 142.943 124.885 142.78 124.577 142.618C122.044 141.284 119.616 140.005 117.423 138.349C119.302 139.007 121.161 139.683 123.008 140.354C125.935 141.417 128.834 142.47 131.742 143.429L131.878 143.316C131.773 143.668 131.637 144.027 131.498 144.39L131.497 144.392C131.155 145.29 130.803 146.214 130.897 147.116C130.989 148.389 131.702 149.63 132.182 150.465L132.291 150.655C132.34 150.741 132.385 150.821 132.425 150.895C130.456 151.844 128.623 152.679 126.789 153.515C125.401 148.242 119.295 149.187 115.473 149.84C111.092 150.53 106.844 150.715 102.682 150.335Z" fill="#B4AE9E" fill-opacity="0.36"/>
<path d="M168.203 126.202C165.432 131.719 160.993 134.95 154.976 136.279C153.584 136.572 152.219 137.043 150.851 137.515C148.954 138.169 147.053 138.825 145.068 139.008C142.92 139.187 140.55 137.714 138.654 136.536C137.556 135.766 136.599 134.674 135.643 133.582C135.164 133.036 134.686 132.491 134.19 131.985C134.281 131.68 134.4 131.408 134.519 131.137L134.575 131.01L134.599 130.956C134.622 130.902 134.645 130.849 134.667 130.794C134.689 130.741 134.71 130.688 134.731 130.634C134.744 130.599 134.758 130.563 134.771 130.526C134.799 130.449 134.825 130.37 134.849 130.289C136.532 130.878 138.253 131.513 140.037 132.172L140.043 132.174C141.346 132.655 142.683 133.148 144.064 133.645C143.231 134.566 142.532 135.375 141.834 136.183L141.829 136.189L141.82 136.199C141.873 136.264 141.923 136.331 141.971 136.4C142.041 136.501 142.106 136.607 142.17 136.714C142.197 136.761 142.225 136.809 142.253 136.856L142.256 136.861L142.259 136.867C142.394 137.099 142.529 137.331 142.698 137.535L143.905 136.669L143.921 136.658L143.925 136.655L143.952 136.636C149.599 132.583 155.362 128.448 161.222 124.431C161.428 124.961 161.608 125.46 161.781 125.938L161.789 125.962L161.792 125.969C162.123 126.889 162.428 127.737 162.84 128.595C163.502 128.293 164.162 128.023 164.815 127.756L164.82 127.754C165.973 127.284 167.106 126.821 168.203 126.202Z" fill="#B4AE9E" fill-opacity="0.36"/>
<path d="M121.603 188.935C120.282 189.143 118.966 189.349 117.658 189.566C117.638 189.778 117.619 189.99 117.46 190.034L117.363 190.041C117.4 190.045 117.432 190.042 117.46 190.034C119.202 189.909 120.985 189.88 122.775 189.85C127.185 189.777 131.634 189.703 135.588 188.202C139.872 186.711 143.79 184.278 147.72 181.84C150.327 180.221 152.94 178.6 155.666 177.249C158.948 175.668 162.545 174.744 166.095 174.317C169.775 173.893 173.423 173.809 177.11 173.724L177.114 173.724C178.886 173.683 180.666 173.642 182.464 173.563L182.58 172.319L167.872 168.708L167.395 169.794C168.817 170.677 170.126 171.425 171.435 172.173C170.182 172.415 168.92 172.619 167.666 172.822L167.664 172.822C164.956 173.259 162.283 173.691 159.81 174.493C155.806 175.756 152.116 177.675 148.427 179.595C147.445 180.09 146.546 180.866 145.641 181.646C144.606 182.539 143.563 183.439 142.38 183.933C135.788 186.708 128.638 187.831 121.603 188.935Z" fill="#B4AE9E" fill-opacity="0.36"/>
<path d="M172.788 109.307C167.889 116.134 161.508 118.685 153.241 115.917C153.396 116.936 153.575 117.705 153.575 117.705C151.633 117.024 149.193 116.298 146.753 115.572C146.662 115.878 146.543 116.149 146.424 116.42C146.304 116.692 146.185 116.963 146.094 117.268L146.095 117.269C147.245 118.379 148.395 119.488 149.521 120.846C149.386 120.958 149.244 121.133 149.103 121.307L149.102 121.309C148.96 121.484 148.818 121.66 148.682 121.772L148.675 121.767C146.579 120.07 144.483 118.372 141.463 115.839C146.691 113.559 150.493 111.775 154.295 109.991C154.34 110.046 154.38 110.105 154.417 110.167L154.44 110.207C154.448 110.222 154.456 110.238 154.465 110.253L154.473 110.269C154.505 110.33 154.535 110.393 154.565 110.455C154.644 110.619 154.723 110.784 154.835 110.919C154.361 111.314 153.858 111.675 153.355 112.035L153.352 112.038C152.848 112.399 152.344 112.761 151.868 113.156C151.913 113.349 151.992 113.513 152.071 113.677C152.149 113.841 152.228 114.005 152.273 114.197C152.782 113.98 153.302 113.776 153.827 113.569L153.829 113.568C155.05 113.087 156.297 112.596 157.5 111.917C158.454 111.401 159.334 110.696 160.233 109.976C160.829 109.498 161.434 109.014 162.075 108.573L163.089 109.796C161.696 110.954 160.316 111.978 158.566 113.277L158.565 113.278C157.924 113.753 157.234 114.266 156.476 114.834C157.326 114.872 158.109 114.916 158.882 114.96C160.494 115.052 162.061 115.141 164.093 115.158C163.502 114.679 163.08 114.306 162.771 114.033C162.35 113.659 162.139 113.473 161.995 113.459C164.108 112.56 166.361 111.722 168.639 110.875C170.022 110.361 171.413 109.844 172.788 109.307Z" fill="#B4AE9E" fill-opacity="0.36"/>
<path d="M148.409 146.251C143.494 143.703 138.538 141.135 132.375 143.362C136.194 144.089 140.125 144.953 144.282 146.088C143.658 146.893 143.158 147.416 142.971 147.612L142.969 147.615C142.917 147.668 142.89 147.697 142.892 147.699C142.894 147.701 142.932 147.669 143.012 147.602C145.211 148.222 147.631 148.863 150.051 149.504L150.052 149.504C151.261 149.824 152.471 150.144 153.653 150.462C153.63 150.71 153.573 150.986 153.516 151.262L153.515 151.266C153.458 151.542 153.401 151.819 153.377 152.068L148.763 153.15C148.788 153.256 148.804 153.352 148.816 153.443C148.826 153.517 148.834 153.588 148.841 153.659C148.858 153.817 148.874 153.976 148.919 154.168C151.79 153.612 154.649 153.188 157.557 152.756L157.562 152.756L157.648 152.743C158.718 152.584 159.795 152.424 160.882 152.256C160.875 152.333 160.892 152.413 160.918 152.493C160.933 152.542 160.952 152.591 160.971 152.64C161.022 152.77 161.073 152.901 161.061 153.025C159.861 153.793 158.774 154.697 157.686 155.601L158.024 156.008C161.784 153.342 165.679 150.563 168.781 148.213C167.45 147.793 166.01 147.305 164.396 146.759L164.394 146.758C162.614 146.155 160.621 145.48 158.323 144.743C159.474 145.697 160.367 146.492 161.156 147.194L161.16 147.198C161.887 147.844 162.526 148.413 163.196 148.955C163.014 149.566 162.854 149.927 162.672 150.538C161.579 150.304 160.463 150.147 159.354 149.99C157.344 149.708 155.356 149.428 153.566 148.697C151.82 148.019 150.117 147.137 148.409 146.251Z" fill="#B4AE9E" fill-opacity="0.36"/>
<path d="M180.797 106.78C180.666 106.567 180.54 106.359 180.413 106.151L180.411 106.146C179.907 105.319 179.404 104.491 178.613 103.317C185.404 101.383 185.71 96.5584 186.022 91.6632C186.153 89.5952 186.285 87.5146 186.908 85.6339C186.931 85.986 186.955 86.3378 186.98 86.6893C187.495 94.1533 187.999 101.45 180.797 106.78Z" fill="#B4AE9E" fill-opacity="0.36"/>
<path d="M170.432 124.255L170.426 124.261C169.709 124.952 168.997 125.638 168.316 126.337C168.847 125.952 169.371 125.559 169.893 125.168C171.486 123.973 173.059 122.794 174.747 121.909C180.18 118.77 180.793 117.571 178.049 112.049C177.263 110.485 176.19 109.033 175.145 107.619C174.784 107.13 174.426 106.646 174.085 106.163C173.892 106.209 173.734 106.225 173.576 106.242C173.417 106.259 173.259 106.276 173.067 106.321C173.021 106.816 173.002 107.345 172.984 107.874L172.984 107.875L172.984 107.882C172.966 108.396 172.949 108.911 172.905 109.395C172.866 109.366 172.826 109.336 172.788 109.307L172.901 109.443L172.905 109.395C173.328 109.706 173.842 110.002 174.349 110.294C175.406 110.902 176.432 111.493 176.534 112.161C176.822 114.446 176.567 117.183 175.41 118.833C173.976 120.839 172.191 122.56 170.432 124.255Z" fill="#B4AE9E" fill-opacity="0.36"/>
<path d="M192.651 103.352C196.615 109.238 195.455 112.268 186.799 120.382C187.323 118.193 188.791 116.374 190.247 114.569C192.792 111.414 195.3 108.306 192.651 103.352Z" fill="#B4AE9E" fill-opacity="0.36"/>
</svg>
