<svg width="231" height="312" viewBox="0 0 231 312" fill="none" xmlns="http://www.w3.org/2000/svg">
<path fill-rule="evenodd" clip-rule="evenodd" d="M61.1866 50.6736C61.3154 54.8031 62.8904 58.5227 64.6309 62.0913C67.3709 68.0845 70.2765 73.9266 71.556 80.6461C71.6927 81.1281 71.9948 81.4591 72.1314 81.9411C73.6996 82.3299 74.0739 81.0781 74.4338 80.1429C76.0531 75.9346 77.6869 71.4097 79.1551 67.0359C81.3287 61.1082 83.3367 55.3316 87.0641 50.1092C87.906 49.0374 88.2947 47.4691 88.2014 46.0375C88.3024 43.8217 88.0869 41.5915 87.5405 39.6633C86.0377 34.361 84.3694 29.2097 84.1472 23.6486C84.0106 23.1666 83.7229 22.5191 83.5863 22.037C81.4716 19.7202 77.8675 18.7628 77.4076 14.9355C77.0699 11.9067 77.9984 8.9356 80.0132 6.48989C81.8191 5.14485 83.7472 4.59839 85.9775 4.3829C90.1214 3.93748 93.3223 6.77966 93.6167 10.7581C93.6956 12.5063 93.4579 14.24 93.4002 15.5062C91.5076 18.7505 88.5721 20.5198 85.7877 22.4546C85.1902 25.1236 86.0243 27.6992 86.7074 30.1094C87.9225 34.7642 89.4541 39.4334 90.8347 43.9372C90.9714 44.4192 91.2735 44.7502 91.7122 45.5632C95.3885 44.9378 98.5039 42.7009 101.77 40.6295C102.728 37.0254 103.218 33.2413 106.542 29.9037C107.657 29.796 109.434 29.084 111.168 29.3217C114.168 29.6171 116.16 31.1354 117.16 33.5599C118.159 35.9845 117.727 38.5024 116.044 40.646C114.511 42.9551 112.086 43.9548 108.093 44.5657C107.475 44.2202 106.691 44.0259 105.921 43.515C104.986 43.1551 104.367 42.8097 103.281 42.2844C98.5828 44.4491 94.3234 47.4269 90.5172 50.9011C85.387 55.5837 83.6666 62.0078 81.1621 68.2376C80.6224 69.6404 79.9315 70.8777 80.809 72.5037C85.2261 73.0223 89.1545 70.3467 93.6005 70.2323C94.6079 69.0094 95.2843 68.0887 96.2772 67.1823C99.587 64.1613 105.932 64.1335 109.183 69.3569C110.802 72.1269 109.679 75.8821 106.743 77.6514C102.167 80.6147 98.0811 79.794 94.6357 75.3547C94.0315 74.6927 93.5928 73.8797 93.3051 73.2322C87.7873 72.5047 83.1181 74.0364 78.5133 77.6328C77.7647 80.1363 75.4478 82.251 75.7711 85.5963C76.8573 86.1217 77.7925 86.4815 78.8787 87.0069C82.4396 88.9138 82.9283 92.1081 80.266 94.8415C79.4386 95.5968 78.6256 96.0355 77.7982 96.7908C76.3665 96.8841 75.0859 97.1429 73.3377 97.2217C72.3948 100.509 71.4518 103.797 70.8255 107.099C69.1984 114.955 66.0175 122.105 61.7503 128.73C58.6705 133.665 55.6051 138.283 52.5252 143.218C52.3453 143.686 52.1654 144.153 51.8055 145.088C52.5897 145.283 53.0573 145.463 53.6904 145.492C54.0069 145.506 54.3379 145.204 54.6544 145.218C64.8348 141.083 75.3384 140.294 86.2518 140.95C91.3165 141.181 95.8203 139.8 99.6121 136.643C100.605 135.736 101.432 134.981 102.425 134.075C104.922 131.492 107.268 128.744 109.765 126.162C109.024 125.018 108.283 123.874 107.693 122.896C106.24 119.975 106.852 116.989 109.802 114.903C112.256 113.271 114.788 113.386 117.068 115.552C117.975 116.545 118.866 117.854 119.924 119.013C123.406 119.171 126.205 116.92 129.262 115.949C130.961 113.489 131.105 110.324 135.127 109.08C136.86 109.318 139.529 109.915 141.731 110.333C143.996 112.815 144.046 115.196 143.78 117.563C142.535 120.52 139.959 121.354 137.549 122.037C134.204 122.36 132.089 120.043 130.096 118.525C128.046 118.273 126.42 119.15 124.794 120.028C118.772 123.401 113.218 126.954 108.239 131.802C105.411 134.687 102.598 137.254 99.6188 139.973C99.1223 140.427 98.7769 141.045 98.266 141.815C100.259 143.333 102.489 143.118 104.539 143.37C106.74 143.787 109.107 144.054 111.474 144.321C113.524 144.573 115.726 144.99 117.942 145.091C119.28 143.566 120.604 142.358 121.777 140.984C123.252 139.941 125.029 139.229 127.396 139.496C128.769 140.668 130.143 141.841 131.668 143.18C134.553 146.007 134.077 149.475 130.645 151.697C128.523 153.028 126.264 153.877 124.034 154.092C120.264 153.286 119.61 150.243 118.143 147.638C117.042 147.429 115.79 147.055 114.69 146.846C106.337 145.672 98.136 144.664 89.6183 143.641C86.6184 143.346 83.6185 143.05 80.6041 143.071C78.7049 142.985 76.6401 143.049 74.6831 144.229C75.143 148.056 75.7683 151.732 78.8038 154.726C79.7101 155.718 80.933 156.726 81.6738 157.87C83.0188 159.676 82.9322 161.575 81.5794 163.417C80.0612 165.409 78.2408 167.071 75.8162 168.07C72.4276 169.343 68.2048 168.04 66.1189 165.09C64.0331 162.141 64.2063 158.342 67.0196 155.774C68.6745 154.264 70.6315 153.084 72.7684 151.437C73.517 148.933 71.8554 147.113 70.1649 145.926C65.489 144.127 60.8631 144.709 56.4815 146.888C53.8914 148.038 51.3013 149.189 48.7113 150.34C45.9557 151.641 43.5022 153.274 41.6386 155.885C41.1277 156.655 40.6168 157.425 39.8037 157.864C34.1127 160.935 30.5364 166.322 26.5213 170.897C25.0175 172.573 23.6792 174.098 21.8877 175.127C20.4127 176.17 18.9377 177.213 17.6138 178.421C12.1383 183.722 6.04405 188.678 -0.186766 193.152C-2.48917 194.95 -5.10812 196.734 -7.41053 198.532C-9.05097 199.726 -10.677 200.604 -12.0442 202.762C-11.2601 202.956 -10.6414 203.301 -10.0083 203.33C-6.52638 203.489 -3.19549 203.482 0.120977 203.792C7.71797 204.139 15.4227 205.6 21.9835 207.803C29.2928 207.502 35.7247 205.575 41.5812 202.353C45.3152 200.461 49.3658 198.584 52.208 195.383C52.971 192.563 51.8492 189.34 54.0295 186.743C56.9649 184.974 60.2958 184.967 63.3746 187.011C65.144 189.946 65.8126 192.673 63.3014 195.572C60.3515 197.658 57.0206 197.664 53.5386 197.505C52.0781 198.232 50.7686 199.124 49.3081 199.85C44.8977 202.662 40.6527 205.324 35.6525 207.157C34.5229 207.582 33.2279 208.157 33.1413 210.056C33.911 210.567 34.8462 210.927 35.7813 211.287C40.0041 212.59 44.2269 213.892 48.6152 215.044C50.9676 215.627 53.4855 216.059 55.9889 216.808C58.3413 217.391 60.5716 217.175 62.8162 216.643C66.6725 215.55 70.3632 214.609 74.2339 213.199C80.8457 210.804 87.1554 208.079 93.7672 205.684C95.3788 205.123 96.8249 204.713 98.2709 204.303C102.595 203.39 106.329 201.499 109.941 198.809C110.646 197.255 111.2 195.536 111.905 193.982C113.992 189.953 117.892 187.911 121.978 188.732C125.913 189.387 128.15 192.502 127.811 196.452C127.192 203.085 120.191 207.048 113.81 204.378C112.408 203.838 111.336 202.996 109.947 202.14C108.983 202.413 107.868 202.521 107.055 202.96C103.998 203.93 100.94 204.901 97.8678 206.188C94.1626 207.447 90.443 209.022 86.8889 210.446C81.7231 212.43 76.4064 214.25 71.2406 216.235C70.1111 216.659 68.8305 216.918 68.7439 218.817C69.2115 218.997 69.9812 219.508 70.4488 219.688C73.9163 220.163 77.3838 220.638 81.0024 221.279C88.5561 222.575 95.8798 221.958 103.491 221.988C110.786 222.003 118.095 221.702 125.39 221.717C126.822 221.624 128.254 221.531 129.671 221.754C133.715 216.546 138.636 212.964 145.255 213.9C147.218 216.052 148.729 217.707 150.239 219.362C152.354 221.678 152.541 224.542 151.296 227.498C148.971 233.26 142.812 236.152 137.352 234.158C134.698 233.244 132.72 231.409 131.404 228.97C130.677 227.51 130.267 226.063 129.404 224.121C127.987 223.898 126.735 223.523 125.469 223.466C118.174 223.45 110.743 222.953 103.419 223.57C100.872 223.771 98.34 223.656 95.9587 223.706C90.5919 223.144 84.8653 223.517 79.031 222.775C73.6786 221.897 68.4774 221.184 63.2761 220.471C60.1251 220.01 57.2618 220.196 54.1753 221.8C57.6917 231.635 64.669 238.615 73.1068 244.868C75.4881 244.818 78.0349 244.617 80.4161 244.567C82.6964 246.732 84.84 248.416 87.5734 251.078C88.0121 251.891 87.7889 253.309 86.9325 254.697C85.8819 256.869 84.378 258.545 82.27 259.559C78.5504 261.134 72.5794 259.911 70.0259 256.781C68.8175 255.457 68.4076 254.011 68.6453 252.277C69.034 250.709 69.4228 249.14 69.8259 247.256C67.9633 242.888 64.1148 240.334 60.4462 237.312C59.1512 237.887 57.8562 238.463 56.5611 239.038C54.302 239.886 51.9207 239.936 49.7483 238.886C45.691 237.432 44.7924 232.792 47.7856 229.756C48.944 228.699 50.2535 227.807 51.5774 226.598C51.463 222.152 48.5497 219.958 45.3054 218.065C42.0611 216.173 38.8024 214.597 35.2127 213.323C31.9395 212.063 28.321 211.422 24.8679 210.631C20.012 209.299 15.1562 207.967 10.4514 206.801C7.31481 206.024 7.31482 206.024 4.25715 206.994C3.88285 208.246 4.63812 209.074 5.55887 209.75C8.92533 212.441 11.2989 216.038 13.5069 219.787C15.866 223.701 18.2107 227.931 20.5698 231.845C21.1596 232.824 21.7638 233.486 22.6701 234.479C23.9362 234.537 25.2168 234.278 26.483 234.336C28.8643 234.286 31.0368 235.336 32.6983 237.157C34.662 239.308 35.1507 242.502 33.6036 245.128C32.0565 247.753 29.2865 249.372 26.452 248.925C23.9341 248.493 21.7617 247.443 19.7835 245.608C17.9565 243.938 17.5755 241.859 18.6262 239.687C19.1659 238.284 20.0223 236.896 21.0585 235.04C19.5624 233.068 18.0663 231.097 16.7357 228.974C15.4051 226.852 14.0745 224.729 12.7439 222.607C11.4133 220.484 10.0827 218.362 7.60812 216.98C4.4494 220.167 1.86602 224.648 -3.73067 222.173C-4.16939 221.36 -4.92465 220.532 -5.36338 219.719C-6.78729 216.165 -5.3912 213.374 -1.53496 212.281C-0.405405 211.857 0.709708 211.749 2.47234 211.354C1.88256 210.375 1.60934 209.411 1.00512 208.749C-0.95856 206.598 -3.46202 205.849 -6.1454 205.568C-11.1956 205.021 -16.1525 205.905 -20.8218 207.437C-24.2104 208.709 -27.297 210.313 -31.0955 210.14C-30.2825 209.701 -29.1529 209.277 -28.3399 208.838C-24.3037 207.278 -20.5553 205.07 -17.411 202.2C-15.9216 200.84 -14.2956 199.963 -12.5041 198.934C-7.95699 196.604 -3.54655 193.792 0.410755 190.483C1.40368 189.577 2.5621 188.519 3.70608 187.779C11.2319 182.729 17.5494 176.356 23.8524 170.3C28.1695 166.056 27.8252 159.696 23.0848 155.832C22.7827 155.501 22.1496 155.472 21.531 155.127C20.7035 155.882 19.7106 156.789 18.8831 157.544C17.9046 158.134 17.0916 158.572 16.2786 159.011C11.9048 157.543 11.7538 157.377 12.359 151.061C10.2298 149.061 7.68308 149.262 4.80533 149.765C2.25082 153.613 -0.303687 157.462 -6.41128 155.756C-6.86444 155.259 -8.08729 154.252 -8.82812 153.108C-10.5974 150.173 -9.47459 146.417 -6.237 144.979C-3.64692 143.828 -0.949112 143.793 1.52547 145.174C2.76277 145.865 3.83458 146.707 4.92082 147.232C7.92073 147.528 10.7696 147.658 13.604 148.104C16.4385 148.551 18.7331 150.4 21.7331 150.695C22.6038 148.991 21.863 147.847 21.2876 146.552C19.5616 142.666 17.5191 138.767 16.2751 134.745C15.0311 130.723 14.4202 126.731 13.8093 122.738C13.4572 120.025 12.9541 117.148 12.1343 114.256C11.0414 110.399 8.45908 107.903 5.2148 106.01C2.02051 106.499 -0.656177 109.549 -4.03707 107.174C-7.87783 100.972 -7.73347 97.8066 -2.63219 93.7571C3.07999 93.7004 4.95706 97.751 6.30878 102.888C8.43795 104.888 10.8837 106.903 13.6315 109.249C14.4734 108.177 15.3008 107.422 15.6607 106.486C17.3522 100.695 18.8926 94.7387 20.5986 88.6311C19.4046 86.9907 18.0595 85.1848 16.88 83.2278C16.7367 79.4148 17.8307 76.2927 21.8524 75.0487C25.241 73.7759 27.8667 75.323 29.4705 78.4096C30.4913 83.8485 25.6854 84.8981 22.5555 87.4516C22.1813 88.7033 21.6415 90.1061 21.4182 91.5233C19.7767 99.6957 17.9842 107.703 16.8247 115.738C16.3638 118.889 16.6871 122.235 16.8592 125.414C16.8159 126.364 17.5712 127.191 17.9955 128.321C20.3768 128.271 21.0965 126.401 22.5714 125.358C23.8809 124.466 25.0393 123.408 26.1977 122.351C27.2484 120.179 26.7164 117.934 26.0044 116.157C27.717 113.38 30.2783 112.863 33.1416 112.676C34.5732 112.583 35.9616 113.439 36.8679 114.432C39.4213 117.562 38.9027 121.979 35.6218 124.367C34.6433 124.957 33.3482 125.532 32.3842 125.805C30.6504 125.568 29.0822 125.179 27.4995 125.107C23.1468 126.653 20.9521 129.566 21.0521 134.329C21.0443 137.976 21.6986 141.019 23.4679 143.955C26.4023 149.164 29.1857 154.207 30.1776 160.279C30.3142 160.761 30.6163 161.092 31.055 161.905C31.868 161.467 32.6666 161.344 33.3286 160.74C36.8182 157.252 40.4734 153.612 43.9631 150.123C47.1219 146.937 50.2806 143.75 52.6696 140.053C57.4188 133.291 62.1824 126.213 66.0108 118.774C68.6952 112.077 70.3656 103.272 70.1367 94.3796C69.9079 85.4875 68.5639 76.7033 65.3062 68.1489C63.1703 62.8177 61.833 57.3643 59.726 51.4C59.1218 50.7381 58.2011 50.0617 57.2948 49.0688C54.849 47.054 54.3459 44.1763 54.4758 41.3274C54.5624 39.4282 55.7353 38.0542 57.3613 37.1768C58.8218 36.4504 60.419 36.206 61.9872 36.5948C66.6987 41.0918 66.7343 43.7897 61.1866 50.6736ZM134.024 220.208C133.815 221.309 133.62 222.093 133.426 222.877C133.102 226.51 135.777 230.438 139.684 231.727C142.489 232.806 145.712 231.684 147.921 228.455C150.462 224.923 150.196 220.311 146.679 217.455C145.305 216.282 143.751 215.576 142.513 214.886C138.175 216.115 138.175 216.115 134.024 220.208ZM89.5094 6.92297C89.0418 6.74304 88.5742 6.56312 88.1066 6.3832C87.3225 6.18883 86.6894 6.15996 86.0563 6.13109C82.4089 6.12335 79.7466 8.85673 79.5734 12.6552C79.4146 16.1372 82.2846 19.2815 85.7666 19.4403C88.932 19.5846 91.7453 17.0167 91.753 13.3693C91.8685 10.837 91.653 8.60673 89.5094 6.92297ZM77.3007 246.803C72.6459 248.019 71.1421 249.695 71.1632 252.709C71.3498 255.572 73.6301 257.738 77.2486 258.379C79.1334 258.782 81.1982 258.718 82.6876 257.358C84.5079 255.697 85.3931 253.675 84.559 251.099C82.7608 248.797 79.9408 248.034 77.3007 246.803ZM71.66 154.876C69.4153 155.408 68.0914 156.616 67.3573 158.803C66.8175 160.206 67.2273 161.652 67.8027 162.947C69.5576 166.199 74.7444 167.228 77.5433 164.977C78.8528 164.085 79.7091 162.697 79.9467 160.963C80.1988 158.913 79.4869 157.136 77.4799 155.934C75.4296 155.682 73.5448 155.279 71.66 154.876ZM125.38 194.121C124.215 191.847 122.827 190.991 120.927 190.904C119.345 190.832 118.215 191.256 116.906 192.148C115.596 193.04 114.74 194.428 114.351 195.997C113.934 198.198 113.998 200.263 115.66 202.083C117.803 203.767 120.336 203.882 122.472 202.235C125.257 200.3 125.703 197.466 125.38 194.121ZM28.589 247.278C30.5315 246.415 31.5533 244.876 31.791 243.142C32.0286 241.408 31.6332 239.646 30.1083 238.307C28.1013 237.106 25.8999 236.688 23.4753 237.688C21.8638 238.248 20.7054 239.306 20.4677 241.04C20.0645 242.924 20.942 244.55 22.4814 245.572C24.1718 246.76 26.0278 247.796 28.589 247.278ZM96.7582 74.0241C98.9951 77.1395 101.47 78.5211 104.693 77.3993C107.599 76.2631 107.866 73.8962 107.363 71.0185C106.91 70.522 106.457 70.0256 106.003 69.5291C104.011 68.0108 102.155 66.9746 99.5648 68.1253C96.9892 68.9594 96.7226 71.3262 96.7582 74.0241ZM105.591 36.8387C106.274 39.2489 106.957 41.659 109.597 42.8896C112.31 42.5375 114.569 41.689 115.346 38.5524C115.958 35.5669 114.793 33.2934 112.153 32.0628C107.39 32.1628 107.39 32.1628 105.591 36.8387ZM123.604 142.653C121.589 145.099 121.941 147.811 122.775 150.387C125.825 153.064 128.113 151.582 130.099 149.769C131.301 147.762 131.222 146.014 129.862 144.525C128.201 142.704 126.179 141.819 123.604 142.653ZM55.8492 237.261C56.8998 235.088 56.6699 233.175 54.9939 231.671C53.289 230.8 51.7207 230.411 49.7782 231.274C47.8068 232.77 47.8856 234.519 49.2307 236.325C51.2232 237.843 53.4101 238.577 55.8492 237.261ZM-5.87151 154.353C-3.83564 154.922 -2.56948 154.979 -1.26001 154.088C-0.763546 153.634 -0.418123 153.016 0.243829 152.412C-0.317076 150.8 -0.892406 149.505 -1.45331 147.893C-2.70504 147.519 -3.80572 147.31 -4.74091 146.95C-6.84896 147.965 -7.85632 149.187 -7.82076 151.885C-7.38204 152.698 -6.47572 153.691 -5.87151 154.353ZM55.8843 194.758C58.0568 195.808 59.7906 196.046 61.9275 194.399C62.7982 192.694 62.7338 190.629 61.0578 189.125C59.3818 187.622 57.4825 187.535 55.6622 189.197C54.9569 190.75 54.7192 192.484 55.8843 194.758ZM134.184 112.367C132.665 114.36 133.061 116.123 134.737 117.626C135.492 118.454 136.593 118.663 137.528 119.023C138.78 119.397 139.909 118.973 140.917 117.75C141.802 115.728 141.255 113.8 139.263 112.282C137.558 111.411 135.824 111.173 134.184 112.367ZM-4.26596 98.282C-5.46768 100.289 -5.38881 102.037 -4.51137 103.663C-3.93603 104.958 -2.87866 106.117 -1.29595 106.189C1.44518 105.204 0.927584 102.642 1.49622 100.607C-0.891736 97.3257 -0.891748 97.3257 -4.26596 98.282ZM-2.55782 220.799C-1.01842 221.821 0.247744 221.878 1.24067 220.972C2.71564 219.929 3.42091 218.375 3.05437 215.98C1.22731 214.31 -0.643078 213.591 -3.0821 214.907C-4.14721 217.396 -3.7518 219.158 -2.55782 220.799ZM57.6845 40.5221C56.9648 42.3925 57.0437 44.1407 57.9067 46.0833C58.0433 46.5653 58.662 46.9107 59.1151 47.4072C60.2303 47.2994 61.5109 47.0406 62.4749 46.7674C63.871 43.9763 64.1375 41.6094 62.1739 39.4581C60.1524 38.5729 58.7063 38.9827 57.6845 40.5221ZM31.0392 123.999C31.8377 123.877 32.9673 123.453 33.9313 123.18C35.1119 118.158 34.8243 117.511 31.2634 115.604C29.5008 115.999 28.4934 117.222 28.2558 118.956C28.1691 120.855 28.7156 122.783 31.0392 123.999ZM19.4412 82.7102C21.5848 84.3939 23.6351 84.646 25.621 82.8334C26.3262 81.2796 25.9019 80.15 24.8301 79.3081C23.4562 78.1353 21.8735 78.0631 20.413 78.7895C19.5422 80.4944 19.5422 80.4944 19.4412 82.7102ZM110.608 118.112C111.111 120.99 111.715 121.652 113.132 121.875C114.715 121.947 115.859 121.206 116.096 119.473C114.176 116.372 113.86 116.357 110.608 118.112ZM76.7552 95.3158C77.8992 94.575 78.7266 93.8197 79.7051 93.2299C79.1298 91.9349 78.54 90.9564 78.1013 90.1434C75.8855 90.0423 75.0581 90.7976 74.806 92.8479C75.4246 93.1933 75.8633 94.0063 76.7552 95.3158ZM17.3293 156.839C17.2216 155.723 17.0994 154.925 16.9916 153.81C15.711 154.069 14.9125 154.191 13.4808 154.284C14.0562 155.579 14.4949 156.392 14.7681 157.356C15.7322 157.083 16.2142 156.946 17.3293 156.839Z" fill="#828282"/>
</svg>
