<svg width="320" height="476" viewBox="0 0 320 476" fill="none" xmlns="http://www.w3.org/2000/svg">
<path fill-rule="evenodd" clip-rule="evenodd" d="M199.237 264.014C186.708 267.625 174.593 271.052 162.063 274.663C150.686 278.007 139.541 281.741 128.538 286.151C135.358 284.837 141.946 283.134 148.676 282.107C172.553 278.616 200.496 285.885 211.758 306.502C214.922 312.241 217.258 318.349 211.429 324.397C210.342 299.738 181.285 281.381 154.417 286.451C143.403 288.648 130.782 292.546 120.667 289.659C97.5242 282.962 82.6829 294.999 66.254 303.059C55.7157 308.248 46.1075 314.995 35.7108 320.86C25.6375 326.828 15.3317 332.407 3.69229 338.826C4.92442 336.058 5.79305 334.439 6.3383 332.717C2.00327 332.923 -2.33176 333.129 -6.75767 333.622C-7.28159 339.772 -8.17968 344.856 -8.75437 350.042C-10.0479 349.632 -11.3415 349.223 -12.3116 348.915C-10.4434 344.139 -8.25176 339.465 -6.29264 334.401C3.27551 328.905 12.2877 322.917 22.1793 317.523C47.6204 303.475 73.2031 290.103 98.3208 275.952C99.6545 275.111 100.614 273.205 100.745 271.667C101.782 257.154 109.712 246.719 122.453 239.069C128.616 235.337 133.344 230.519 132.705 222.422C129.666 233.143 118.986 237.656 111.177 244.34C104.377 250.082 99.8926 257.503 99.6118 266.256C99.2696 271.832 96.4713 275.051 91.8236 277.368C64.9072 291.581 38.3142 305.896 11.4887 319.822C5.50725 322.98 -1.26259 325.258 -7.01149 328.805C-10.6891 331.43 -13.6691 335.223 -15.3556 339.426C-18.2743 346.396 -20.2227 353.673 -22.818 360.746C-21.9387 361.34 -21.2919 361.545 -20.4126 362.139C-18.1596 360.642 -15.5831 359.247 -13.5626 357.361C1.77327 342.639 21.0512 332.323 40.0057 321.905C56.3838 312.881 72.7619 303.857 88.8166 294.731C97.0511 290.075 105.216 290.135 115.463 291.484C126.357 293.039 137.694 290.945 148.9 290.388C150.699 290.326 152.679 289.691 154.569 289.341C180.7 284.353 185.612 289.066 204.16 309.149C211.023 316.69 210.165 320.523 202.729 328.274C211.501 329.788 216.28 325.933 218.854 314.433C223.998 319.536 229.507 323.49 233.267 328.47C245.104 343.902 260.455 351.604 281.171 352.48C290.953 353.051 301.12 356.902 310.225 360.732C322.06 366.058 331.133 363.247 337.78 354.616C346.215 343.709 355.631 335.322 370.657 332.817C375.911 331.955 378.71 328.736 379.375 323.263C379.637 320.188 382.668 317.358 385.194 315C392.821 308.89 394.134 303.621 390.676 294.316C389.695 291.795 389.31 288.516 389.713 286.117C393.055 271.071 392.589 270.292 377.834 261.831C378.107 260.97 378.056 260.006 378.743 258.961C385.237 247.439 383.527 237.109 373.975 226.821C371.61 224.178 368.507 221.616 367.294 218.706C365.939 215.119 365.412 211.163 366.179 207.617C367.855 201.201 366.359 196.938 359.375 193.147C345.64 185.957 345.64 185.957 352.731 173.676C357.216 166.255 350.756 156.315 339.347 153.018C337.407 152.404 335.052 151.974 332.374 151.442C335.523 134.756 327.395 123.341 310.063 116.274C312.851 110.841 311.769 106.393 305.523 102.521C304.32 101.824 303.663 99.4058 303.056 97.9507L302.409 97.7459C302.511 99.6726 302.158 103.034 303.037 103.629C310.758 107.336 309.123 112.502 307.062 115.639C314.147 121.356 321.09 126.397 326.7 132.278C332.775 138.938 329.998 146.585 328.787 153.78C328.344 157.428 329.193 161.487 328.75 165.136C328.255 167.821 327.488 171.367 325.235 172.864C316.96 178.77 312.476 186.192 310.124 195.867C305.874 213.784 292.093 225.84 276.736 236.135C268.734 241.18 260.176 245.733 251.709 249.999C238.271 256.48 223.78 255.049 209.46 250.831C182.67 243.295 159.45 249.205 138.151 261.408C137.323 261.777 136.494 262.146 135.666 262.515C135.666 262.515 135.342 262.413 133.493 261.511C139.373 256.426 145.162 251.628 151.961 245.887C146.707 246.749 142.604 247.345 138.502 247.94C148.281 238.406 161.396 231.822 167.193 219.132C160.212 225.448 153.554 231.866 146.573 238.181C146.017 237.689 145.461 237.197 144.906 236.706C148.209 233.015 151.189 229.222 154.492 225.531C153.937 225.04 153.381 224.548 152.734 224.343C144.248 234.287 135.853 243.944 126.59 255.22C131.793 253.395 135.845 251.836 141.554 249.538C137.382 254.848 134.078 258.539 131.007 262.619C129.725 264.423 128.725 267.58 129.746 268.851C130.999 270.511 134.647 271.35 136.537 271.001C149.168 269.317 161.981 267.058 174.521 265.661C182.635 264.756 190.8 264.816 199.237 264.014C216.85 262.328 226.966 265.215 233.629 279.008C223.946 270.259 212.162 265.896 199.237 264.014ZM186.264 271.274C208.26 260.24 223.139 275.055 240.249 283.946C236.852 277.819 232.536 272.347 227.714 267.347C225.814 265.482 223.358 263.125 221.003 262.696C205.077 260.179 189.394 260.265 173.54 263.14C159.99 265.48 145.974 267.042 131.868 268.891C132.322 267.456 132.413 267.169 132.504 266.882C155.136 253.839 178.658 243.604 208.268 252.348C231.967 259.536 252.61 255.02 270.907 242.183C286.032 231.5 300.833 220.713 318.141 213.247C330.064 208.181 341.754 202.725 344.641 189.114C349.31 191.223 353.191 192.452 356.475 194.44C359.436 196.325 363.328 199.767 363.248 202.268C363.491 204.871 360.278 208.275 357.52 210.243C355.085 212.314 351.164 212.336 347.85 213.813C334.271 219.617 320.691 225.422 307.111 231.227C307.253 231.903 307.808 232.395 307.95 233.072C325.542 226.958 340.615 215.311 359.703 213.461C364.02 218.932 367.366 224.097 371.631 228.605C378.818 236.249 380.518 244.366 377.054 253.058C375.549 256.686 373.307 260.397 370.832 263.719C362.447 275.589 353.921 286.784 338.866 292.753C329.52 296.425 322.681 303.416 318.803 312.293C312.824 325.557 301.74 332.468 286.442 335.834C276.903 337.866 269.97 335.039 263.067 328.748C256.487 322.56 249.311 317.13 241.721 311.885C234.363 307.029 230.683 299.548 223.416 294.405C212.4 286.496 203.251 273.811 186.264 271.274ZM206.418 289.655C205.913 290.126 205.085 290.495 204.579 290.967C208.38 294.696 211.948 298.037 215.748 301.766C228.817 314.43 240.785 328.324 259.592 335.227C272.023 339.794 283.422 340.877 295.072 336.672C301.518 334.292 308.43 332.691 315.109 330.701C318.241 329.798 321.697 328.998 324.132 326.927C341.448 311.569 362.746 299.367 367.611 275.014C368.469 271.18 373.015 266.936 376.885 265.951C379.603 265.233 384.93 269.761 387.527 272.794C389.246 275.233 387.974 279.251 387.944 282.715C387.733 286.753 386.693 291.161 388.048 294.747C391.132 302.987 389.82 308.255 383.435 313.812C380.081 316.539 378.627 321.131 376.061 324.739C374.273 327.015 372.445 330.541 369.818 330.973C354.054 333.56 343.578 341.926 334.87 353.694C329.051 361.957 321.584 363.066 311.185 358.826C298.613 353.582 285.677 349.486 271.975 348.936C257.211 348.367 246.194 340.458 237.148 329.699C231.952 323.633 225.746 318.51 220.046 312.916C218.146 311.051 215.922 309.084 214.527 306.748C209.128 296.828 201.295 288.98 189.653 285.293C180.365 282.037 170.533 280.502 161.62 278.312C178.372 270.354 192.125 271.866 207.407 284.284C223.478 297.582 239.457 311.168 255.437 324.753C258.54 327.315 261.461 330.45 264.473 333.299C250.436 330.433 239.561 323.2 230.384 313.979C222.318 305.741 214.575 297.605 206.418 289.655ZM301.055 218.889C303.802 214.707 306.641 210.237 309.712 206.157C310.49 204.825 312.884 204.004 312.924 202.754C312.224 191.48 316.84 182.521 326.125 175.672C330.813 172.104 334.116 168.414 330.578 161.609C329.041 158.597 329.616 153.41 334.143 154.844C339.732 156.298 345.422 159.678 349.869 163.613C354.084 167.158 351.569 171.729 348.589 175.522C347.306 177.326 346.346 179.233 345.71 181.242C341.947 204.365 320.434 210.5 301.055 218.889ZM313.532 328.939C326.42 303.969 338.361 293.224 362.257 284.055C352.026 305.13 332.941 317.086 313.532 328.939Z" fill="white" fill-opacity="0.5"/>
<path fill-rule="evenodd" clip-rule="evenodd" d="M302.965 98.2375C304.742 93.748 306.843 89.3608 307.559 84.8511C308.548 79.4803 304.889 76.4272 299.504 78.8269C292.047 82.1498 287.338 81.2902 283.84 73.2355C282.768 71.0016 277.361 68.9738 274.411 69.3026C265.094 69.5103 256.06 71.0707 245.086 72.0168C247.692 67.158 249.935 63.4472 251.53 59.5317C252.257 57.2357 252.378 53.4845 251.033 52.1116C248.577 49.755 244.464 48.1368 241.372 47.7893C239.987 47.6667 237.422 51.275 237.018 53.6734C236.342 56.9328 235.473 58.5524 231.552 58.574C225.095 58.7398 219.012 59.9715 219.328 67.9656C219.378 68.929 217.63 69.9543 216.711 70.6105C206.223 76.7629 195.645 83.2023 184.834 89.2523C184.006 89.6215 183.177 89.9907 183.591 89.8061C179.224 83.371 175.918 76.9561 170.955 71.2796C166.407 65.4185 159.928 61.1568 151.632 62.635C143.336 64.1133 140.044 70.0176 139.105 76.3517C137.764 85.0842 137.806 93.9393 136.788 102.774C136.031 108.534 134.305 113.987 133.225 119.645C132.549 122.904 131.873 126.164 131.196 129.423C132.166 129.73 133.137 130.038 134.107 130.345C134.601 127.659 134.772 124.872 135.681 122.002C136.317 119.993 136.721 117.594 137.913 116.077C146.155 103.53 149.921 90.5127 146.017 74.7509C143.943 65.5684 152.733 61.4048 161.89 66.1987C172.158 71.9762 177.92 80.7476 179.863 91.4675C179.914 92.4309 179.965 93.3943 179.783 93.9683C179.51 94.8293 178.682 95.1985 177.813 96.8181C177.944 95.2807 177.802 94.6043 177.984 94.0303C177.337 93.8255 176.781 93.3337 176.135 93.1289C169.418 106.475 163.025 119.923 156.399 132.983C157.279 133.577 157.834 134.069 158.805 134.376C169.782 105.327 188.774 83.5528 221.148 72.3311C221.198 73.2945 221.663 74.0733 221.34 73.9709C212.277 78.9955 212.036 86.4978 215.767 94.9419C216.374 96.397 217.122 98.5286 216.526 99.2872C211.849 105.069 212.8 111.054 215.692 117.654C216.066 118.719 215.521 120.441 214.834 121.487C210.339 126.695 207.228 132.025 208.23 138.974C208.28 139.937 207.503 141.27 206.674 141.639C200.369 144.695 200.351 150.373 201.807 155.886C204.335 163.634 202.104 169.558 196.87 174.848C193.658 178.252 191.325 182.25 189.638 186.452C191.244 184.75 193.912 183.069 194.962 180.875C203.972 164.782 221.24 158.566 237.578 150.792C242.963 148.393 247.975 144.927 252.339 141.257C264.836 131.004 279.336 124.543 296.069 122.263C297.544 122.099 298.696 121.832 300.262 121.38C301 121.298 301.505 120.827 301.96 119.392C297.534 119.885 292.643 119.599 288.914 121.261C278.416 125.199 267.039 128.544 258.259 134.921C244.377 145.051 228.635 152.066 213.591 160.249C213.035 159.757 212.802 159.368 212.337 158.589C214.267 156.99 216.197 155.39 218.631 153.319C220.227 149.404 222.51 144.442 224.378 139.666C225.61 136.898 227.489 134.336 227.751 131.261C231.071 111.787 246.478 102.456 264.201 94.805C266.181 94.169 268.253 93.246 269.91 92.5076C269.91 92.5076 270.001 92.2206 269.717 90.8678C265.989 92.5292 262.351 93.9036 258.623 95.565C254.804 97.5134 250.661 99.3594 247.165 101.41C243.67 103.461 240.315 106.188 237.052 108.628C236.405 108.424 235.758 108.219 234.879 107.625C237.555 98.0513 240.321 88.191 243.643 78.8225C244.279 76.8135 246.896 74.1685 249.109 73.9219C258.142 72.3615 266.994 71.375 275.988 71.065C278.847 71.0232 283.102 73.3177 284.497 75.6541C290.35 84.1385 290.259 84.4256 300.576 81.0609C302.142 80.6095 304.031 80.2605 307.305 80.0341C306.276 86.6552 305.287 92.026 304.208 97.6837L302.965 98.2375ZM246.487 56.3559C246.043 60.0047 245.691 63.3665 244.691 66.5234C242.964 71.9764 240.358 76.8351 238.632 82.2881C233.452 98.6469 229.152 115.6 223.648 131.856C219.69 143.234 213.235 153.505 204.194 162.957C202.545 155.804 200.674 150.475 205.21 144.017C210.432 136.513 213.34 127.329 216.48 118.535C217.026 116.813 214.984 114.272 214.559 112.242C214.134 110.213 213.658 107.221 214.759 105.991C219.073 101.357 217.435 96.4172 215.15 91.2729C212.956 85.8416 213.349 81.2294 219.421 77.7841C221.169 76.7586 222.674 73.1301 221.925 70.9985C220.458 63.2712 221.418 61.3646 229.906 61.5262C235.211 61.6271 237.788 60.2325 238.362 55.0464C238.584 53.222 241.706 50.1054 243.737 50.4328C247.89 50.8006 250.579 53.5465 249.358 58.5279C247.599 57.3395 246.487 56.3559 246.487 56.3559ZM138.496 102.999C139.009 94.6359 139.613 85.9856 140.126 77.6223C140.773 77.8271 141.511 77.7449 142.158 77.9497C144.09 86.4558 147.316 95.3715 138.496 102.999Z" fill="white" fill-opacity="0.5"/>
<path fill-rule="evenodd" clip-rule="evenodd" d="M146.21 201.12C141.801 185.83 137.391 170.54 132.981 155.25C132.244 155.332 131.506 155.414 130.768 155.496C133.965 167.876 137.899 180.174 133.253 192.597C134.314 192.617 135.375 192.637 136.113 192.555C136.557 188.906 137.001 185.257 137.444 181.609C137.768 181.711 138.182 181.527 138.505 181.629C141.164 187.839 143.733 194.336 146.21 201.12Z" fill="white" fill-opacity="0.5"/>
<path fill-rule="evenodd" clip-rule="evenodd" d="M146.21 201.12C145.847 202.268 144.422 203.396 144.796 204.462C146.274 214.403 141.698 222.112 136.152 229.513C135.465 230.559 134.869 231.317 133.91 233.224C144.772 228.137 150.417 212.557 146.21 201.12Z" fill="white" fill-opacity="0.5"/>
<path fill-rule="evenodd" clip-rule="evenodd" d="M122.15 243.394C118.018 247.454 113.331 251.022 109.755 255.574C108.057 257.563 109.089 261.047 109.15 264.224C114.514 257.397 119.373 251.041 123.909 244.583C123.353 244.091 122.706 243.886 122.15 243.394Z" fill="white" fill-opacity="0.5"/>
<path fill-rule="evenodd" clip-rule="evenodd" d="M152.734 186.135C152.996 183.06 153.076 180.56 153.48 178.161C153.803 178.264 154.45 178.469 154.773 178.571C154.014 174.226 152.932 169.778 152.031 164.756C148.789 171.624 148.084 178.347 152.734 186.135Z" fill="white" fill-opacity="0.5"/>
<path fill-rule="evenodd" clip-rule="evenodd" d="M151.518 211.327C157.721 206.344 158.993 202.326 156.374 194.866C154.971 200.421 153.335 205.587 151.518 211.327Z" fill="white" fill-opacity="0.5"/>
<path fill-rule="evenodd" clip-rule="evenodd" d="M153.988 149.587C153.422 146.881 152.855 144.176 152.703 141.285C152.38 141.183 152.056 141.081 151.733 140.978C151.017 145.488 150.533 150.387 149.816 154.897C150.463 155.102 151.433 155.409 152.08 155.614C153.454 153.522 154.828 151.431 156.201 149.34C155.464 149.422 154.726 149.504 153.988 149.587Z" fill="white" fill-opacity="0.5"/>
<path fill-rule="evenodd" clip-rule="evenodd" d="M166.623 206.321C168.612 197.794 163.467 192.691 159.332 186.645C161.992 192.855 164.004 198.861 166.623 206.321Z" fill="white" fill-opacity="0.5"/>
<path fill-rule="evenodd" clip-rule="evenodd" d="M348.461 273.687C359.224 276.779 360.889 268.149 367.194 265.093C357.169 261.918 355.504 270.548 348.461 273.687Z" fill="white" fill-opacity="0.5"/>
<path fill-rule="evenodd" clip-rule="evenodd" d="M330.691 252.272C342.585 250.67 354.892 248.883 366.785 247.28C366.644 246.604 366.502 245.928 366.36 245.251C354.376 247.141 342.392 249.03 330.499 250.632C330.641 251.308 330.55 251.595 330.691 252.272Z" fill="white" fill-opacity="0.5"/>
<path fill-rule="evenodd" clip-rule="evenodd" d="M384.635 304.403C380.431 303.072 376.551 301.843 370.73 300C374.511 309.407 380.068 304.219 384.181 305.838C384.363 305.264 384.544 304.69 384.635 304.403Z" fill="white" fill-opacity="0.5"/>
</svg>
