<svg width="16" height="16" viewBox="0 0 16 16" fill="none" xmlns="http://www.w3.org/2000/svg">
<path d="M12.0771 12.0682C12.3331 11.8136 12.7469 11.8143 13.0019 12.0699L15.8088 14.8834C16.0641 15.1392 16.0637 15.5536 15.8078 15.8088C15.6801 15.9363 15.5129 16 15.3456 16C15.1779 16 15.0102 15.9359 14.8824 15.8078L12.5183 13.4382C11.1323 14.6098 9.41712 15.248 7.62345 15.248C5.80688 15.248 4.08761 14.6164 2.71542 13.4579L1.79001 12.5324C0.631569 11.1601 0 9.44071 0 7.624C0 5.807 0.631765 4.08738 1.79056 2.71496L2.71611 1.78958C4.0882 0.631418 5.8072 0 7.62348 0C9.44006 0 11.1593 0.631614 12.5315 1.79014L13.4569 2.71562C14.6154 4.0879 15.2469 5.8073 15.2469 7.624C15.2469 8.40522 15.1291 9.17586 14.8967 9.91454C14.7882 10.2593 14.4208 10.4508 14.0761 10.3424C13.7313 10.2339 13.5398 9.86647 13.6482 9.52172C13.8406 8.9103 13.9382 8.27178 13.9382 7.624C13.9382 4.14183 11.1054 1.30884 7.62345 1.30884C4.14153 1.30884 1.30875 4.14183 1.30875 7.624C1.30875 11.1062 4.14153 13.9392 7.62345 13.9392C9.28288 13.9392 10.8646 13.2747 12.0771 12.0682Z" fill="#697F34"/>
</svg>
