<svg width="64" height="64" viewBox="0 0 64 64" fill="none" xmlns="http://www.w3.org/2000/svg">
<rect width="64" height="64" fill="white"/>
<path d="M55.7593 26.0513C56.4319 24.9479 56.4319 23.5774 55.7591 22.4743L54.4322 20.2984C54.2575 20.0117 54.1898 19.6712 54.2421 19.3397L54.6376 16.8268C54.8392 15.5462 54.3131 14.277 53.2648 13.5144L51.2085 12.0187C50.9366 11.8208 50.7433 11.5322 50.6642 11.2054L50.0653 8.73053C49.7613 7.4734 48.7915 6.50365 47.5345 6.1994L45.0595 5.6004C44.7327 5.52128 44.4438 5.32803 44.2462 5.05615L42.7502 2.99927C41.9877 1.95102 40.7184 1.42464 39.4382 1.62639L36.9244 2.02189C36.5929 2.07402 36.2523 2.00652 35.9658 1.83177L33.7896 0.504517C32.6863 -0.168235 31.3158 -0.16811 30.2126 0.504517L28.0366 1.83139C27.7501 2.00627 27.4097 2.07352 27.0778 2.02152L24.5648 1.62602C23.2845 1.42452 22.0152 1.95064 21.2527 2.9989L19.7569 5.05528C19.559 5.32715 19.2703 5.5204 18.9434 5.59953L16.4685 6.1984C15.2117 6.5024 14.2417 7.47228 13.9374 8.72928L13.3384 11.2043C13.2593 11.531 13.0662 11.8199 12.7941 12.0175L10.7373 13.5135C9.68902 14.2759 9.16302 15.5449 9.36439 16.8255L9.75989 19.3394C9.81202 19.6711 9.74452 20.0116 9.56977 20.2981L8.24264 22.4744C7.57014 23.5777 7.57014 24.9482 8.24277 26.0513L9.56964 28.2273C9.74439 28.5141 9.81202 28.8546 9.75977 29.1861L9.36427 31.6991C9.16264 32.9796 9.68877 34.2488 10.737 35.0113L12.7934 36.5071C13.0653 36.7047 13.2585 36.9936 13.3377 37.3203L13.9365 39.7952C14.2405 41.0523 15.2104 42.0221 16.4674 42.3263L17.5009 42.5765L10.5066 58.1783C10.358 58.5099 10.3991 58.8956 10.6145 59.1884C10.8298 59.4811 11.1856 59.6355 11.5466 59.5923L17.1744 58.9194L20.4164 63.5683C20.6062 63.8401 20.9158 63.9999 21.2434 63.9999C21.2748 63.9999 21.3065 63.9984 21.338 63.9955C21.6998 63.9615 22.0154 63.7354 22.164 63.404L29.3072 47.4691L30.2123 48.021C30.7639 48.3574 31.3823 48.5255 32.0008 48.5255C32.6193 48.5255 33.2377 48.3572 33.7893 48.021L34.7271 47.4492L41.8792 63.404C42.0278 63.7356 42.3433 63.9615 42.7052 63.9955C42.7368 63.9985 42.7685 64 42.7998 64C43.1275 64 43.4372 63.8403 43.6268 63.5684L46.8688 58.9195L52.4966 59.5924C52.8573 59.6353 53.2135 59.4813 53.4287 59.1885C53.644 58.8958 53.6853 58.51 53.5366 58.1784L46.5387 42.568L47.5333 42.3273C48.7902 42.0233 49.7602 41.0535 50.0645 39.7965L50.6635 37.3215C50.7426 36.9947 50.9358 36.7058 51.2077 36.5082L53.2646 35.0122C54.3128 34.2498 54.8388 32.9808 54.6375 31.7002L54.242 29.1863C54.1898 28.8547 54.2573 28.5142 54.4321 28.2277L55.7593 26.0513ZM21.052 60.9535L18.4828 57.2693C18.2698 56.9637 17.9055 56.8002 17.5358 56.8447L13.0759 57.378L19.4483 43.1626C19.5648 43.2482 19.6693 43.3508 19.7554 43.4695L21.2514 45.5263C21.3935 45.7217 21.7274 46.0566 21.7274 46.0566C22.368 46.6694 22.7944 46.8168 23.556 46.9084C23.556 46.9084 24.2235 46.9527 24.5634 46.8992L27.0772 46.5037C27.2277 46.4801 27.3798 46.4822 27.5279 46.5067L21.052 60.9535ZM50.9676 57.3778L46.5076 56.8447C46.1375 56.8004 45.7736 56.9637 45.5606 57.2693L42.9913 60.9535L36.5127 46.5011C36.6486 46.4826 36.7872 46.4826 36.9243 46.5041L39.4372 46.8996C39.7908 46.9552 40.4846 46.9026 40.4846 46.9026C41.4643 46.7966 41.7982 46.5922 42.303 46.0284C42.303 46.0284 42.6154 45.7107 42.7493 45.5267L44.2451 43.4703C44.3393 43.3407 44.4548 43.2296 44.5846 43.1397L50.9676 57.3778ZM54.037 25.0011L52.7098 27.1774C52.2867 27.8717 52.123 28.6964 52.2493 29.4997L52.6448 32.0135C52.728 32.5421 52.5107 33.066 52.0781 33.3807L50.0211 34.8768C49.3627 35.3558 48.8945 36.0555 48.703 36.8468L48.104 39.3218C47.9783 39.8407 47.5781 40.2411 47.0591 40.3667L44.5841 40.9656C43.7926 41.1571 43.0928 41.6253 42.6138 42.2838L41.1181 44.3402C40.8033 44.7731 40.2796 44.9901 39.7507 44.9068L37.2377 44.5113C36.4343 44.385 35.6094 44.5485 34.9151 44.9718L32.7392 46.2987C32.2838 46.5762 31.7178 46.5762 31.2627 46.2987L29.0863 44.9717C28.5451 44.6416 27.9246 44.4696 27.2967 44.4696C27.1192 44.4696 26.9408 44.4833 26.7639 44.5112L24.25 44.9067C23.7213 44.99 23.1975 44.7726 22.8828 44.34L21.3867 42.2831C20.9077 41.6247 20.208 41.1565 19.4167 40.965L16.9417 40.366C16.4228 40.2403 16.0224 39.8401 15.8968 39.3211L15.2979 36.8462C15.1064 36.0547 14.6383 35.3548 13.9797 34.8758L11.9234 33.38C11.4906 33.0652 11.2735 32.5412 11.3568 32.0126L11.7523 29.4996C11.8786 28.6962 11.7151 27.8714 11.2918 27.1771L9.96489 25.0009C9.68727 24.5456 9.68727 23.9797 9.96489 23.5244L11.292 21.3481C11.7153 20.6538 11.8789 19.8291 11.7525 19.0258L11.357 16.512C11.2739 15.9834 11.4911 15.4595 11.9238 15.1448L13.9808 13.6487C14.6392 13.1697 15.1074 12.47 15.2989 11.6787L15.8979 9.20366C16.0235 8.68478 16.4238 8.28441 16.9428 8.15878L19.4178 7.55991C20.2093 7.3684 20.909 6.90015 21.3879 6.24165L22.8837 4.18527C23.1984 3.75252 23.7222 3.53515 24.251 3.61852L26.764 4.01402C27.5676 4.14065 28.3924 3.9769 29.0867 3.55352L31.2626 2.22664C31.7179 1.94914 32.2839 1.94914 32.7391 2.22664L34.9154 3.55365C35.6097 3.97715 36.4347 4.14077 37.2378 4.01427L39.7517 3.61877C40.2802 3.5359 40.8042 3.7529 41.1189 4.18552L42.6151 6.2424C43.0941 6.90078 43.7937 7.36903 44.5851 7.56053L47.0601 8.15953C47.579 8.28516 47.9793 8.68541 48.105 9.20441L48.7038 11.6793C48.8953 12.4708 49.3635 13.1707 50.0221 13.6497L52.0785 15.1454C52.5112 15.4602 52.7283 15.9842 52.6451 16.5128L52.2496 19.0258C52.1232 19.8292 52.2867 20.6539 52.7101 21.3483L54.037 23.5244C54.3147 23.9798 54.3147 24.5457 54.037 25.0011Z" fill="#A5BB70"/>
<path d="M43.8014 21.1247C43.5791 20.4404 42.9973 19.9627 42.2828 19.8779L36.2139 19.1583L33.6541 13.6089C33.3527 12.9557 32.7186 12.5498 31.9991 12.5498C31.2797 12.5498 30.6455 12.9557 30.3441 13.6089L27.7844 19.1584L21.7155 19.8781C21.001 19.9628 20.419 20.4406 20.1968 21.1248C19.9746 21.8087 20.1646 22.5373 20.6926 23.0257L25.1795 27.1751L23.9885 33.1693C23.8484 33.8751 24.1229 34.5761 24.705 34.9988C25.0261 35.2321 25.3987 35.3502 25.7737 35.3502C26.0786 35.3502 26.3849 35.2722 26.6662 35.1147L31.999 32.1298L37.3318 35.1147C37.9596 35.4662 38.711 35.4218 39.2931 34.999C39.8753 34.5761 40.1498 33.875 40.0095 33.1693L38.8185 27.1752L43.3054 23.0258C43.8336 22.5374 44.0236 21.8089 43.8014 21.1247ZM37.0346 26.0776C36.7771 26.3157 36.6619 26.6706 36.7301 27.0146L37.9489 33.1485L32.4916 30.0938C32.3386 30.0082 32.1689 29.9653 31.999 29.9653C31.8291 29.9653 31.6595 30.0081 31.5064 30.0938L26.0491 33.1485L27.2679 27.0146C27.3364 26.6705 27.221 26.3157 26.9634 26.0776L22.3718 21.8313L28.5826 21.0949C28.9309 21.0537 29.2327 20.8343 29.3797 20.5159L31.9991 14.8371L34.6185 20.5159C34.7655 20.8343 35.0673 21.0537 35.4156 21.0949L41.6261 21.8313L37.0346 26.0776Z" fill="#441A00"/>
</svg>
