<svg width="61" height="61" viewBox="0 0 61 61" fill="none" xmlns="http://www.w3.org/2000/svg">
<g clip-path="url(#clip0)">
<path d="M46.7415 26.9346C46.7415 25.0035 45.1705 23.4326 43.2394 23.4326H36.8032C38.3669 21.6749 39.3889 19.6735 39.5863 17.8779C39.7069 16.7812 39.368 15.6926 38.6564 14.8912C38.006 14.1586 37.1166 13.7503 36.1521 13.7413C36.1409 13.7412 36.1297 13.7412 36.1186 13.7412C35.1856 13.7412 34.3099 14.1005 33.649 14.7553C32.9881 15.4103 32.6223 16.2827 32.618 17.2138C32.584 17.4177 32.2254 18.1205 31.348 18.9549C30.6295 19.6383 29.3886 20.5777 27.5563 21.1726C26.8379 21.4059 26.1813 21.8354 25.6049 22.4492C25.3024 22.7711 24.8494 23.2158 24.2886 23.6621C24.0134 23.5162 23.7004 23.4328 23.3679 23.4328H17.2552C16.1667 23.4328 15.2812 24.3183 15.2812 25.4068V41.7073C15.2812 42.7958 16.1667 43.6813 17.2552 43.6813H23.3679C24.1099 43.6813 24.757 43.2693 25.0942 42.6625H40.6924C42.3426 42.6625 43.6851 41.32 43.6851 39.6698C43.6851 39.115 43.5334 38.595 43.2692 38.149C44.129 37.6226 44.7039 36.6745 44.7039 35.5946C44.7039 35.0398 44.5522 34.5198 44.2879 34.0738C45.1478 33.5474 45.7226 32.5993 45.7226 31.5194C45.7226 30.8948 45.5303 30.3144 45.2019 29.834C46.1303 29.2034 46.7415 28.139 46.7415 26.9346ZM43.2394 28.5265H42.7299C42.2025 28.5265 41.7748 28.954 41.7748 29.4816C41.7748 30.009 42.2024 30.4368 42.7299 30.4368C43.3268 30.4368 43.8125 30.9224 43.8125 31.5193C43.8125 32.1162 43.3268 32.6018 42.7299 32.6018H41.7112C41.1837 32.6018 40.756 33.0294 40.756 33.5569C40.756 34.0844 41.1836 34.5121 41.7112 34.5121C42.3081 34.5121 42.7937 34.9977 42.7937 35.5946C42.7937 36.1915 42.3081 36.6771 41.7112 36.6771H40.6924C40.165 36.6771 39.7372 37.1047 39.7372 37.6323C39.7372 38.1597 40.1648 38.5874 40.6924 38.5874C41.2893 38.5874 41.7749 39.073 41.7749 39.6699C41.7749 40.2668 41.2893 40.7524 40.6924 40.7524H25.3418V31.5196C25.3418 30.9922 24.9142 30.5645 24.3867 30.5645C23.8591 30.5645 23.4315 30.9921 23.4315 31.5196V41.7075C23.4315 41.7426 23.4031 41.7711 23.3679 41.7711H17.2552C17.22 41.7711 17.1916 41.7426 17.1916 41.7075V25.4064C17.1916 25.3712 17.22 25.3428 17.2552 25.3428H23.3679C23.4031 25.3428 23.4315 25.3712 23.4315 25.4064V27.4441C23.4315 27.9715 23.8591 28.3992 24.3867 28.3992C24.9142 28.3992 25.3418 27.9716 25.3418 27.4441V25.4064C25.3418 25.36 25.338 25.3147 25.3348 25.2691C26.051 24.7148 26.6237 24.1543 26.9973 23.7567C27.3508 23.38 27.7373 23.122 28.1461 22.9894C30.3942 22.2595 31.9072 21.0843 32.7804 20.227C33.8748 19.1525 34.5281 18.0323 34.5281 17.2304C34.5281 16.8067 34.6933 16.4096 34.9934 16.1122C35.2972 15.8112 35.6996 15.6521 36.1343 15.6515C36.6697 15.6565 37.0243 15.9304 37.2277 16.1594C37.5763 16.552 37.7478 17.1165 37.6872 17.6692C37.4786 19.567 35.9608 21.9128 33.8206 23.6454C33.5062 23.9 33.3862 24.3251 33.5212 24.7064C33.6562 25.0878 34.017 25.3428 34.4216 25.3428H43.2392C44.117 25.3428 44.831 26.0568 44.831 26.9346C44.831 27.8124 44.1171 28.5265 43.2394 28.5265Z" fill="#441A00"/>
<path d="M20.3114 37.6849C19.7839 37.6849 19.3512 38.1177 19.3512 38.6451C19.3512 39.1725 19.7839 39.6053 20.3114 39.6053C20.8388 39.6053 21.2715 39.1725 21.2715 38.6451C21.2716 38.1178 20.8389 37.6849 20.3114 37.6849Z" fill="#A5BB70"/>
<path d="M52.7771 9.80311C52.5263 9.52998 52.2661 9.25837 52.0034 8.9958C51.7407 8.73324 51.4693 8.47294 51.1961 8.22207C50.7861 7.84558 50.1484 7.87274 49.7718 8.28293C49.3953 8.693 49.4225 9.3308 49.8327 9.70729C50.0846 9.93867 50.3353 10.1789 50.5777 10.4213C50.82 10.6636 51.0603 10.9145 51.2918 11.1665C51.4906 11.383 51.7622 11.4928 52.0347 11.4928C52.2783 11.4928 52.5226 11.405 52.7162 11.2273C53.1263 10.851 53.1536 10.2132 52.7771 9.80311Z" fill="#A5BB70"/>
<path d="M47.1827 4.74156C41.3836 1.08209 34.4016 -0.54424 27.5235 0.161058C20.5446 0.877203 13.9639 3.98277 8.99342 8.90589C3.52326 14.3241 0.338389 21.5218 0.0254827 29.1731C-0.285474 36.7794 2.25798 44.1643 7.18753 49.9671C7.42529 50.247 7.7655 50.3913 8.1084 50.3913C8.38171 50.3913 8.65652 50.2995 8.88197 50.1117C9.39003 49.6881 9.45543 48.9367 9.02792 48.4335C4.48568 43.0863 2.14203 36.2806 2.42853 29.2697C2.71684 22.2179 5.6521 15.5842 10.6939 10.5905C15.275 6.05276 21.3399 3.19041 27.7711 2.53058C34.1125 1.8798 40.547 3.3788 45.8903 6.75063C46.4506 7.10409 47.1937 6.94095 47.5505 6.38617C47.9075 5.83123 47.7427 5.09503 47.1827 4.74156Z" fill="#A5BB70"/>
<path d="M56.2568 13.8175C55.9033 13.2572 55.1667 13.0925 54.6122 13.4494C54.0573 13.8062 53.8943 14.5496 54.2477 15.1096C57.6195 20.453 59.1182 26.8878 58.4678 33.2287C57.8079 39.6599 54.9456 45.7246 50.4081 50.306C45.4142 55.3476 38.7806 58.283 31.729 58.5713C24.7193 58.859 17.9122 56.5143 12.5653 51.9722C12.062 51.5446 11.3107 51.61 10.8871 52.1182C10.4635 52.6263 10.5283 53.3848 11.0317 53.8125C16.5173 58.4723 23.4157 61.0001 30.5793 61C30.9937 61 31.4097 60.9914 31.8257 60.9745C39.477 60.6617 46.6745 57.4769 52.0928 52.0067C57.016 47.0363 60.1217 40.4555 60.8376 33.4766C61.543 26.5981 59.9162 19.6164 56.2568 13.8175Z" fill="#A5BB70"/>
</g>
<defs>
<clipPath id="clip0">
<rect width="61" height="61" fill="white"/>
</clipPath>
</defs>
</svg>
