<svg width="621" height="515" viewBox="0 0 621 515" fill="none" xmlns="http://www.w3.org/2000/svg">
<path fill-rule="evenodd" clip-rule="evenodd" d="M249.563 377.991C260.747 375.542 271.652 373.476 282.836 371.027C287.809 378.739 294.811 388.51 301.428 398.002C295.4 383.658 295.56 369.694 300.368 354.994C301.288 365.048 302.208 375.101 303.127 385.155C304.456 384.944 305.505 385.118 306.448 384.629C306.441 378.171 306.049 371.434 305.967 360.228C312.976 376.457 318.582 388.149 323.909 400.225C324.853 399.735 325.796 399.246 326.46 399.141C323.654 390.066 320.847 380.991 318.041 371.916C318.705 371.811 319.369 371.706 320.312 371.217C330.431 385.594 341.213 399.866 351.332 414.244C352.555 413.37 353.777 412.497 355 411.624C350.412 404.19 345.93 397.42 341.343 389.987C342.844 388.73 343.961 387.193 345.463 385.935C351.726 391.064 358.269 395.808 364.917 401.216C371.565 406.623 378.319 412.694 384.687 418.485C385.246 417.717 385.525 417.333 385.699 416.285C374.184 403.829 362.774 392.035 348.46 376.962C375.212 384.628 396.228 390.482 405.101 416.275C411.099 434.704 410.258 465.774 398.25 482.293C396.493 473.392 394.562 465.538 392.91 457.3C392.245 457.405 391.581 457.51 390.638 458C390.894 468.158 391.044 477.653 391.299 487.812C381.204 462.892 362.136 447.891 341.46 433.484C328.865 424.938 317.561 413.808 306.084 403.725C311.336 411.053 315.75 419.534 322.783 425.22C335.799 436.419 351.82 445.103 363.893 456.792C370.752 463.526 373.876 474.59 378.395 483.734C383.3 493.157 387.54 502.685 392.761 514.098C419.351 469.435 420.502 433.897 398.326 390.83C400.039 390.899 401.367 390.689 402.137 391.247C424.564 408.096 427.213 401.218 436.173 378.382C439.102 371.12 441.261 363.299 444.189 356.036C447.118 348.774 450.047 341.511 453.813 333.096C464.695 341.573 476.24 349.945 487.506 358.702C478.896 349.525 469.728 341.117 461.783 331.835C458.002 327.334 456.003 321.191 453.445 315.816C454.668 314.942 456.275 314.348 457.218 313.859C461.384 318.639 465.443 322.757 469.609 327.537C470.273 327.432 470.831 326.664 471.495 326.558C466.523 318.846 462.214 311.029 457.242 303.316C458.185 302.827 458.744 302.059 459.687 301.57C469.663 312.91 479.917 323.866 490.278 335.485C490.836 334.717 491.78 334.228 492.723 333.739C485.442 324.352 478.545 315.244 471.263 305.857C471.542 305.473 472.101 304.705 472.38 304.321C478.259 309.17 484.137 314.019 491.275 320.369C479.392 290.633 455.29 276.088 432.584 259.623C452.657 265.966 472.451 272.693 492.909 279.315C499.423 258.226 475.342 263.056 472.74 248.85C490.02 259.034 507.301 269.219 524.861 279.019C525.419 278.251 525.699 277.866 526.257 277.098C512.508 267.715 498.374 258.052 484.626 248.669C484.905 248.285 485.463 247.516 485.743 247.132C498.511 254.631 510.999 262.514 524.537 270.571C524.479 248.823 502.768 247.158 495.305 232.361C505.975 239.511 516.261 246.383 528.47 254.65C527.173 250.776 526.577 249.171 525.596 247.286C549.94 259.073 604.003 339.929 602.877 364.925C597.942 359.586 593.882 355.469 589.717 350.689C588.774 351.178 587.936 352.33 586.992 352.82C592.983 364.791 599.253 376.377 605.244 388.348C604.301 388.837 603.637 388.942 602.694 389.431C594.431 378.16 586.448 366.504 578.185 355.233C577.242 355.722 576.019 356.596 575.461 357.364C579.558 363.855 583.655 370.346 588.137 377.116C584.817 377.641 583.942 376.42 582.508 375.967C581.353 375.13 580.304 374.956 577.052 373.771C581.043 379.598 583.284 382.983 585.91 386.647C585.073 387.8 584.235 388.952 583.782 390.384C568.637 382.921 552.827 375.564 538.067 368.38C539.433 370.544 541.568 373.265 542.934 375.429C532.724 373.305 523.178 371.076 511.918 368.778C514.054 371.499 515.419 373.663 517.064 375.443C516.506 376.211 515.947 376.979 515.389 377.748C505.979 372.097 496.184 366.168 486.774 360.517C494.236 375.315 508.401 380.893 523.191 383.992C554.486 390.26 584.211 399.495 609.822 419.24C611.747 420.636 614.229 421.263 620.07 423.738C607.094 384.996 615.406 345.264 585.97 312.186C560.699 283.887 549.398 242.84 505.652 231.064C521.358 207.841 535.11 187.307 548.091 166.215C549.661 163.247 546.855 154.172 543.882 152.602C537.166 148.905 528.88 148.177 520.767 146.4C511.221 144.171 498.95 144.073 492.582 138.281C467.876 115.673 442.716 124.413 416.611 133.643C412.068 135.042 407.736 137.767 402.635 139.934C416.947 88.7146 417.213 75.414 378.237 46.5644C391.925 64.1166 410.081 75.5225 406.434 97.5173C403.588 115.986 402.28 135.571 387.088 149.193C370.744 132.061 370.359 131.782 338.925 158.853C334.617 151.036 331.426 141.682 325.336 135.506C322.921 133.169 313.382 137.398 303.141 139.358C325.674 156.871 320.276 176.423 319.664 191.818C312.941 181.663 304.573 169.728 296.484 157.409C276.594 126.56 276.604 103.101 296.747 77.8159C298.702 75.1269 302.264 71.8436 302.121 68.8065C299.859 46.0468 317.708 32.0039 326.079 14.0212C328.939 8.46913 338.026 5.67164 342.916 2.17812C335.921 -1.13461 329.876 1.52169 323.279 11.4045C312.705 28.3759 297.234 42.3827 297.118 65.1786C297.125 71.6368 288.846 77.3663 286.197 84.2448C281.456 97.2336 277.871 111.06 273.062 125.759C257.992 123.044 242.418 106.47 222.607 116.744C225.369 116.987 227.467 117.335 230.229 117.578C260.189 117.597 289.543 139.47 297.509 168.126C297.72 169.453 298.422 171.721 297.864 172.49C286.649 179.023 295.463 183.068 299.349 188.233C301.869 191.234 301.559 195.702 302.857 199.577C286.24 189.287 276.718 176.515 277.082 157.42C276.939 154.383 271.898 148.381 269.906 148.696C263.929 149.642 258.654 152.856 253.273 155.407C255.234 159.176 256.638 163.714 259.543 166.994C267.172 174.286 275.638 180.426 285.365 188.066C271.102 188.283 260.265 188.637 249.044 188.713C248.802 191.471 248.455 193.566 248.213 196.324C253.843 197.473 259.298 199.669 264.822 200.155C279.297 201.265 280.346 201.439 284.94 215.33C281.793 214.808 278.156 213.344 275.605 214.427C270.783 216.21 266.662 220.262 262.33 222.987C266.458 225.394 270.412 228.848 275.098 230.486C278.735 231.95 283.105 231.599 287.021 232.679C280.908 237.046 275.316 238.271 269.234 238.553C254.133 239.922 238.716 239.302 224.211 242.277C190.659 249.625 150.597 218.228 151.189 183.458C154.72 184.259 158.252 185.06 161.399 185.582C161.957 184.814 162.131 183.766 162.689 182.998C155.589 179.022 149.152 174.941 142.051 170.965C143.069 175.224 143.424 179.587 143.529 180.25C124.413 186.335 106.241 191.93 88.0682 197.525C98.2034 194.901 108.233 191.614 118.3 190.701C126.654 189.72 135.431 191.391 144.381 192.014C144.313 193.725 144.245 195.436 144.456 196.762C140.682 198.719 136.735 201.723 132.751 202.354C111.99 206.658 98.7899 219.966 87.0612 236.1C80.3591 245.32 73.3777 254.923 64.2609 261.805C55.1441 268.687 43.4014 271.905 32.9189 276.623C31.938 274.739 30.9572 272.854 30.2555 270.585C37.3495 268.103 44.4434 265.621 51.5374 263.138C51.8166 262.754 51.0469 262.196 50.9413 261.533C45.5229 261.71 39.7196 261.609 33.6371 261.891C37.8731 235.043 52.8167 217.721 72.1132 217.047C71.5922 220.189 71.3505 222.947 70.3085 229.232C77.426 216.207 82.7999 207.197 88.0682 197.525C78.7403 203.08 69.7971 208.915 60.3636 213.807C45.5491 221.25 35.0736 232.427 31.8045 248.242C27.9089 266.537 20.7233 281.272 3.35807 289.799C1.75061 290.394 1.40328 292.488 0.286263 294.025C1.82565 295.141 2.42169 296.747 3.29698 297.968C17.6585 291.956 32.1257 286.608 45.7175 280.038C54.2077 275.635 61.3322 269.068 69.8224 264.665C92.1837 253.308 114.031 251.551 137.605 262.779C152.366 269.963 168.59 273.515 185.796 278.952C182.234 282.235 178.777 286.182 175.215 289.465C158.732 305.672 154.663 325.014 160.524 346.864C162.561 355.381 163.27 364.108 164.363 373.114C165.321 385.541 172.565 392.554 183.469 390.489C205.279 386.358 226.983 381.564 248.793 377.433C227.678 377.374 206.314 373.615 185.945 384.657C177.176 389.445 171.018 384.979 169.993 374.263C169.39 366.199 168.787 358.135 166.576 350.666C158.715 322.673 166.732 300.326 190.799 282.58C201.138 274.825 210.776 264.801 219.086 254.987C230.294 241.995 247.908 237.168 260.781 245.33C259.211 248.298 256.592 251.092 255.686 253.955C254.607 257.866 254.576 261.95 254.161 265.755C258.636 266.067 264.092 268.264 267.865 266.307C271.36 264.734 275.096 260.403 275.79 256.214C277.632 246.403 284.553 244.968 292.348 244.755C299.48 244.646 306.717 245.201 318.429 246.068C293.841 266.956 294.178 288.321 304.062 311.914C305.254 315.125 303.616 319.804 302.816 323.33C295.086 351.751 277.976 370.436 249.563 377.991ZM148.285 246.471C164.683 248.976 180.803 251.865 200.348 254.892C179.413 260.244 163.362 255.644 148.285 246.471C133.351 240.335 118.312 233.535 102.993 227.12C107.113 223.068 110.713 222.159 114.419 221.912C126.757 220.3 139.096 218.688 151.435 217.076C153.812 217.039 156.295 217.667 158.777 218.294C158.324 219.725 158.536 221.052 158.083 222.483C146.687 223.606 135.956 224.624 124.561 225.747C124.772 227.074 124.598 228.121 125.089 229.063C137.639 228.777 150.188 228.492 162.738 228.206C162.95 229.532 162.776 230.58 162.987 231.906C154.248 232.609 146.173 233.206 137.434 233.909C137.261 234.957 137.751 235.899 137.577 236.946C151.946 237.393 166.594 237.455 180.577 237.622C180.404 238.669 180.125 239.053 179.951 240.101C169.325 241.782 158.805 244.126 148.285 246.471ZM318.466 248.442C332.511 240.44 344.111 234.185 357.965 244.232C362.199 247.302 370.236 244.33 376.424 244.711C380.899 245.023 386.038 245.229 390.445 247.252C402.232 252.866 414.019 258.48 424.41 266.015C439.804 277.178 451.077 292.393 448.057 311.909C443.995 337.709 435.737 362.813 428.528 388.091C425.916 397.344 420.497 397.521 412.732 393.65C405.352 390.058 397.481 385.524 389.58 385.074C371.016 383.932 356.988 374.933 342.364 364.328C316.964 345.909 310.816 317.985 301.838 291.528C297.032 276.31 309.319 259.408 325.854 258.492C323.401 253.78 320.881 250.779 318.466 248.442ZM544.41 155.918C534.047 174.216 526.197 189.057 517.683 204.002C510.46 216.364 501.102 226.004 486.318 229.363C480.726 230.588 475.065 233.523 470.175 237.017C446.281 253.716 420.722 249.261 395.404 242.048C386.137 239.434 378.44 233.853 370.675 229.982C371.128 228.551 371.86 226.735 372.698 225.582C376.509 225.999 381.3 228.301 383.746 226.554C388.742 223.724 391.987 218.451 396.108 214.399C391.875 211.329 387.219 205.607 382.849 205.958C368.798 207.501 354.783 211.419 340.558 214.009C339.962 212.404 339.366 210.798 338.664 208.53C347.366 205.453 356.067 202.376 364.874 199.963C369.138 198.948 373.998 199.539 378.367 199.188C377.523 193.882 376.678 188.576 375.169 183.376C374.467 181.107 372.053 178.769 369.042 174.826C385.501 169.162 392.476 153.1 404.528 145.414C420.354 135.771 440.172 131.955 458.835 127.302C463.378 125.904 470.758 129.496 475.097 133.229C488.883 144.986 504.55 149.306 521.786 150.659C529.302 150.829 536.577 153.758 544.41 155.918ZM100.2 230.961C126.816 242.049 153.431 253.136 183.405 266.072C147.506 269.372 123.26 251.79 100.2 230.961ZM348.884 187.195C349.068 162.688 357.135 155.632 377.941 160.16C367.254 170.01 358.069 178.602 348.884 187.195ZM355.6 190.892C344.181 202.557 334.823 212.197 324.627 222.989C327.647 203.473 335.504 195.091 355.6 190.892ZM331.73 197.048C335.302 170.306 340.676 161.296 353.815 156.158C346.418 169.567 338.742 183.36 331.73 197.048ZM373.566 220.346C360.284 222.447 347.002 224.549 330.399 227.176C345.629 215.927 358.21 211.556 373.566 220.346Z" fill="white"/>
<path fill-rule="evenodd" clip-rule="evenodd" d="M142.435 171.244C143.085 158.222 142.302 144.748 145.05 132.074C146.129 128.164 156.159 124.877 162.521 124.21C178.95 122.631 195.031 123.146 211.566 122.23C214.607 122.089 217.611 119.574 220.72 117.722C197.997 118.257 175.448 117.745 152.937 119.607C147.904 120.064 140.221 127.399 138.688 132.741C136.076 141.993 136.611 151.767 137.146 161.542C137.289 164.579 140.194 167.859 142.435 171.244Z" fill="white"/>
<path fill-rule="evenodd" clip-rule="evenodd" d="M350.202 47.94C354.02 54.8151 358.223 61.9693 364.282 72.2295C366.403 62.0349 368.109 55.6456 369.43 48.9772C361.053 60.5017 358.035 50.1002 353.87 45.3198C352.647 46.1932 351.425 47.0666 350.202 47.94Z" fill="white"/>
<path fill-rule="evenodd" clip-rule="evenodd" d="M157.236 150.885C170.427 161.037 183.723 171.852 196.913 182.003C197.472 181.235 198.03 180.467 198.589 179.698C185.678 169.162 172.661 157.963 159.75 147.428C158.912 148.58 158.074 149.732 157.236 150.885Z" fill="white"/>
<path fill-rule="evenodd" clip-rule="evenodd" d="M408.636 290.949C417.283 302.499 426.21 313.665 435.136 324.832C438.058 311.111 428.007 295.023 408.636 290.949Z" fill="white"/>
<path fill-rule="evenodd" clip-rule="evenodd" d="M470.508 222.006C452.788 226.169 435.069 230.333 417.349 234.496C417.56 235.823 418.156 237.428 418.368 238.755C436.087 234.591 453.807 230.428 471.806 225.88C471.315 224.938 470.719 223.332 470.508 222.006Z" fill="white"/>
</svg>
